<!--?xml version="1.0"?-->
<svg xmlns="http://www.w3.org/2000/svg" version="1.2" baseProfile="tiny" width="100%" height="100%" viewBox="0 0 800 689" stroke-linecap="round" stroke-linejoin="round">

<path d="M 171.43 343.12 172.43 342.09 172.46 340.76 174.68 340.29 175.76 338.91 174.62 336.8 172.96 336.94 172.13 335.33 171.09 335.47 170.02 334.35 170.84 333.12 168.67 330.36 169.73 330.28 167.5 326.31 165.71 324.14 162.94 326.49 163.34 328 159.97 328.53 157.78 328.22 157.31 325.39 157.67 324.95 156.64 322.89 157.02 321.53 156.12 320 156.23 318.63 158.74 316.38 158.69 315.11 159.7 315.03 159.29 311.37 158.46 311.29 157.87 309.8 158.27 305.89 158.06 304.34 154.33 305.18 150.9 304.78 150.53 302.67 152.17 302.42 150.48 300.05 147.38 300.72 146.99 300.14 145.36 300.64 145.42 298.7 144.81 298.28 145.32 295.02 144.46 292.67 144.58 291.49 145.69 291.54 145.91 292.58 147.96 292.33 148.15 291.33 152.18 290.3 151.54 289.21 149.33 288.89 148.48 286.98 151.03 286.19 153.95 284.67 154.51 285.68 158.52 283.99 158.81 284.48 162.63 283.14 162.12 282.2 164.14 281.2 164.36 281.76 168.38 280.7 168.7 279.83 167.62 278.12 165.74 276.72 168.98 275.47 167.94 273.85 170.86 273.37 169.04 272.67 169.56 271.05 171.52 270.2 171.06 268.97 173.81 267.79 174.37 266.51 171.87 265.68 172.45 264.38 171.29 264.47 168.65 263.21 168.86 261.34 167.11 261.01 167.13 260.22 169.95 259.81 172.31 257.55 175.8 257.52 176.17 256.28 177.5 256.7 176.47 255.35 176.58 253.83 174.15 253.81 170.71 253.03 168.03 251.55 167.31 249.93 167.76 247.11 175.55 243.81 176.77 244.27 178.49 243.52 179.46 244.59 180.66 243.61 183.62 244.03 186.97 242.78 189.98 241.12 189.63 239.34 189.98 237.41 195.14 233.39 199.65 232.51 199.94 230.8 201.64 229.28 206.23 226.9 206.61 227.82 205.81 228.73 208.92 229.15 209.88 228.66 212.54 228.69 213.02 227.73 215.4 227.88 215.68 225.76 214.44 225.18 216.92 221.87 218.31 221.75 217.92 219.12 219.35 219.54 221.44 218.54 221.59 220.14 223.12 222.21 223.47 225.72 225.63 225.33 224.27 226.47 224.99 228.09 226.5 227.77 227.38 226.63 228.61 226.51 228.76 224.63 229.92 224.32 229.43 227.76 233.25 227.06 233.41 225.96 235.38 224.61 236.68 224.48 236.62 222.83 237.51 222.12 239.33 223.91 241.73 223.32 241.85 222.58 244.08 221.43 243.72 220.43 246.01 220.78 246.97 220.27 249.28 221.22 249.99 219.69 251.64 220.77 254.58 219.79 254.55 218.53 255.66 218.06 255.87 216.79 255.33 215.06 256.87 213.43 258.75 212.95 258.55 211.86 261.32 211.53 262.23 213.25 264.18 214.19 264.93 211.61 266.95 211.55 267.93 212.97 266.87 213.21 266.8 215.08 268.98 215.12 268.65 213.61 271 212.49 272.31 212.49 275.95 210.16 280.34 208 288.52 210.18 291.11 211.03 299.17 214.29 315.89 222.26 316.38 223.31 315.05 225.55 315.26 226.85 318.34 228.51 323.5 231.75 332.44 238.75 339.19 243.21 349.33 250.35 359.46 256.65 366.88 262.07 373.61 268.29 374.32 266.74 370.92 265.44 371.52 264.63 376.37 266.6 380.06 268.7 379.69 269.28 375.58 267.56 374.39 268.91 382.35 275.31 391.98 278.93 404.5 281.73 423.95 285.86 429.31 288.01 433.62 290.57 478.9 316.82 492.09 324.32 497.88 327.7 501.66 330.7 510.07 339.35 547.99 388.89 572.98 412.74 590.58 426.92 593.7 432.05 626.61 464.09 635.73 474.76 644.27 492.66 651.94 520.02 654.98 538.95 656.28 559.32 655.41 573.71 653.67 580.5 648.75 587.6 640.35 594.27 631.16 601.88 630.93 604.41 631.59 606.86 639.76 622.89 624.83 629.84 613.87 612.91 608.52 609.29 602.31 608.57 538.78 607.02 530.38 606.81 500.5 606.53 474.16 606.13 455.35 607.4 428.33 613.78 400.49 622.78 380.04 630.82 357.98 641.75 327.9 656.71 316.79 663.71 290.9 685.84 286.56 687.3 282.15 688.1 270.71 687.91 250.23 686.53 240.83 687.06 239.08 675.88 238.4 675.2 238.54 673.19 237.39 672.87 237.03 670.59 236.24 670.48 235.78 668.64 237.27 667.12 236.47 665.46 238.35 664.39 238.22 662.34 239.33 660.74 238.35 659.25 238.99 658.62 238.02 656.45 238.99 655.57 237.11 654.04 236.34 654.86 233.19 652.16 230.35 648.87 223.67 645.86 222.72 645.09 219.38 643.87 216.52 642.05 215.59 637.51 214.69 635.08 213.43 633.44 213.02 630.99 212.11 629.91 211.41 630.48 208.31 625.33 205.86 624.77 201.16 624.78 198.04 626.28 197.5 627.74 198.16 631.84 196.23 631.99 193.3 628.83 192.79 627.55 191.96 628.76 190.15 628.73 189.82 630.1 188.48 631.02 186.48 631.4 183.44 632.75 181.33 631.23 181.21 629.85 180.17 630.5 176.99 630.88 175.44 632.06 175.41 630.14 172.62 629.78 170.82 628.76 165.91 628.47 163.9 629.94 162.8 629.08 161.26 629.7 158.85 629.72 156.38 628.93 154.03 628.78 150.47 624.69 152.09 623.26 155.08 623.48 155.84 623.01 155.53 620.69 156.77 610.83 157.93 607.76 159.17 605.63 162.06 602.33 162.06 599.48 161.38 600.7 160.25 600.33 159.48 598.55 160.45 597.74 158.73 596.03 157.79 596.67 156.48 596.23 152.43 595.84 150.77 596.43 151.97 595.04 152.21 591.84 154.1 589.56 152.73 587.9 152.1 588.5 149.05 587.15 148.14 585.67 146.84 587.18 143.33 588.38 141.89 587.85 139.26 585.17 139.27 583.92 129.38 588.72 121.64 588.7 117.92 590.76 118.59 591.79 117.76 592.13 118.8 595 115.52 596.26 110.02 598.85 111.25 602.24 109.07 601.82 108.16 600.53 106.12 601.07 107.15 602.13 106.31 602.7 105.68 604.72 104.82 605.06 105.62 606.03 108.3 605.21 109 607.78 104.95 608.72 104.22 606.11 100.44 600.31 91.73 597.21 91.45 596.14 89.44 596.83 87.17 599.03 85.17 601.6 83.5 599.8 80.09 604.36 77.98 603.66 79.03 601.95 76.96 600.22 78.86 598.57 76.95 598.15 77.44 596.76 79.09 594.66 80.7 594.56 81.9 591.39 83.13 591.82 83.75 590.5 85.47 590.23 86.9 587.74 87.78 587.67 89 586.2 90.86 587.03 91.81 585.93 89.49 584.53 92.03 581.95 92.52 580.62 91.21 579.74 93.39 576.87 91.69 575.93 93.39 574.59 94.93 575.44 94.55 574.22 95.76 573.55 94.34 572.69 95.51 571.47 93.86 570.37 93.22 569.21 89.55 569.5 87.95 569.08 88.08 566.12 86.07 565.73 79.64 565.23 79.12 562.79 77.71 561.71 78.97 559.45 79.06 558.06 80.73 557.16 82.41 557.36 82.44 555.89 84.66 556.51 85.78 555.31 85.81 553.96 82.6 553.83 82.97 551.29 83.2 539.38 83.66 537.64 81.74 535.69 80.71 533.85 81.36 533.69 81.31 530.42 80.53 530.39 80.2 527.83 78.9 527.71 78.41 525.89 80.18 525.61 78.94 523.23 79.57 522.55 78.27 520.06 79.25 517.91 81.68 517.72 83.48 516.86 83.51 515.1 84.54 514.75 83.67 513.11 82.81 513.32 81.54 508.08 80.09 506.54 80.23 504.62 77.74 505.03 77.35 503.82 78.62 503.56 78.65 499.94 78.06 497.62 78.56 497.22 77.44 495.88 77.17 493.64 73.92 493.61 73.43 492.67 66.09 492.63 62.07 492.38 63.01 490.57 62.69 489.98 60.51 489.47 59.26 485.5 55.75 484.54 55.11 485.21 53.99 484.71 53.76 487.51 55.16 488.12 54.47 491.78 46.63 492.08 46.31 493.07 48.8 496.15 47.65 496.73 45.19 496.15 43.81 495.14 41.28 494.98 40.8 495.92 36.18 494.56 32.11 495.84 31.5 494.65 31.56 492.18 26.58 491.86 26.11 490.18 26.56 487.27 26.93 480.29 25.64 479.17 24.09 475.74 24.19 474.23 23.18 473.01 22.67 470.97 22.71 468.23 23.45 465.7 25.14 461.43 25.57 456.93 28.44 456.83 28.51 455.7 26.75 453.64 27.01 452.74 25.39 452 23.9 452.17 23.16 449.84 21.3 447.84 21.68 446.5 20.75 446.13 20.64 447.78 18.6 447.91 13.21 446.94 13.72 445.44 12.02 445.73 12.38 444.54 10.39 444.32 10.03 445.15 8.47 445.11 8.33 446.1 6.13 445.87 5.13 444.34 2.7 444.34 1 442.88 1.64 439.61 2.96 439.15 4.12 437.33 6.26 436.04 8.92 433.19 9.16 430.84 9.92 428.92 12.26 426.43 15.05 424.57 25.34 423.81 28.89 424.87 35.51 423.74 43.21 420.74 56.01 422.55 73.95 426.31 78.17 425.46 87.36 425.33 93.8 424.93 96.28 422.52 95.97 421.29 97.93 421.11 98.52 419.39 99.47 419.32 99.71 420.83 102.18 420.28 103.92 421.36 104 423.05 105.37 423.32 107.19 422.18 108.89 418.38 107.03 417.57 106.99 415.91 109.16 414.9 109.26 413.5 111.39 413.16 112.04 415.4 115.23 415.43 116.12 414.21 119.1 414.01 120 415.33 121.11 415.27 120.91 416.61 122.86 416.55 122.09 414.5 124.54 413.79 125.57 411.75 127.4 410.96 126.84 409.76 127.26 408.56 125.49 409.09 125.16 408.2 127.6 407.46 126.5 404.15 124.73 404.55 124.82 402.78 126.48 402.35 125.79 400.76 124.17 398.89 124.07 397.75 126.57 396.95 126.23 396.07 123.06 396.93 122.65 395.78 124.33 395.17 123.57 393.58 123.72 392.1 124.83 391.97 124.62 391.03 123.43 390.78 123.14 389.8 121.52 390 121.42 388.73 122.91 389.11 122.11 386.53 120.84 380.3 119.14 372.95 119.23 371.63 120.33 371.46 120.29 369.44 121.75 369.37 121.87 368.21 120.25 368.19 119.12 367.2 118.34 365.4 119.86 365.05 119.67 362.88 120.12 360.63 118.57 361.15 116.29 360.28 118.19 360.43 118.75 353.85 119.49 348.14 122.62 348.03 124.94 347.43 129.34 346.84 130.34 346.05 131.71 343.65 129.89 342.77 131.8 336.83 133.31 335.07 133.07 334.47 134.92 334.36 136.62 336.48 137.95 337.18 139.9 343.35 143.71 344.84 142.78 343.87 144.41 343.08 146.96 340.19 149.19 338.17 151.66 338.25 152.27 337.66 155.3 338.91 156.44 338.76 156.2 340.5 158.41 341.13 158.77 340.41 162.41 341.91 162.17 342.58 163.85 343.21 165.2 342.54 165.26 343.79 169.51 343.81 171.43 343.12 Z M 642.9 147.75 650.4 197.94 653.63 208.1 654.69 218.88 652.38 228.26 646.71 235.53 638.37 239.8 619.44 248 610.11 252.41 600.41 255.03 594.33 255.8 589.47 255.87 584.25 255.48 575.53 255.08 568.4 254.01 561.99 252.82 553.37 250.39 521.37 238.9 502.11 231.01 475.12 220.05 468.09 218.24 449.74 215.08 442.36 213.9 437.71 212.82 432.61 210.96 397.53 197.06 353.62 172.2 332.41 163.07 321.26 162.65 314.79 163.27 310.16 165.88 296.82 184.38 281.54 173.78 249.13 148.18 186.43 88.21 166.6 69.18 164.73 68.39 151.2 66.22 168.84 50.03 187.37 31.02 198.17 22.56 212.5 15.74 222.13 12.09 227.89 9.6 235.62 5.93 244.66 3.11 250.31 1.99 256.47 1 261.33 1.12 264.48 1.71 268.61 3.4 295.15 17.89 299.22 20.6 304.19 23.49 310.12 30.52 312.28 32.7 315.91 37.09 319.37 39.1 322.13 44.09 319.03 45.27 324.78 54.44 327.57 57.51 330.84 60.38 338.82 63.23 341.33 64.74 344.67 66.07 349.59 67.33 356.86 67.91 363.14 69.47 369.34 69.56 377.65 75.05 378.77 75.52 385.49 77.05 386.45 78.12 392.8 79.76 393.2 81.01 398.58 84.65 399.66 84.41 407.49 90.54 415.25 94.09 423.12 96.41 423.69 97.04 427.37 98.34 428.09 96.11 429.14 96.15 434.31 97.67 443.26 101.41 446.66 102.33 452.04 101.59 493.72 115.15 552.58 127.67 592.64 136.65 642.9 147.75 Z M 530.22 323.86 525.68 323.01 521.84 320.93 519.83 318.04 514.33 308.02 510.59 304.65 508.36 303.03 500.99 298.26 477.32 285.76 451.12 271.68 428.38 259.78 422.04 256.51 411.64 251.62 403.72 244.31 398.74 239.57 395.01 236.5 391.64 234.03 387.11 231.47 379.84 227.94 375.98 224.92 375.39 223.33 375.54 220.78 377.89 218.74 379.89 218.2 382.3 218.38 398.82 220.81 405.96 222.75 408.82 224.39 411.96 232.46 413.69 235.69 417.82 240.03 419.28 240.94 427.46 243.23 431.19 243.96 440.05 246.98 469.94 256.39 478.24 257.46 483.35 258.55 489.73 261 498.57 265.22 501.77 266.38 506.47 267.26 509.17 268.18 515.8 272.11 519.89 275.08 524.78 277.63 527.51 279.79 531.2 283.71 535.4 288.6 537.12 291.23 537.98 293.38 538.34 298.1 540.06 303.53 540.33 309.39 539.98 312.51 538.95 318.5 537.18 321.5 535.41 322.83 532.03 323.79 530.22 323.86 Z M 796.06 261.37 797.98 260.08 799 261.22 796.94 262.08 796.06 261.37 Z M 543.37 297.01 542.68 292.98 541.02 289.74 538.23 285.19 538.83 283.52 540.49 283.18 544.34 283.1 552.37 283.46 556.56 284.61 558.66 285.84 560.58 286.37 568.52 286.91 572.71 288.75 575.94 289.89 582.75 291.83 607.25 300.76 629.44 308.32 658.04 312.93 680.72 316.05 701.92 316.21 724.12 317.53 727.16 320.85 727.56 325.58 717.53 351.45 713.26 355.17 707.24 354.09 698.47 348.75 666.59 339.88 643.24 341.2 618.27 339.39 600.18 334.78 593.78 334.29 580.22 332.62 577.24 332.61 574.89 333.84 572.71 334.1 565.64 332.33 561.64 329.91 560.75 328.73 555.34 325.48 549.93 320.4 546.17 315.84 544.51 313.39 544.16 311.29 543.9 305.16 543.37 297.01 Z M 443.09 246.5 437.25 245.55 435.52 244.84 424.21 238.7 419.68 235.54 414.87 230.72 413.86 229.41 413.68 227.44 414.45 226.78 420.04 226.67 424.86 227.38 428.79 228.22 432.48 229.59 435.4 231.37 442.01 236.61 445.71 239.71 447.68 241.91 448.4 243.69 447.08 245.95 445.65 246.43 443.09 246.5 Z M 328.08 684.32 329.18 684.57 328.15 685.39 328.08 684.32 Z M 624.57 378.23 626.49 373.13 629.05 370.57 632.62 369.65 639.46 369.73 646.05 370.99 651.21 373.04 662.06 375.07 663.48 377.12 664.38 381.37 664.04 391.68 663.23 394 656.89 407.15 654.7 409.61 643.29 410.74 640.37 411.47 637.45 411.48 633.98 410.48 629.96 405.94 627.32 400.65 625.49 394.64 624.21 387.99 623.76 382.7 624.57 378.23 Z M 325.66 678.98 328.05 679.1 329.36 680.34 327.33 681.34 323.95 679.91 323.95 678.9 325.66 678.98 Z M 589.78 363.66 593.96 362.66 598.24 362.94 608.62 366.13 613.27 367.68 615.09 370.05 615.55 373.33 614.36 383.99 612.63 388.91 610.53 390.37 607.7 390.65 604.79 389.83 600.7 386.27 593.59 378.5 591.23 375.33 589.73 372.41 588.77 366.26 589.78 363.66 Z M 316.66 671.22 318.1 671.5 316.57 672.31 316.66 671.22 Z" id="_x4E0A__x6D77__x5E02_" class="area active" title="上海市"></path>

</svg>