<!--?xml version="1.0"?-->
<svg xmlns="http://www.w3.org/2000/svg" version="1.2" baseProfile="tiny" width="100%" height="100%" viewBox="0 0 800 619" stroke-linecap="round" stroke-linejoin="round">

<path d="M 688.07 262.5 688.94 264.98 693.09 264.37 695.09 264.62 697.18 266.86 698.11 269.05 699.63 269.53 699.7 271.79 700.74 275.5 702.28 276.53 701.78 277.51 704.57 277.7 707.56 279.13 706.16 281.68 706.37 283.75 707.46 285.83 707.32 288.06 711.67 290.48 714.56 292.57 715.07 294.8 714.2 296.58 715.71 299.68 718.76 299.65 723.54 298.19 723.52 297.01 726.03 297.26 729.04 295.27 730.09 296.8 731.61 304.34 731.47 305.34 733.22 307.92 732.33 311.86 733.7 313.11 734.46 316.15 735.53 316.29 736.81 318.24 738.37 318.21 740.11 317.06 745.35 316.98 750.25 319.14 751.47 318.81 752.88 321.22 746.72 322.38 747.05 325.56 749.81 326.47 752.66 328.2 747.47 328.98 748.2 331.43 749.31 331.29 749.2 334.13 750.83 333.97 754.4 332.19 758.21 334.25 757.09 335.88 755.74 335.74 752.08 338.03 752.67 339.06 747.87 338.3 748.11 340 746.51 338.52 744.6 338.44 743.39 339.79 741.54 338.38 739.79 339.66 737.62 339.53 736.62 340.3 739 343.12 740.25 345.91 736.85 348.35 738.21 349.1 736.39 350.54 738.82 350.46 738.62 352.04 736.73 352.41 735.84 353.71 728.8 354.79 728.92 354 726 352.11 724.2 352.95 722.37 352.39 720.02 353.53 718.26 357.75 716 359.53 716.01 360.45 711.55 359.51 707.83 362.44 708.21 364.09 707.33 365.43 705.63 364.9 704.46 363 702 362.24 700.15 362.58 697.75 361.36 696.26 362.6 693.54 363.16 692.7 364.45 690.03 366.3 689.87 367.55 688.27 368.17 688.3 369.68 683.25 368.94 683.17 371.16 684.29 372.9 680.59 375.41 680.33 376.54 682.07 376.49 680.96 378.99 678.03 379.95 678.41 379.05 675.84 377.96 674.84 374.19 673.37 373.8 671.91 375.24 673.77 376.73 672.7 378.3 669.64 378.47 668.36 377.51 663.1 376.26 663.74 376.97 662.26 379.35 655.76 381.36 651.82 380.83 648.24 378.17 643.76 378.4 642.29 376.96 635.3 377.14 635.09 379.63 633.54 380.97 633.56 379.54 629.21 380.02 629.59 381.31 627.2 381.85 625.98 382.87 622.48 383.15 623 385.63 622.26 386.28 617.38 386.96 615.29 389.64 612.95 390.99 613.52 392.85 611.76 392.93 612.11 394.32 610.6 393.42 609.53 394.18 606.97 393.88 602.89 394.39 602.69 393.5 599.52 391.73 597.15 390.99 591.98 391.7 590.92 387.27 589.24 387.55 588.11 386.21 581.75 390 581.65 387.25 578.83 387.9 579.29 386.39 576.57 385.95 575.19 384.84 573.69 387.69 571.33 388.75 569.91 385.74 566.93 386.18 565 387.59 560.76 388.26 557.13 388.19 554.41 389.96 552.19 389.83 548.37 386 545.47 384.83 545.2 385.99 538.33 386.27 538.42 387.3 534.99 388.07 535.15 390.6 534.26 391.01 533.94 394.98 532.15 394.01 527.6 393.54 526.41 394.8 522.32 393.47 522.58 392.65 519.27 392.52 517.85 393.42 517.72 395.42 515.53 400.28 515.04 401.37 517.06 404.68 516.91 408.57 513.63 412.57 513.51 414.83 510.9 417.28 510.03 420.5 512.13 422.59 518.9 424.99 519.66 425.82 519.95 430.21 519.58 433.18 519.51 439.99 520.3 443.12 520.47 447.24 521.38 448.99 524.3 451.12 527.9 452.39 527.94 449.74 529.46 449.72 529.48 447.92 531.01 447.89 531.32 451.1 532.8 452.11 535.35 451.93 536.72 452.72 540.39 457.42 541.35 457.03 544.34 459.76 546.36 459.59 548.56 463.63 551.31 464.22 551.52 465.37 553.6 466.08 556.32 466 556.19 464.87 559 465.11 563.52 469.69 565.75 470.42 567.37 469.11 565.58 466.35 565.55 463.71 568.43 462.81 571.12 464.22 574.36 468.62 575.49 474.15 575.23 476.73 575.84 477.79 580.84 481.49 577.76 481.69 579.09 484.75 583.87 485.36 585 487.44 582.79 487.71 583.45 490.32 581.95 490.76 579.46 489.24 577.36 489.07 572.76 489.52 570.77 491.31 572.45 493.92 568.52 496.52 567.64 494.83 565.16 496.01 565.07 499.22 567.21 498.93 569.5 502.75 569.99 504.35 568.56 504.65 569.41 506.67 570.72 506.6 570.84 508.32 568.87 508.26 565.35 509.06 564.38 510.3 559.74 510.55 557.91 513.24 559.55 514.83 559.27 517.61 562.12 521.86 561.94 522.89 559.82 523.74 560.62 525 565.58 523.88 567.92 526.83 566.46 527.29 567.01 528.9 561.09 530.18 558.08 529.69 554.24 531.21 550.73 531.59 549.39 532.78 545.37 532.67 545.93 538.28 541.25 540.31 541.87 541.56 539.12 541.61 539.5 542.48 536.58 543.86 537.35 545.03 536.37 545.81 540.98 549.96 539.33 550.24 539.82 551.96 535.87 553.15 535.47 551.89 533.77 551.2 530.02 552.91 527.11 553.75 522.5 554.43 523.58 557.63 522.26 557.46 522.76 559.96 520.77 559.89 520.61 560.93 517.99 560.97 516.73 558.77 516.47 556.37 512.05 553.17 506.73 550.84 504.94 552.03 502.61 552.58 499.8 551.14 499.68 549.7 497.89 549.26 496.49 550.15 494.31 550.22 491.7 551.54 490.19 550.26 488.43 550.41 489.14 554.47 495.13 557.29 495.14 558.04 497.67 559.21 498.48 561.1 490.1 563.04 488.42 561.9 487.82 560.18 486.78 560.21 485.9 557.93 483.92 559.02 476.69 557.16 476.72 556.57 473.8 556.46 471.67 557.39 472 558.16 467.75 558.78 467.37 557.65 463.57 556.61 463.5 558.47 460.81 558.62 457.82 557.81 457.69 555.82 456.42 555.66 456.34 553.07 455.02 553.18 454.48 551.24 452.96 550.93 453 549.02 450.82 549.09 450.04 550.95 447.53 551.35 446.94 550.32 442.05 549.48 442.12 550.94 436.99 550.9 437.01 552.29 438.4 553.96 437.06 554.2 437.25 556.78 435.6 557.79 433.63 557.87 430.7 559.92 428.69 559.78 428.67 557.07 427.43 557.91 427.78 560.94 423.61 559.7 423.51 558.92 421.16 559.77 421.39 560.81 419.95 562.18 420.67 563.7 419.35 565.37 419.61 567.16 421.81 567.12 422.23 568.77 419.61 569.17 419.23 571.24 416.24 571.61 415.87 573.52 414.9 573.61 415.05 577.13 407.93 577.43 407.82 576.2 401.67 576.35 400.75 575.77 402.34 579.15 403.44 580.12 403.51 583.07 399.93 583.5 398.32 584.54 398.3 586.06 394.22 585.67 394.17 586.5 389.31 586.19 387.99 586.49 388.89 587.7 389.08 590.4 389.98 590.43 390.4 592.84 386.27 593.77 385.77 592.59 383.07 592.9 382.5 590.37 382.85 587.93 381.86 587.03 377.96 587.19 375.78 585.85 374.68 586.35 374.75 591.12 376.44 591.98 376.94 593.55 380.82 594.17 382.41 597.9 380.73 597.91 379.71 601.1 378.09 602.29 378.39 603.45 382.65 602.27 384.1 601.27 385.1 603.73 383.34 603.76 384.48 605.68 386.51 604.93 387.51 603.13 390.52 603.4 390.48 604.67 392.28 605.66 392.23 609.92 394.27 612.82 394.54 614.43 393.01 614.68 392.89 616.25 387.88 617.23 386.8 618.45 383.45 616.88 377.08 615.59 373.59 615.67 370.58 614.58 369.3 615.41 363.58 614.9 361.38 615.06 359.24 613.83 355.02 613.58 354.65 614.58 348.68 613.01 345.28 610.74 345.08 609.52 343.16 608.61 343.12 606.74 341.15 605.73 340.36 604.03 338.16 602.32 337.53 600.74 329.1 598.92 327.6 599.93 326.21 598.44 323.8 598.33 319.46 596.41 319.12 594.51 317.9 592.77 314.84 590.92 315.17 588.94 313.96 587.36 315.09 586.95 315.76 585.06 314.75 585.11 315.1 581.42 313.57 576.4 314.97 574.79 313.76 574.34 312.86 572.15 310.59 572.21 311.26 570.51 308.56 571.62 307.2 570.6 305.43 566.49 300.44 566.95 299.73 564.85 298.01 563.65 295.97 563.75 296.15 562.65 293.75 563.26 293.83 562.49 291.41 561.91 288.6 562.26 288.54 563.83 284.19 564.72 278.95 564.78 278.12 568.72 273.99 569.5 273.85 570.32 270.78 570.76 270.76 570.1 267.4 569.68 267.38 568.02 265.54 568.37 264.45 569.64 261.59 569.52 261.4 567.39 259.71 566.06 259.96 567.55 258.74 567.93 236 569.15 233.61 569.02 233.57 568.14 230.48 567.76 231.04 563.25 228.92 563.8 226.39 563 226.26 564.92 225.07 564.93 223.94 567.15 219.2 567.2 219.87 564.86 217.49 563.61 217.59 560.82 212.8 560.09 212.28 561.91 212.69 568.81 211.33 569.58 209.16 569.52 208.66 571.95 207.07 571.61 204.83 573.36 203.85 571.39 202.11 571.28 201.62 568.64 199.31 568.11 199.35 567.08 197.35 567.05 197.41 565.43 196.21 565.39 195.91 563 194.31 562.29 194.4 560.97 192.09 560.8 191.93 559.48 187.63 558.77 186.76 558.13 185.46 562.26 186.56 562.92 186.21 564.55 188.82 564.95 187.36 568.3 187.74 568.81 185.87 571.09 181.35 569.93 179.06 570.71 180.36 573 180.22 575.15 178.58 575.39 178.17 577.28 176.61 577.11 176.37 578.25 172.68 577.97 172.3 579.02 170.03 578.92 169.91 577.59 168.38 578.08 165.88 575.62 164.31 577.36 162.86 577.42 162.27 580.09 160.8 580.74 155.66 580.84 155.55 583.08 153.99 583.55 153.39 584.96 152.04 584.87 152.27 587.1 153.91 588.06 154.04 589.44 152.25 589.54 153.16 591.21 155.96 591.69 155.66 593.92 152.9 592.98 141.92 592.51 138.99 592.66 136.28 591.33 135.75 591.75 132.27 590.55 133.58 592.42 132.78 593.22 131.48 590.94 129.23 591.3 126.58 590.71 123.31 586.39 122.38 582.76 121.35 581.61 121.48 579.3 116.76 578.24 116.83 579.85 114.79 580.01 114.26 575.72 113.07 573.56 110.43 572.56 106.06 572.47 103.52 571.51 104.41 570.12 106.01 569.67 105.75 566.37 104.04 565.95 104.34 563.11 102.45 561.14 102.46 558.82 100.94 557.04 96.35 555.19 94.14 552.63 94.18 554.77 93.31 556.42 90.24 558.42 87.57 558.07 85.02 558.85 84.26 557.18 81.62 556.97 80.81 559.33 78.29 558.68 75.42 556.9 73.16 558.02 70.4 558.44 68.31 558.12 67.9 559.3 65.5 559.73 63.09 562.49 57.65 561.66 58.42 559.76 55.9 558.59 54.87 556.3 51.03 554.86 50.02 553.08 47.77 551.29 45.15 552.23 42.92 554.08 43.16 555.16 41.9 557.35 39.47 558.85 37.21 559.53 37.41 561.09 36.31 561.81 34.85 556.49 35.71 553.29 39.16 550.67 38.51 549.93 38.02 545.7 38.79 543.2 36.28 542.71 34.61 541.51 32.79 538.56 28.99 538.39 28.19 539.66 22.03 539.24 21.82 537.76 23.58 534.39 26.92 532.23 25.16 530.45 26.31 528.68 25.95 527.3 28.09 525.45 28.85 525.76 30.14 523.62 29.94 521.74 27.41 519.63 26.5 519.75 27.71 517.43 26.88 514.67 25.98 507.63 27.22 505.45 23.48 504.08 19 504.11 17.53 504.85 14.1 503.15 7.01 500.18 5.2 495.92 5.58 493.6 3.86 492.78 2.38 493.66 1.69 492.29 3.96 491.38 5.07 488.89 8.62 487.6 12.2 489.01 14.11 488.94 21.01 485.25 23.83 482.63 27.32 483.63 29.21 485.53 33.55 488.2 35.5 486.44 44.07 485.13 45.27 484.13 51.16 483.81 54 480.71 55.63 480.37 55.55 478.39 56.66 477.06 54.44 475.86 48.55 473.46 47.93 472.21 43.57 470.41 41.86 470.71 40.34 468.68 35.76 467.49 34.42 464.92 36.31 463.93 38.76 459.7 38.59 456.11 40.66 455.47 41.36 453.14 40.26 453.26 36.58 451.44 34.05 451.03 33.67 450.01 39.01 444.38 37.91 442.99 31.7 437.93 28.32 437.12 25.37 434.87 22.86 430.29 19.69 429.18 16.67 428.65 13.74 427.07 12.03 425.58 10.02 425.34 9.08 424.37 6.75 423.91 5.72 424.54 2.05 424.75 1.13 422.71 2.34 419.05 1 417.32 2.61 413.64 2.95 411.79 6.12 409.08 8.82 407.85 11.28 408.38 10.84 405.05 8.41 403 8.16 401.65 11.94 397.87 12.87 394.47 15.21 393.53 18.17 393.63 22.04 392.01 26.03 389.11 25.77 388.2 30.59 385.78 34.21 381.8 33.93 380.82 35.93 380.26 40.65 376.78 44.68 376.13 47.12 376.84 50.13 375.56 51.4 374.28 50.73 370.83 54.43 368.44 56.09 368.96 59.3 367.33 60.2 369.03 62.3 369.6 64.84 369.02 65.49 363.76 66.26 364.22 66.42 361.43 68.05 360.01 71.05 359.99 74.58 361.11 76.55 360.51 77.95 361.43 80.4 360.83 82.1 361.62 85.07 360.96 84.37 359.7 85.4 357.48 89.3 355.71 90.42 356.92 98.41 355.84 99.37 355.18 101.58 355.99 103.91 355.46 105.49 357.45 107.38 356.89 111.15 357.38 110.76 356.6 108.37 356.33 106.45 355.28 109.87 354.56 112.61 354.91 116.03 356.65 119.57 356.43 122.24 355.35 125.34 353.25 127.48 350.3 125.45 347.42 127.28 343.51 130.29 343.75 132.58 342.63 134.41 338.57 139.75 337.61 139.72 340.78 140.83 341.34 145.51 345.99 147.21 347.32 153.21 347.57 155.79 348.57 158.35 350.31 157.77 348.47 162.41 349.67 165.07 348.82 165.15 346.98 162.55 343.54 161.66 341.69 162.59 341.14 165.39 337.14 163.06 335.65 165.89 333.73 168.78 334.79 171.54 334.8 172.83 332.28 173.84 331.81 174.21 329.16 177.65 326.94 176.45 325.82 177.17 324.89 176.42 323.33 179.57 319.8 179.81 318.74 182.29 316.32 182.14 315.59 185.42 316.46 187.43 316.33 189.21 313.31 189.35 311.52 196.54 308.28 199.17 309.05 202.05 308.05 205.77 307.87 207.9 306.81 209.16 304.96 208.44 304.45 206.38 303.07 205.85 300.9 203.94 300.11 202.6 298.19 201.98 295.44 200.47 295.51 200.38 292.77 198.04 289.65 199.59 287.15 197.06 286.35 196.5 284.95 194.03 283.29 193.09 283.84 191.52 281.44 193.25 280.03 191.6 278.77 191.04 276.57 192.06 275.66 190.72 273.59 189.85 270.76 186.51 269.34 180.2 270.12 179.41 269.23 177.24 269.56 176.45 268.6 174.5 268.67 173.8 267.61 172.47 268.58 169.3 268.68 169.29 267.7 167.53 267.62 168.34 266.59 168.31 263.31 166.06 261.9 162.59 262.67 160.21 260.38 159 260.32 158.66 258.63 143.35 242.92 143.52 240.75 140.86 240.77 139.62 239.02 133.42 236.31 134.61 234.8 134.21 233 135.35 233.31 134.56 231.26 136.9 228.71 134.35 229.39 133.4 228.39 133.85 225.36 135.81 223.59 135.63 221.6 137.92 218.03 134.99 217.33 132.53 215.64 123.35 215.67 122.99 216.93 120.3 213.48 122.99 209.72 123.26 207.96 125.13 205.05 127.77 203.17 126.76 201.16 127.56 199.72 129.28 200.15 130.93 199.52 133.33 196.69 134.75 196.46 135.67 195.1 138.87 192.73 141.73 191.61 144.36 192.99 146.58 192.62 150.45 193.1 152.27 192.36 152.93 190.85 152.59 188.97 155.15 181.79 162.33 179.5 165.66 180.6 169.98 179.37 170.57 178.45 177.3 178.67 178.34 177.98 180.86 174.22 182.05 173.75 185.85 170.24 190.64 170.5 193.67 171.98 196.24 171.76 199.92 172.61 201.31 173.48 203.9 173.21 208.59 174.59 208.01 176.46 210.34 175.94 211.53 180.36 214.22 184.85 219.21 184.53 219.55 182.98 222.98 182.91 230.67 174.35 231.91 174.05 232.49 177.85 233.38 176.89 238.04 176.07 240.46 174.51 243.27 174.17 244.96 172.9 247.67 172.93 249.07 172.22 250.29 169.26 253.78 167.75 254.8 166.68 258.76 165.17 260.87 166.54 266.19 166.17 267.61 165.4 266.98 164.14 264.05 161.22 263.59 159.18 264.24 158.2 268.82 156.2 273.29 151.03 275.54 151.29 278.82 152.67 283.11 153.02 284.98 149.13 285.3 146.73 286.47 145.68 287.31 142.87 286.41 140.22 288.27 138.48 288.92 135.67 290.15 133.94 291.59 133.46 294.4 129.23 296.49 128.42 299.52 126.08 299.15 123.44 301.38 122.76 302.41 123.37 305.12 121.64 305.17 119.91 306.24 118.16 310.19 115.83 308.79 114.86 309.47 111.4 310.94 110.01 310.71 106.96 314.61 104.96 315.64 103.64 319.42 105.14 320.63 107.03 323.9 109.24 324.02 111.7 325.65 113.37 325.38 114.69 326.87 115.16 328.41 114.29 332.04 114.33 334.69 117 337.33 117.44 338.54 118.79 339.75 117.65 338.54 114.36 340.54 111.89 342.21 111.14 347.02 110.53 348.16 110.94 351.9 110.79 355.78 111.89 358.87 110.96 361.34 111.63 362.59 111.03 365.98 111.08 370.86 108.77 374.9 108.68 376.66 108 379.13 108.95 379.97 112.21 383.16 112.95 385.82 112.64 388.07 113.17 390.62 112.27 394.26 113.55 398.65 110.92 398.8 110.24 396.82 107.22 397.11 104.9 395.51 101.17 393.57 101.26 393.13 99.79 388.94 97.04 388.9 94.78 387.72 92.61 382.25 91.83 379.39 89.33 376.13 87.79 376.02 86.05 373.41 81.25 370.53 79.6 369.74 76.93 366.7 76.3 364.08 73.23 360.92 71.27 360.69 69.92 358.6 68.13 356.06 67.02 352.56 64.39 351.63 62.41 348.65 60.6 349.03 58.36 348.53 54.41 350.33 52.54 350.73 51.14 354.64 48.61 358 48.59 360.24 45.95 362.35 45.7 366.02 48.71 365.94 49.68 367.57 51.47 367.9 53.64 370.9 57.35 372.26 58.06 373.11 60.06 375.49 60.17 378.9 62.45 380.89 61.47 385.46 61.08 387.64 62.59 392.18 62.39 393.03 61.85 396.06 62.14 398.22 63.76 401.93 63.89 403.28 61.7 401.76 54.83 399.78 52.79 399.32 50.41 397.15 49.89 397.45 48.92 394.8 45.02 394.59 43.46 391.78 41.82 394.01 37.72 393.4 36.16 394.86 31.65 398.14 30.12 401.98 32.36 403.79 32.18 406.34 30.89 409.44 32.63 410.59 32.43 413.55 33.39 418.05 33.67 419.3 31.23 421.26 31.42 424.58 29.66 425.43 28.52 427.85 27.92 430.08 28.78 434.2 28.54 435.2 26.7 438.23 27.39 440.42 29.43 446.06 33.09 449.14 33.84 455.53 30.57 456.5 24.69 455.67 22.84 457.31 18.77 458.35 18.19 458.72 16.31 458.09 13.14 456.7 10.96 455.38 10.43 455.14 8.64 456.76 5.64 456.27 3.83 459.19 3.43 461.76 1 464.47 1.12 465.7 1.95 468.09 1.54 470.57 2.73 471.75 4.62 474.87 6.39 477.95 6.5 479.37 7.89 481.62 8.25 483.81 7.16 485.19 8.63 484.85 9.89 486.28 11.51 486.53 14.51 487.71 16.09 485.8 18.98 484.67 19.25 484.7 21.43 481.69 24.02 481.49 29.45 482.54 30.83 481 31.55 479.73 33.37 479.73 35.28 483.29 38.49 484.07 42.86 486.69 45.37 489.06 46.86 489.21 48.43 490.91 49.38 492.81 49.06 493.45 51.14 496.67 51.89 494.68 54.08 493.25 58.38 494.59 58.48 497.19 59.95 498.13 61.91 499.76 63.21 503.32 63.63 507.33 65.54 510.86 66.23 510.49 69.24 511.86 69.7 514.63 68.86 515.77 70.56 517.46 70.61 525.25 77.61 525.17 79.58 527.23 80.99 527.26 84.35 528.58 84.94 531.51 82.04 534.22 82.11 535.27 84.24 537 84.84 538.45 84.27 540.73 84.67 541.48 85.63 544.7 85.52 544.85 86.35 547.46 87 549.45 88.9 549.76 90.85 553.17 92.28 555.38 92.43 555.59 93.48 557.67 95.11 556.92 98.86 559.5 100.11 560.3 101.15 563.21 101.88 562.55 104.08 562.57 107.49 563.93 109.4 566.22 109.19 573.4 110.55 573.32 113.15 575.12 116.62 573.45 119.38 574.6 121.55 580.01 123.5 580.77 127.29 582.27 128.41 587.42 130.64 589.84 132.86 589.32 135.02 591.04 136.26 594.06 136.56 594.98 137.6 598.12 137.48 598.99 138.22 603.58 139.7 604.74 140.65 607.75 140.94 609.61 140.21 613.26 140.84 614.48 141.68 616.21 140.79 616.41 139.73 619.61 138.54 623.58 138.76 624.9 138.1 631.94 138.67 633.6 137.68 635.47 137.9 638.94 136.56 644.86 135.54 647.58 138.65 651.78 138.33 653.19 139.19 657.02 139.75 658.95 139.08 663.5 140.08 665.5 138.82 667.21 139.03 670.04 141.14 671.68 140.94 672.26 139.8 676.66 140.11 678.12 140.86 679.85 140.37 682.16 140.81 683.01 141.74 685.57 141.75 686.1 142.7 691.63 144.95 692.06 146.09 694.84 147.59 700.62 146.52 702.38 145.87 704.81 147.59 706.96 150.1 708.96 151.07 708.95 152.24 713.46 153.88 725.19 154.6 729.27 153.37 731.47 152.25 731.11 151.29 733.3 148.82 739.91 148.64 744.05 146.43 746.95 146.77 750.31 144.72 754.21 144.87 758.8 143.54 760.94 144.05 762.66 143.66 765.36 144.29 767.76 145.7 769.52 144.94 771.39 147.61 775.87 147.22 780.15 148.78 782.56 148.48 786.72 146.68 787.61 147.43 790.9 148.12 794.55 150.26 799 153.75 798.74 155.4 794.52 156.59 795.35 159.24 794.19 159.85 793.6 163.03 789.6 163.1 788.15 164.06 785.03 163.36 784.1 159.89 783.17 159.88 781.18 157.95 779.82 158.28 778.94 156.59 774.01 157.15 776.82 158.08 774.91 159.07 775.89 160.49 773.93 166.01 771.41 166.17 769.78 167.04 766.83 166.92 762.89 170.16 760.14 174.89 760.9 176.57 763.58 179.45 763.14 180.33 764.13 183.93 766.65 184.74 766.72 185.95 763.38 188.63 760.42 188.33 756.64 186.67 755.5 188.54 753.23 189.09 751.19 191.63 747.04 190.82 745.91 189.13 743.53 188.15 742.27 186.02 737.34 184.92 736.2 183.64 733.43 183.87 730.32 185.82 727.97 186.02 726.83 185.18 721.63 185.23 716.95 189.51 711.62 190.18 709.2 191.98 706.88 191.53 705.1 192.17 701.71 194.83 697.86 196.62 698.27 198.97 697.05 199.65 698.8 201.14 699.99 204.33 702.41 207.73 703.42 208.41 703.05 209.99 700.16 209.3 696.82 210.44 694.04 208.62 690.56 210.74 686.57 209.54 684.68 209.94 683.73 211.99 684.48 212.18 682.22 214.58 682.17 215.74 683.56 217.03 685.79 217.07 689.81 222.14 688.79 224.22 690.75 226.28 693.17 226.92 691.63 229.05 692.89 231.58 695.48 232.01 698.86 233.91 699.04 235.6 703.13 236.99 700.95 239.67 696.79 242.91 695.7 244.45 691.96 246.62 693.27 250.19 692.93 252.84 694.4 254.07 694.48 255.29 693.05 255.42 692.46 257.15 690.04 258.18 689.13 261.35 688.07 262.5 Z" id="_x5317__x4EAC__x5E02_" class="area active" title="北京市"></path>

</svg>