<!--?xml version="1.0"?-->
<svg xmlns="http://www.w3.org/2000/svg" version="1.2" baseProfile="tiny" width="100%" height="100%" viewBox="0 0 800 637" stroke-linecap="round" stroke-linejoin="round">

<path d="M 36.9 342.17 37 341.22 37.57 340.69 38.71 340.18 39.66 340.14 39.68 340.15 39.92 340.71 40.23 341.54 40.23 341.55 40.22 341.57 39.66 341.82 39.28 342.11 38.83 342.35 38.11 342.78 37.62 342.96 37.1 342.78 36.9 342.17 Z M 44.25 325.65 44.38 325.44 44.56 325.43 44.7 325.52 44.75 325.75 44.74 325.77 44.6 325.84 44.4 325.81 44.25 325.67 44.25 325.65 Z M 43.55 324.02 43.66 323.82 43.68 323.8 43.95 323.81 44.11 323.96 44.12 323.98 44.05 324.26 43.81 324.35 43.79 324.35 43.58 324.22 43.55 324.02 Z M 56.12 351.92 56.12 351.91 56.26 351.74 56.28 351.73 56.47 351.83 56.57 351.95 56.57 351.97 56.48 352.13 56.3 352.18 56.13 352.04 56.12 351.92 Z M 5.73 400.77 5.86 400.5 5.88 400.49 6.27 400.49 6.51 400.73 6.51 400.75 6.45 400.98 6.2 401.08 5.93 400.99 5.8 400.9 5.73 400.77 Z M 105.56 374.55 105.67 372.94 106.09 372.02 107.56 370.15 108.47 369.24 109.07 368.47 110.01 367.38 110.58 366.53 111.33 365.48 112.39 364.32 112.92 363.62 113.42 363.19 113.8 363.04 113.82 363.05 114.02 363.37 114.02 363.39 113.11 364.59 111.26 366.7 109.57 369.26 109.12 370.27 109.01 370.91 108.44 371.68 107.87 372.18 107.35 372.81 106.97 373.4 106.71 373.93 106.56 374.39 106.14 374.92 105.98 375.03 105.95 375.02 105.57 374.57 105.56 374.55 Z M 111.95 367.76 112.82 366.27 113.39 365.75 113.88 365.08 114.41 364.48 114.71 364.23 114.98 364.09 115.71 364.15 116.01 364.08 116.03 364.09 116.04 364.1 116.03 364.12 115.17 365.07 114.41 365.81 113.66 366.61 112.52 367.88 112.06 368.1 112.05 368.1 112.03 368.08 111.95 367.76 Z M 229.17 634.41 229.23 634.18 229.3 634.07 229.77 634.1 229.79 634.11 229.79 634.13 229.74 634.42 229.59 634.55 229.32 634.6 229.18 634.43 229.17 634.41 Z M 229.13 635.61 229.23 635.41 229.54 635.28 229.79 635.33 229.93 635.62 229.92 635.64 229.71 635.83 229.7 635.84 229.31 635.79 229.14 635.63 229.13 635.61 Z M 646.14 22.75 646.23 22.47 646.55 22.26 646.66 22.25 647.01 22.34 647.39 22.76 647.48 23.13 647.47 23.15 647.19 23.29 646.37 23.17 646.35 23.16 646.14 22.75 Z M 644.51 22.28 644.69 21.74 644.96 21.49 644.98 21.49 645.35 21.8 645.34 22.62 645.15 22.92 644.76 23.07 644.74 23.06 644.57 22.78 644.51 22.28 Z M 664.58 1.34 664.7 1.22 664.83 1.16 664.86 1.13 664.87 1.11 664.88 1.08 664.91 1.04 664.94 1.02 664.96 1.01 664.98 1 665.03 1.01 665.06 1.03 665.08 1.04 665.11 1.04 665.13 1.03 665.18 1.01 665.24 1 665.32 1 665.44 1.02 665.52 1.06 665.57 1.09 665.6 1.14 665.64 1.2 665.69 1.22 665.72 1.24 665.74 1.28 665.76 1.33 665.8 1.37 665.89 1.45 665.94 1.5 666 1.57 666.02 1.6 666.03 1.62 666.04 1.65 666.07 1.67 666.11 1.7 666.13 1.7 666.14 1.71 666.18 1.78 666.18 1.81 666.19 1.82 666.2 1.82 666.22 1.82 666.24 1.82 666.25 1.83 666.26 1.84 666.27 1.85 666.26 1.86 666.25 1.88 666.23 1.89 666.23 1.9 666.23 1.9 666.23 1.91 666.25 1.92 666.28 1.95 666.31 2 666.31 2.02 666.31 2.03 666.3 2.04 666.28 2.06 666.27 2.07 666.26 2.09 666.25 2.11 666.23 2.15 666.18 2.22 666.17 2.24 666.16 2.26 666.15 2.27 666.14 2.28 666.12 2.31 666.1 2.32 666.08 2.33 666.06 2.32 666.04 2.32 666.03 2.33 666.02 2.34 666 2.35 665.96 2.35 665.95 2.36 665.94 2.37 665.95 2.4 665.93 2.44 665.89 2.48 665.85 2.5 665.82 2.5 665.8 2.48 665.76 2.48 665.73 2.49 665.71 2.51 665.68 2.52 665.64 2.5 665.6 2.5 665.47 2.5 665.42 2.52 665.39 2.53 665.32 2.53 665.22 2.52 665.1 2.49 665.05 2.47 665.01 2.46 664.93 2.44 664.85 2.42 664.82 2.37 664.79 2.34 664.73 2.32 664.69 2.28 664.59 2.17 664.48 2.08 664.45 2.04 664.43 2.01 664.4 2 664.38 1.98 664.35 1.96 664.35 1.93 664.36 1.89 664.35 1.87 664.32 1.85 664.3 1.84 664.29 1.8 664.3 1.76 664.31 1.73 664.34 1.69 664.36 1.63 664.4 1.56 664.58 1.34 Z M 665.91 1.32 665.92 1.31 665.92 1.31 665.93 1.31 665.94 1.32 665.94 1.32 665.94 1.33 665.93 1.33 665.92 1.33 665.91 1.33 665.91 1.33 665.91 1.32 665.91 1.32 Z M 665.87 1.41 665.88 1.4 665.89 1.4 665.9 1.4 665.9 1.4 665.91 1.41 665.91 1.42 665.9 1.42 665.9 1.42 665.88 1.42 665.88 1.42 665.87 1.42 665.87 1.41 665.87 1.41 Z M 666.1 1.58 666.11 1.58 666.12 1.57 666.14 1.57 666.14 1.56 666.14 1.56 666.14 1.55 666.14 1.55 666.13 1.54 666.13 1.54 666.12 1.53 666.12 1.53 666.13 1.52 666.13 1.52 666.14 1.52 666.15 1.52 666.16 1.52 666.16 1.53 666.17 1.54 666.18 1.54 666.19 1.54 666.19 1.55 666.19 1.55 666.19 1.56 666.19 1.56 666.18 1.56 666.17 1.57 666.17 1.57 666.17 1.58 666.17 1.58 666.18 1.58 666.18 1.58 666.18 1.57 666.18 1.57 666.19 1.57 666.2 1.57 666.2 1.57 666.2 1.58 666.2 1.58 666.2 1.58 666.19 1.59 666.19 1.59 666.19 1.6 666.2 1.6 666.21 1.61 666.21 1.61 666.2 1.62 666.19 1.62 666.19 1.63 666.18 1.63 666.18 1.62 666.17 1.62 666.17 1.62 666.16 1.62 666.16 1.62 666.16 1.63 666.16 1.64 666.15 1.65 666.14 1.65 666.12 1.66 666.1 1.66 666.09 1.67 666.09 1.67 666.08 1.67 666.07 1.66 666.07 1.66 666.07 1.64 666.07 1.63 666.07 1.63 666.06 1.63 666.06 1.63 666.06 1.64 666.05 1.64 666.05 1.64 666.04 1.63 666.04 1.62 666.04 1.61 666.04 1.61 666.04 1.61 666.05 1.61 666.06 1.59 666.07 1.59 666.08 1.58 666.1 1.58 Z M 666.33 2.07 666.34 2.07 666.36 2.07 666.37 2.07 666.38 2.08 666.38 2.08 666.38 2.09 666.38 2.09 666.38 2.1 666.37 2.1 666.35 2.1 666.34 2.1 666.33 2.09 666.33 2.08 666.33 2.08 666.33 2.07 Z M 665.99 2.35 666 2.35 666.01 2.35 666.01 2.35 666.01 2.36 666.01 2.36 666.01 2.37 666 2.37 665.99 2.36 665.99 2.36 665.99 2.35 665.99 2.35 Z M 644.17 23.46 644.18 23.45 644.18 23.45 644.18 23.44 644.18 23.44 644.17 23.44 644.17 23.43 644.16 23.42 644.16 23.41 644.17 23.4 644.17 23.39 644.18 23.39 644.18 23.38 644.19 23.38 644.19 23.37 644.18 23.36 644.19 23.36 644.19 23.35 644.2 23.35 644.21 23.35 644.22 23.35 644.23 23.36 644.24 23.37 644.24 23.37 644.24 23.38 644.24 23.39 644.25 23.4 644.26 23.41 644.26 23.41 644.27 23.41 644.27 23.41 644.27 23.42 644.27 23.43 644.27 23.43 644.27 23.44 644.27 23.45 644.28 23.46 644.28 23.47 644.29 23.47 644.3 23.47 644.31 23.47 644.32 23.47 644.32 23.48 644.33 23.49 644.33 23.49 644.34 23.5 644.35 23.5 644.36 23.5 644.37 23.5 644.37 23.51 644.37 23.52 644.36 23.53 644.35 23.54 644.33 23.54 644.31 23.54 644.29 23.54 644.29 23.53 644.29 23.53 644.28 23.53 644.28 23.54 644.28 23.54 644.29 23.55 644.29 23.55 644.28 23.55 644.27 23.55 644.26 23.55 644.25 23.55 644.24 23.55 644.23 23.56 644.22 23.57 644.22 23.58 644.21 23.58 644.2 23.59 644.2 23.59 644.19 23.6 644.18 23.6 644.18 23.6 644.17 23.61 644.16 23.62 644.16 23.62 644.15 23.61 644.15 23.61 644.15 23.6 644.15 23.59 644.15 23.59 644.16 23.58 644.17 23.56 644.17 23.55 644.17 23.54 644.17 23.54 644.17 23.53 644.18 23.53 644.18 23.52 644.19 23.52 644.18 23.52 644.18 23.52 644.18 23.52 644.17 23.52 644.16 23.52 644.16 23.51 644.16 23.51 644.16 23.49 644.17 23.47 644.17 23.46 Z M 644.12 23.65 644.12 23.65 644.13 23.65 644.14 23.66 644.14 23.67 644.13 23.67 644.13 23.68 644.12 23.68 644.11 23.67 644.11 23.67 644.11 23.66 644.11 23.65 644.12 23.65 Z M 643.58 23.75 643.58 23.74 643.58 23.73 643.59 23.72 643.6 23.72 643.61 23.72 643.62 23.71 643.63 23.71 643.64 23.71 643.64 23.71 643.65 23.71 643.66 23.71 643.67 23.72 643.67 23.73 643.67 23.73 643.67 23.73 643.68 23.73 643.68 23.72 643.68 23.72 643.69 23.72 643.7 23.73 643.7 23.73 643.71 23.74 643.72 23.74 643.73 23.75 643.74 23.76 643.74 23.77 643.74 23.79 643.74 23.81 643.74 23.82 643.74 23.83 643.73 23.83 643.71 23.83 643.7 23.83 643.69 23.82 643.68 23.82 643.66 23.82 643.65 23.81 643.63 23.8 643.62 23.79 643.61 23.79 643.6 23.78 643.59 23.77 643.58 23.76 643.58 23.75 Z M 643.75 23.77 643.75 23.76 643.75 23.75 643.75 23.75 643.76 23.75 643.78 23.75 643.79 23.75 643.8 23.74 643.81 23.74 643.83 23.75 643.84 23.75 643.85 23.75 643.86 23.74 643.88 23.74 643.89 23.74 643.91 23.74 643.92 23.75 643.93 23.75 643.94 23.76 643.94 23.77 643.95 23.77 643.95 23.78 643.94 23.79 643.93 23.8 643.92 23.8 643.91 23.8 643.9 23.8 643.88 23.8 643.86 23.81 643.85 23.81 643.83 23.81 643.8 23.81 643.78 23.81 643.77 23.81 643.76 23.79 643.76 23.78 643.75 23.77 Z M 647.73 27.39 647.79 27.36 647.83 27.35 647.84 27.35 647.86 27.35 647.86 27.36 647.87 27.37 647.87 27.39 647.86 27.4 647.83 27.42 647.81 27.43 647.79 27.44 647.76 27.46 647.73 27.47 647.7 27.47 647.65 27.45 647.62 27.43 647.61 27.42 647.59 27.39 647.59 27.37 647.6 27.36 647.61 27.36 647.62 27.36 647.64 27.36 647.65 27.38 647.65 27.4 647.66 27.4 647.66 27.4 647.67 27.4 647.68 27.4 647.7 27.4 647.71 27.4 647.73 27.39 Z M 632.22 28.53 632.46 28.37 632.92 28.18 633.1 28.08 633.16 28.06 633.27 28.06 633.36 28.04 633.4 28.03 633.45 27.99 633.5 27.98 633.6 27.96 633.67 27.97 633.74 27.97 633.86 27.97 633.92 27.96 633.97 27.95 634.13 27.92 634.19 27.92 634.34 27.95 634.45 28 634.52 28.05 634.59 28.12 634.67 28.14 634.76 28.16 634.91 28.17 635.09 28.2 635.12 28.21 635.14 28.2 635.14 28.19 635.15 28.18 635.17 28.18 635.2 28.18 635.21 28.19 635.23 28.22 635.24 28.23 635.26 28.24 635.33 28.24 635.43 28.23 635.49 28.23 635.53 28.24 635.56 28.25 635.57 28.26 635.58 28.25 635.57 28.22 635.58 28.21 635.59 28.2 635.61 28.2 635.67 28.24 635.75 28.32 635.9 28.4 636.03 28.5 636.34 28.74 636.39 28.82 636.55 28.97 636.63 29.1 636.65 29.16 636.65 29.21 636.65 29.25 636.62 29.34 636.53 29.41 636.46 29.45 636.39 29.5 636.29 29.54 636.21 29.55 636.13 29.56 636.08 29.57 636.04 29.59 636 29.61 635.92 29.63 635.85 29.64 635.78 29.64 635.74 29.63 635.69 29.61 635.61 29.63 635.51 29.65 635.45 29.66 635.39 29.64 635.35 29.61 635.29 29.58 635.21 29.58 635.12 29.58 635.07 29.63 635 29.65 634.91 29.65 634.84 29.64 634.76 29.59 634.67 29.56 634.6 29.57 634.55 29.59 634.51 29.6 634.46 29.59 634.43 29.57 634.4 29.51 634.37 29.48 634.34 29.48 634.29 29.47 634.14 29.5 634.09 29.52 634.07 29.53 634.06 29.54 634.03 29.59 633.99 29.62 633.91 29.66 633.87 29.69 633.86 29.7 633.87 29.71 633.9 29.75 633.91 29.78 633.91 29.8 633.9 29.81 633.87 29.83 633.85 29.83 633.83 29.82 633.78 29.77 633.76 29.76 633.74 29.75 633.72 29.76 633.7 29.77 633.68 29.79 633.67 29.82 633.67 29.87 633.69 29.93 633.68 29.95 633.67 29.97 633.65 29.99 633.61 29.99 633.57 29.97 633.5 29.92 633.42 29.87 633.37 29.86 633.31 29.88 633.19 29.95 633.02 30.09 632.83 30.19 632.59 30.25 632.32 30.39 632.15 30.43 631.88 30.43 631.78 30.4 631.73 30.4 631.64 30.39 631.6 30.39 631.53 30.41 631.49 30.4 631.45 30.39 631.43 30.37 631.43 30.33 631.45 30.28 631.44 30.25 631.28 30.03 631.23 29.87 631.2 29.71 631.22 29.54 631.4 29.21 631.68 28.93 632.03 28.7 632.22 28.53 Z M 635.71 28.22 635.7 28.21 635.69 28.18 635.68 28.17 635.68 28.16 635.67 28.15 635.68 28.14 635.68 28.14 635.69 28.14 635.7 28.13 635.7 28.14 635.71 28.14 635.72 28.15 635.73 28.15 635.75 28.15 635.76 28.16 635.77 28.17 635.77 28.18 635.76 28.2 635.75 28.21 635.73 28.22 635.71 28.22 Z M 636.48 29.44 636.49 29.44 636.5 29.43 636.5 29.43 636.51 29.43 636.52 29.43 636.52 29.44 636.52 29.44 636.52 29.45 636.52 29.46 636.52 29.46 636.51 29.47 636.5 29.47 636.49 29.47 636.48 29.47 636.48 29.46 636.48 29.45 636.48 29.45 636.48 29.44 Z M 636.18 29.57 636.19 29.57 636.21 29.57 636.22 29.57 636.22 29.58 636.22 29.58 636.21 29.59 636.2 29.6 636.19 29.61 636.19 29.61 636.18 29.61 636.18 29.61 636.17 29.62 636.16 29.63 636.15 29.63 636.15 29.63 636.15 29.63 636.14 29.62 636.14 29.62 636.15 29.61 636.15 29.61 636.15 29.6 636.16 29.6 636.16 29.59 636.16 29.58 636.16 29.58 636.17 29.57 636.18 29.57 Z M 636.11 29.58 636.12 29.58 636.13 29.57 636.14 29.57 636.14 29.57 636.15 29.57 636.15 29.58 636.15 29.59 636.15 29.59 636.15 29.6 636.14 29.62 636.14 29.63 636.13 29.63 636.12 29.64 636.12 29.63 636.11 29.62 636.11 29.61 636.11 29.6 636.11 29.58 Z M 636.21 29.6 636.21 29.6 636.22 29.59 636.22 29.59 636.22 29.6 636.22 29.6 636.22 29.6 636.22 29.61 636.21 29.62 636.21 29.62 636.2 29.62 636.2 29.62 636.2 29.62 636.2 29.62 636.2 29.61 636.2 29.6 636.21 29.6 Z M 636.14 29.64 636.14 29.64 636.15 29.63 636.15 29.63 636.15 29.63 636.16 29.63 636.16 29.63 636.17 29.62 636.17 29.62 636.17 29.62 636.18 29.62 636.18 29.62 636.18 29.62 636.18 29.62 636.19 29.62 636.19 29.62 636.19 29.62 636.19 29.62 636.2 29.63 636.2 29.63 636.19 29.64 636.18 29.65 636.18 29.66 636.17 29.66 636.17 29.67 636.16 29.67 636.15 29.67 636.15 29.66 636.14 29.66 636.14 29.66 636.14 29.65 636.14 29.64 Z M 633.99 29.64 634 29.63 634.02 29.63 634.04 29.63 634.05 29.64 634.05 29.65 634.05 29.66 634.04 29.68 634.02 29.69 634 29.7 633.98 29.7 633.97 29.7 633.96 29.68 633.97 29.67 633.97 29.65 633.99 29.64 Z M 635.93 29.64 635.93 29.64 635.93 29.64 635.94 29.64 635.94 29.64 635.94 29.64 635.95 29.64 635.95 29.64 635.95 29.64 635.96 29.64 635.96 29.65 635.96 29.65 635.95 29.65 635.95 29.65 635.95 29.65 635.94 29.65 635.94 29.65 635.93 29.65 635.93 29.65 635.93 29.64 635.93 29.64 Z M 635.96 29.64 635.96 29.64 635.96 29.64 635.96 29.64 635.97 29.64 635.97 29.64 635.97 29.64 635.97 29.65 635.97 29.65 635.97 29.65 635.97 29.65 635.97 29.65 635.96 29.65 635.96 29.65 635.96 29.65 635.96 29.65 635.96 29.65 635.96 29.64 635.96 29.64 635.96 29.64 Z M 635.91 29.64 635.92 29.64 635.92 29.64 635.93 29.64 635.93 29.64 635.93 29.64 635.93 29.65 635.93 29.65 635.92 29.65 635.92 29.65 635.92 29.65 635.91 29.65 635.91 29.64 635.91 29.64 635.91 29.64 Z M 635.85 29.66 635.86 29.65 635.87 29.65 635.88 29.65 635.89 29.65 635.9 29.65 635.91 29.66 635.91 29.66 635.91 29.67 635.9 29.67 635.9 29.68 635.88 29.68 635.86 29.68 635.86 29.67 635.85 29.67 635.85 29.66 635.85 29.66 Z M 635.81 29.67 635.82 29.67 635.83 29.67 635.83 29.67 635.84 29.68 635.85 29.68 635.85 29.69 635.84 29.69 635.83 29.69 635.82 29.69 635.81 29.68 635.81 29.68 635.81 29.67 Z M 631.71 30.44 631.72 30.42 631.73 30.41 631.75 30.41 631.77 30.41 631.79 30.42 631.81 30.42 631.81 30.44 631.81 30.46 631.81 30.47 631.79 30.48 631.77 30.49 631.75 30.49 631.74 30.48 631.72 30.47 631.72 30.45 631.71 30.44 Z M 644.04 31.05 644.12 31.13 644.19 31.21 644.23 31.27 644.25 31.33 644.28 31.35 644.29 31.35 644.31 31.35 644.33 31.34 644.4 31.34 644.44 31.36 644.5 31.37 644.52 31.39 644.53 31.42 644.53 31.45 644.52 31.46 644.49 31.48 644.47 31.51 644.42 31.55 644.4 31.55 644.38 31.55 644.37 31.56 644.37 31.57 644.38 31.58 644.4 31.58 644.42 31.59 644.43 31.61 644.43 31.63 644.42 31.65 644.39 31.67 644.38 31.68 644.36 31.68 644.33 31.68 644.32 31.69 644.32 31.7 644.31 31.71 644.31 31.71 644.32 31.72 644.33 31.72 644.36 31.72 644.39 31.75 644.4 31.77 644.41 31.79 644.41 31.81 644.4 31.82 644.39 31.83 644.33 31.85 644.24 31.87 644.16 31.89 644.12 31.9 644.1 31.92 644.06 31.96 644.05 31.97 644.01 31.98 643.99 31.96 643.98 31.94 643.99 31.91 644.01 31.87 644.01 31.86 643.99 31.86 643.97 31.88 643.94 31.9 643.91 31.9 643.89 31.89 643.88 31.86 643.88 31.84 643.89 31.8 643.89 31.73 643.9 31.63 643.89 31.57 643.88 31.53 643.86 31.49 643.84 31.47 643.8 31.44 643.72 31.36 643.68 31.32 643.66 31.28 643.61 31.19 643.52 31.05 643.49 31.01 643.47 31 643.46 31 643.45 31 643.43 31.01 643.39 31.02 643.35 31.02 643.33 31.01 643.32 30.99 643.33 30.96 643.34 30.95 643.36 30.92 643.39 30.91 643.43 30.88 643.45 30.85 643.5 30.83 643.56 30.8 643.61 30.79 643.64 30.78 643.65 30.77 643.66 30.73 643.68 30.64 643.69 30.6 643.7 30.59 643.72 30.59 643.75 30.57 643.79 30.56 643.81 30.54 643.85 30.53 643.89 30.54 643.91 30.54 643.93 30.55 643.95 30.57 643.96 30.58 643.96 30.59 643.96 30.61 643.95 30.62 643.94 30.63 643.92 30.64 643.91 30.64 643.9 30.66 643.89 30.67 643.89 30.68 643.89 30.69 643.92 30.71 643.93 30.72 643.94 30.75 643.93 30.78 643.91 30.82 643.9 30.85 643.91 30.9 643.93 30.93 643.95 30.93 643.97 30.93 643.98 30.94 643.99 30.95 643.99 30.97 643.98 30.98 643.97 30.99 643.98 31 644 31 644.02 31.02 644.04 31.05 Z M 643.99 30.95 644 30.94 644.01 30.93 644.02 30.93 644.03 30.94 644.04 30.94 644.04 30.95 644.04 30.95 644.04 30.96 644.03 30.97 644.01 30.98 644.01 30.98 644 30.97 643.99 30.96 643.99 30.95 643.99 30.95 Z M 644.03 31 644.04 31 644.05 31.01 644.05 31.01 644.05 31.02 644.04 31.02 644.03 31.02 644.02 31.02 644.02 31.02 644.01 31.01 644.01 31.01 644.01 31 644.02 31 644.02 31 644.03 31 Z M 644.45 31.54 644.46 31.53 644.46 31.53 644.47 31.54 644.47 31.54 644.47 31.55 644.47 31.56 644.47 31.56 644.46 31.56 644.45 31.57 644.44 31.57 644.44 31.58 644.43 31.58 644.42 31.58 644.41 31.58 644.41 31.57 644.41 31.57 644.41 31.56 644.41 31.56 644.42 31.55 644.43 31.55 644.44 31.54 644.45 31.54 Z M 645.14 31.9 645.23 31.89 645.32 31.88 645.35 31.88 645.37 31.89 645.43 31.94 645.48 31.98 645.53 32.01 645.6 32.04 645.66 32.06 645.72 32.09 645.8 32.14 645.86 32.19 645.92 32.25 645.96 32.3 645.97 32.31 645.97 32.32 645.97 32.36 645.98 32.38 645.98 32.39 645.98 32.4 645.99 32.4 646 32.39 646.01 32.39 646.03 32.4 646.04 32.41 646.05 32.42 646.05 32.44 646.07 32.51 646.07 32.53 646.07 32.54 646.06 32.56 646.05 32.6 646.04 32.62 646.02 32.64 645.99 32.65 645.95 32.66 645.91 32.67 645.88 32.68 645.76 32.68 645.55 32.67 645.34 32.64 645.16 32.59 645.03 32.54 644.94 32.49 644.92 32.49 644.9 32.49 644.87 32.5 644.86 32.5 644.85 32.5 644.84 32.49 644.84 32.48 644.83 32.46 644.83 32.45 644.81 32.43 644.75 32.42 644.69 32.4 644.64 32.41 644.59 32.4 644.51 32.38 644.5 32.38 644.48 32.38 644.45 32.4 644.43 32.41 644.42 32.4 644.42 32.39 644.42 32.38 644.42 32.34 644.42 32.31 644.41 32.3 644.4 32.28 644.38 32.26 644.38 32.25 644.38 32.25 644.39 32.24 644.42 32.2 644.43 32.2 644.44 32.19 644.45 32.19 644.45 32.19 644.46 32.18 644.45 32.17 644.45 32.16 644.45 32.14 644.47 32.09 644.5 32.03 644.54 31.99 644.65 31.96 644.76 31.93 644.84 31.93 644.95 31.92 645.14 31.9 Z M 644.34 32.08 644.35 32.07 644.36 32.07 644.37 32.08 644.37 32.08 644.37 32.09 644.36 32.1 644.35 32.1 644.34 32.1 644.34 32.1 644.33 32.1 644.33 32.09 644.34 32.08 644.34 32.08 Z M 644.28 32.12 644.29 32.12 644.3 32.12 644.31 32.12 644.32 32.12 644.32 32.11 644.34 32.11 644.35 32.11 644.36 32.1 644.36 32.1 644.36 32.1 644.36 32.11 644.36 32.12 644.35 32.13 644.35 32.14 644.34 32.14 644.33 32.15 644.32 32.15 644.32 32.15 644.31 32.15 644.31 32.15 644.31 32.15 644.32 32.16 644.32 32.17 644.32 32.17 644.31 32.17 644.3 32.17 644.29 32.17 644.28 32.16 644.27 32.16 644.27 32.15 644.27 32.14 644.28 32.13 644.28 32.12 Z M 644.4 32.19 644.41 32.18 644.42 32.17 644.43 32.17 644.43 32.18 644.43 32.18 644.43 32.19 644.43 32.19 644.42 32.19 644.41 32.2 644.39 32.22 644.39 32.23 644.38 32.23 644.38 32.22 644.38 32.22 644.38 32.21 644.4 32.19 Z M 644.13 32.29 644.14 32.28 644.15 32.28 644.15 32.29 644.17 32.29 644.18 32.3 644.18 32.31 644.18 32.31 644.18 32.32 644.18 32.33 644.18 32.34 644.17 32.34 644.16 32.34 644.15 32.33 644.14 32.32 644.14 32.31 644.13 32.31 644.13 32.3 644.13 32.3 644.13 32.29 Z M 644.11 32.31 644.12 32.31 644.13 32.31 644.13 32.31 644.14 32.32 644.14 32.32 644.14 32.33 644.13 32.33 644.12 32.34 644.11 32.34 644.11 32.34 644.11 32.34 644.1 32.33 644.1 32.33 644.1 32.32 644.11 32.32 644.11 32.31 Z M 646.14 32.44 646.14 32.44 646.15 32.44 646.16 32.44 646.16 32.44 646.16 32.45 646.16 32.45 646.16 32.46 646.16 32.46 646.15 32.46 646.14 32.46 646.14 32.45 646.14 32.44 Z M 646.18 32.48 646.19 32.47 646.2 32.47 646.2 32.48 646.21 32.48 646.2 32.49 646.2 32.5 646.19 32.5 646.18 32.5 646.18 32.5 646.18 32.49 646.18 32.48 646.18 32.48 Z M 646.09 32.5 646.1 32.5 646.1 32.5 646.11 32.5 646.11 32.5 646.11 32.51 646.11 32.51 646.1 32.52 646.1 32.52 646.09 32.51 646.09 32.51 646.09 32.5 646.09 32.5 Z M 646.17 32.52 646.18 32.52 646.18 32.51 646.18 32.51 646.19 32.52 646.19 32.52 646.19 32.52 646.19 32.52 646.2 32.53 646.2 32.53 646.2 32.53 646.2 32.53 646.2 32.54 646.2 32.54 646.2 32.55 646.2 32.55 646.2 32.55 646.2 32.55 646.19 32.55 646.19 32.55 646.18 32.55 646.18 32.55 646.18 32.55 646.18 32.55 646.18 32.55 646.18 32.54 646.18 32.54 646.18 32.54 646.17 32.54 646.17 32.54 646.17 32.54 646.17 32.53 646.17 32.53 646.17 32.52 646.17 32.52 646.17 32.52 Z M 646.07 32.56 646.07 32.55 646.07 32.54 646.07 32.54 646.08 32.54 646.08 32.55 646.08 32.56 646.09 32.56 646.09 32.57 646.09 32.58 646.09 32.58 646.09 32.59 646.08 32.59 646.08 32.59 646.08 32.6 646.08 32.6 646.07 32.6 646.07 32.6 646.06 32.6 646.06 32.59 646.06 32.58 646.06 32.58 646.07 32.56 Z M 646.16 32.55 646.17 32.55 646.17 32.55 646.17 32.55 646.18 32.55 646.18 32.55 646.19 32.55 646.19 32.55 646.19 32.56 646.19 32.56 646.19 32.56 646.19 32.57 646.19 32.57 646.18 32.58 646.18 32.58 646.17 32.58 646.17 32.58 646.17 32.58 646.17 32.59 646.18 32.59 646.18 32.59 646.18 32.6 646.17 32.61 646.17 32.61 646.16 32.61 646.16 32.61 646.16 32.61 646.16 32.6 646.16 32.6 646.16 32.59 646.16 32.59 646.16 32.58 646.15 32.58 646.15 32.57 646.15 32.57 646.15 32.57 646.16 32.56 646.16 32.56 646.16 32.55 Z M 649.28 26.68 649.42 26.18 649.73 25.92 649.75 25.91 649.99 26.05 650.11 26.16 650.21 26.53 649.99 27.01 649.87 27.18 649.84 27.18 649.6 27.08 649.28 26.7 649.28 26.68 Z M 798.03 2.23 798.02 2.16 798.05 2.1 798.07 2.07 798.08 2.05 798.16 1.99 798.18 1.98 798.2 1.95 798.21 1.93 798.21 1.93 798.25 1.89 798.28 1.88 798.37 1.87 798.46 1.86 798.62 1.87 798.87 1.91 798.94 1.94 798.97 1.96 798.99 1.98 799 2.01 799 2.03 798.99 2.06 798.97 2.09 798.96 2.1 798.86 2.13 798.82 2.15 798.78 2.16 798.72 2.16 798.66 2.17 798.61 2.18 798.57 2.21 798.53 2.21 798.47 2.22 798.44 2.23 798.38 2.24 798.3 2.26 798.21 2.27 798.14 2.29 798.07 2.28 798.03 2.23 Z M 172.13 530.94 166.42 527.6 160.82 524.15 158.7 523.11 149.88 517.24 146.39 512.85 144.3 507.97 135.16 488.38 132.06 476.88 127.36 461.67 125.67 450.79 125.17 446.88 124.9 445.91 124.66 445.64 119.87 443.9 111.48 439.9 109.17 438.57 108.05 436.83 107.56 434.85 107.83 431.95 108.21 429.59 108.91 427.5 109.93 425.41 111 423.58 113.25 415.27 116.1 406.07 116.53 403.23 117.06 401.57 118.03 400.28 119.53 398.3 121.08 394.07 121.64 388.68 121.96 383.91 122.63 376.37 123.19 369.22 122.95 368.33 122.07 366.07 120.09 361.7 119.31 359.26 119.1 356.63 119.64 353.95 120.09 350.36 120.47 341.51 120.31 339.36 120.79 338.29 123.04 335.4 125.12 333.31 126.88 330.08 128.86 327.08 130.52 324.57 131.35 323.18 134.74 321.38 137.27 320.03 140.25 318.7 142.05 318.14 143.53 316.43 144.07 314.9 145.52 308.78 145.76 307.47 146.99 304.87 148.87 302.91 151.07 301.02 152.76 296.19 156.68 289.75 159.1 284.86 164.3 275.91 169.49 270.38 173.34 266.1 174.51 261.9 176.24 256.99 180.7 251.02 183.91 246.43 187.76 237.55 194.28 228.14 198.78 223.42 202.43 219.35 204.58 212.51 206.88 206.94 209.41 202.54 212.31 200.07 216.81 196.79 218.56 195.27 220.62 193.77 224.26 192.06 226.9 190.71 229.95 189.21 231.8 187.18 234.18 184.42 235.03 183.22 235.78 182.44 238.02 180.88 238.7 180.47 239.7 178.66 240.37 177.16 241.12 171.59 241.55 168.07 242.17 166.14 242.84 164.32 243.8 162.36 245.73 159.07 247.69 156.21 249.57 152.88 250.81 150.9 253.04 148.6 256.02 145.89 258.22 142.77 259 140.91 259.68 137.67 260.11 136.38 260.51 135.65 261.26 135.2 261.93 134.9 263.06 134.63 265.24 134.52 267.24 133.63 270.03 131.63 271.29 130.84 272.28 130.38 275.31 130.17 276.13 130.13 277.01 129.84 280.08 127.18 284.57 124.67 288.58 122.48 292.71 121.63 305.31 120.41 311.08 118.69 313.31 117.5 316.05 114.15 317.65 109.28 319.63 105.48 324.34 100.66 327.07 98.9 330.62 97.27 335.13 95.73 338.13 95.04 342.13 94.84 345.72 94.83 348.37 95.53 351.5 97 354.43 101.04 355.61 103.34 356.41 105.03 357.08 105.55 359.23 106.4 361.27 106.56 363.25 107.3 364.11 108.54 364.01 111 364.33 112.69 368.75 116.3 370.09 117.18 370.89 117.37 373.33 117.21 375.74 117.41 379.05 118.22 381.57 119.19 383.76 120.91 384.83 121.23 388.76 121.24 394.19 120.81 396.22 120.84 397.16 121.48 398 122.03 398.17 122.65 397.94 123.57 398.13 126.2 398.15 129.09 398.58 130.56 399.98 135.96 400.84 136.95 401.85 137.14 403.36 136.94 405.91 137.13 407.31 137.66 408.33 138.22 408.94 138.62 410.27 139.48 410.77 140.61 410.69 141.59 408.02 143.98 404.47 146.79 398.62 151.14 396.05 154.04 391.71 158.78 389.2 161.16 385.27 166.71 384.52 170.25 384.25 174.75 384.2 178.28 384.73 182.25 387.94 191.77 392.48 199.92 392.75 202.11 392.11 209.91 391.41 213.33 389.7 215.96 389.11 217.73 388.68 221.05 387.51 222.92 382.48 229.47 380.82 235.63 379.81 242.32 376.49 247.46 372.42 252.57 365.94 262.06 363.36 265.27 361.54 267.36 360.25 270.9 359.88 273.53 357.78 276.45 354.67 279.02 353.86 281.06 354.08 284.11 354.99 286.2 356.82 289.36 357.3 291.45 357.03 292.84 354.29 297.85 351.29 305.94 346.14 330.23 338.92 355.96 336.3 364.04 335.98 367.23 336.33 369.72 336.06 372.48 335.72 373.31 334.33 376.13 332.46 382.13 330.78 391.3 330.14 395.07 329.68 396.95 328.69 398.74 328 399.7 327.09 400.69 325.43 402.46 323.72 404.59 322.6 406.86 321.45 410.13 321.61 411.47 321.31 412.44 319.87 416.16 319.84 417.15 320.4 420.11 321.77 423.87 322.2 425.1 322.25 426.38 322.01 427.12 321.65 427.82 320.96 428.57 320.11 429.36 319.04 430.35 317.96 430.93 316.13 431.74 314.85 431.95 313.46 432.73 313.08 433.13 311.74 437.48 310.7 444.43 308.82 448.78 306.13 454.22 303.66 458.03 298.78 464.63 296.04 467.42 293.95 469.41 292.94 470.85 289.94 477.84 288.76 480.84 286.89 483.68 282.69 488.07 278.81 490.71 268.69 496.2 264.39 497.9 261.82 499.08 260.98 500.09 259.33 504.66 259.28 507.49 259.03 509.2 257.61 510.38 256.06 511.91 253.97 517.7 249.56 532.85 246.18 543.3 243.82 552.01 243.31 557.71 242.88 565.7 242.48 572.18 242.13 576.56 242.07 578.81 242.18 579.83 242.56 580.85 243.09 581.97 243.41 584.92 243.2 590.9 242.66 592.99 241.94 594.36 241.11 595.27 239.96 597.25 239 598.78 237.26 599.56 236.45 600.42 236.08 602.21 236.16 604.97 236.56 607.62 236.96 610.22 237.42 613.65 236.53 614.93 235.78 615.46 234.66 615.78 232.89 615.46 231.82 614.87 229.58 612.67 223.53 609.61 221.23 609.07 219.89 609.02 218.5 609.95 217.71 610.88 215.96 611 214.26 610.63 212.82 610.2 211.37 609.13 207.93 602.74 206.22 600.6 203.75 593 203.75 591.07 204.61 589.57 205.36 587.85 205.2 581.86 204.93 574.57 203.8 568.68 202.81 563.58 202.08 561.33 200.96 559.22 198.6 555.02 195.79 549.76 193.14 545.66 191.34 543.03 188.97 540.83 183.39 535.91 181.56 534.77 178.13 533.29 172.13 530.94 Z M 44.05 333.5 44.85 333.07 45.07 332.83 45.59 332.03 45.77 331.85 45.77 331.57 45.87 331.3 46.12 331.17 46.48 331.21 46.58 331.37 46.55 331.58 46.44 331.71 46.46 331.86 46.56 331.95 46.81 332 47.2 332.03 47.5 332.18 47.86 332.6 47.96 332.99 48 333.33 47.89 333.57 47.52 333.7 47.07 333.74 47.01 333.83 46.99 334.02 46.97 334.3 46.86 334.36 46.32 334.21 46 334.18 45.74 334.25 45.55 334.43 45.32 334.86 45.08 335.51 44.96 335.83 44.84 335.83 44.69 335.72 44.7 335.52 44.73 335.28 44.45 334.55 44.34 334.48 44.13 334.4 43.87 334.39 43.8 334.24 43.79 333.97 43.89 333.71 44.05 333.5 Z M 37.38 336.8 37.55 336.66 37.63 336.64 37.78 336.65 37.95 336.7 38.02 336.81 38.03 336.97 38.05 337.01 38.1 337.02 38.15 337.03 38.18 337.01 38.2 336.93 38.2 336.85 38.23 336.82 38.27 336.81 38.3 336.86 38.31 337.01 38.28 337.14 38.27 337.17 38.17 337.18 38.07 337.15 38.03 337.16 38.02 337.2 38.06 337.25 38.1 337.35 38.08 337.42 37.94 337.58 37.92 337.63 37.95 337.68 37.97 337.78 37.95 337.85 37.95 337.89 37.98 337.92 38.05 337.99 38.05 338.02 38.02 338.09 38.05 338.16 38.11 338.17 38.18 338.21 38.18 338.27 38.09 338.36 37.9 338.47 37.85 338.52 37.72 338.55 37.69 338.51 37.68 338.43 37.64 338.38 37.58 338.31 37.56 338.25 37.58 338.15 37.64 338.1 37.74 338.03 37.8 337.8 37.78 337.69 37.72 337.56 37.74 337.47 37.78 337.38 37.82 337.34 37.82 337.28 37.77 337.25 37.65 337.25 37.53 337.2 37.45 337.08 37.38 336.98 37.35 336.89 37.38 336.8 Z M 52.76 345.79 52.92 345.62 53.07 345.55 53.45 345.5 53.59 345.5 53.72 345.47 53.84 345.41 53.99 345.38 54.12 345.4 54.21 345.43 54.4 345.43 54.52 345.5 54.66 345.64 54.67 345.71 54.64 345.82 54.45 346 54.09 346.12 53.94 346.19 53.86 346.27 53.75 346.3 53.3 346.18 53.23 346.18 53.14 346.25 53.05 346.28 52.8 346.06 52.73 345.97 52.72 345.86 52.76 345.79 Z M 29.56 350.83 29.62 350.05 29.84 349.52 29.99 349.45 30.26 349.36 30.61 348.77 30.81 347.92 31.16 347.46 31.63 347.29 32.07 347.35 32.73 347.89 33.55 348.58 34.02 348.81 34.94 348.95 35.69 348.69 35.99 348.79 36.12 349.07 36.08 349.36 35.58 350.26 35.13 350.4 34.2 350.55 33.03 350.74 32.74 350.8 32.53 350.94 32.46 351.22 32.49 351.7 32.7 352.57 32.88 353.39 32.92 354.42 32.88 355.21 32.46 356.05 32.27 356.14 31.98 356.15 31.63 356.14 31.5 356.26 31.48 356.53 31.87 357.18 31.95 357.4 31.73 358 31.57 358.41 31.51 358.6 31.56 358.96 31.65 359.33 31.98 359.79 32.17 360.24 32.05 360.48 31.52 360.84 31 360.75 29.64 360.52 29.18 360.37 28.92 360.14 28.75 360.14 28.52 360.19 28.27 360.42 28.09 360.75 27.65 360.83 26.99 360.83 26.44 361.02 25.68 361.33 25.11 361.4 24.45 361.24 24.25 361.06 24.2 360.74 24.44 360.34 25.7 359.77 25.98 359.53 26.33 358.87 26.66 358.72 26.92 358.75 27.35 359.08 27.88 359.35 28.28 359.34 28.77 359.05 28.92 358.78 29.05 358.49 29.44 358.39 29.59 358.14 29.82 357.37 29.7 356.91 29.46 356.61 28.85 356.25 28.15 356.09 28.03 355.82 28.15 355.33 28.42 355.06 28.8 355.06 28.96 355.26 29 355.46 29.14 355.5 29.46 355.51 29.61 355.17 29.61 354.53 29.8 353.99 29.99 353.52 30.24 353.33 30.3 353.17 30.22 353.04 29.89 352.87 29.52 352.48 29.37 352.18 29.37 351.84 29.6 351.46 29.65 351.07 29.56 350.83 Z M 45.05 352.12 45.38 351.87 45.45 351.73 45.55 351.7 45.69 351.71 45.93 351.84 46.2 351.94 46.49 351.94 46.6 351.96 46.67 352.04 46.68 352.31 46.68 352.99 46.48 353.28 46.06 353.64 45.59 353.69 45.39 353.72 45.21 353.81 45.11 353.8 44.84 353.58 44.51 353.46 44.5 353.37 44.56 353.2 44.53 353.15 44.07 352.87 43.97 352.61 43.96 352.5 44.04 352.39 44.14 352.35 44.27 352.36 44.52 352.41 44.68 352.41 44.88 352.31 45.05 352.12 Z M 37.37 344.61 39.74 343.86 40.9 343.58 41.79 343.17 42.35 343.22 42.87 343.73 43.34 343.91 43.66 343.92 43.88 343.75 44.17 343.66 44.84 343.86 45.48 344.4 45.81 345.15 46.2 345.45 46.17 345.64 45.99 345.91 46.1 346.5 46.49 347.04 46.46 347.64 46.3 348.15 46.02 348.23 45.49 348.06 45.05 348.13 44.8 348.47 44.81 348.94 44.95 349.31 45.34 349.44 45.95 349.51 46.26 349.76 46.16 350.19 45.82 350.39 45.54 350.39 45.37 350.5 45.28 350.86 45.29 351.27 45.15 351.64 44.87 351.93 44.47 352.13 44.17 352.03 44.12 351.68 43.89 351.61 43.52 351.61 43.24 351.78 42.88 351.92 42.67 351.86 42.57 351.64 42.77 350.67 43.03 350.37 43.44 350.08 43.56 349.47 43.39 349.17 42.54 348.66 41.69 347.42 41.17 346.5 41.18 346.16 40.9 345.99 40.45 345.97 39.8 346.46 39.46 347.15 39.1 347.48 38.73 347.52 37.67 347.22 36.91 346.69 36.67 346.17 36.87 345.25 37.37 344.61 Z M 50.84 362.18 50.13 362.75 49.67 363.32 48.51 363.96 48.03 364.47 47.63 364.78 47.15 364.71 46.64 364.96 46.05 366.06 45.98 366.43 46 366.6 46.43 366.75 46.46 367.19 46.3 367.62 46 367.85 45.8 368.19 45.89 368.78 45.86 369.1 45.66 369.37 45.24 369.34 44.19 368.98 43.44 368.86 42.78 368.9 41.35 369.27 40.68 369.5 40.11 369.38 39.86 369.03 39.86 368.56 39.92 368.08 39.99 367.63 39.8 367.11 39.47 366.84 38.88 366.76 38.27 366.96 37.93 366.89 37.51 366.44 37.27 366.1 37.26 365.82 37.25 365.59 37.11 365.47 36.88 365.45 36.72 365.38 36.59 365.19 36.51 364.89 36.34 364.74 36.18 364.73 35.81 364.77 35.42 364.63 35.2 364.05 35.37 363.2 35.92 362.33 36.3 361.85 36.85 361.84 37.23 362.52 37.3 362.9 37.37 363.56 37.91 364.34 38.14 364.88 38.15 365.3 38.27 365.47 38.46 365.53 38.76 365.03 39.38 364.85 39.98 365.08 40.23 365.31 40.42 365.87 40.7 366.06 41.08 366.02 41.23 365.7 41.48 365.25 41.89 365.24 42.66 365.38 43.1 365.56 43.55 365.44 43.65 365.18 43.55 364.8 43.59 364.49 43.78 364.23 43.92 363.92 43.95 363.58 43.86 363.29 43.41 363.08 42.47 363.05 40.64 363.48 39.34 363.28 38.73 362.92 38.58 362.25 38.56 361.81 38.64 361.48 38.81 361.42 39.22 361.61 39.53 361.67 39.72 361.62 39.8 361.4 39.73 361.14 39.5 360.96 38.74 361.18 38.29 361.25 37.95 361.18 37.76 360.98 37.76 360.74 37.86 360.57 38.17 360.53 38.24 360.36 38.15 359.86 38.13 359.61 38.36 359.38 38.73 359.18 39.08 358.97 39.19 358.71 38.9 358.09 38.47 357.49 38.49 357.27 38.73 357.04 39.67 357.03 40.65 356.97 41.05 356.63 41.29 356.08 41.59 355.83 41.98 355.74 42.28 355.97 42.55 356.58 42.64 357.23 42.99 358.18 43.32 358.52 43.71 358.56 44.07 358.41 44.04 357.9 44.22 357.46 44.64 357.24 45.03 356.78 45.12 356.17 44.83 355.59 44.74 354.75 45.07 354.24 45.38 354.11 46.96 354.03 47.39 353.93 47.86 353.54 48.78 353.41 49.2 353.72 49.89 354.72 50.38 354.86 51 354.72 51.42 354.13 51.73 353.51 52.42 353.3 52.88 353.4 53.36 353.99 53.5 354.58 53.88 354.99 54.23 355.06 54.58 355.03 54.92 354.4 55.23 354.37 55.72 354.71 56.48 355.78 57.42 357.27 57.49 359.04 57.59 360.08 58.15 360.53 58.95 360.84 59.4 361.36 59.22 362.22 57.73 362.74 56.52 362.89 55.37 362.58 54.26 361.89 53.15 361.51 51.63 361.68 50.84 362.18 Z M 30.6 372.05 30.6 371.7 30.66 371.58 30.84 371.46 31.21 371.47 31.37 371.57 31.4 371.76 31.44 371.89 31.55 371.98 31.73 372 31.94 372.03 32.05 372.03 32.24 371.92 32.34 371.75 32.36 371.57 32.36 371.49 32.52 371.35 33.05 371.27 33.44 371.08 33.73 370.85 34.2 370.78 34.5 370.82 34.71 370.77 34.83 370.62 34.99 370.52 35.14 370.52 35.82 370.88 36.04 371.09 36.04 371.24 35.97 371.37 35.71 371.47 35.42 371.46 35.01 371.61 33.91 372.39 33.57 372.51 33.15 372.47 32.69 372.54 32.34 372.66 32.09 372.61 31.8 372.7 31.48 372.96 31.2 373.01 30.88 373.02 30.62 372.84 30.53 372.52 30.6 372.05 Z M 31.76 369.1 31.46 368.96 31.36 368.81 31.39 368.59 31.58 368.39 31.63 368.16 31.71 368.02 31.84 367.98 31.95 368 32.08 368.1 32.22 368.12 32.33 368.07 32.49 367.97 32.64 367.98 32.72 368.11 32.75 368.43 32.77 368.77 32.69 368.91 32.35 369.11 31.76 369.1 Z M 32.2 390.49 32.48 390.41 32.66 390.51 32.91 390.56 33.09 390.5 33.16 390.31 33.04 390.1 33.07 389.91 33.38 389.62 33.63 389.6 33.77 389.72 33.87 389.71 33.95 389.68 34 389.58 34.13 389.55 34.29 389.58 34.53 389.53 34.71 389.42 34.96 389.36 35.3 389.46 35.6 389.65 35.7 389.87 35.74 390.29 35.77 390.46 35.84 390.62 35.86 390.77 35.81 390.85 35.66 390.89 35.42 390.75 35.22 390.77 34.97 390.86 34.8 390.83 34.45 390.71 34.23 390.73 33.82 390.96 33.5 391.19 33.35 391.47 33.36 391.64 33.34 391.81 33.15 391.93 32.98 391.91 32.93 391.65 32.85 391.59 32.62 391.56 32.45 391.56 32.27 391.48 32.09 391.07 32.06 390.79 32.2 390.49 Z M 28.24 387.16 28.19 386.87 28.02 386.66 27.75 386.42 27.75 386.11 28.09 385.94 28.51 385.94 28.93 386.37 29.06 386.74 29.15 386.87 29.44 386.91 29.51 386.88 29.75 386.59 29.96 386.39 30.15 386.36 30.43 386.47 30.67 386.76 30.67 387.06 30.6 387.36 30.51 388.07 30.71 388.59 30.72 388.95 30.89 389.16 31.08 389.29 31.08 389.42 30.77 389.69 30.81 389.9 31.07 389.92 31.24 389.81 31.39 389.48 31.57 389.33 31.85 389.43 31.92 389.69 31.86 390.46 31.63 390.59 31.22 390.71 30.92 390.76 30.76 390.85 30.73 390.97 30.83 391.29 30.86 391.53 30.73 391.77 30.85 392.14 31.3 392.5 31.3 392.67 31.2 392.75 30.59 392.68 30.21 392.58 29.95 392.46 29.54 392.51 29.18 392.54 28.69 392.54 28.16 392.64 27.9 392.71 27.7 392.66 27.41 392.42 27.37 392.14 27.44 391.71 27.82 391.16 28.25 390.87 28.31 390.55 28.12 390.04 27.97 389.18 28.01 388.33 28.16 388.03 28.37 387.87 28.4 387.56 28.29 387.4 28.24 387.16 Z M 1.46 384.62 1.5 384.51 1.56 384.48 1.64 384.4 1.7 384.24 1.68 384.04 1.65 383.96 1.67 383.85 1.74 383.71 1.86 383.62 1.97 383.62 2.3 383.77 2.69 384.04 2.85 384.2 2.87 384.26 2.87 384.31 2.92 384.36 3.03 384.36 3.13 384.28 3.3 384.28 3.52 384.38 3.68 384.53 3.76 384.68 3.76 384.79 3.67 384.9 3.54 384.99 3.39 385.05 3.32 385.1 3.26 385.22 3.25 385.47 3.17 385.53 2.97 385.64 2.53 385.75 2.34 385.75 2.2 385.77 2.02 385.88 1.84 385.91 1.75 385.9 1.54 385.98 1.4 386.05 1.31 386.01 1.17 385.78 1 385.39 1.02 385.09 1.18 384.85 1.46 384.62 Z M 1.81 396.86 1.9 396.8 1.91 396.76 1.92 396.57 1.93 396.54 1.95 396.52 1.99 396.51 2.02 396.51 2.03 396.54 2.07 396.74 2.09 396.8 2.22 396.9 2.25 396.94 2.28 397 2.34 397.03 2.41 397.05 2.44 397.08 2.44 397.1 2.4 397.16 2.3 397.19 2.2 397.18 2.11 397.17 2.09 397.14 2.09 397.1 2.07 397.07 2.03 397.06 2.02 397.07 1.98 397.11 1.94 397.13 1.91 397.12 1.89 397.1 1.89 397.05 1.86 397.02 1.81 396.99 1.79 396.95 1.79 396.9 1.81 396.86 Z M 4.21 397.56 4.21 397.45 4.24 397.35 4.31 397.24 4.35 397.2 4.48 397.2 4.55 397.22 4.68 397.38 4.7 397.45 4.68 397.53 4.65 397.64 4.66 397.7 4.71 397.74 4.8 397.8 4.84 397.89 4.83 398 4.78 398.03 4.67 398.06 4.62 398.11 4.53 398.13 4.43 398.1 4.36 398.08 4.27 398.08 4.23 398.03 4.19 397.9 4.2 397.74 4.21 397.56 Z M 16.7 413.01 19.01 412.64 20.22 412.43 21.13 412.57 21.55 412.86 21.56 413.09 21.19 413.67 21 414.28 20.96 415.17 20.94 415.78 20.73 416.04 20.48 416.02 20.08 415.94 19.74 415.95 19.26 416.24 18.99 416.78 19.05 417.4 18.95 417.66 18.72 417.74 18.51 417.68 17.43 417.4 16.67 417.17 16.47 417.04 16.39 416.75 16.5 416.46 16.9 416.1 17.07 415.59 16.73 415.2 16.37 414.86 15.79 414.25 15.6 413.83 15.63 413.52 15.9 413.22 16.7 413.01 Z M 30 405.58 29.77 405.24 29.74 404.99 29.81 404.84 29.91 404.8 30.05 404.8 30.34 404.86 30.67 404.82 30.83 404.88 30.91 404.95 31.03 405.33 31 405.6 31.02 405.71 30.97 405.8 30.87 405.8 30.48 405.74 30.27 405.71 30 405.58 Z M 31.59 406.22 31.88 406.05 32.13 406.02 32.3 406.06 32.42 406.12 32.58 406.13 32.7 406.18 32.75 406.29 32.75 406.48 32.64 406.62 32.47 406.73 32.35 406.73 32.28 406.76 32.25 406.82 32.26 406.89 32.24 406.95 32.18 406.97 32.11 407.02 32.08 407.12 32.01 407.19 31.9 407.22 31.83 407.28 31.81 407.33 31.81 407.44 31.81 407.54 31.75 407.6 31.64 407.6 31.49 407.5 31.3 407.51 31.2 407.61 31.18 407.73 31.06 407.82 30.92 407.82 30.81 407.74 30.77 407.54 30.79 407.37 30.85 407.28 31.05 407.17 31.19 407.09 31.38 406.91 31.43 406.66 31.43 406.53 31.49 406.33 31.59 406.22 Z M 45.82 408.05 46.37 407.85 47.04 407.71 47.43 407.78 47.75 407.86 47.85 407.96 47.85 408.12 47.74 408.29 47.6 408.43 47.52 408.53 47.52 408.66 47.58 408.7 47.68 408.77 47.75 408.95 47.7 409.04 47.57 409.07 47.45 409.07 47.3 409.11 47.11 409.22 46.97 409.25 46.71 409.18 46.63 409.1 46.47 409.04 46.33 409.02 46.09 408.9 45.96 408.68 45.88 408.65 45.79 408.6 45.73 408.48 45.73 408.27 45.76 408.11 45.82 408.05 Z M 54.46 406.58 55.25 406.24 55.95 406.21 56.53 406.33 56.67 406.55 56.63 406.86 56.47 407.08 56.45 407.25 56.46 407.48 56.38 407.59 56.1 407.72 55.88 407.86 55.74 408.13 55.69 408.45 55.75 408.71 55.65 408.88 55.46 409.23 55.41 409.27 55.33 409.28 55.27 409.27 54.91 408.9 54.79 408.65 54.65 408.58 54.36 408.21 54.37 408.05 54.49 407.81 54.52 407.6 54.51 407.41 54.42 407.3 54.34 407.11 54.33 406.82 54.38 406.66 54.46 406.58 Z M 158.67 548.27 159.64 547.58 159.87 546.9 159.98 546.07 160.03 545.62 160.2 545.32 160.95 544.72 161.43 544.54 162.94 543.97 163.58 544.09 164.82 545.02 164.97 545.33 164.82 545.99 164.23 546.79 163.05 547.46 162.12 548.33 161.52 548.85 160.77 549.49 160 549.8 159.46 549.81 158.79 549.31 158.51 548.76 158.67 548.27 Z M 349.09 606.03 348.94 605.82 348.93 605.66 349.09 605.53 349.36 605.52 350.12 605.25 350.37 605.22 350.62 605.23 350.74 605.32 350.81 605.52 350.85 605.87 350.85 606.27 350.84 606.57 350.76 606.74 350.58 606.91 350.2 607.03 349.87 607.04 349.61 606.96 349.5 606.81 349.39 606.56 349.38 606.33 349.27 606.17 349.09 606.03 Z M 334.4 584.78 335.45 585.53 335.93 585.64 340.33 585.46 341.97 585.26 343.13 585 343.96 584.98 344.29 585.2 344.55 585.99 344.4 586.52 344.27 587 344.29 587.92 344.79 588.73 345.1 589.24 345.12 589.57 344.97 589.72 344.36 589.74 343.98 589.78 343.65 590.27 343.65 590.95 343.85 591.8 344.2 592.39 345.28 593.1 347.09 594 348.7 594.59 348.96 595.03 348.96 595.6 348.76 596.3 348.14 597.56 347.17 598.74 346.58 598.81 345.68 598.81 343.47 598 342.61 596.22 341.56 595.38 340.45 595.14 339.02 595.14 337.97 594.67 336.03 592.63 334.29 591.54 333.96 590.66 334.14 588.93 334.44 588.53 334.49 587.98 334.16 587.37 333.02 586.55 332.71 586.18 332.71 585.48 332.91 585 333.57 584.71 334.4 584.78 Z M 327.96 495.14 329.27 495.42 330.22 495.51 330.92 495.18 331.43 495.09 331.71 495.13 332 494.99 332.2 494.99 332.27 495.17 332.65 495.26 333.14 495.28 333.95 495.03 334.75 494.98 335.03 495.18 335.07 495.63 335.17 496.34 335.49 496.85 335.52 497.25 335.33 497.55 335.19 497.85 335.15 498.37 335.19 498.92 334.98 499.25 334.54 499.37 334.14 499.69 333.95 500.09 333.96 500.44 334.24 501.04 334.75 501.51 334.86 501.95 334.59 502.34 334.14 502.44 333.09 502.4 332.6 502.37 332.32 501.98 332.2 501.45 331.5 500.98 330.29 500.59 329.69 500.57 329.22 500.46 328.98 500.16 328.94 499.78 329.17 499.25 329.26 498.65 328.99 498.27 328.78 497.63 328.47 497.25 327.98 496.72 327.79 495.91 327.7 495.3 327.96 495.14 Z M 399.57 165.51 400.07 165.89 400.43 165.99 400.68 166 400.82 165.87 401.02 165.52 401.39 164.94 401.76 164.81 402.11 164.81 402.68 164.98 403.21 165.3 403.35 165.64 403.46 166.08 403.58 166.3 403.81 166.37 404.04 166.44 404.12 166.58 404.09 166.91 404.01 167.16 403.7 167.37 403.47 167.4 403.26 167.37 403.12 167.2 402.97 167.15 402.56 167.18 402.11 167.26 401.71 167.27 401.2 167.27 400.4 166.96 400.1 166.36 399.92 166.1 399.59 165.9 399.4 165.74 399.35 165.59 399.38 165.5 399.46 165.47 399.57 165.51 Z M 399 76.06 399.92 75.65 400.95 75.58 401.6 75.9 402.2 76.67 402.28 77.49 402.16 78.19 401.84 78.75 401.2 78.84 400.16 78.84 399.28 78.56 399.01 77.78 398.7 76.94 399 76.06 Z M 424.17 66.35 425.2 66.23 426.08 66.42 426.75 66.93 427.05 67.58 427.24 68.58 427.11 69.09 426.61 69.74 425.7 70.19 424.77 70.09 423.65 69.53 423.24 68.85 423.08 68.11 423.38 67.01 424.17 66.35 Z M 420.36 46.59 420.48 46.22 420.67 46.03 421.2 45.86 421.74 45.79 422.08 45.81 422.25 45.84 422.38 46 422.47 46.47 422.43 46.63 422.32 46.86 422.01 47.04 421.97 47.13 421.98 47.24 421.91 47.43 421.68 47.53 421.42 47.55 421.23 47.49 421.04 47.22 420.45 46.92 420.39 46.77 420.36 46.59 Z" id="_x53F0__x6E7E__x7701_" class="area active" title="台湾省"></path>

</svg>