<!--?xml version="1.0"?-->
<svg xmlns="http://www.w3.org/2000/svg" version="1.2" baseProfile="tiny" width="100%" height="100%" viewBox="0 0 800 1000" stroke-linecap="round" stroke-linejoin="round">

<path d="M 622.62 502.01 606.01 496.19 583.94 497.93 585.46 508.91 568.34 510.24 566.93 499.3 565.93 495.34 562.78 495.12 557.64 496.67 558.4 497.99 550.87 498.96 549.91 502.3 546.37 503.28 545.94 499.77 543.92 499.87 543.52 497.38 533.61 498.22 533.72 495.89 531.95 494.75 531.83 492.34 526.12 490.95 526.36 492.75 523.63 493.56 519.81 499.19 510.92 499.93 508.34 499.69 508.55 502.21 506.91 504.02 501.99 504.46 502.34 506.49 498.09 506.76 500.55 510.87 497.61 512.64 492.38 513.42 493.06 515.36 489.41 515.73 487.3 517.67 488.43 523.75 486.61 524.49 483.83 522 481.92 522.62 483.31 525.12 478.8 527.54 483.74 533.31 486.3 532.4 487.82 538.82 507.53 536.13 522.54 532.3 523.85 534.68 529.39 533.57 530.73 535.81 535.11 535.07 535.5 538.8 546.06 535.44 550.06 535.1 550.09 538.1 547.38 540.04 550.32 542.57 552.62 547.82 555.18 548.18 555.18 552.24 562.83 551.27 566.05 546.99 567.01 528 579.68 528.42 579.59 530.8 588.89 530.78 610.31 529.09 633.8 515.92 645.98 518.09 644.86 524.71 646.85 527.71 652.54 529.24 655.22 528.2 662.39 528.08 664.64 531.31 674.16 525.48 671.14 521.73 673.48 520.26 675.05 522.06 674.17 524.17 678.53 523.09 679.87 524.57 674.22 530.82 672.24 536.28 670 535.99 667.52 539.78 671.07 542.23 670.42 544.43 672.05 545.09 675.64 544 675.39 542.37 678.93 541.08 682.41 543.63 689.03 542.48 694.92 542.43 697.55 545.09 697.05 547.62 703.19 549.15 705.03 551.7 707.72 549.71 721.3 549.99 724.86 550.84 729.5 550.73 732.02 552.12 740.47 551.53 744.14 552.74 744.28 555.32 747.28 560.79 750.25 561.96 750.89 563.82 755.81 563.14 757.62 564.98 757.91 567.77 764.2 567.35 770.34 570.52 773.5 568.85 774.97 565.63 777.13 566.82 779.07 569.77 777.14 574.29 781.19 576.06 780.07 577.89 782.08 581.73 797.85 586.55 798.51 587.08 799 599.14 798.49 601.62 782.23 602.02 782.27 607.99 779.74 608.27 747.16 616.47 744.72 626.55 739.63 636.02 716.76 648.53 684.99 665.47 677.58 674.92 670.17 685.55 666.63 694.15 664.85 704.01 665.83 718.2 670.74 731.22 672.68 741.69 673.75 759.26 675.4 762.42 700.42 767.73 701.12 771.87 697.2 781.57 687.29 784.33 677.85 802.78 678.77 807.17 678.09 812.94 670.72 822.38 662.9 822.61 655.77 821.44 630.22 814.48 624.46 817.48 614.77 827.16 577.75 833.28 559.25 833.82 552.4 837.98 552.61 861.64 557.32 867.84 567.35 871.55 601.18 875.79 605.47 877.79 608.35 882.16 608.04 913.85 606.89 920.27 601.17 925.59 558.65 937.09 554.24 940.61 550.13 947.22 548.25 956.94 514.81 961.74 500.51 964.53 498.58 962.65 494.09 962.15 491.38 965.71 489.2 966.92 490.89 970.55 483.66 972.19 480.75 971.91 482.34 968.76 480.18 968.91 480.53 965.81 476.19 966.56 473.35 964.45 469.68 964.42 468.24 962.12 463.82 963.52 454.14 962.51 455.66 965.86 452.46 967.42 449.78 966.04 426.81 971.87 416.89 978.16 413.65 976.21 408.45 979.69 413.16 981.38 405.57 987.6 389.55 993.37 389.45 982.95 381.15 983.96 383.09 989.96 378.82 992.74 378.64 995.26 376.26 993.26 363.61 993.45 358.02 997.52 353.84 998.76 352.27 998.15 351.36 993.45 348.92 989.42 344.02 989.3 344.39 994.74 336.59 996.11 328.62 998.08 327.54 994.82 321.45 998.4 317.51 992.12 316.68 992.08 313.36 985.16 315.06 985.15 326.83 982.21 326.22 980.45 312.73 983.79 312.41 981.31 316.84 975.4 323.5 973.62 322.59 971.2 325.18 970.85 324.83 967.75 323.08 964.53 317.54 961.68 312.08 961.35 310.83 958.57 308.23 958.54 311.7 954.3 304.91 954.55 307.63 951.69 308.02 948.14 304.95 946.86 300.13 947.42 297.81 949.32 296.23 954.99 292.08 955.2 292.42 957.11 290.33 959.78 283.9 960.09 282.01 962.93 280.69 961.96 276.43 961.93 270.85 963.76 269.81 962.51 261.45 962.23 261.29 967.17 259.37 968.75 253.9 970.34 252.82 973.39 245.87 972.69 244.14 974 242.89 978.72 236.98 979.05 237.19 981.54 230.35 980.35 229.92 978.11 227.29 975.92 229.68 975.28 229.57 972.4 223.9 972.73 223.37 968.9 214.68 968.31 213.82 962.8 210.4 951.66 208.19 951.66 208.34 949.66 205.3 949.57 203.02 947.08 205.73 946.21 205.57 940.79 209.06 928.92 212.69 925.24 209.81 925.36 209.88 923.88 204.57 923.11 203.7 921.67 198.83 921.97 199.3 918.25 195.59 920.64 195.71 917.14 197.1 912.92 199.23 910.47 197.49 910.05 181.88 913.63 181.13 919.78 174.35 919.5 168.41 918.41 169.36 916.38 143.92 919.99 141.59 919.97 140.64 922.17 131.96 922.24 129.6 921.25 129.9 925.59 124.26 925.85 126.32 921.55 119.94 922.35 115.78 924.5 111.53 925.45 100.5 925.21 99.5 924.04 99.44 917.88 97.33 912.76 99.24 906.44 97.88 904.38 94.14 903.87 96.29 896.29 94.71 886.9 90.54 887.43 89.81 889.58 62.65 887.81 53.03 886.42 49.9 887.38 49.9 890.32 45.68 891.33 45.96 890.05 42.64 889.99 40.38 888.71 35.28 889.21 33.2 884.16 30.93 881.61 23.5 881.98 23.92 876.9 26.44 866.72 21.16 866.35 21.42 864.48 18.23 864.21 20.63 857.31 23.18 857.58 23.38 855.91 20.24 855.54 22.16 851.96 18.9 850.94 22.88 845.24 23.46 840.6 25.13 840.72 26.38 836.7 22 836.53 21.6 834.56 23.34 824.84 9.87 824.21 9.41 798.03 1 798.05 1.06 777.58 2.16 777.53 2.27 773.36 5.82 773.4 7.07 771.04 9.58 763.08 9.83 757.16 11.19 757.24 13.1 752.01 16.79 750.53 17.05 748.92 20.01 748.79 23 742.57 25.98 741.05 27.08 735.48 28.38 735.63 29.39 729.83 28.59 726.28 31.01 725.07 31.17 718.93 26.68 717.24 26.7 714.62 29.56 707.95 31.99 707.8 39.2 709.97 40.27 707.88 42.62 708.47 44.12 706.11 44.24 703.16 47.31 702.65 47.61 701.12 53.41 702.11 52.79 704.41 46.25 704.78 45.27 708.02 47.89 706.56 53.34 705.54 56.64 707.6 66.22 707.58 67.98 710.04 73.56 708.41 79.84 708.49 90.59 707.8 90.51 706.06 97.18 705.38 96.16 702.48 98.4 701.93 96.14 696.43 100.8 694.85 102.95 695.37 103.74 691.71 105.97 692.1 108.34 687.65 110.43 687.96 111.91 683.64 114.96 684.05 117.4 676.92 119.46 676.94 120.37 672.25 125.18 673.31 127.77 667.8 129.19 667.2 125.47 667.02 124.69 664.9 127.84 664.63 125.01 656.07 122.87 656.25 122.07 651.61 119.28 648.91 110.29 646.57 96.25 647.2 93.74 644.93 93.69 635.56 92.16 634.68 92.87 630.51 92.21 628.3 92.2 619.16 90.78 616.67 88.6 616.8 87.86 610.74 97.18 609.56 99.51 610.27 98.91 602.29 101.73 602.3 102.27 604.9 104.17 604.56 104.82 607.48 106.7 605.59 109.51 605.89 108.26 603.78 109.11 601.65 105.55 600.72 104.98 596.13 103.51 597.24 100.1 595.91 99.6 588.31 101.36 587.41 97.18 579.23 99.93 578.61 99 571.08 97.61 566.31 94.37 566.61 92.22 565.49 91.83 562.66 94.39 562.34 95 559.7 104.57 558.01 103.31 553.11 106.25 552.75 107.63 547.6 106.24 542.26 107.88 541.96 107.73 538.75 103.03 537.28 99.6 538.15 97.61 536.94 96.78 533.62 97.77 530.16 99.78 530.22 98.92 528.07 96.65 527.39 90.47 529.33 91.26 532.05 89.01 533.19 83.96 537.98 82.76 535.46 80.3 537.25 72.22 538.34 68.66 527.15 74.76 525.66 75.59 522.41 70.86 523.79 67.19 522.02 65.73 517.96 69.02 518.3 77.16 517.63 76.79 515.4 79.26 513.26 77.35 507.62 78.41 505.91 75.69 504.14 75.11 500.82 78.12 499.68 77.49 496.26 78.62 494.38 81.1 495.03 85.6 494.26 85.93 492.49 90.78 488.15 93.03 487.58 92.87 484.46 96.78 486.31 99.67 482.09 95.56 480.52 92 480.75 87.69 476.92 82.8 478.07 82.84 479.67 78.72 479.09 74.17 481.54 70.98 479.7 70.79 475.55 64.31 471.99 61.13 472.54 59.43 475.58 54.99 473.22 52.69 474.86 50.56 470.73 53.87 472.64 53.92 468.69 51.79 466.43 50.14 466.64 49.27 463.97 46.3 463.67 48.51 460.07 54.54 459.25 54.18 457.97 61.66 456.82 61.36 455.19 67.24 453.97 65.22 445.63 61.54 443.13 64.71 442.67 63.28 437.57 70.16 436.38 68.64 427.55 70.13 427.65 67.99 423.36 65.86 424.22 66.59 426.86 64.27 426.23 58.71 426.66 56.84 425.76 56.19 422.04 54.16 422.19 52.28 416.72 47.72 414.97 48.65 410.84 50.58 410.57 50.1 408.49 53.95 404.4 53.23 403.71 59.31 401.6 60.04 398.66 61.9 398.38 55.22 393.01 53.83 388.15 57.7 386.08 59.94 386.36 57.22 384.03 58.14 382.85 54.99 382.48 60.83 379.74 59.33 382.15 59.86 384.57 63.26 384.75 62.15 382.17 64.31 380.98 62.34 375.48 66.54 373.67 69.16 374.74 69.78 376.68 75.87 374.84 75.12 372.2 77.66 371.78 70.56 365.36 72.06 364.18 70.87 362.38 75.37 360.24 74.79 358.91 79.02 358.83 78.07 356.9 85.28 353.77 84.42 345.13 90.62 345.3 92.58 343.49 98.07 342.88 103.98 340.54 108.64 341.3 117.76 339.33 116.9 336.84 119.15 336.13 117.34 333.16 121.24 332.39 120.48 328.77 123.76 326.44 123.79 322.3 132.9 322.13 134.32 323.97 135.99 322.29 143.73 322.04 144.8 326.26 142.28 324.4 140.04 328.91 139.79 333.81 144.09 338.9 140.57 339.81 140.7 343.23 147.65 345.9 146.37 350.35 147.79 354.82 151.68 359.21 155.81 356.1 158.14 358.48 157.67 363.21 159.13 363.46 166.7 360.45 175.21 358.68 177.26 356.28 181.89 353.06 192.1 355.05 196.65 356.65 206.17 358.64 218.82 362.56 224.51 365.15 231.95 367.41 233.33 370.05 238.68 370.49 238.85 372.27 247.31 374.86 246.16 371.96 252.61 374.21 254.97 372.52 259.55 371.55 263.24 369.53 260.96 368.01 263.73 366.4 265.47 363.32 274.21 363.23 274.32 360.62 277.19 359.58 277.06 358.02 272 356.53 272.12 354.39 269.03 354.42 268.71 350.27 266.03 348.84 266.44 345.54 269.41 345.63 270.28 341.94 272.62 341.71 271.21 333.77 272.76 332.37 271.55 321.26 272.96 321.18 272.05 318.1 269.19 319.1 268.77 316.76 272.08 315.72 270.38 313.01 267.09 313.83 266 312.31 262.67 312.7 263.9 308.87 262.99 304.71 266.97 304.62 266.89 303.12 270.27 303.71 267.77 297.77 274.36 295.56 281.21 295.54 282.51 293.26 285.97 293.74 287.22 290.89 291.21 290.85 293.65 288.52 285.63 281.5 278.79 277.58 277.69 270.01 271.24 267.47 265.2 269.2 265 263.3 267.65 263.14 264.52 256.99 266.14 254.42 268.16 256.8 270.9 255.98 270.88 253.32 284.62 251.78 287.29 252.29 285.58 247.83 290.1 246.95 290.58 248.12 294.51 246.71 295.15 248.82 297.52 248.28 302.01 249.27 302.34 251.29 305.61 249.08 312.16 247.34 323.83 249.76 320.89 246.94 322.84 242.2 325.43 241.77 318.08 231.39 313.58 231.74 311.87 234.48 308.32 233.83 306.53 236.26 301.97 234.03 297.94 234.2 297.01 232.29 289.67 230.65 285.7 230.76 281.8 228.22 278.49 228.91 279.04 226.59 277.17 225.61 275.83 227.99 271.63 228.08 270.69 226.75 274.8 224.33 272.86 221.71 271.47 224.35 269.4 224.48 268.35 222.26 265.36 220.99 262.95 222.82 262.06 221.74 265.74 214.77 260.28 210.68 261.13 207.28 265.25 205.8 265.99 203.08 257.72 201.7 256.39 197.45 252.99 196.95 253.4 195.77 260.72 194.25 258.68 189.02 261.22 187.31 263.76 188.42 264.83 186.13 259 180.71 261.41 182.12 265.87 178.65 269.33 177.89 270.44 175.95 269.54 171.38 273.97 171.42 276.04 173.75 278.24 169.94 277.62 163.07 283.2 162.18 284.98 160.4 284.84 157.66 289.08 153.98 287.68 147.39 288.82 143.49 286.2 139.85 286.71 137.04 283.02 134.51 283.32 130.58 282.43 125.1 283.55 121.63 280.43 118.54 279.47 115.02 280.82 112.93 285.5 113.57 285.7 110.75 291.67 111.53 295.66 111.04 300.69 111.86 303.65 110.54 301.79 107.91 299.07 106.41 297.84 103.04 295.94 101.37 299.07 99.7 296.67 96.36 296.81 92.93 304.55 94.09 304.52 91.78 307 90.78 307.24 88.9 311.35 86 312.65 84.03 316.85 83.16 319.14 81.24 322.83 83.13 325.69 82.61 329.47 83.78 331.29 86.7 333.9 87.52 335.25 85.46 334.52 83.02 340.39 78.4 347.26 79.85 347.24 78.44 350.73 75.69 353.44 69.2 357.05 67.44 359.88 68.29 362.65 67 367.15 69.91 366.96 71.13 377.81 69.47 379.18 67.46 382.09 66.88 382.41 64.45 378.67 64.59 381.46 62.37 379.37 61.21 384.6 57.44 382.67 53.16 379.02 48.81 380.56 47.62 385.93 48.52 386.6 45.86 389.43 48.03 391.31 45.95 394.24 46.07 396.71 48.34 396.34 45.73 403.75 46.9 402.82 45.31 408.47 41.78 410.54 42.01 412.27 39.5 406.4 36.32 400.9 39.06 398.4 39.3 398.57 34.93 396.9 35.21 395.73 32.78 397.37 29.47 398.02 30.77 403.72 30.16 399.33 27.51 395.07 26.09 394.58 21.21 404.06 19.42 401.88 15.71 406.31 11.48 409.52 12.51 410.9 14.41 414.54 11.22 416.78 10.48 415.18 6.57 417.24 3.4 423.47 3.89 425.36 4.8 427.84 3.87 430.58 1 437.3 1.31 442.19 3.83 443.86 3.73 450.57 6.77 451.31 7.99 455.42 7.62 457.17 11.4 460.05 13.03 466.05 13.95 469.47 16.15 474.94 15.86 480.64 14.73 482.48 15.12 493.94 12.8 496.45 15.67 498.55 14.7 504.3 15.08 507.38 17.19 508.64 20.84 507.19 23.98 504.42 25.68 504.14 29.07 507.24 29.71 509.34 31.96 509 35.14 510.93 36.92 509.54 38.01 511.44 44.73 513.36 45.11 515.97 48.75 518.63 50.78 526.01 49.07 531.17 55.62 533.03 56.97 536.24 57.07 536.16 60.76 537.96 63.56 543.24 62.81 544.32 66.96 547.03 69.27 546.48 72.07 554.79 74.37 553.83 75.41 556.55 84.61 559.14 85.55 554.85 87.85 553.71 91.75 551.69 93.16 554.46 96.06 559.29 95.2 561.05 92.44 562.75 93.03 565.34 90.39 569.13 95.55 569.34 101.43 571.93 99.36 577.19 101.01 578.76 94.35 582.01 93.92 586.41 95.5 588.72 94.46 591 99.25 597.02 102.75 602.04 102.36 604 104.22 610.29 103.5 614.44 101.51 616.76 102.96 618.45 106.63 615.47 106.61 616.01 109.35 618.3 110.94 623.95 110.87 624.79 113.45 628.85 115.07 626.98 119.28 623.54 121.5 618.35 123.65 612.25 121.82 611.67 129.47 609.8 131.33 610.41 133.3 610.04 138.88 616.91 143.6 618.45 142.08 618.12 139.05 619.74 137.57 623.69 138.58 625.44 135.87 632.55 135.89 633.56 140.72 634.59 139.18 638.14 140.56 638.03 142.39 641.15 143.75 638.73 146.4 640.79 151.67 637.88 153.39 635.03 160.72 635.36 165.3 632.23 169.49 626.5 167.23 624.69 167.8 621.44 165.75 617.27 170.18 614.72 169.65 608.56 165.38 604.03 166.69 600.38 165.92 598.17 161.49 595.52 161.53 590.71 158.62 588.02 157.93 581.56 158.09 577.62 159.11 575.66 161.77 573.56 161.55 569.24 164.52 562.47 164.55 559.11 166.08 547.68 166.04 544.05 168.11 537.07 166.96 532.03 164.25 534.49 162.19 534.32 159.98 531.73 159.93 527.09 156.91 525.1 153.39 520.92 152.84 518.99 151.56 516.28 153.16 512.91 153.33 511.08 151.82 508.03 152.59 505.71 155.01 503.05 153.9 503.58 152.26 494.19 150.34 492.57 152.97 488.57 151.25 488.69 155.6 493.74 160.63 494.35 163.32 489.42 166.9 487.86 172.32 486.76 172.29 485.88 177.64 482.57 177.72 480.83 181.07 478.06 180.03 475.32 181.05 473.08 184.35 473.86 188.7 481.52 191.09 479.49 193.92 479.44 196.37 474.98 195.89 468.58 197.33 469.27 199.27 474.54 198.69 474.02 202.31 474.97 204.48 470.9 203.17 468.84 205.63 470.75 206.04 472.45 212.13 476.42 211.34 477.59 213.61 478.89 225.32 484.05 231.43 486.6 236.73 488.38 236.22 492.82 241.06 493.42 239.04 495.07 240.51 494.81 243.81 491.86 244.84 492.59 247.87 488.44 246.61 490.55 254.38 495.24 253.13 500.87 260.51 502.64 267.25 506.64 267.72 502.03 270.21 498.65 269.99 498.78 273.9 497.75 276.38 495.11 278.43 493.65 281.3 498.77 284.08 496.14 289.05 493.64 288.63 489.55 290.53 491.99 290.42 495.2 292.66 499.12 289.29 501.69 293.41 506.26 292.67 509.75 293.78 510.62 295.42 514.39 297.29 522.9 298.94 520.33 300.77 523.8 304.55 521.44 305.36 519.39 303.76 518.16 307.93 515.91 307.44 515.58 309.99 512.16 310.22 512.48 312.38 516.59 313.07 513.58 314.62 518.52 314.6 520.81 316.21 521.5 319.74 526.74 322.9 534.07 322.54 537.63 324.32 541.26 323.91 545.58 325.49 547 327.95 550.35 325.27 552.92 326.27 554.1 329.09 551.15 332.71 554.65 334.64 555.17 336.68 559.07 336.16 556.59 338.86 560.7 341.07 558.83 344.49 562.85 346.13 565.47 345.4 565.01 348.64 562.69 350.89 565.13 354.55 563.72 357.69 564.39 359.61 561.75 363.48 556.58 361.82 555.58 364.36 556.42 367.2 555.22 368.41 551.06 367.38 549.99 368.14 551.54 370.91 548.89 373.25 549.61 377.29 544.2 376.76 543.13 381.24 539.71 383.26 537.09 381.03 536.51 382.95 538.2 389.73 540.89 388.2 544.24 383.46 546.96 382.66 547.15 386.2 548.46 388.88 555.3 388.27 558.1 391.79 558.06 393.46 555.11 397.04 558.03 399.58 561.06 399.3 567.43 395.39 568.69 391.29 573.3 390.72 575.79 391.78 580.33 395.98 587.54 398.66 589.13 400.24 588.94 403.22 586.48 405.19 582.5 405.54 577.5 402.93 575.67 405.75 577.98 408.63 581.61 409.93 586.26 409.82 589.05 411.24 589.21 415.28 588.32 418.1 589.29 421.23 593.46 425.93 597.9 422.97 603.46 422.4 606.45 419.86 610.47 415.04 605.3 407.87 605.12 403.86 606.27 400.09 612.41 399.87 615.32 398.94 616.51 395.93 612.23 391.06 623.89 385.42 628.43 385.35 636.61 386.48 639.3 384.21 644.02 383.8 653.08 387.49 658.49 390.24 666 390.93 670.53 390.05 673.08 391.15 674.32 389.36 676.58 389.52 683 386.69 692.31 390.64 697.29 389.83 701.55 391 710.38 394.86 719.33 397.68 721.63 400.03 719.95 403.55 716.22 406.4 712.19 411.51 711.71 415.22 709.47 418.84 707.42 418.95 707.42 421.29 704.82 422.98 704.76 425.91 707.77 427.16 707.2 430 709.11 431.02 708.87 434.12 706.97 436.56 700.82 437.92 699.91 449.91 697.18 451.23 699.61 452.01 701.49 457.21 700.59 459.78 694.79 461.74 693.61 463.15 688.76 462.9 686.42 470.12 684.21 470.1 685.11 495.61 670.54 497.65 622.62 502.01 Z M 645.98 518.09 633.8 515.92 632.5 505.56 622.62 502.01 670.54 497.65 671.17 501.25 677.77 500.47 679.61 504.07 678.43 511.42 681.49 515.17 676.98 517.98 673.67 513.7 671.85 514.72 665.78 515.75 655.21 515.97 645.98 518.09 Z" id="_x5929__x6D25__x5E02_" class="area active" title="天津市"></path>

</svg>