<!--?xml version="1.0"?-->
<svg xmlns="http://www.w3.org/2000/svg" version="1.2" baseProfile="tiny" width="100%" height="100%" viewBox="0 0 800 983" stroke-linecap="round" stroke-linejoin="round">

<path d="M 601.41 289.28 602.11 290.59 599.72 292.09 598.3 295.81 599.45 301.27 608.05 314.1 609.2 316.46 603.05 319.86 592.07 318.38 588.95 323.13 586.75 327.35 587.55 327.97 587.33 333.43 588.89 338.83 591.31 342.22 593.64 341.4 600.77 341.03 599.82 344.45 601.02 357.53 603.84 361.27 606.38 359.56 615.93 360.33 614.77 366.69 610.24 376.02 603.24 384.5 597.33 387.09 588.46 390 587.84 393.73 589.3 407.2 589.79 408.8 589.45 413.81 575.29 413.17 559.94 409.48 558.73 412.64 549.04 409.84 533.31 409.31 535.38 406.6 524.48 400.53 520.5 397.19 517.61 393.78 510.03 389.82 506.57 389.41 499.17 385.02 495.85 380.37 491.96 378.31 487.41 374.78 487.49 373.37 480.74 372.67 478.09 371.73 478.12 370.72 475.5 369.14 473.23 366.16 473.75 363.06 472.2 362.36 474.85 358.45 481.59 358.16 485.25 357.39 488.17 357.81 491.21 354.77 491.05 345.86 486.03 345.38 485.78 341.72 478.48 341.52 476.91 339.96 480.41 335.91 476.94 333.38 475.57 330.63 473.41 329.37 470.86 330.88 469.16 327.09 467.63 326.02 467.54 323.35 469.31 323.4 469.32 317.78 462.81 317.21 465.21 319.59 463.11 319.6 460.12 313.87 456.16 312.36 455.34 311.07 456.63 306.74 459.71 304.8 460.58 302.51 458.11 298.84 458.01 296.94 453.86 296.09 449.75 294.05 450.07 292.35 445.35 291.89 442.43 290.28 439.61 290.75 437.07 293.75 436.36 293.54 435.96 287.87 431.97 286.33 432.26 284.64 429.2 283.92 427.7 285.2 425.02 284.53 425.79 282.96 424.74 281.22 426.41 280.61 424.58 279.67 424.63 278.05 420.09 281.87 419.51 283.76 416.24 286.36 409.37 284.04 407.59 286.87 401.53 285.63 398.31 293.31 392.17 290.02 399.27 276.03 398.58 274.92 388.3 271.2 384.36 270.06 380.86 266.46 371.48 265.31 374.59 257.6 372.76 254.97 369.32 251.76 368.01 248.59 365.83 246.09 364.15 240.83 367.42 235.57 365.7 231.16 366.49 224.47 369.15 224.37 370.99 222.96 367.68 215.34 370.54 210.23 369.9 206.54 373.82 203.38 374.15 200.35 372.44 192.54 373.51 190.75 375.94 190.21 376.58 187.55 374.92 186.3 374.34 184.18 372.65 182.95 371.35 178.3 371.8 175.67 376.32 172.08 376.3 169.02 379.08 166.79 381.39 163.69 379.36 158.26 384.04 154.89 384.55 153.47 382.92 149.08 384.39 145.7 382.45 144.01 382.34 141.1 384.94 140.69 388.92 137.95 391.27 137.7 391.19 136.25 393.71 132.95 397.84 130.42 399.45 128.08 400.88 127.73 404.55 125 407.11 120.84 413.53 122.04 418.33 122.43 421.76 125.15 430.05 128.84 435.9 129.31 436.69 131.79 438.97 134.24 441.03 134.75 447.51 134.99 452.76 136.15 452.82 137.39 455.45 137.86 460.83 135.27 463.59 139.06 467.46 138.68 472.95 141.67 473.25 143.32 477.44 141.85 480.19 141.53 480.07 144.25 482.16 145.48 485.69 144.44 490.15 145.65 496.89 145.41 495.08 149.28 500.46 149.87 500.29 156.09 502.18 157.47 504.69 157.85 506.54 157.04 509.91 157.68 510.62 159.06 509.23 160.78 510.04 163.82 514.49 162.12 515.49 160.4 519.17 160.35 523.48 162.69 530.56 162.8 534.08 165.02 541.72 166.63 547.44 166.42 547.34 169.74 545.27 172.77 549.28 173.29 557.68 175.8 558.51 176.76 558.17 181.23 563.12 185.61 560.48 211.38 559.85 216.08 557.28 220.06 548.76 235.06 545.37 237.4 520.5 252.34 522.37 255.49 528.45 257.13 532.28 260.15 535.72 264.09 537.76 265.54 546.6 268.9 554.9 272.91 561.49 273.77 565.82 275.68 572.97 277.62 578.63 279.63 584.79 284.83 590.66 287.28 601.41 289.28 Z" id="_x94F6__x5DDD__x5E02_" class="area" title="银川市"></path>
<path d="M 563.12 185.61 558.17 181.23 558.51 176.76 557.68 175.8 549.28 173.29 545.27 172.77 547.34 169.74 547.44 166.42 541.72 166.63 534.08 165.02 530.56 162.8 523.48 162.69 519.17 160.35 515.49 160.4 514.49 162.12 510.04 163.82 509.23 160.78 510.62 159.06 509.91 157.68 506.54 157.04 504.69 157.85 502.18 157.47 500.29 156.09 500.46 149.87 495.08 149.28 496.89 145.41 490.15 145.65 485.69 144.44 482.16 145.48 480.07 144.25 480.19 141.53 477.44 141.85 473.25 143.32 472.95 141.67 467.46 138.68 463.59 139.06 460.83 135.27 455.45 137.86 452.82 137.39 452.76 136.15 447.51 134.99 441.03 134.75 438.97 134.24 436.69 131.79 435.9 129.31 430.05 128.84 421.76 125.15 418.33 122.43 413.53 122.04 407.11 120.84 403.04 120.88 399.83 117.1 398.97 113.76 401.67 110.9 408.35 106.49 411.95 101.91 415.14 100.17 418.47 100.12 420.71 98.76 421.17 96.53 423.09 93.61 424.45 93.25 426.82 89.99 427.35 87.15 424.79 84.82 426.62 82.76 425.47 82.1 426.1 78.53 428.72 73.76 429.63 70.59 433.02 67.44 434.38 63.87 437.68 58.99 440.9 55.04 443.52 53.39 446.75 52.65 451.21 57.15 457.94 58.64 462.96 59 466.42 59.98 471.88 57.76 474.12 56.23 476.27 51.55 474.46 47.03 474.1 43.78 474.73 39.31 473.11 32.95 472.59 29.26 473.68 27.33 477.75 26.12 483.82 26 487.4 24.7 494.88 23.07 501.68 22.28 509.71 23.31 515.53 24.41 518.06 25.69 526.16 27.38 528.01 26.33 528.33 24.18 530.15 21.32 530.65 18.3 532.58 18.32 534.44 16.44 537.9 15.03 542 10.27 544.12 9.01 545.39 6.72 548.94 2.48 555.73 4.68 558.67 6.63 566.24 7.27 570.26 4.99 575.79 2.74 579.88 2.81 584.12 1 585.2 2.92 591.27 3.3 593.51 5.71 595.19 8.92 594.06 11.8 597.26 15.89 596.09 21.75 597.18 25.66 594.1 31.36 593.53 34.15 595.49 36.34 594.69 40.58 601.69 45.45 603.68 52.38 606.95 58.67 608.35 63.72 612.25 68.36 614.93 69.94 620.71 72.17 627.03 73.21 629.05 74.45 630.34 76.83 632.21 76.8 635.24 78.33 636.29 85.1 636.21 87.28 633.46 103.41 632.17 105.22 620.43 114.7 614.19 119.24 604.5 127.39 600.72 131.02 596.25 136.04 592.26 141.85 587.96 146.92 585.24 150.81 574.25 157.82 572.66 160.35 563.12 185.61 Z" id="_x77F3__x5634__x5C71__x5E02_" class="area" title="石嘴山市"></path>
<path d="M 371.48 265.31 380.86 266.46 384.36 270.06 388.3 271.2 398.58 274.92 399.27 276.03 392.17 290.02 398.31 293.31 401.53 285.63 407.59 286.87 409.37 284.04 416.24 286.36 419.51 283.76 420.09 281.87 424.63 278.05 424.58 279.67 426.41 280.61 424.74 281.22 425.79 282.96 425.02 284.53 427.7 285.2 429.2 283.92 432.26 284.64 431.97 286.33 435.96 287.87 436.36 293.54 437.07 293.75 439.61 290.75 442.43 290.28 445.35 291.89 450.07 292.35 449.75 294.05 453.86 296.09 458.01 296.94 458.11 298.84 460.58 302.51 459.71 304.8 456.63 306.74 455.34 311.07 456.16 312.36 460.12 313.87 463.11 319.6 465.21 319.59 462.81 317.21 469.32 317.78 469.31 323.4 467.54 323.35 467.63 326.02 469.16 327.09 470.86 330.88 473.41 329.37 475.57 330.63 476.94 333.38 480.41 335.91 476.91 339.96 478.48 341.52 485.78 341.72 486.03 345.38 491.05 345.86 491.21 354.77 488.17 357.81 485.25 357.39 481.59 358.16 474.85 358.45 472.2 362.36 473.75 363.06 473.23 366.16 475.5 369.14 478.12 370.72 478.09 371.73 480.74 372.67 487.49 373.37 487.41 374.78 491.96 378.31 495.85 380.37 499.17 385.02 506.57 389.41 510.03 389.82 517.61 393.78 520.5 397.19 524.48 400.53 535.38 406.6 533.31 409.31 549.04 409.84 558.73 412.64 559.94 409.48 575.29 413.17 589.45 413.81 589.79 408.8 589.3 407.2 587.84 393.73 588.46 390 597.33 387.09 603.24 384.5 610.24 376.02 614.77 366.69 615.93 360.33 606.38 359.56 603.84 361.27 601.02 357.53 599.82 344.45 600.77 341.03 593.64 341.4 591.31 342.22 588.89 338.83 587.33 333.43 587.55 327.97 586.75 327.35 588.95 323.13 592.07 318.38 603.05 319.86 609.2 316.46 608.05 314.1 599.45 301.27 598.3 295.81 599.72 292.09 602.11 290.59 601.41 289.28 610.74 291.27 612.97 292.36 619.33 293.58 621.74 294.63 629.99 296.78 646.52 299.47 647.13 298.01 650.01 297.68 655.09 298.93 657.9 295.92 659.86 295.15 663.51 297.08 664.55 295.94 671.2 296.21 672.73 295.52 673.36 292.6 675.86 289.9 678.85 291.28 684.27 292 688.04 291.5 693.17 296.45 696.78 297.34 698.59 300.3 700.86 302.01 708.1 303.69 711.15 305.06 715.8 305.22 721.49 307.47 724.56 311.65 727.81 314.17 728.03 315.63 732.47 319.11 736.93 324.84 744.73 326.22 747.23 329.02 741.78 337.06 740.39 340 742.23 341.99 749.15 343.72 751.42 341.74 759.54 341 766.18 346.7 775.6 353.13 793.53 358.11 798.7 361.34 799 364.84 796.76 370.48 795.89 374.05 794.36 376.38 789.87 380.97 787.17 380.44 784.79 377.38 782.05 377.39 781.46 375.64 779.55 377.14 780.84 378.42 782.93 378.32 778.19 380.8 773.76 380.76 766.85 381.69 761.12 383.41 759.14 388.21 759.5 391.2 757.78 397.41 753.13 401.02 744.87 402.68 739.31 400.61 734.53 401.05 734.03 402.38 735.17 405.77 742.86 407.21 742.35 410.73 737.56 409.87 730.3 416.44 729.07 417.03 728.48 419.47 725.52 420.66 719.91 421.12 716.96 420.22 721.19 426.39 723.95 426.91 730.29 425.55 731.06 427.34 729.17 433.53 727.58 437.25 724.79 441.82 721.39 444.39 715.43 447.9 711.92 449 710.26 450.56 709.83 453.88 710.1 460.29 707.89 469.9 704.77 476.85 705.44 481.8 704.02 484.86 705.42 490.91 707.61 495.71 712.43 499.03 716.03 505.22 715.9 508.3 711.94 507.51 707.48 508.77 706.96 510.39 714.17 515.48 718.12 517.22 721.07 521.84 722.61 525.4 722.93 528.16 721.33 532.05 721.29 533.89 715.64 540.84 712.86 537.73 708.83 534.27 707.67 534.93 708.67 540.37 710.47 541.82 708.04 541.5 702.08 539.44 698.62 541.34 691.9 535.23 687.71 532.59 685.93 530.63 683.24 531.47 678.77 531.8 674.72 532.73 671.71 534.44 669.47 534.62 665.66 537.26 663.53 534.79 661.5 534.04 657.61 535.21 653.67 533.86 650.26 531.28 649.09 533.19 650.4 537.02 649.5 538.38 645.77 537.17 644.81 537.71 641.73 535.8 640.39 536.61 643.04 538.81 639.37 539.16 633.73 537.65 631.73 534.13 624.64 529.78 620.66 528.77 617.26 531.18 619.71 533.02 622.49 533.27 623.16 535.52 621.11 535.58 622.12 538.51 619.78 538.76 617.47 541.43 612.44 537.19 609.57 537.69 605.28 534.85 602.02 533.4 600.03 531.03 596.42 530.25 591.09 527.06 591.36 528.8 589.11 528.99 587.88 533.31 589.32 535.5 585.38 540.43 587.32 542.02 586.41 545.42 584.42 544.06 583.52 540.87 580.65 540.73 578.35 538.8 578.72 535.86 574.06 535.9 571.59 536.59 569.09 533.86 566.42 537.57 564.51 538.08 562.71 534.77 557.84 536.44 556.81 534.18 552.32 532.62 549.56 534.41 553.24 541.94 555.27 544.65 556.47 544.87 559.09 549.21 558.71 550.59 560.59 556.58 564.12 560.63 561.89 562.78 558.16 561.76 559.34 565 557.67 570.81 558.53 573.33 553.69 574.23 549.93 573.55 547.03 572.29 545.94 575.08 546.22 578.72 543.57 580.03 540.86 577.34 543.69 577.05 536.59 570.85 534.21 568.3 534.51 571.64 537.67 575.7 536.28 578.18 539.47 580.53 543.4 580.97 545.55 583.1 548.79 583.99 550.68 587.31 548.46 590.3 550.57 593.39 552.59 591 554.72 590.05 557.36 592.02 555.64 593.49 557.48 595.25 554.57 597.28 558.38 599.4 557.95 603.89 561.93 607.06 562.09 609.25 558.19 611.44 558.79 613.92 557.33 615.02 557.68 618.69 556.32 622.91 554.83 623.23 555.88 627.3 559.06 630.12 555.94 630.09 552.17 626.69 551 628.45 547.1 623.86 545.17 625.01 542.19 624.53 541.87 627.56 537.4 626.65 536.7 628.03 532.53 628.41 530.48 630.92 528.05 631.91 530.42 634.65 531.91 637.99 529.15 638.56 527.22 637.23 522.54 638.98 523.31 643.34 523.49 648.29 522.6 652.45 517.21 654.43 511.56 653.36 508.76 650.88 508.2 652.24 503.4 653.4 502.16 654.39 498.25 653.59 496.4 654.03 497.12 655.91 492.39 657.19 482.17 660.61 478.9 660.08 476.81 657.1 474.99 656.7 471.96 657.78 471.22 656.11 467.07 654.74 465.4 657.71 461.06 656.3 457.6 656.83 456.35 658.1 456.27 662.3 452.49 661.69 449.44 662.21 445.95 664.23 442.51 662.27 441.08 658.14 442.3 653.9 437.59 648.99 434.54 647.68 434.4 644.65 431.62 641.4 431.5 637.83 424.62 630.76 422.32 625.74 423.32 621.66 420.06 619.11 417.48 615.86 413.35 612.95 413.89 609.4 413.08 606.17 407.42 601.99 404.08 602.31 402.55 601.21 400.76 601.9 399.47 600.29 402.65 597.65 401.72 596.42 401.87 593.37 398.15 591 397.77 588.67 395.13 587.75 396.07 585.45 391.27 582.52 390.87 580.49 388.86 580.17 388.34 581.93 384.86 584.01 379.93 584.15 384.63 589.52 384.67 590.62 382.17 592.45 382.65 593.42 378.58 597.81 376.64 598.91 376.13 601.12 373.48 601.92 372.49 603.52 368.44 605.01 367.61 610.45 365.3 611.11 364.45 606.7 361.11 605.25 356.57 607.07 351.23 607.12 349.79 605.85 346.15 608.37 344.21 602.43 344.42 597.33 346.78 596.56 346.45 592.02 349.48 588.6 345.3 584.93 347.42 584.8 351.51 586.35 351.42 584.93 355.12 583.07 355.5 581.64 364.17 576.95 366.55 574.23 366.92 570.63 370.52 569.29 369.02 567.69 355.48 546.02 353.9 544.4 346.82 544.35 345.15 543.34 337.94 536.97 334.58 536.15 331.41 534.46 329.55 531.69 327.96 526.57 328.8 522.89 327.05 519.19 319.78 519.51 315.63 517.77 308.47 517.74 305.96 516.67 305.51 515.37 302.51 513.08 305.38 513.23 308.24 512.03 312.97 511.84 318.81 507.47 323.34 503.22 327.74 500.99 329.77 499.09 330.41 502.69 332.26 504.24 333.99 508.07 333.9 509.9 331.62 513.42 337.07 517.95 338.37 520.24 344.11 520.1 351.77 518.92 354.44 517.37 353.09 515.83 355.01 514.19 352.27 513.44 351.19 510.35 352.39 509.31 348.76 506.83 348.44 503.97 343.59 496.23 348.43 494.44 353.13 493.29 356.99 490.98 357.63 489.19 367.91 489.97 388.75 491.8 392.41 488.63 393 485.98 389.41 482.69 386.58 481.38 383.99 481.34 380.08 479.29 377.21 478.73 369.24 474.38 370.87 470.77 378.95 471.6 379.26 470.35 376.92 466.21 379.33 464.07 385.77 462.49 388.33 464.03 390.87 463.31 391.4 459.08 402.45 457.68 399.96 454.71 396.47 453.6 396.96 452.19 400.55 452.39 402.18 451.64 405.08 452.53 407.28 452.26 409.21 449.88 410.13 446.56 413.91 444.31 415.32 441.69 417.89 442.26 419.71 440.58 424.15 439.74 420.6 435.49 415.67 434.43 413.41 432.39 414.48 432.15 406.82 424.28 406.76 421.88 408.3 420.12 411.24 420.36 412.17 419.44 411.67 416.38 412.14 412.25 409.11 411.11 407.64 409.57 403.99 409.69 401.11 408.5 394.87 408.97 390.78 406.17 389.94 409.7 385.15 415.65 383.73 419.33 378.62 419.02 381.27 415.79 379.45 412.32 377.77 411.43 378.1 408.38 379.88 403.81 380.11 395.61 383.23 392.59 382.97 389.88 378.57 390.46 371.61 389.52 369.53 392.15 364.93 390.61 362.75 390.86 355.23 389.78 349.75 392.22 345.29 392.42 339.48 391.45 334.47 392.81 330.33 393.02 323.95 395.27 323.3 396.51 314.05 397.3 315.52 393.61 315.62 386.2 316.89 380.54 319.63 379.67 328.37 381.1 329.99 381.92 334.27 381.21 341.16 378.26 345.82 377.06 349.69 375.31 352.35 372.61 354.45 367.05 355.84 364.89 359.92 360.63 361.05 357.44 360.78 354.9 358.92 349.25 358.54 344.59 358.96 342.13 361.77 337.05 364.54 333.75 368.45 326.08 365.9 321.92 361.22 315.93 357.52 312.02 354.43 307.88 351.43 299.17 353.16 283.74 355.02 279.98 359.67 275.82 363.98 274.22 369.02 270.95 371.48 265.31 Z" id="_x5434__x5FE0__x5E02_" class="area" title="吴忠市"></path>
<path d="M 503.58 678.34 505.94 679.47 508.87 678.65 513.73 683.44 515.84 683.03 519.23 684.2 520.81 687.45 522.53 687.09 523.42 684.24 525.27 686.41 528.94 687.45 530.16 690.39 529.34 693.27 525.46 696.72 524.76 698.8 526.99 700.17 525.75 703.13 522.93 701.17 522.86 706.77 525.76 706.27 528 708.62 531.04 708.92 530.57 710.68 532 711.57 530.6 713.05 527.09 711.6 526.46 714.39 526.16 723.58 524.05 727 526.97 729.41 527.12 733.55 524.56 731.16 523.97 729.55 519.98 726.45 517.75 727.22 517.73 728.77 519.54 730.68 520.88 733.69 525.23 737.12 529.12 737.25 534.4 741.18 535.46 739.88 537.96 739.57 539.22 736.4 538.76 732.1 543.06 733.57 544.13 732.84 545.18 735.51 546.97 737.27 548.16 736.36 548.37 731.96 550.47 732.54 550.61 736.01 557.32 738.32 558.68 733.84 559.85 739.99 561.32 740.22 561.75 738.2 563.33 739.06 565.03 737.68 568.51 736.57 572.49 744.59 574.04 744.43 575.9 746.36 576.55 745.18 579.01 746.32 580.52 745.1 581.75 747.14 586.88 750.34 589.24 750.85 589.98 748.39 591.84 749.73 593.08 747.71 597.61 751.35 598.16 749.59 600.77 748.96 602.3 750.27 603.74 747.03 604.83 748.78 605.43 752.4 609.34 753.14 611.17 755.38 611.54 757.35 613.31 759.4 614.21 758.82 616.64 761.88 618.51 761.14 620.54 763.95 622.29 764.91 620.99 768.99 623.67 770.66 626.49 768.48 625.39 773.78 627.12 774.21 628.89 771.31 630.28 772.29 628.93 775.65 629.75 777.68 631.29 777.72 632.94 779.59 632.39 781.6 633.24 783.47 630.66 782.91 631.04 785.18 628.93 785.89 629.44 789 629.28 793.57 626.63 794.38 626.05 798.56 627.11 799.49 631.44 800.19 629.79 804.99 627.56 805.7 623.5 810.44 623.48 813.89 621.81 813.05 621.15 809.94 618.98 810.62 617.39 809.27 618.54 813.06 619.92 814.61 623.8 815.34 624.58 813.43 628.4 812.35 629.92 815.39 628.9 817.58 627.47 817.01 625.26 818.72 622.37 817.3 620.47 819.04 620.6 821.92 616 820.78 612.85 823.52 610.27 822.78 610.44 826.02 607.51 827.87 608.17 828.86 612.95 830.06 614.77 829.46 615.44 832.26 613.16 830.9 614.1 836.09 619.29 842.13 621.98 841.19 623.87 844.03 623.39 845.53 625.53 845.82 623.96 847.74 618.77 846.58 620.28 847.66 620.57 850.03 622.71 850.63 621.42 856.23 619.8 854.52 618.75 858.1 615.89 857.65 615.84 855.25 613.64 854.13 611.98 854.71 611.52 863.1 608.5 861.84 604.17 861.88 603.81 863.24 602.23 861.53 599.94 862.91 601.15 864.91 599.78 865.48 599.53 868.09 597.13 869.97 591.51 866.64 588.25 866.86 587.23 865.6 585.46 866.8 584.18 866.08 582.9 872.68 584.64 872.43 584.94 874.32 580.86 874.75 575.24 871.26 570.26 868.69 567.6 865.23 566.04 865.62 563.09 870.46 560.61 868.59 559.81 870.01 556.18 868.73 554.03 865.79 553.29 861.88 552.14 862.5 551.52 865.22 549.74 861.86 548.23 861.91 548.67 864.77 547.74 865.64 544.04 865.06 540.41 863.07 531.85 862.36 531.99 866.17 530.46 862.91 523.27 863.58 521.45 866.79 516.57 868 512.52 873.64 509.27 874.97 509.94 881.2 511.69 880.97 512.75 884.64 515.2 885.71 513.72 887.25 513.85 889.03 516.48 891.04 516.58 894.78 517.91 895.7 519.67 901.79 515.32 900.79 513.04 906.92 513.95 910.67 510.64 913.29 511.32 915 513.29 915.77 512.71 917.31 515.98 919.19 516.51 924.08 517.65 924.6 521.48 923.58 522.32 924.22 520.73 931.28 524.07 936.53 525.48 939.68 523.46 942.91 523.06 945.01 524.17 946.42 523.73 948.89 525.2 951.99 526.86 953.01 523.18 954.63 521.82 958.09 522.39 959.91 518.09 964.39 514.52 964.98 511.18 967.66 508.21 968.56 506 972.04 503.58 971.7 498 974.06 495.38 972.6 493.46 973.19 495.22 979.08 492.38 981.51 490.47 981.22 489.74 978.85 485.83 978.5 481.76 974.7 482.24 972.19 479.81 969.62 477.37 969.7 473.94 966.56 474.29 964.57 471.49 960.02 468.28 959.74 466.35 958.06 465.88 955.82 463.46 953.06 465.42 951.1 464.17 948.57 462.53 941.01 458.79 940.39 455.45 941.04 451.78 940.36 450.69 937.08 449.08 937.44 448.65 934.64 446.71 935.39 445.84 938.28 442.98 939.57 437.07 944.77 435.62 949.53 433.08 949.97 433.75 952.19 431.54 951.03 430.57 947.99 431.11 945.89 429.66 945.38 430.04 942.78 426.99 942.7 425.57 940.15 426.23 938.45 424.82 936.29 424.36 932.18 423.2 931.55 423.67 931.37 423.87 930.26 422.84 929.49 423.48 926.64 422.45 922.39 427.26 921.89 429.86 919.67 428.72 917.6 424.91 917.3 424.06 921.19 423.06 921.51 422.45 918.85 413.7 920.88 411.18 921.03 409 917.3 410.46 916.71 410.14 914.32 407.43 914.95 405.55 913.38 400.24 912.06 397.59 912.21 394.11 911.12 385.8 910.19 383.32 908.39 378.96 909.22 378.98 911.33 375.22 910.12 373.68 916.02 372.3 916.88 370.11 921.83 367.66 920.82 367.05 915.42 367.75 914.25 367.2 909.88 364.45 910.62 365.56 908.23 363.96 906.55 364.73 905.44 362.89 901.82 358.58 904.02 353.7 899.04 355.64 897.81 353.88 895.93 350.05 895.23 347.08 891.93 349.06 891.78 350.46 888.72 349.3 887.77 347.25 890.31 345.27 889.68 345.77 886.45 343.99 885.86 341.56 886.8 338.82 884.8 340.02 877.45 336.33 875.59 333.08 876.04 333.19 872.59 336.34 871.54 338.13 869.79 340.3 866.1 342.07 872.33 344.24 872.87 348.73 868.16 348.36 865.02 346.34 864.73 343.59 866.47 341.92 864.72 337.19 863.27 335.87 864.4 333.22 863.63 333.01 861.47 331.56 861.16 330.54 863.35 327.98 860.41 316.77 865.31 311.16 866.83 310.65 868.56 304.59 868.39 305.78 872.42 303.23 875.17 302.23 872.55 304.05 868.88 302.5 866.43 299.07 865.68 296.97 867.08 295.16 865.9 290.22 867.78 283.7 865.85 282.49 864.51 281.53 860.27 279.49 859.78 277.08 860.98 277.89 855.3 275.59 853.14 273.17 853.34 271.85 851.52 271.16 844.11 268.41 845.03 268.21 843.48 266.37 843.31 263.08 846.29 260.53 850.36 258.41 847.56 261.07 844.42 258.53 844.67 259.28 842.7 257.48 838.11 260.88 835.88 262.27 837.49 263.97 835.53 262.16 832.85 259.41 831.51 257.36 831.75 254.37 829.83 252.56 830.61 248.84 828.15 247.09 823.8 250.2 822.73 249.01 817.68 246.6 815.03 248.19 812.75 249.1 805.96 248.53 801.11 250.5 800.18 249.9 797.19 251.07 793.25 256.27 793.06 254.97 790.79 259.14 786.68 262.28 785.64 262.3 783.55 264.33 782.4 266.23 783.31 271.73 776.62 274.26 777.71 276.74 777.38 278.53 775.9 280.47 777.34 284.81 777.86 285.95 777.34 288.08 772.08 287.33 770.34 289.27 770.86 291.22 765.72 288.5 763.94 285.24 757.47 285.32 756.03 287.28 755.66 291.95 753.08 296.76 749.66 308.86 745.06 312.52 746.66 313.69 750.51 315.95 751.74 317.66 755.04 320.06 756.26 322.53 759.31 329.07 764.38 332.27 765.19 334.58 764.51 336.97 761.6 341.39 759.91 346.04 760.5 349.36 758.87 351.59 759.92 354.21 764.6 348.86 768.96 350.8 769.73 352.98 768.33 355.38 768.87 359 767.81 361.17 768.43 361.96 771.22 363.38 772.56 368.43 767.83 372.49 765.58 373.62 761.98 377.19 757.47 379.12 756.15 378.61 751.77 379.44 750.11 383.31 750.01 395.18 751.11 402.03 754.87 407.17 755.38 406.13 747.92 404.69 742.98 398.74 732.22 399.68 730.54 401.93 729.64 401.54 727.51 402.69 725.75 409.64 727.14 412.51 723.65 415.34 723.82 420.23 722.51 424.06 724.34 424.86 722.68 426.6 722.77 427.9 724.53 431.3 726.61 436.45 724.3 439.84 724.36 443.91 722.69 453.04 720.37 454.59 717.5 460.11 713.2 464.5 710.75 470.32 710.74 472.84 703.87 474.67 704.95 477.99 703.79 480.93 703.75 481.3 697.98 483.74 693.77 481.23 694.52 480.15 687.77 484.49 686.19 486.18 682.86 488.64 683.1 490.72 680.48 494.19 679.19 501.4 680.58 503.58 678.34 Z M 419.25 931.03 416.23 930.47 414.5 926.86 410.42 928.16 408.26 930.66 408.66 933.25 407.28 934.02 405.1 931.15 404.54 934.41 400.52 935.49 398.18 937.18 396.96 935.46 394.35 936.24 393.74 937.87 389.92 937.14 388.73 938.36 381.23 939.6 380.25 933.9 382.1 931.06 386.17 930.59 388.7 931.22 391.75 929.11 396.83 928.15 399.32 926.64 401.07 926.8 403.6 925.37 411.78 923.79 413.08 922.66 415.62 922.96 419.17 922.01 420.25 922.85 418.69 925.57 419.25 931.03 Z M 423.61 938.34 421.54 937.14 421.36 934.28 424 935.99 423.61 938.34 Z M 423.2 931.55 422.84 929.49 423.87 930.26 423.67 931.37 423.2 931.55 Z" id="_x56FA__x539F__x5E02_" class="area" title="固原市"></path>
<path d="M 503.58 678.34 501.4 680.58 494.19 679.19 490.72 680.48 488.64 683.1 486.18 682.86 484.49 686.19 480.15 687.77 481.23 694.52 483.74 693.77 481.3 697.98 480.93 703.75 477.99 703.79 474.67 704.95 472.84 703.87 470.32 710.74 464.5 710.75 460.11 713.2 454.59 717.5 453.04 720.37 443.91 722.69 439.84 724.36 436.45 724.3 431.3 726.61 427.9 724.53 426.6 722.77 424.86 722.68 424.06 724.34 420.23 722.51 415.34 723.82 412.51 723.65 409.64 727.14 402.69 725.75 401.54 727.51 401.93 729.64 399.68 730.54 398.74 732.22 404.69 742.98 406.13 747.92 407.17 755.38 402.03 754.87 395.18 751.11 383.31 750.01 379.44 750.11 378.61 751.77 379.12 756.15 377.19 757.47 373.62 761.98 372.49 765.58 368.43 767.83 363.38 772.56 361.96 771.22 361.17 768.43 359 767.81 355.38 768.87 352.98 768.33 350.8 769.73 348.86 768.96 354.21 764.6 351.59 759.92 349.36 758.87 346.04 760.5 341.39 759.91 336.97 761.6 334.58 764.51 332.27 765.19 329.07 764.38 322.53 759.31 320.06 756.26 317.66 755.04 315.95 751.74 313.69 750.51 312.52 746.66 308.86 745.06 296.76 749.66 291.95 753.08 287.28 755.66 285.32 756.03 283.06 750.88 278.65 748.28 277.93 745.32 279.9 741.62 278.48 738.65 280.08 736.27 281.64 736.04 282.55 732.32 280.48 729.4 278.68 728.36 277.17 724.87 272.63 724.26 270.41 723.11 269.05 719.19 265.62 716.53 264.73 713.71 267.49 713.79 268.95 711.96 267.67 710.36 264.86 710.12 263.65 704.75 264.23 699.79 260.74 697.01 257.35 697.95 255.66 696.37 257.46 692.01 256.2 689.96 256.67 686.22 255.2 683.36 249.2 678.37 245.44 674.41 241.61 677.1 237.77 676.67 236.21 677.59 234.14 675.58 231.23 674.96 230.5 672.47 228.6 671.87 229.33 670.36 234.98 667.99 234.61 664.6 232.49 661.78 233.68 660.89 231.48 658.64 228.85 658.93 226.83 656.03 226.83 653.15 225.01 653.16 222.23 650.63 223.02 644 219.04 640.28 217.23 635.08 220.62 629.02 223.29 627.61 226.46 627.61 226.49 625.8 234.1 626.27 234.97 623.23 240.21 624.17 242.35 625.63 245.32 625.46 247.73 623.49 248.6 620.79 250.39 620.29 249.19 616.11 248.41 610.5 247.17 610.74 241.53 607.08 240.34 604.21 238.88 603.49 240.08 601.64 235.64 599.48 236.16 598.24 234.66 595.18 228.84 590.34 226.62 589.03 223.24 591.48 218.83 588.86 215.08 590.2 214.81 591.51 212.04 590.09 213.23 587.71 211.75 581.31 213.23 581.36 213.65 578.38 212.17 577.04 211.74 574.29 209.6 572.36 208.81 565.81 206.75 565.32 200.27 565.47 195.96 564.52 191.18 562.34 187.66 561.5 183.77 559.21 181.33 559.92 179.11 562.89 172.28 560.52 172.93 557.05 170.72 556.21 161.46 557.09 158.92 555.07 158.76 546.3 157.21 544.91 153.48 544.14 149.88 541.93 150.38 538.55 148.36 535.73 145.61 534.38 145.35 531.13 143.23 527.05 137.71 523.7 136.19 521.09 135.7 514.5 130.01 512.04 127.91 510.32 124.91 510.11 123.45 509.04 120.85 510.37 118.85 507.42 116.77 506.24 114.16 508.01 110.6 508.97 109.89 510.5 106.11 512.63 102.76 515.26 100.09 515.35 94.69 516.57 90.87 516.14 90.1 515.3 87.66 516.44 84 516.82 81.18 515.89 80.83 514.31 77.65 511.78 75.18 507.18 75.87 502.5 78.24 498.79 80.45 498.84 80.99 497 79.63 495.67 80.8 493.97 82.71 493.88 85.51 495.7 87.72 495.62 90.33 493.71 90.64 491.04 93.49 489.03 95.55 489.13 99.78 486.48 101.64 486.76 102.96 484.56 102.86 481.67 99.36 482.85 91.17 480.35 89.58 477.19 89.57 475.47 91.39 472.67 91.96 469.91 93.93 468.09 88.75 466.99 84.08 465.34 81.02 466.16 78.28 465.49 76.84 464 70.39 463.48 66.7 462.75 61.83 464.45 58.72 462.13 56.32 461.71 51.23 464.94 47.69 464.64 43.27 465.29 40.16 464.57 36.62 459.1 28.84 460.88 24.51 463.4 21.89 463.98 19.52 465.68 14.69 465.11 3.65 466.63 1.04 464.9 1 463.35 4.79 460.07 9.33 458.5 12.76 459.51 17.52 458.17 21.41 455.28 25.71 455.56 29.47 454.65 30.17 450.65 32.34 443.48 34.9 443.69 35.56 442.66 61.89 441.83 80.6 440.94 102.46 438.77 123.54 436.99 130.1 433.31 138.04 430.51 147.24 430.45 152.34 429.14 175.4 427.38 179.25 425.81 190.47 419.34 195.93 414.62 201.59 413.53 208.83 410.44 214.05 408.94 219.44 405.65 223.37 404.03 228.05 403.53 235.61 401.94 244.17 398.46 246.23 398.65 254.81 397.73 257.85 397.01 261.56 397.2 265.21 396.57 269.49 397.24 275.56 399.69 280.29 400.13 295.99 399.88 307.93 398.99 311.42 399.09 314.05 397.3 323.3 396.51 323.95 395.27 330.33 393.02 334.47 392.81 339.48 391.45 345.29 392.42 349.75 392.22 355.23 389.78 362.75 390.86 364.93 390.61 369.53 392.15 371.61 389.52 378.57 390.46 382.97 389.88 383.23 392.59 380.11 395.61 379.88 403.81 378.1 408.38 377.77 411.43 379.45 412.32 381.27 415.79 378.62 419.02 383.73 419.33 385.15 415.65 389.94 409.7 390.78 406.17 394.87 408.97 401.11 408.5 403.99 409.69 407.64 409.57 409.11 411.11 412.14 412.25 411.67 416.38 412.17 419.44 411.24 420.36 408.3 420.12 406.76 421.88 406.82 424.28 414.48 432.15 413.41 432.39 415.67 434.43 420.6 435.49 424.15 439.74 419.71 440.58 417.89 442.26 415.32 441.69 413.91 444.31 410.13 446.56 409.21 449.88 407.28 452.26 405.08 452.53 402.18 451.64 400.55 452.39 396.96 452.19 396.47 453.6 399.96 454.71 402.45 457.68 391.4 459.08 390.87 463.31 388.33 464.03 385.77 462.49 379.33 464.07 376.92 466.21 379.26 470.35 378.95 471.6 370.87 470.77 369.24 474.38 377.21 478.73 380.08 479.29 383.99 481.34 386.58 481.38 389.41 482.69 393 485.98 392.41 488.63 388.75 491.8 367.91 489.97 357.63 489.19 356.99 490.98 353.13 493.29 348.43 494.44 343.59 496.23 348.44 503.97 348.76 506.83 352.39 509.31 351.19 510.35 352.27 513.44 355.01 514.19 353.09 515.83 354.44 517.37 351.77 518.92 344.11 520.1 338.37 520.24 337.07 517.95 331.62 513.42 333.9 509.9 333.99 508.07 332.26 504.24 330.41 502.69 329.77 499.09 327.74 500.99 323.34 503.22 318.81 507.47 312.97 511.84 308.24 512.03 305.38 513.23 302.51 513.08 305.51 515.37 305.96 516.67 308.47 517.74 315.63 517.77 319.78 519.51 327.05 519.19 328.8 522.89 327.96 526.57 329.55 531.69 331.41 534.46 334.58 536.15 337.94 536.97 345.15 543.34 346.82 544.35 353.9 544.4 355.48 546.02 369.02 567.69 370.52 569.29 366.92 570.63 366.55 574.23 364.17 576.95 355.5 581.64 355.12 583.07 351.42 584.93 351.51 586.35 347.42 584.8 345.3 584.93 349.48 588.6 346.45 592.02 346.78 596.56 344.42 597.33 344.21 602.43 346.15 608.37 349.79 605.85 351.23 607.12 356.57 607.07 361.11 605.25 364.45 606.7 365.3 611.11 367.61 610.45 368.44 605.01 372.49 603.52 373.48 601.92 376.13 601.12 376.64 598.91 378.58 597.81 382.65 593.42 382.17 592.45 384.67 590.62 384.63 589.52 379.93 584.15 384.86 584.01 388.34 581.93 388.86 580.17 390.87 580.49 391.27 582.52 396.07 585.45 395.13 587.75 397.77 588.67 398.15 591 401.87 593.37 401.72 596.42 402.65 597.65 399.47 600.29 400.76 601.9 402.55 601.21 404.08 602.31 407.42 601.99 413.08 606.17 413.89 609.4 413.35 612.95 417.48 615.86 420.06 619.11 423.32 621.66 422.32 625.74 424.62 630.76 431.5 637.83 431.62 641.4 434.4 644.65 434.54 647.68 437.59 648.99 442.3 653.9 441.08 658.14 442.51 662.27 445.95 664.23 449.44 662.21 452.49 661.69 456.27 662.3 456.35 658.1 457.6 656.83 461.06 656.3 465.4 657.71 467.07 654.74 471.22 656.11 471.96 657.78 474.99 656.7 476.81 657.1 478.9 660.08 482.17 660.61 492.39 657.19 497.12 655.91 496.4 654.03 498.25 653.59 502.16 654.39 503.4 653.4 508.2 652.24 508.76 650.88 511.56 653.36 512.12 655.67 511.48 659.07 515.01 661.01 517.95 663.69 512.77 664.55 514.99 666.67 514.22 668.75 511.61 669.39 505.34 668.09 502.74 665.74 500.41 665.33 499.23 669.52 492.67 664.49 492.07 666.12 494.23 669.28 494.31 671.36 497.23 672.16 501.36 671.97 502.62 674.21 505.32 676.34 503.58 678.34 Z" id="_x4E2D__x536B__x5E02_" class="area active" title="中卫市"></path>

</svg>