<!--?xml version="1.0"?-->
<svg xmlns="http://www.w3.org/2000/svg" version="1.2" baseProfile="tiny" width="100%" height="100%" viewBox="0 0 800 882" stroke-linecap="round" stroke-linejoin="round">

<path d="M 389.09 355.44 390.78 358.43 390.52 362.15 390.85 365.12 390.41 365.74 392.18 367.33 396.43 367.82 400.1 369.27 402.79 370.73 404.49 370.55 407.06 369.31 410.21 370.9 416.55 368.53 419.2 367.1 421.4 364.77 423.78 366.4 421.35 369.04 419.43 372.69 419.45 376.35 418.6 378.15 415.57 380.4 417.3 380.81 421.15 379.87 423.29 382.05 429.38 383.49 429.91 387.34 426.31 388.84 424.5 391.35 421.68 397.35 423.78 400.05 426.62 401.4 426.96 404.25 428.32 405.22 430.62 405.69 433.89 407.44 436.18 409.3 438.83 410.78 448.16 408.7 451.88 406.23 454.87 404.82 456.79 404.86 458.21 402.97 459.66 403 461.24 401.84 461.2 403.19 464.66 401.19 467.98 401.15 468.14 402.84 472.17 403.21 473.88 404.02 474.64 405.25 477.5 403.73 479.54 403.48 482.25 404.57 484.5 404.81 486.29 406.02 487.94 408.07 490.61 407.82 492.7 406.26 494.94 407.74 497.27 408.45 500.08 412.13 501.55 421.25 498.64 424.21 498.02 427.12 500.59 427.02 500.79 428.56 499.09 429.15 500.51 430.49 500.8 432.14 503.62 434.12 500.12 436.98 496.47 437.87 494.97 439.2 494.9 442.31 491.2 444.48 494.3 445.73 495.41 448.37 496.85 449.13 497.15 451.13 500.36 452.51 500.86 454.02 500.78 456.75 503.87 457.12 506.12 456.73 508.65 457.89 511.09 458.12 514.8 460.56 513.1 466.82 512.1 469.07 508.44 471.5 507.46 472.9 506.35 476.38 508.37 480.44 507.11 482.11 507.7 483.81 510.26 484.81 508.67 486.67 509.48 489.38 508.3 492.53 508.33 494.42 511.52 498.14 513.05 498.6 512.68 499.89 514.37 499.89 517.44 501.43 516.81 501.9 517.67 504.78 518.39 505.4 518.16 508.41 516.29 509.05 516.62 507.29 513 507.33 511.91 508.81 512.34 510.09 511.5 511.09 512.15 513.69 511.07 513.99 512.03 515.1 510.85 517.16 508.45 517.7 507.33 519.09 507.51 520.74 509.43 520.34 510.81 522.15 513.09 521.78 514.85 522.4 512.74 524.38 514.89 525.26 517.07 528.88 513.74 530.62 511.85 530.5 509.09 528.19 506.14 527.9 504.46 528.37 497.77 531.32 494.56 530.93 491.98 531.99 488.69 531.36 485.77 531.73 484.1 534.28 482.19 533.32 479.43 534.55 476.08 533.96 473.57 535.5 472.13 540.05 471.44 544.1 468.8 546.76 465.28 553.78 463.88 558.6 461.55 562.55 458.63 563.05 456.33 566.13 451.21 566.92 451.77 569.48 451.38 570.77 449.42 573.25 448.47 576.3 445.89 577.81 443.37 578.72 444.57 580.12 448.35 582.63 448.98 585.66 447.91 587.99 444.3 589.36 443.71 592.54 442.05 593.05 441.18 594.46 443.19 596.37 443.94 599.03 443.19 601.18 441.17 604.41 438.21 604.54 436.63 605.28 436.45 606.31 438.07 607.28 440.4 611.73 438.27 612.97 432.32 614.15 430.47 615.2 429.35 617.68 424.57 616.11 419.96 618.2 419.59 620.36 417.61 620.51 416.56 619.17 417.29 618.39 415.12 614.33 413.84 613.63 411.98 614.37 409.8 614.11 408.01 612.33 406.71 612.31 405.32 614.73 403.17 615.25 401.85 614.86 396.78 610.43 393.82 608.57 393.16 606.1 390.93 602.71 387.33 600.64 385.29 598.35 384 598.01 381.58 600.18 378.19 600.06 375.06 598.06 375.98 595.26 375.04 591.47 375.84 590.66 375.87 587.43 373.73 583.91 372.19 580.41 368.67 575.19 367.37 572.64 364.64 572.89 362.49 570.03 360.82 569.34 363 567.26 363.09 564.92 366.11 563.84 367.27 561.89 367.14 558.44 367.76 556.14 369.04 554.38 367.82 551.91 367.95 549.61 371.22 543.85 375.35 537.52 379.27 533.26 380.4 531.38 383.29 530.15 386.31 529.78 395.15 530.18 397.4 529.12 397.51 528.09 395.99 527.21 393.65 521.08 392.26 521.85 388.62 519.88 386.74 519.86 381.17 521.02 379.7 519.4 377.81 520.04 377.53 521.4 376.22 521.14 374.22 521.87 366.46 519.62 364.63 521.09 362.05 522.08 355.95 520.27 353.84 520.94 353.26 522.93 351.31 521.85 349.88 521.92 347.47 523.22 344.46 522.26 339.02 523.86 335.21 523.28 329.54 524.15 326.91 525.39 324.56 523.24 323.05 523.12 322.68 522.01 320.73 521.23 320.21 520.11 316.49 516.64 315.78 514.79 316.37 513.62 316.17 508.73 314.33 505.66 314.08 503.96 314.83 501.93 316.56 499.77 315.78 497.46 315.61 493.2 313.92 490.28 315.14 487.24 314.9 484.64 313.91 484.12 310.4 484.14 311 482.57 310 481.3 308.5 481.85 307.55 479.72 304.31 476.78 303.93 474.96 305.52 472.98 310.64 470.25 311.98 468.65 309.31 468.59 308.8 466.4 307.55 465.13 307.87 464.25 315.94 460.9 317.08 459.72 320.26 457.83 323.63 458.06 327.22 455.6 328.86 453.54 331.87 451.47 332.87 449.98 335.19 449.16 342.19 448.11 344.94 446.62 343.56 445.07 342.66 442.6 345.44 440.22 348.23 441.12 349.14 442.66 350.62 442.13 353 442.53 354.86 443.79 354.84 445.96 358.89 444.69 360.43 443.69 362.24 440.8 363.24 437.96 363.29 436.19 360.53 434.05 359.36 432.4 358.82 428.87 357.14 425.6 355.01 425.15 353.06 423.39 351.8 419.37 352.62 417.75 356.65 417.74 358.6 416.58 359.51 415.12 359.66 412.9 356.15 410.89 355.94 409.29 357.7 407.56 363.33 407.16 365.42 405.58 367.51 400.28 366.69 397.97 365.07 397.28 363.16 398.59 361.84 397.78 361.4 395.52 363.39 391.25 365.01 389.92 364.13 388.69 362.67 389.11 361.76 387.57 362.74 386.61 363.06 381.04 362.5 380.33 358.38 380.72 356.18 380.19 356.96 377.12 359.87 375.58 362.06 375.21 363.51 372.76 363.4 371.38 366.64 367.6 367.27 366.31 366.82 364.02 367.92 362.52 368.75 359.2 367.73 358.37 369.62 356.04 371.25 355.78 373.95 356.47 374.81 357.46 376.79 357.02 378.79 357.72 380.66 356.69 381.83 355.13 383.4 355.4 389.09 355.44 Z" id="_x5408__x80A5__x5E02_" class="area" title="合肥市"></path>
<path d="M 632.85 561.29 633.62 563.62 633.38 567.14 632.01 568.6 631.24 571.2 633.97 572.64 634.75 574.65 637.22 576.46 639.24 580.64 641.57 582.67 643.15 583.17 645.69 587.28 642.97 588.16 640.41 589.57 638.45 591.38 637.24 593.57 637.65 596.19 636.19 597.3 636.07 598.68 637.17 599.76 633.94 603.19 631.7 606.14 627.9 608.86 624.47 608.92 623.49 607.61 623.96 604.9 622.68 604.29 620.69 607.93 618.68 609.58 620.18 613.19 620.39 615.34 618.47 616.95 615.12 617.22 608.3 620.49 609.14 622.76 605.86 622.18 608.12 624.25 608.51 626.7 604.86 629.04 605.4 631.81 604.21 632.86 602.52 632.09 601.91 633.22 603.9 633.95 602.8 636.16 604.16 635.07 606.29 635.77 604.92 637.65 605.06 638.62 602.9 640.17 603.61 642.02 605.83 642.47 607.1 644.04 607.06 645.54 604.03 647.43 603.35 649.04 603.28 651.42 598.49 649.28 599.08 647.45 597.62 645.64 595.15 646.39 593.1 643.51 594.84 643.46 596 641.65 593.94 638.91 591.44 637.64 585.89 638.17 582.96 638.13 581.07 641.71 579.5 641.31 576.22 642.15 574.22 644.63 575.25 646.62 573.93 645.63 573.53 646.83 574.36 649.75 572.74 650.42 572.18 652.98 569.18 655.31 569.02 656.44 572.21 658.78 572.62 659.87 575.51 661.69 573.92 662.85 571.97 662.55 569.53 660.42 567.67 660.16 563.53 661.96 561.24 660.99 559.42 660.96 557.26 662.18 551.53 663.94 548.58 668.14 545.77 670.54 539.77 672.38 539.53 670.69 540.56 668.74 543.97 664.08 544.08 661.78 541.23 657.88 538.93 656.03 534.81 654.69 531.51 652.72 527.96 650.13 522.44 649.32 520.13 646.79 517.63 646.64 517.3 645.95 521.12 640.97 519.58 638.46 521.77 636.65 525.1 635.36 526.92 638.15 529.82 638.55 530.92 636.56 529.49 636.16 532.39 633.7 536.16 634.64 539.45 631.48 545.36 628.7 549.18 628.82 550.45 627.85 548.74 625.16 548.46 623.66 549.71 620.23 549.49 618.35 546.94 617.22 543.76 617.69 540.48 617.17 539.2 614.72 536.87 613.34 534.75 610.4 528.3 609.43 527.2 607.21 525.17 606.53 524.48 604.7 526.52 601.47 523.84 599.21 520.43 598.95 518.39 598.19 515.93 599.81 512.05 600.97 510.1 600.87 505.77 599.19 504.51 597.9 502.81 591.87 501.07 590.01 497.86 588.83 494.72 589.01 490.61 590.58 486.24 593.64 483.93 596.21 481.39 602.65 477.89 610.64 476.15 610.61 475.69 609.11 473.91 610.42 472.21 610.61 472.7 611.89 471.58 614.16 470.31 614.77 469.79 617.54 466.91 617.89 467.14 619.67 466.01 622.35 464.47 620.61 464.37 619.4 460.31 616.97 454.64 615.97 453.12 617.21 450.68 617.56 449.35 616.63 447.35 617.73 444.65 616.72 445.32 613.64 443.02 613.22 440.4 611.73 438.07 607.28 436.45 606.31 436.63 605.28 438.21 604.54 441.17 604.41 443.19 601.18 443.94 599.03 443.19 596.37 441.18 594.46 442.05 593.05 443.71 592.54 444.3 589.36 447.91 587.99 448.98 585.66 448.35 582.63 444.57 580.12 443.37 578.72 445.89 577.81 448.47 576.3 449.42 573.25 451.38 570.77 451.77 569.48 451.21 566.92 456.33 566.13 458.63 563.05 461.55 562.55 463.88 558.6 465.28 553.78 468.8 546.76 471.44 544.1 472.13 540.05 473.57 535.5 476.08 533.96 479.43 534.55 482.19 533.32 484.1 534.28 485.77 531.73 488.69 531.36 491.98 531.99 494.56 530.93 497.77 531.32 504.46 528.37 506.14 527.9 509.09 528.19 511.85 530.5 513.74 530.62 517.07 528.88 516.67 530.84 520.67 532.86 519.56 534.14 517.56 534.34 517.73 536 518.85 537.25 518.62 539.04 519.45 539.82 521.39 538.88 550.52 545.47 551.09 544.76 550.1 543.02 551.53 540.39 547.66 539.13 544.91 539.09 544.24 535.06 546.49 533.34 548.09 533.89 547.12 532.38 545.74 528.71 545.48 525.73 549.18 524.88 550.97 523.27 553.9 522.21 556.04 522.72 556.76 524.14 559.63 524.32 564.43 522.96 564.71 523.68 568.04 526.02 567.68 526.88 571.75 528.68 573.62 529.05 573.77 527.28 574.76 527.48 574.97 529.13 576.77 531.01 575.9 532.89 575.54 536.39 575.99 537.96 577.48 537.94 579.81 536.37 581.12 534.43 585.91 523.14 588.64 527.27 592.39 528.97 593.25 531.69 595.15 533.11 595.16 535.03 593.96 535.92 594.87 539.27 595.93 541.01 597.13 544.43 597.37 546.42 600.11 545.37 601.63 546.38 603.99 546.59 605.07 544.73 608.39 544.28 610.77 545.03 610.42 548.36 613.89 551.09 616.25 554.31 615.17 556.72 615.82 558.91 618.73 562.02 619.16 563.52 622.99 562.91 626.26 563.06 632.85 561.29 Z" id="_x829C__x6E56__x5E02_" class="area" title="芜湖市"></path>
<path d="M 311.15 289.36 312.34 286.23 311.95 284.16 313.14 280.94 314.33 279.25 314.42 276.97 316.61 276.4 316.7 277.35 318.27 276.86 318.15 277.99 321.74 278.4 322.34 277.41 323.7 278.19 324.63 275.23 324.43 273.81 322.3 271.95 318.84 270.7 313.97 268.53 313.33 267.23 313.4 264.77 316.01 262.23 316 258.19 314.35 255.47 314.71 253.77 317.12 251.42 318.09 252 320.56 249.12 322.81 251.28 324.49 251.4 325.51 243.47 326.37 242.12 326.28 238.77 324.13 235.5 322.85 231.27 322.01 231.21 322.25 226.53 323.16 226.01 325.35 226.82 328.82 229.7 330.28 230.27 333.62 229.51 335.13 227.24 339.43 227.24 342.59 226.01 345.02 226.96 347.64 229.42 351.16 230.8 353.18 230.26 355.85 230.86 357.5 230.66 359.67 227.78 361.13 228.31 371.41 229.72 372.04 225.89 370.84 224.48 366.3 223.57 366.18 221.69 367.96 221.5 368.95 219.73 371.08 219.35 371.59 218.15 369.63 216.22 365.94 214.8 364 215.23 365.59 211.73 369.2 209.33 371.29 210.73 373.63 210.74 373.39 211.66 376.43 213.62 377.76 212.56 379.49 208.82 377.96 207.13 376.66 206.69 376.98 204.65 378.81 203.41 381.34 203.9 382.15 200.81 389.36 206.51 390.25 201.55 394.16 198.17 395.94 195.38 396.13 193.44 399.28 194.19 407.26 195.22 409.07 197.69 413.22 197.77 416.6 198.56 420.97 201.02 422.68 206.29 426.44 210.45 428.02 213.95 435.3 219.19 436.51 219.56 440.37 219.47 443.96 220.54 445.8 222.53 449.88 221.62 452.2 222.92 454.15 223.28 457.46 220.52 459.86 219.59 461.23 219.87 463.08 221.58 467.24 222.51 468.8 225.52 470.98 226.35 471.4 228.58 474.4 230.04 477.34 229.73 478.96 231.36 485.25 230.13 488.25 230.94 490.77 230 490.97 227.82 493.53 227.34 497.18 227.98 498.34 226.46 499.29 223.01 501.26 222.29 505.18 222.06 505.77 220.44 507.65 219.74 508.8 222.15 514.85 222.35 518.29 222.15 519.34 221.47 521.69 221.67 520.5 223.8 520.04 227.79 517.91 231 512.73 233.44 514.16 235.2 512.65 238.19 513.21 239.74 515.13 239.92 519.09 239.54 521.77 242.04 521.79 242.99 519.76 243.76 521.05 247.33 523.12 247.51 523.84 248.9 525.78 249.86 527.16 251.3 529.07 251.91 529.26 254.78 530.71 254.24 534.66 253.91 534.23 254.79 531.29 255.02 530.33 256.12 531.45 256.51 535.22 254.79 535.34 257.77 533.75 261.11 535.03 263.85 533.19 264.91 528.34 265.03 525.89 267.13 523.59 268.16 522.6 270.62 523.72 272.16 525.93 271.63 529.02 272.88 528.13 274.95 524.76 277.12 523.48 277.05 519.98 275.45 517.94 277.09 514.13 274.99 512.43 275.98 508.38 279.49 506.01 279.05 502.72 276.96 505.32 275.09 505.72 274.14 504.54 272.1 505.06 271.55 503.9 269.61 502.8 270.39 499.48 271.39 493.12 272.71 489.4 272.19 487.28 269.85 484.91 269.49 483.11 270.58 480.39 275.77 478.83 277.24 475.73 276.35 473.96 276.99 472.34 279.93 471.73 282.56 469.14 286.82 467.91 291.01 465.52 292.36 463.62 292.1 460.39 290.01 456.47 290.44 454.21 288.48 452.01 287.29 450.63 285.56 447.26 282.51 444.37 280.67 443.86 282.94 443.93 287.64 441.21 288.67 440 292.73 439.08 294.6 441.19 296.48 441.41 298.3 440.52 299.4 437.68 300.08 435.66 303.72 434.31 304.69 432.07 303.96 427.8 303.83 426.11 303.11 424.93 305.55 421.7 304.81 417.1 304.58 415.99 304.19 414.16 306.01 409.87 306.57 408 306.18 406.94 307.73 403.13 307.99 402.36 309.43 399.88 310.76 398.25 309.96 396.38 311.81 394.23 315.57 391.27 318.94 389.35 320.05 388.22 321.84 385.9 321.63 385.45 320.77 382.27 320.97 382.05 319.3 379.89 319.05 376.39 317.97 369.58 320.27 369.1 321.77 370.64 323 367.95 324.72 366.54 323.64 363.18 324.94 362.74 324.07 364.53 322.68 362.13 322.15 361.04 319.71 360.22 319.66 360.33 317.93 358.55 318.04 355.74 314.4 354.06 313.63 348.87 312.28 344.54 309.44 342.2 309.31 342.58 308.14 338.21 305.17 338.39 303.71 336.87 302.99 335.7 303.49 327.65 297.91 328.73 296.41 328.03 295.7 324.91 295.16 322.74 293.73 320.42 293.32 319.41 291.28 316.64 290.57 315.45 291.42 314.87 290.18 311.15 289.36 Z" id="_x868C__x57E0__x5E02_" class="area" title="蚌埠市"></path>
<path d="M 317.08 459.72 313.3 458.42 309.06 458.81 305.58 460.75 303.13 461.03 301.92 459 301.91 452.02 302.16 450.22 301.49 448.84 299.78 448.55 290.55 444.7 286.23 441.72 283.61 441.43 279.54 440.15 280.39 437.82 279.07 433.53 279.96 431.66 277.24 428.46 275.83 425.37 276.76 422.38 276.15 419.45 274.29 417.49 273.25 413.94 274.55 412.31 274.31 410.92 271.88 408.8 274.26 407.46 276.31 404.58 275.35 401.14 276.12 399.53 275.3 395.88 274.92 392.22 273.29 390.53 272.01 387.28 269.05 384.53 268.54 382.02 269.25 379.88 270.39 378.58 268.38 376.75 269.15 371.3 270.1 369.78 270.81 366.95 273.36 367.74 275.48 363.41 275.67 359.59 282.85 353.74 290.75 353.64 294.31 352.12 293.29 348.55 291.81 347.18 288.75 346.25 280.87 346.76 281.05 344.39 278.42 343.9 278.04 341.81 278.68 340.57 277.6 339.63 276.09 334.72 272.77 333.86 272.06 330.83 269.91 330.7 269.54 331.34 265.04 330.84 262.52 327.99 262.34 326.55 263.85 325.17 264.23 322.65 262.53 322.13 262.15 319.52 262.89 317.45 263.12 312.74 261.88 310.88 262.06 309.37 263.19 308.58 261.58 307.29 262.58 303.62 258.61 301.22 255.96 301.97 253.28 301.35 252.7 299.47 254.02 296.82 254.05 295.62 253.92 292.36 252.56 290.54 249.24 287.35 249.12 286.31 250.22 283.29 251.01 282.61 251.04 278.47 252.01 276.62 262.72 279.95 293.11 287.22 302.56 287.58 306.13 287.98 311.15 289.36 314.87 290.18 315.45 291.42 316.64 290.57 319.41 291.28 320.42 293.32 322.74 293.73 324.91 295.16 328.03 295.7 328.73 296.41 327.65 297.91 335.7 303.49 336.87 302.99 338.39 303.71 338.21 305.17 342.58 308.14 342.2 309.31 344.54 309.44 348.87 312.28 354.06 313.63 355.74 314.4 358.55 318.04 360.33 317.93 360.22 319.66 361.04 319.71 362.13 322.15 364.53 322.68 362.74 324.07 363.18 324.94 366.54 323.64 367.95 324.72 370.64 323 369.1 321.77 369.58 320.27 376.39 317.97 379.89 319.05 382.05 319.3 382.27 320.97 385.45 320.77 385.9 321.63 388.22 321.84 389.77 322.92 387.2 324.83 386.28 328.21 382.6 329.85 382.43 331.07 384.29 333.57 384.72 335.44 388.23 342.94 388.76 347.77 391.36 351.04 390.81 353.34 389.45 354.03 389.09 355.44 383.4 355.4 381.83 355.13 380.66 356.69 378.79 357.72 376.79 357.02 374.81 357.46 373.95 356.47 371.25 355.78 369.62 356.04 367.73 358.37 368.75 359.2 367.92 362.52 366.82 364.02 367.27 366.31 366.64 367.6 363.4 371.38 363.51 372.76 362.06 375.21 359.87 375.58 356.96 377.12 356.18 380.19 358.38 380.72 362.5 380.33 363.06 381.04 362.74 386.61 361.76 387.57 362.67 389.11 364.13 388.69 365.01 389.92 363.39 391.25 361.4 395.52 361.84 397.78 363.16 398.59 365.07 397.28 366.69 397.97 367.51 400.28 365.42 405.58 363.33 407.16 357.7 407.56 355.94 409.29 356.15 410.89 359.66 412.9 359.51 415.12 358.6 416.58 356.65 417.74 352.62 417.75 351.8 419.37 353.06 423.39 355.01 425.15 357.14 425.6 358.82 428.87 359.36 432.4 360.53 434.05 363.29 436.19 363.24 437.96 362.24 440.8 360.43 443.69 358.89 444.69 354.84 445.96 354.86 443.79 353 442.53 350.62 442.13 349.14 442.66 348.23 441.12 345.44 440.22 342.66 442.6 343.56 445.07 344.94 446.62 342.19 448.11 335.19 449.16 332.87 449.98 331.87 451.47 328.86 453.54 327.22 455.6 323.63 458.06 320.26 457.83 317.08 459.72 Z" id="_x6DEE__x5357__x5E02_" class="area" title="淮南市"></path>
<path d="M 514.8 460.56 516.89 461.35 520.91 464.65 530.36 468.38 533.2 468.55 535.06 469.83 536.92 469.34 537.25 465.38 541.13 463.04 543.09 460.58 544.97 461.05 547.6 460.27 551.51 461.59 553.31 460.33 554.22 458.39 557.01 456.97 559.65 457.37 562.95 454.22 565.85 452.49 571.44 448.23 573.91 447.29 573.99 445.2 575.98 441.54 578.86 439.63 581.25 438.92 582.86 437.28 587.34 435.13 588.9 436.76 587.49 439.31 590.09 441.73 588.11 442.84 588.33 446.62 587.69 447.66 585.94 447.92 586.36 450.34 584.65 452.2 584.73 454.21 583.87 456.56 585.7 457.36 587.5 459.13 590.33 459.26 592.5 461.37 596.56 462.83 598.59 464.18 601.95 465.02 601.08 466.82 601.02 468.64 602.47 469.92 605.01 471.13 607.37 471.36 604.26 479.12 603.6 481.98 607.12 482.03 608.39 484.11 610.53 484.72 612.25 483.83 613.22 484.79 613.06 486.83 610.29 487.89 611.61 488.01 614.13 489.73 614.96 489.07 616.16 490.13 618.59 487.36 619.19 488.24 622.17 487.66 623.45 486.06 624.89 485.52 626.51 486.71 627.86 485.14 630.3 485.34 631.43 486.92 630.37 487.68 632.05 488.44 632.36 490.05 636.27 490.31 637.54 490.93 637.95 492.39 639.69 493.52 636.85 495.66 635.62 495.71 635.28 497.03 632.52 499.18 631.2 498.47 630.57 499.89 631.36 501.9 630.63 503.46 633.02 504.96 635.69 505.05 637.53 505.77 639.23 505.19 642.91 505.23 643.32 507.24 644.87 506.1 645.8 506.45 647.63 502.38 647.5 500.4 648.64 498.83 651.51 498.87 652.48 498.01 656.66 500.72 653.98 502.38 655.07 504.05 656.15 507.1 657.28 508.58 659.25 508.62 660.09 507.06 662.48 506.76 666.62 507.83 668.33 509.93 668.67 511.95 667.75 513.21 669.76 513.57 669.1 516.21 670.54 517.74 669.39 519.88 669.16 523.24 670.87 523.32 671.19 525.42 668.23 525.15 668.62 524.23 666.5 524.6 664.56 527.05 664.64 528.07 666.32 527.5 670.83 528.56 669.84 532.14 668.62 534.77 667.88 537.81 668.48 541.71 665.38 546.58 664.75 546.34 661.76 549.09 656.86 550.52 654.23 550.59 652 551.5 651.36 551.04 651.85 548.79 651.02 547.34 649.22 547.83 647.73 549.9 645.94 554.57 643.6 558.28 642.54 558.44 640.76 560.77 638.76 560.57 637.02 561.35 632.85 561.29 626.26 563.06 622.99 562.91 619.16 563.52 618.73 562.02 615.82 558.91 615.17 556.72 616.25 554.31 613.89 551.09 610.42 548.36 610.77 545.03 608.39 544.28 605.07 544.73 603.99 546.59 601.63 546.38 600.11 545.37 597.37 546.42 597.13 544.43 595.93 541.01 594.87 539.27 593.96 535.92 595.16 535.03 595.15 533.11 593.25 531.69 592.39 528.97 588.64 527.27 585.91 523.14 581.12 534.43 579.81 536.37 577.48 537.94 575.99 537.96 575.54 536.39 575.9 532.89 576.77 531.01 574.97 529.13 574.76 527.48 573.77 527.28 573.62 529.05 571.75 528.68 567.68 526.88 568.04 526.02 564.71 523.68 564.43 522.96 559.63 524.32 556.76 524.14 556.04 522.72 553.9 522.21 550.97 523.27 549.18 524.88 545.48 525.73 545.74 528.71 547.12 532.38 548.09 533.89 546.49 533.34 544.24 535.06 544.91 539.09 547.66 539.13 551.53 540.39 550.1 543.02 551.09 544.76 550.52 545.47 521.39 538.88 519.45 539.82 518.62 539.04 518.85 537.25 517.73 536 517.56 534.34 519.56 534.14 520.67 532.86 516.67 530.84 517.07 528.88 514.89 525.26 512.74 524.38 514.85 522.4 513.09 521.78 510.81 522.15 509.43 520.34 507.51 520.74 507.33 519.09 508.45 517.7 510.85 517.16 512.03 515.1 511.07 513.99 512.15 513.69 511.5 511.09 512.34 510.09 511.91 508.81 513 507.33 516.62 507.29 516.29 509.05 518.16 508.41 518.39 505.4 517.67 504.78 516.81 501.9 517.44 501.43 514.37 499.89 512.68 499.89 513.05 498.6 511.52 498.14 508.33 494.42 508.3 492.53 509.48 489.38 508.67 486.67 510.26 484.81 507.7 483.81 507.11 482.11 508.37 480.44 506.35 476.38 507.46 472.9 508.44 471.5 512.1 469.07 513.1 466.82 514.8 460.56 Z M 671.19 525.42 670.83 528.56 666.32 527.5 668.23 525.15 671.19 525.42 Z" id="_x9A6C__x978D__x5C71__x5E02_" class="area" title="马鞍山市"></path>
<path d="M 253.9 146.3 256.33 142.54 258.45 144.02 260.41 144.25 261.14 142.95 260.47 140.98 261.2 135.67 263.83 135.6 265.02 133.43 267.34 133.19 269.17 131.78 272.01 132.63 272.58 131.35 275.25 131.56 275.92 129.98 277.87 129.69 278.27 131.04 279.51 129.65 281.47 129.82 280.92 128.68 281.46 126.44 282.92 125.34 285.36 125.33 287.95 126.02 290.42 127.62 293.01 128.63 295.59 127.98 294.89 123.84 296.1 121.71 295.14 118.53 296.87 116.83 296.48 114.44 294.05 113.81 293.45 112.65 289.65 109.99 288.97 108.65 289.14 106.4 292.94 107.03 296.6 106.38 298.9 106.93 301.66 108.27 303.49 107.27 305.84 108.39 307.05 107.6 310.32 107.26 310.92 107.95 312.85 107.13 313.96 107.8 319.32 108.07 319.26 108.75 321.3 109.41 322.44 111.03 323.21 107.9 322.25 104.55 323.33 99.26 323.88 98.6 322.97 97.08 325.06 95.55 324.71 97.78 326.71 100.11 327.54 98.89 329.61 98.29 330.42 96.16 334.34 97.59 336.81 96.12 339.08 93.52 340.17 93.4 343.47 94.7 343.62 96.48 347.99 96.95 350.91 96.75 348.99 99.22 346.72 101.23 347.08 103.77 346.65 104.78 349.92 105.14 350.66 105.69 350.3 107.68 351.83 108.77 351.07 110.19 351.64 111.04 348.32 115.39 350.55 116.37 352.7 115.84 353.96 116.38 353.95 117.88 355.33 120.3 353.82 122.54 354.93 124.34 353.08 126.88 349.19 127.9 348.57 130.03 348.41 135.47 347.28 138.02 346.97 141.99 347.09 145.12 345.74 147.86 346.03 150.75 347.17 152.48 344.43 152.14 344.04 153.62 345.25 159.35 343.4 159.71 343.59 164.7 341.54 164.54 339.73 165.08 335.46 164.08 334.27 164.24 333.58 166.58 333.95 168.5 333.3 170.7 331.93 172.88 332.85 176.3 334.28 178.69 338.59 181.63 341.22 180.59 344.87 180.25 343.41 184.59 343.34 186.34 341.23 187.18 339.44 192.69 341.95 194.89 339.64 196.65 339.5 197.53 343.49 198.59 343.61 200.03 345.38 201.46 348.52 201.68 349.85 203.19 349.76 204.91 350.62 205.7 349.59 207.25 350.29 208.37 349.45 210.55 350.97 211.78 348.43 213.8 348.26 214.72 345.86 214.22 344.16 217.1 343.39 217.34 342.73 219.39 341 219.72 342.21 221.43 341.75 222.41 343.24 223.05 343.6 224.32 342.59 226.01 339.43 227.24 335.13 227.24 333.62 229.51 330.28 230.27 328.82 229.7 325.35 226.82 323.16 226.01 322.25 226.53 320.1 223.87 320.32 221.4 319.82 219.27 320.95 218.01 320.41 217.14 322.07 212.76 321.35 209.94 322.7 206.61 316.99 205.11 314.68 204 312.87 202.22 308.97 201.95 305.18 198.04 303.04 197.38 299.45 197.94 295.54 197.44 294.54 196.21 292.37 196.12 290.58 196.73 287.37 197.03 285.45 198.52 283.12 199.34 279.64 199.07 277.65 196.83 277.39 194.03 278.24 191.49 277.5 189.5 275.84 188.58 276.46 186.33 275.97 185.08 277.04 182.71 279.73 181.96 278.5 179.03 280.32 178.86 280.25 177.51 279.03 177.32 277.35 174.51 272.61 173.78 272.33 171.72 268.54 167.87 269.33 165.89 270.38 165.5 270.43 163.34 269.05 160.56 268.11 160.54 268.25 158.75 265.6 156.9 265 154.49 260.51 153.56 260.94 149.79 256.03 149.73 256.32 148.42 253.9 146.3 Z M 360.7 82.06 360.73 83.9 359.32 82.9 357.58 84.94 356.24 84.62 355.71 86.14 352.43 86.99 350.64 84.08 351.31 81.66 352.47 81.97 352.1 83.86 354.33 81.78 352.47 81.11 352.11 77.18 354.64 75.42 353.54 75.61 354.52 72.67 356.73 70.97 357.02 73.19 359.05 74.2 360.47 72.91 361.29 71.15 360.62 69.32 362.46 68.34 363.72 69.38 362.94 72.34 363.96 72.87 363.33 75.52 362.17 76.23 360.57 78.78 359.66 81.9 360.7 82.06 Z" id="_x6DEE__x5317__x5E02_" class="area" title="淮北市"></path>
<path d="M 519.58 638.46 515.1 642.85 513.37 640.25 511.91 639.81 508.77 642.52 506.65 643.45 503.44 643.73 501.56 644.47 497.13 647.73 496.45 650.21 492.01 652.51 489.89 652.92 488.74 654.43 486.65 654.21 486.35 651.8 482.37 652.21 482.66 650.85 480.74 649.39 482 647.1 481.26 645.3 479.76 644.59 476.12 647.28 472.38 647.48 472.93 644.69 467.7 648.89 463.51 649.71 452.02 653.05 440.35 658.07 438.07 663.09 436.7 664.8 434.18 666.06 430.95 666.05 426.14 665.41 422.29 664.1 421.45 663.38 416.84 663.5 412.92 664.39 407.24 666.42 401.07 669.8 391.76 674.16 390.89 673.4 389.82 670.18 390.13 667.64 391.08 666.12 392.92 664.8 395.83 664.15 389.74 663.88 388.96 662.22 387.33 662.8 386.78 661.43 385.23 662.18 382.71 661.1 376.3 655.78 375.04 653.17 372.33 651.26 373 647.36 373.21 641.18 371.57 631.44 369.89 624.25 368.87 618.71 369.26 616.51 371.35 614.22 371.14 610.61 374.06 610.05 376.28 611.18 377.99 611.09 379.06 609.88 378.46 607.46 379.52 605.73 379.55 603.23 380.52 602.55 381.58 600.18 384 598.01 385.29 598.35 387.33 600.64 390.93 602.71 393.16 606.1 393.82 608.57 396.78 610.43 401.85 614.86 403.17 615.25 405.32 614.73 406.71 612.31 408.01 612.33 409.8 614.11 411.98 614.37 413.84 613.63 415.12 614.33 417.29 618.39 416.56 619.17 417.61 620.51 419.59 620.36 419.96 618.2 424.57 616.11 429.35 617.68 430.47 615.2 432.32 614.15 438.27 612.97 440.4 611.73 443.02 613.22 445.32 613.64 444.65 616.72 447.35 617.73 449.35 616.63 450.68 617.56 453.12 617.21 454.64 615.97 460.31 616.97 464.37 619.4 464.47 620.61 466.01 622.35 467.14 619.67 466.91 617.89 469.79 617.54 470.31 614.77 471.58 614.16 472.7 611.89 472.21 610.61 473.91 610.42 475.69 609.11 476.15 610.61 477.89 610.64 481.39 602.65 483.93 596.21 486.24 593.64 490.61 590.58 494.72 589.01 497.86 588.83 501.07 590.01 502.81 591.87 504.51 597.9 505.77 599.19 510.1 600.87 512.05 600.97 515.93 599.81 518.39 598.19 520.43 598.95 523.84 599.21 526.52 601.47 524.48 604.7 525.17 606.53 527.2 607.21 528.3 609.43 534.75 610.4 536.87 613.34 539.2 614.72 540.48 617.17 543.76 617.69 546.94 617.22 549.49 618.35 549.71 620.23 548.46 623.66 548.74 625.16 550.45 627.85 549.18 628.82 545.36 628.7 539.45 631.48 536.16 634.64 532.39 633.7 529.49 636.16 530.92 636.56 529.82 638.55 526.92 638.15 525.1 635.36 521.77 636.65 519.58 638.46 Z M 405.17 698.17 406.91 696.99 408.96 697.24 409.76 698.1 410.11 700.95 409.31 702.35 408.12 702.41 406.56 705.1 404.54 705.91 405.53 708.52 402.49 710.35 400.38 709.39 397.61 709.33 397.7 707.95 398.82 707.66 400.16 705.78 398.21 703.72 398.4 702.97 401.37 701.85 404 700 405.17 698.17 Z M 348.84 674.5 344.48 673.91 342.13 671.55 342.38 670.2 344.44 669.02 347.28 669.88 348.21 669.57 349.95 669.73 351.57 671.99 348.84 674.5 Z" id="_x94DC__x9675__x5E02_" class="area" title="铜陵市"></path>
<path d="M 339.23 719.92 340.4 724.01 342.11 727.13 343.49 731.03 343.22 733.96 342.11 736.56 337.45 739.48 333.23 743.99 331.98 750.06 328.94 755.18 324.76 760.48 317.2 767.41 313.11 770.16 308.58 770.72 302.79 767.93 299.64 766.9 295.58 766.96 290.28 767.91 287.87 769.75 286.1 772 283.64 777.33 283.62 781.55 282.5 788.23 281.53 792.42 280.4 794.84 278.65 796.22 275.97 796.91 268.32 796.85 266.29 797.14 261.94 799.87 253.7 803.9 248.2 805.93 245.42 807.27 242.02 809.89 240.27 811.74 234.99 815.1 231.75 816.25 230.44 816.07 226.04 810.41 222.82 808.64 219.34 808.37 216 808.65 210.61 809.99 210.07 805.82 210.5 800.27 209.04 796.26 205.4 792 202.32 787.99 201.02 787.1 200.34 784.78 201.61 782.8 201.09 778.04 202.87 775.24 203.32 773.69 201.37 770.16 201.24 768.66 202.17 767.03 202 763.74 202.77 761.3 202.21 758.62 200.54 757.39 198.55 754.36 197.47 751.3 197.35 749.44 198.68 747.34 198.75 745.11 195.69 742.26 193.28 741.73 192.43 739.61 190.02 737.97 187.1 737.05 186.11 735.03 185.52 731.02 184.78 730.23 181.01 728.62 177.71 728.35 174.89 729.31 171.97 727.83 171.85 726.87 173.63 725.45 174.02 723.75 170.64 720.02 168.7 716.19 171.38 713.13 172.78 712.97 174.83 710.03 176.42 709.34 177.62 709.8 178.95 708.55 174.71 707.77 173.83 705.41 170.36 703.95 170.23 702.8 171.36 701.1 170.91 699 172.86 694.9 174.56 693.51 172.09 691.91 171.14 689.68 169.19 688.91 168.4 686.08 167.13 684.41 167.73 682.92 165.57 681.31 164.08 681.04 162.6 678.97 159.19 678.25 158.52 679.93 157.69 679.64 155.79 676.68 156.98 675.13 156.14 672.15 154.28 670.9 153.98 669.47 150.36 667.76 149.86 666.24 148.21 664.95 149.03 663.48 148.71 661.28 150.53 657.7 151.62 653.88 153.27 652.61 156.24 652.59 157.85 654.05 160.29 653.1 163.11 653.04 163.58 651.25 165.93 650.11 166.12 648.73 164.31 648.34 165.51 646.09 165.16 643.15 162.66 641.01 162.77 638.89 165.18 636.54 165.48 635.03 167.37 634.24 168.83 632.76 173.37 631.13 176.65 630.83 177.28 628.57 183.04 625.7 184 623.78 186.87 622.9 189.63 620.73 192.12 620.08 193.75 620.49 194.59 619.36 199.99 619.56 199.64 617.47 198.07 613.15 197.84 610.17 195.7 609.88 196.61 605.24 196.51 604.01 199.08 600.57 203.49 598.46 203.61 597.22 205.48 596.49 207.88 597.76 214.38 595.68 215.81 595.96 218.33 598.35 218.74 601.44 222.01 602.61 225.22 601.96 228.73 599.65 231.74 598.51 232.93 595.55 237.04 593.09 238.8 591.68 239.84 588.79 243.35 587.92 245.36 586.78 245.73 584.91 248.18 583.17 251.43 584.61 254.21 585.17 257.51 585.15 260.29 588.17 261.26 590.8 265.05 591.22 266.68 589.59 268.65 589.37 271.14 587.4 272.01 588.62 273.08 588.45 274.97 585.49 278.14 583.09 278.97 581.84 280.54 582.21 281.17 583.48 280.54 584.53 281.46 587.59 281.05 591.66 282.19 593.7 279.96 596.69 278.18 600.23 277.31 602.82 277.52 604.91 276.88 606.39 276.82 608.79 279 608.91 281.8 606.51 282.37 604.68 283.6 603.63 287.05 604.33 287.53 603.24 290.37 601.04 290.79 599.93 292.21 599.9 296.32 602.44 297.47 603.56 299.41 602.41 302.43 602.97 303.28 604.15 306.8 605.07 309.02 602.33 311.34 601.61 314.01 602.11 315.45 600.86 318.18 600.58 320.03 601.37 322.93 598.54 324.55 598.01 326.85 595.36 329.18 594.82 328.99 593.32 329.82 591.44 332.35 590.55 334.65 590.96 337.83 589.97 341.91 586.97 342.48 585.5 346.02 585.22 346.53 581.71 347.72 580.63 349.26 576.38 352.3 571.36 355.11 569.36 356.54 567.48 358.14 567.62 360.82 569.34 362.49 570.03 364.64 572.89 367.37 572.64 368.67 575.19 372.19 580.41 373.73 583.91 375.87 587.43 375.84 590.66 375.04 591.47 375.98 595.26 375.06 598.06 378.19 600.06 381.58 600.18 380.52 602.55 379.55 603.23 379.52 605.73 378.46 607.46 379.06 609.88 377.99 611.09 376.28 611.18 374.06 610.05 371.14 610.61 371.35 614.22 369.26 616.51 368.87 618.71 369.89 624.25 371.57 631.44 373.21 641.18 373 647.36 372.33 651.26 365.39 650.28 364.4 650.47 362.73 653.37 358.41 653.86 356.46 652.64 356.52 655.13 353.65 656.97 352.88 658.73 355.11 659.78 354.68 661.38 353.41 661.67 352.14 663.76 350.63 663.95 349.05 667.14 347.63 668.51 348.21 669.57 347.28 669.88 344.44 669.02 342.38 670.2 342.13 671.55 344.48 673.91 348.84 674.5 348.91 676.42 349.93 677.31 350.24 680.1 350.98 681.53 350.84 683.79 349.41 684.91 347.94 683.42 346.9 683.98 344.92 682.62 342.71 682.53 342.34 684.58 340.68 684.68 339.32 687.14 338.09 686.91 337.14 690.7 335.19 692.86 336.21 694.88 334.32 695.16 333.23 696.26 334.24 697.78 332.53 698.14 327.73 700.02 324.35 702.18 321.51 702.9 317.78 703.32 316.45 703.87 313.58 706.71 314.67 709.26 318.07 711.44 318.64 710.6 321.11 709.86 323.01 708.28 325.11 708.49 327.25 709.79 330.42 707.66 331 710.11 330.26 710.27 333.21 715.99 334.76 718.11 334.98 719.95 337.15 720.34 339.23 719.92 Z M 391.76 674.16 391.89 675.83 396.93 681.08 397.65 685.32 396.24 689.64 395.82 692.16 395 695.23 393.31 697.87 391.15 699.89 387.6 701.74 382.88 700.25 378.04 697.36 374.1 696.81 359.68 696.99 357.17 697.82 353.13 700.92 351.32 703.05 347.12 705.6 344.63 706.02 341.09 708.51 338.86 706.66 337.4 707.57 337.32 710.31 336.71 711.6 337.64 715.85 339.23 719.92 337.15 720.34 334.98 719.95 334.76 718.11 333.21 715.99 330.26 710.27 331 710.11 330.42 707.66 327.25 709.79 325.11 708.49 323.01 708.28 321.11 709.86 318.64 710.6 318.07 711.44 314.67 709.26 313.58 706.71 316.45 703.87 317.78 703.32 321.51 702.9 324.35 702.18 327.73 700.02 332.53 698.14 334.24 697.78 333.23 696.26 334.32 695.16 336.21 694.88 335.19 692.86 337.14 690.7 338.09 686.91 339.32 687.14 340.68 684.68 342.34 684.58 342.71 682.53 344.92 682.62 346.9 683.98 347.94 683.42 349.41 684.91 350.84 683.79 350.98 681.53 350.24 680.1 349.93 677.31 348.91 676.42 348.84 674.5 351.57 671.99 349.95 669.73 348.21 669.57 347.63 668.51 349.05 667.14 350.63 663.95 352.14 663.76 353.41 661.67 354.68 661.38 355.11 659.78 352.88 658.73 353.65 656.97 356.52 655.13 356.46 652.64 358.41 653.86 362.73 653.37 364.4 650.47 365.39 650.28 372.33 651.26 375.04 653.17 376.3 655.78 382.71 661.1 385.23 662.18 386.78 661.43 387.33 662.8 388.96 662.22 389.74 663.88 395.83 664.15 392.92 664.8 391.08 666.12 390.13 667.64 389.82 670.18 390.89 673.4 391.76 674.16 Z" id="_x5B89__x5E86__x5E02_" class="area" title="安庆市"></path>
<path d="M 668.35 762.76 669.03 763.91 669.45 767.69 670.02 768.92 671.57 769.31 673.11 771.06 671.98 772.84 673.99 774.89 673.23 776.87 671.94 777.74 672.74 779.55 672.24 780.62 673.47 782.86 672.15 786.47 672.67 790.12 671 789.98 668.87 788.65 667.52 790.3 664.9 789.58 663.3 790.72 664.33 793.94 664.44 796.64 663.74 797.95 658.11 801.91 657.26 803.08 653.26 806.22 651.28 805.04 649.39 805.63 648.6 807.94 651.11 809.38 650.02 810.37 647.77 810.2 646.76 811.02 646.19 815.17 647.49 816.65 648.28 819.75 647.56 823.49 644.2 826.2 643.2 828.44 640.21 828.9 637.11 832.25 635.71 835.16 631.25 839.47 630.18 839.71 628.94 838.56 626.67 837.67 623.67 839.41 618.95 840.3 615.8 844.49 614.94 844.49 612.48 848.3 606.68 850.8 605.73 854.48 606.22 856.11 605.9 860.19 603.07 861.64 599.59 862.41 598.04 861.22 594.78 862.86 592.34 861.84 588.67 862.25 587.15 861.73 586.45 863.04 582.93 867.31 581.07 867.83 577.18 863.98 574.86 864.14 574.2 866.91 575.78 871.75 575.79 876.43 571.65 876.87 570.78 875.74 569.12 876.3 567.7 875.55 565.68 875.83 564.47 874.97 561.87 876.21 559.38 876.8 557.06 880.98 555.18 881.01 554.36 879.19 552.43 879.43 550.26 878.2 545.65 877.06 544.54 874.76 546.07 873.91 545.97 871.03 544.23 868.15 546.94 865.19 546.8 863.49 545.39 862 541.2 859.8 540.18 858.34 536.7 857.82 531.35 856.24 530.05 852.37 525.22 850.53 523.51 850.4 521.97 851.22 520.3 853.15 516.98 851.75 515.31 852.57 512.6 855.17 509.6 854.34 504.42 855.8 502.18 855.74 500.02 854.41 498.08 854.26 494.38 852.78 493.19 851.44 490.59 851.15 488.53 851.7 484.5 853.91 481.51 853.36 478.66 854.84 473.91 855.27 471.03 854.11 469.78 852.09 469.65 848.86 469.11 847.49 467.43 847.23 466.17 844.75 463.91 844.23 460.62 845.69 457.34 848.14 453.62 849.28 451.54 848.22 448.84 848.38 446.88 847.68 446.39 848.64 444.88 846.97 443.07 841.77 444.26 837.68 441.91 836.12 438.09 836.76 434.82 835.28 431.08 830.66 431.98 825.74 431.62 821.75 429.62 820.11 428.21 819.75 424.67 815.24 423.93 812.8 426.55 807.44 425.54 804.8 422.95 805.05 419.73 805.93 418.37 810.21 415.07 810.94 413.67 809.5 412.12 805.22 411.22 804.77 409.95 805.9 406.15 806.48 405.19 807.07 404.38 809.42 402 809.03 400.83 808.2 398.52 808.01 397.17 805.52 398.42 803.27 399.25 799.73 397.9 794.99 396.65 793.97 391.76 791.99 389.95 791.89 389.43 785.59 389.94 784.06 398.98 782.22 400.19 782.56 405.26 780.96 407.18 779.91 409.71 780.09 413.99 778.37 420.11 777.9 421.41 774.77 424.33 774.65 427.97 776.28 430.18 775.89 432.74 773.39 437.93 773.91 441.06 773.54 446.19 770.9 445.17 766.93 446.52 765.22 445.06 765.72 443.99 763.08 446.01 761.23 446.78 762.74 448.23 762.74 449.18 765.79 450.6 764.98 451.04 762.71 449.24 762.38 450.65 761.77 451.32 760.37 453.35 759.99 455.84 758.02 457.64 757.73 458.45 761.05 461.1 763.12 463.07 762.06 463.61 760.58 465.24 760.42 466.35 761.52 468.65 761.68 468.15 759.3 470.39 758.63 469.72 757.52 472.45 755.73 479.86 753.96 485.71 753.51 489.01 752.34 492.79 749.18 494.62 749.24 497.23 747.55 498.22 747.64 499.64 744.74 499.14 743.36 494.28 742.04 493.55 739.29 496.57 736.15 499.96 735.14 504.19 734.61 503.84 730.65 506.48 730.48 508.28 729.64 507.4 727.88 509.52 726.17 510.89 726.21 511.48 725.11 510.36 724.36 512.84 723.71 510.83 719.92 508.89 718.37 512.53 716.44 515.02 714.02 514.98 712.17 513.02 710.49 512.57 708.57 513.8 703.55 513.8 701.6 514.74 697.85 516.77 694.62 517.86 693.98 520.47 696.24 525.69 695.93 528.71 696.29 531.86 695.41 535.46 693.51 537.87 693.13 542.55 694.48 544.75 696.33 543.14 697.18 542.65 698.83 540.18 701.85 541.24 703.95 540.87 707.87 543.8 708.81 544.66 707.82 546.79 707.11 549.29 707.03 550.2 704.94 553.19 704.76 551.1 703.89 554.35 700.3 553.98 701.98 555.78 701.28 558.65 701.58 558.67 702.51 560.57 703.56 561.64 705.13 561.05 706.12 558.93 706.36 560.2 708.77 559.94 710.37 562.68 712.69 564.78 713.64 565.71 716.38 567.35 716.72 569.44 716.07 569.81 717.4 573.14 717.77 572.28 719.75 574.02 720.91 573.05 722.69 573.44 724.54 574.8 726.08 574.37 727.96 572.24 729.16 575.12 730.7 576.53 730.56 573.92 732.13 571.83 732.25 568.31 734.56 567.51 736.24 567.7 739.01 568.39 739.87 570.84 740.76 571.41 743.07 571.54 746.34 575.02 747.4 577.56 750.4 579.68 751.98 581.04 757.26 582.63 759.33 582.32 761.01 584.92 763.05 587.26 763.48 588.97 761.96 590.59 763.07 592.81 763.46 598.2 762.57 601.38 765.95 602.85 766.94 605.66 767.67 608.93 773.23 608.84 774.62 606.26 776.71 606.37 778.75 607.55 781.19 608.14 780.03 610 779.94 610.69 781 610.06 783.9 610.73 785.21 614.73 788.93 617.4 788.53 619.13 785.82 620.56 785.05 624.3 784.5 625.67 783.02 626.44 780.19 625.75 779.45 628.02 776.98 631.87 775.64 634.88 775.79 638.19 774.9 639.2 773.61 639.7 770.24 645.16 767.98 647.29 764.22 649.22 766.25 651.45 766.89 655.13 766.64 660.34 762.55 665.2 761.25 668.35 762.76 Z" id="_x9EC4__x5C71__x5E02_" class="area" title="黄山市"></path>
<path d="M 514.8 460.56 511.09 458.12 508.65 457.89 506.12 456.73 503.87 457.12 500.78 456.75 500.86 454.02 500.36 452.51 497.15 451.13 496.85 449.13 495.41 448.37 494.3 445.73 491.2 444.48 494.9 442.31 494.97 439.2 496.47 437.87 500.12 436.98 503.62 434.12 500.8 432.14 500.51 430.49 499.09 429.15 500.79 428.56 500.59 427.02 498.02 427.12 498.64 424.21 501.55 421.25 500.08 412.13 497.27 408.45 494.94 407.74 492.7 406.26 490.61 407.82 487.94 408.07 486.29 406.02 484.5 404.81 482.25 404.57 479.54 403.48 477.5 403.73 474.64 405.25 473.88 404.02 472.17 403.21 468.14 402.84 467.98 401.15 464.66 401.19 461.2 403.19 461.24 401.84 459.66 403 458.21 402.97 456.79 404.86 454.87 404.82 451.88 406.23 448.16 408.7 438.83 410.78 436.18 409.3 433.89 407.44 430.62 405.69 428.32 405.22 426.96 404.25 426.62 401.4 423.78 400.05 421.68 397.35 424.5 391.35 426.31 388.84 429.91 387.34 429.38 383.49 423.29 382.05 421.15 379.87 417.3 380.81 415.57 380.4 418.6 378.15 419.45 376.35 419.43 372.69 421.35 369.04 423.78 366.4 421.4 364.77 419.2 367.1 416.55 368.53 410.21 370.9 407.06 369.31 404.49 370.55 402.79 370.73 400.1 369.27 396.43 367.82 392.18 367.33 390.41 365.74 390.85 365.12 390.52 362.15 390.78 358.43 389.09 355.44 389.45 354.03 390.81 353.34 391.36 351.04 388.76 347.77 388.23 342.94 384.72 335.44 384.29 333.57 382.43 331.07 382.6 329.85 386.28 328.21 387.2 324.83 389.77 322.92 388.22 321.84 389.35 320.05 391.27 318.94 394.23 315.57 396.38 311.81 398.25 309.96 399.88 310.76 402.36 309.43 403.13 307.99 406.94 307.73 408 306.18 409.87 306.57 414.16 306.01 415.99 304.19 417.1 304.58 421.7 304.81 424.93 305.55 426.11 303.11 427.8 303.83 432.07 303.96 434.31 304.69 435.66 303.72 437.68 300.08 440.52 299.4 441.41 298.3 441.19 296.48 439.08 294.6 440 292.73 441.21 288.67 443.93 287.64 443.86 282.94 444.37 280.67 447.26 282.51 450.63 285.56 452.01 287.29 454.21 288.48 456.47 290.44 460.39 290.01 463.62 292.1 465.52 292.36 467.91 291.01 469.14 286.82 471.73 282.56 472.34 279.93 473.96 276.99 475.73 276.35 478.83 277.24 480.39 275.77 483.11 270.58 484.91 269.49 487.28 269.85 489.4 272.19 493.12 272.71 499.48 271.39 502.8 270.39 503.9 269.61 505.06 271.55 504.54 272.1 505.72 274.14 505.32 275.09 502.72 276.96 506.01 279.05 508.38 279.49 512.43 275.98 514.13 274.99 517.94 277.09 519.98 275.45 523.48 277.05 524.76 277.12 528.13 274.95 529.02 272.88 525.93 271.63 523.72 272.16 522.6 270.62 523.59 268.16 525.89 267.13 528.34 265.03 533.19 264.91 535.03 263.85 533.75 261.11 535.34 257.77 535.22 254.79 531.45 256.51 530.33 256.12 531.29 255.02 534.23 254.79 534.66 253.91 537.64 252.35 542.77 250.54 547.82 249.04 549.65 247.1 549.04 244.69 551.05 241.67 552.69 240.92 555.41 241.97 558.3 244.08 559.91 246.91 560.32 251.39 559.63 258.31 558.1 258.69 557.97 259.95 559.85 259.69 559.92 262.74 557.44 262.13 556.83 262.67 560.32 263.44 560.98 265.78 558.89 265.54 558.43 267.04 561.94 267.37 562.98 269.64 563.63 272.77 563.85 277.7 565.13 280.41 567.96 282.58 573.73 282.67 574.71 284.29 571.99 286.27 564.37 288.34 562.28 289.72 561.88 291.44 563.05 297.12 563.79 298.44 564.82 302.81 566.93 301.5 570.52 301.32 571.34 303.29 573.38 303.17 572.74 305.54 574.2 309.14 572.16 310.88 572.89 313.32 574.29 314.47 576.57 314.54 577.52 317.03 578.79 317.34 581.27 315.43 584.18 316.21 585.01 317.99 585.2 320.66 584.19 321.8 584.51 323.5 585.7 324.47 589.62 324.07 591.67 324.96 593.67 324.62 598.29 320.39 599.76 323.28 603.82 324.07 604.87 323.55 610.01 323.76 614.17 322.71 616.58 322.65 619.41 324.45 621.79 323.49 624.59 323.19 626.18 321.12 628.74 320.96 629.93 320.15 632.38 320.84 632.97 321.61 639.09 323.2 641.29 324.25 644.17 323.98 646.22 322.23 649.5 321.45 649.69 320.31 648.7 318.08 647.83 317.73 646.42 315.38 646.24 312.02 647.91 310.84 647.07 301.97 648.09 301.08 651.49 302.28 655.32 302.8 658.78 301.7 658.92 299.99 657.85 299.14 658.7 298.27 659.26 293.71 658.38 292.84 658.86 291.33 660 290.71 663 292.25 663.43 290.39 665.01 289.61 663.94 286.85 665.08 286.48 665.08 284.68 667.74 284.95 670.99 284.02 672.93 284.49 672.09 285.5 672.48 287.33 674.53 286.62 677.15 287.54 679.22 287.69 680.53 286.44 683.81 286.49 689.24 284.41 691.8 284.22 693.79 284.82 694.71 286.25 694.25 288.24 695.26 289.76 693.63 289.86 692.83 292.21 693.57 293.31 697.84 292.25 697.96 295.43 699.5 298.34 702.24 300.07 707.77 306.43 709.24 307.07 721.27 306.61 721.93 309.09 722.33 312.78 723.95 319.11 725.17 320.87 725.29 325.09 725.74 326.28 725.25 337.23 727.18 339.44 726.63 341.5 727.23 342.74 728.98 343.2 727.15 345.66 727.18 348.31 725.35 348.82 722.84 347.98 721.64 344.4 719.93 345.43 719.64 349.24 716.07 350.78 716.17 351.94 718.22 353.44 718.4 355.06 716.36 356.44 715.44 359.5 714.13 361.24 715.05 362.37 712.83 362.56 710.47 364.48 706.38 366.82 704.56 369.06 702.64 368.61 701.6 367.43 701.1 364.09 697.93 361.4 697.23 358.67 693.94 358.15 691.57 358.79 689.87 360.49 686.93 360.5 684.93 358.7 684.41 356.67 680.35 353.14 679.68 351.51 676.3 351.75 676.23 352.85 671.61 351.56 673.34 351.02 672.95 348.2 675.13 346.6 674.88 345.69 671.53 346.55 668.94 348.41 666.19 348.69 664.94 349.72 661.34 348.97 661.47 347.8 660.04 346.7 660.94 346.13 660.99 344.08 659.12 344.26 657.11 347.02 654.2 347.31 652.58 346.39 652.76 344.78 649.71 343.73 647.49 344.58 646.89 346.18 644.43 345.01 644.31 343.02 639.74 343.32 640.22 346.32 639.51 346.36 638.24 343.6 638.32 346.32 634.84 345.25 632.08 345.55 628.86 347.92 627.25 345.63 623.63 344.84 623.01 344.17 620.19 345.31 618.22 346.67 617.25 350.36 620.76 352.94 623.16 353.66 624.8 354.93 624.14 357.32 625.75 357.72 626.25 359.06 624.67 360.85 622.05 361.16 622.21 364.69 624.68 365.19 624.76 366.07 628.03 366.55 630.6 366.08 631.32 365.07 635.92 366.14 638.28 365.58 638.84 366.98 637.88 372.89 638.24 374.43 637.69 377.05 636.5 378.9 638.43 381.52 639.86 380.7 639.42 383.24 640.42 384.93 638.88 385.97 640.05 386.3 639.66 387.49 641.4 388.19 640.61 389.77 638 389.61 637.3 390.44 639.21 391.74 636.46 391.86 633.42 393.72 633.37 395.24 634.6 395.24 635.18 397.04 633.25 400.31 634.62 401.74 636.01 402.14 634.63 405.36 630.72 409.7 627.78 410.95 626.62 410.46 623.05 411.46 620.13 411.6 619.13 410.94 616.92 411.9 615.24 411.43 613.22 412.64 612 412.07 610.71 413.21 608.23 412.33 607.67 414.37 606.05 414.96 605.85 417.2 607.83 421.78 606.69 421.13 605.75 422.61 606.43 424.71 604.82 424.64 602.06 425.63 600.45 428.01 596.72 429.45 595.45 430.35 592.37 430.22 590.71 432.17 588.96 432.21 588.71 434.36 587.34 435.13 582.86 437.28 581.25 438.92 578.86 439.63 575.98 441.54 573.99 445.2 573.91 447.29 571.44 448.23 565.85 452.49 562.95 454.22 559.65 457.37 557.01 456.97 554.22 458.39 553.31 460.33 551.51 461.59 547.6 460.27 544.97 461.05 543.09 460.58 541.13 463.04 537.25 465.38 536.92 469.34 535.06 469.83 533.2 468.55 530.36 468.38 520.91 464.65 516.89 461.35 514.8 460.56 Z" id="_x6EC1__x5DDE__x5E02_" class="area" title="滁州市"></path>
<path d="M 269.15 371.3 267.07 371.48 261.24 369.36 255.76 370.72 253.65 369.91 248 367.04 243.7 359.4 241.57 357.6 233.47 357.63 232.17 362.02 229.22 363.81 230.04 367.1 228.92 368.69 227.42 366.86 225.31 367.97 223.65 367.21 222.08 369.91 219.99 368.8 217.51 373.64 216.08 371.23 212.78 371.2 211.73 367.76 208.83 365.97 206.96 362.68 204.96 357.15 203.2 354.58 200.77 353.78 197.46 353.38 194.14 351.93 193.19 348.83 191.66 345.81 187.46 343.91 182.51 343.54 179.99 345.9 177.42 349.09 175.98 349.83 173.82 348.27 169.82 348.37 169.15 349.81 164.76 354.88 162.18 355.84 161.17 356.99 161.43 360.93 158.48 360.77 155.17 363.57 152.6 366.34 151.3 366.57 152.31 363.52 149.71 360.25 148.92 362.41 147.32 364.46 144.76 365.1 137.94 361.92 136.42 363.23 136.43 364.39 137.95 366.02 137.19 366.59 133.7 366.76 134.65 369.31 134.49 371.19 133.54 372.53 132.29 376.23 130.42 376.42 130.7 373.3 130.06 373.04 128.63 374.94 125.54 376.97 121.75 373.54 118.67 374.66 114.95 377.38 113.23 376.63 115.82 375.44 115.57 374.26 112.17 373.74 110.52 371.37 108.14 370.85 108.29 369.88 106.86 369.41 105.82 366.71 106.04 366.53 106.02 366.36 105.7 366.4 103.7 362.25 102.64 361.76 102.07 359.37 100.51 359.16 100.34 357.63 98.51 357.77 94.03 355.69 94.83 353.89 93.31 353.58 92.71 352.36 88.99 352.77 89.65 351.12 89.45 348.62 88.05 348.3 85.44 349.27 75.62 350.9 74.9 351.77 71.62 352.24 70.28 351 70.83 349.69 72.58 349.33 70.51 348.87 71.69 347.21 70.66 346.39 69.9 347.57 68.95 346.09 65.27 348.07 63.18 346.91 64.28 345.79 63.19 345.2 61.05 345.63 59.01 347.9 57.98 347.5 58.96 345.97 56.05 346.32 54.2 345.76 52.72 344.01 55.63 342.44 53.91 341.1 54.19 338.81 53.11 339.16 53.16 337.3 54.47 336.78 55.61 338.25 55.51 336.04 57.27 334.48 54.69 335.37 54.88 332.18 52.96 330.52 52.25 331.2 53.5 332.22 51.17 333.22 51.44 331.28 50.41 330.51 51.12 328.57 50.51 327.32 51.39 324.24 50.56 323.24 52.28 315.78 51.27 314.77 51.02 313.03 52.53 312.57 55.61 313.35 55.08 311.3 53.5 310.55 52.33 308.81 53.28 306.07 52.16 304.14 54.47 303.62 53.78 301.8 52.53 301.28 50.04 301.48 47.28 300.48 46.47 297.96 44.31 296.6 44.06 294.58 39.98 294.13 36.95 295.03 34.97 293.62 31.81 293.62 25.51 293.02 25.13 291.76 26.68 291.43 26.46 288.74 24.54 288.52 22.08 287.44 16.98 287.24 13.83 287.55 12.46 288.4 10.86 287.87 9.82 285.43 7.82 284.29 6.22 282.17 2.76 282 1 280.14 1.26 278.64 4.05 277.36 2.43 273.99 6.36 274.73 7.96 274.61 9.98 273.15 7.63 271.37 7.54 269.33 6.29 267.41 7.06 265.9 6.13 263.55 3.33 262.92 3.49 261.19 4.84 257.9 4.27 255.72 5.5 254.55 8.25 254.22 9.32 253.15 9.25 251.63 13.51 252.3 14.9 252.91 15.32 255.03 17.43 255.81 19.24 257.16 18.93 260.19 22.54 261.06 24.44 262.22 27.43 262.91 29.17 261.93 30.15 263.4 32.17 262.89 39.13 263.54 46.19 263.28 48.65 262.56 49.4 259.32 53.54 257.09 55.66 258.42 58.1 256.28 60.21 256.2 61.77 254.58 65.15 255.2 65.67 254.34 69.14 255.24 69.57 253.41 71.01 253.7 70.79 250.13 69.82 247.63 70.22 243.71 75.18 242.03 73.48 240.85 73.49 239.94 76.08 237.96 75.74 235.46 77.48 233.69 77.51 229.47 76.42 229.74 76.63 227.5 78.63 227.02 80.84 227.5 80.6 225.27 81.65 221.16 78.86 220.66 78.6 217.35 77.22 216.63 77.74 215.26 73.46 215.3 72.98 214.27 75.69 210.16 73.67 207.39 73.38 205.17 73.95 203.49 73.5 202.25 74.67 202.3 74.87 200.8 76.78 202.52 78.43 202.11 78.94 197.22 78.1 196.9 79.34 195.3 78.37 193.2 81.91 189.77 86.69 192.61 86.97 193.36 88.4 190.9 87.79 189.62 89.96 186.73 91.19 184.19 98.17 182.44 99.95 184.09 104.56 182.92 106.14 184.76 109.03 183.19 113.08 182.73 114.19 183.32 115.14 180.91 121.19 180.6 127.65 179.44 129.58 186.22 133.84 192.23 134.6 192.72 137.46 192.1 141.23 191.88 146.02 193.72 146.34 194.38 149.36 195.28 150 196.25 152.16 196.87 153.82 198.96 155.73 199.25 159.78 201.86 162.67 201.92 163.69 203.35 170.79 210.35 170.45 213 170.97 217.64 173.09 220.39 173.64 222.35 174.81 223.28 174.55 224.91 175.59 225.55 175.89 227.4 173.71 227.94 173.9 230.62 172.35 234.56 172.77 236.12 174.16 236.78 175.53 239.04 173.99 241.34 167.37 235.84 161.09 233.41 159.86 234.43 159.46 238.63 160.39 241.61 162.06 245.01 161.41 247.24 158.75 250.18 158.56 252.14 159.68 251.1 162.89 251.71 162.89 254.63 161.13 254.74 161.91 256.43 165.52 256.39 167.4 256.96 166.54 260.15 165.66 261.62 170.97 261.73 173.72 262.68 179.28 263.89 184.76 265.56 188.39 267.36 191.02 268.02 189.67 270.06 190.66 270.4 195.03 269.24 196.52 270.01 197.22 271.69 196.64 273.83 197.85 274.58 198.03 276.79 196.77 278.23 197.17 279 201.88 279.69 209.03 281.43 214.02 281.81 216.09 282.92 215.65 284.2 216.13 287.36 217.93 290.33 220.07 291.84 221.2 295.27 223.58 296.05 226.99 295.86 229.05 296.68 229.59 298.71 234.91 301.02 236.96 301.04 239.59 299.92 246.26 297.82 250.07 294.13 252.77 294.54 254.05 295.62 254.02 296.82 252.7 299.47 253.28 301.35 255.96 301.97 258.61 301.22 262.58 303.62 261.58 307.29 263.19 308.58 262.06 309.37 261.88 310.88 263.12 312.74 262.89 317.45 262.15 319.52 262.53 322.13 264.23 322.65 263.85 325.17 262.34 326.55 262.52 327.99 265.04 330.84 269.54 331.34 269.91 330.7 272.06 330.83 272.77 333.86 276.09 334.72 277.6 339.63 278.68 340.57 278.04 341.81 278.42 343.9 281.05 344.39 280.87 346.76 288.75 346.25 291.81 347.18 293.29 348.55 294.31 352.12 290.75 353.64 282.85 353.74 275.67 359.59 275.48 363.41 273.36 367.74 270.81 366.95 270.1 369.78 269.15 371.3 Z M 105.82 366.71 105.7 366.4 106.02 366.36 106.04 366.53 105.82 366.71 Z" id="_x961C__x9633__x5E02_" class="area" title="阜阳市"></path>
<path d="M 360.62 69.32 361.29 71.15 360.47 72.91 359.05 74.2 357.02 73.19 356.73 70.97 354.52 72.67 353.54 75.61 354.64 75.42 352.11 77.18 352.47 81.11 354.33 81.78 352.1 83.86 352.47 81.97 351.31 81.66 350.64 84.08 352.43 86.99 355.71 86.14 356.24 84.62 357.58 84.94 359.32 82.9 360.73 83.9 360.7 82.06 361.84 81.94 363.29 84.62 364.61 84 367.52 85.41 370.49 85.58 373.24 88.14 376.15 88.51 377.18 90.31 377.24 92.93 379.96 93.59 381.86 93.44 380.77 95.96 382.43 95.86 385.91 97.24 387.69 98.46 390.09 98.48 390.94 97.47 393.05 99.23 398.56 98.94 401.8 96.76 403.6 96.8 404.61 98.08 407.57 98.58 408.91 95.85 412.92 96.48 415.22 95.2 418.68 98.01 417.56 99.82 420.42 100.67 422.44 103.02 423.35 104.94 425.01 105.64 428.33 105.23 432.48 103.72 435.25 102 439.21 101.23 439.96 99.65 441.61 99.78 445.41 102.5 446.73 104.09 446.26 106.35 446.62 107.69 448.59 108.74 450.68 112.45 451.82 112.84 453.9 112.01 455.52 110.48 457.61 110.11 458.67 109.15 458.92 107.11 457.6 105.07 458.63 104.57 460.86 105.17 463 107.39 466.99 110.19 467.82 112.2 466.43 115.21 468.02 117.95 468.04 120.87 470.97 124.14 473.23 128.76 475.21 130.19 479.47 128.06 481.63 128.15 482.45 129.12 482.54 130.98 481.41 132.87 481.5 135.57 481.02 138.91 480.35 139.48 481.42 141.31 480.83 144.86 479.64 149.7 478.33 151.54 476.76 151.91 476.44 153.37 477.98 154.39 478.53 156.4 481.45 158.28 483.86 156.55 485.68 156.44 487.99 154.61 493.64 153.96 495.37 154.49 499.25 154.46 502.76 155.56 504.06 156.42 506.4 156.84 505.71 155.3 506.2 154.23 508.77 153.79 509.56 154.62 512.26 155.29 514.39 154.5 515.21 151.66 516.99 149.59 518.23 151.79 519.98 152.28 521.93 151.82 522.31 152.48 526.01 152.53 526.21 153.72 528.03 153.43 527.6 152.39 530.52 151.83 533.32 150.43 533.84 149.19 540.6 149.39 542.61 149.07 544.59 151.13 547.79 152.44 550.14 151.71 553.89 152.68 552.58 154.21 549.79 154.29 548.54 156.84 550.95 157.7 550.32 161.44 551.03 166.23 542.97 173.33 541.69 174.06 542.58 177.89 541.01 188.67 539.46 188.78 540.94 190.32 540.75 193.04 540.96 197.87 533.19 195.24 531.35 195.02 530.16 198.1 527.66 200.66 526.81 203.59 526.52 206.89 525.69 209.27 527.59 212.02 527.21 213.55 527.76 215.09 523.85 218.47 522.1 219.3 518.1 218.93 517.76 219.81 519.34 221.47 518.29 222.15 514.85 222.35 508.8 222.15 507.65 219.74 505.77 220.44 505.18 222.06 501.26 222.29 499.29 223.01 498.34 226.46 497.18 227.98 493.53 227.34 490.97 227.82 490.77 230 488.25 230.94 485.25 230.13 478.96 231.36 477.34 229.73 474.4 230.04 471.4 228.58 470.98 226.35 468.8 225.52 467.24 222.51 463.08 221.58 461.23 219.87 459.86 219.59 457.46 220.52 454.15 223.28 452.2 222.92 449.88 221.62 445.8 222.53 443.96 220.54 440.37 219.47 436.51 219.56 435.3 219.19 428.02 213.95 426.44 210.45 422.68 206.29 420.97 201.02 416.6 198.56 413.22 197.77 409.07 197.69 407.26 195.22 399.28 194.19 396.13 193.44 395.94 195.38 394.16 198.17 390.25 201.55 389.36 206.51 382.15 200.81 381.34 203.9 378.81 203.41 376.98 204.65 376.66 206.69 377.96 207.13 379.49 208.82 377.76 212.56 376.43 213.62 373.39 211.66 373.63 210.74 371.29 210.73 369.2 209.33 365.59 211.73 364 215.23 365.94 214.8 369.63 216.22 371.59 218.15 371.08 219.35 368.95 219.73 367.96 221.5 366.18 221.69 366.3 223.57 370.84 224.48 372.04 225.89 371.41 229.72 361.13 228.31 359.67 227.78 357.5 230.66 355.85 230.86 353.18 230.26 351.16 230.8 347.64 229.42 345.02 226.96 342.59 226.01 343.6 224.32 343.24 223.05 341.75 222.41 342.21 221.43 341 219.72 342.73 219.39 343.39 217.34 344.16 217.1 345.86 214.22 348.26 214.72 348.43 213.8 350.97 211.78 349.45 210.55 350.29 208.37 349.59 207.25 350.62 205.7 349.76 204.91 349.85 203.19 348.52 201.68 345.38 201.46 343.61 200.03 343.49 198.59 339.5 197.53 339.64 196.65 341.95 194.89 339.44 192.69 341.23 187.18 343.34 186.34 343.41 184.59 344.87 180.25 341.22 180.59 338.59 181.63 334.28 178.69 332.85 176.3 331.93 172.88 333.3 170.7 333.95 168.5 333.58 166.58 334.27 164.24 335.46 164.08 339.73 165.08 341.54 164.54 343.59 164.7 343.4 159.71 345.25 159.35 344.04 153.62 344.43 152.14 347.17 152.48 346.03 150.75 345.74 147.86 347.09 145.12 346.97 141.99 347.28 138.02 348.41 135.47 348.57 130.03 349.19 127.9 353.08 126.88 354.93 124.34 353.82 122.54 355.33 120.3 353.95 117.88 353.96 116.38 352.7 115.84 350.55 116.37 348.32 115.39 351.64 111.04 351.07 110.19 351.83 108.77 350.3 107.68 350.66 105.69 349.92 105.14 346.65 104.78 347.08 103.77 346.72 101.23 348.99 99.22 350.91 96.75 347.99 96.95 343.62 96.48 343.47 94.7 340.17 93.4 339.08 93.52 336.81 96.12 334.34 97.59 330.42 96.16 329.61 98.29 327.54 98.89 326.71 100.11 324.71 97.78 325.06 95.55 322.97 97.08 323.88 98.6 323.33 99.26 322.25 104.55 323.21 107.9 322.44 111.03 321.3 109.41 319.26 108.75 319.32 108.07 313.96 107.8 312.85 107.13 310.92 107.95 310.32 107.26 307.05 107.6 305.84 108.39 303.49 107.27 301.66 108.27 298.9 106.93 296.6 106.38 292.94 107.03 289.14 106.4 287.71 103.26 286.33 102.32 284.57 99.25 285.14 99 283.04 97.26 282.89 95.94 281.4 93.6 278.33 92.65 278.64 91.56 276.39 89.4 277.5 88.78 277.72 84.69 279.37 83.01 282.66 81.59 281.74 78.8 279.42 77.24 278.85 73.33 279.59 71.76 279 69.87 280.73 69.47 283.02 67.91 285.48 65.35 285.49 63.89 283.24 62.51 273.68 60.33 270.04 61.26 266.05 64.57 264.47 64.91 262.62 61.73 260.09 63.42 260.51 64.74 257.67 65.06 255.97 63.67 253.94 63.74 250.92 64.55 250.3 65.42 248.8 63.72 250.49 60.75 249.73 58.03 248.85 56.92 243.17 54.76 238.47 52.69 236.33 49.87 234.32 49.63 233.32 47.9 230.78 46.93 228.14 47.26 223.74 45.97 223.12 44.63 224.32 43.74 224.12 42.44 222.35 40.37 217.98 37.89 217.26 35.51 215.11 33.05 217.92 29 217.88 26.91 219.7 26.74 222.12 24.8 222.1 23.11 219.95 20.28 220.85 16.93 220.96 13.54 222.52 13.18 224.3 13.67 227.06 17.02 229.45 17.58 230.33 15.25 231.37 14.93 232.52 12.23 234 12.08 234.63 9.16 235.88 8.03 238.39 8.21 240.03 9.27 242.39 9.32 243.9 6.01 246.74 5.97 250.28 3.91 250.63 2.81 252.03 3.03 253.84 2.3 260.06 1 260.45 4.46 262.92 6.07 267.88 6.98 268.07 8.87 270.26 11.35 270.42 14.43 273.3 16.63 276.07 17.32 275.15 19.02 276.58 19.44 279.74 19.06 283.51 22.33 286.38 24.16 287.63 24.32 288.26 26.22 287.18 27.28 284.55 26.64 283.2 27.51 284.27 28.1 292.36 28.16 298.92 30.77 309.02 30.83 312.73 31.57 315.34 32.52 317.52 34.04 319.03 36.59 319.02 37.94 322.72 40.86 326.63 44.8 330.05 44.83 333.15 44.31 335.91 42.48 340.21 41.61 342.11 41.82 346.32 43.74 350.28 44.87 348.88 47.69 348.93 49.15 352.11 49.97 352.6 50.96 352.01 53.29 350.27 55.87 351.51 57.91 350.22 62.47 352.8 64.79 356.63 66.95 358.58 67.19 358.9 69.23 360.62 69.32 Z" id="_x5BBF__x5DDE__x5E02_" class="area" title="宿州市"></path>
<path d="M 175.98 349.83 177.42 349.09 179.99 345.9 182.51 343.54 187.46 343.91 191.66 345.81 193.19 348.83 194.14 351.93 197.46 353.38 200.77 353.78 203.2 354.58 204.96 357.15 206.96 362.68 208.83 365.97 211.73 367.76 212.78 371.2 216.08 371.23 217.51 373.64 219.99 368.8 222.08 369.91 223.65 367.21 225.31 367.97 227.42 366.86 228.92 368.69 230.04 367.1 229.22 363.81 232.17 362.02 233.47 357.63 241.57 357.6 243.7 359.4 248 367.04 253.65 369.91 255.76 370.72 261.24 369.36 267.07 371.48 269.15 371.3 268.38 376.75 270.39 378.58 269.25 379.88 268.54 382.02 269.05 384.53 272.01 387.28 273.29 390.53 274.92 392.22 275.3 395.88 276.12 399.53 275.35 401.14 276.31 404.58 274.26 407.46 271.88 408.8 274.31 410.92 274.55 412.31 273.25 413.94 274.29 417.49 276.15 419.45 276.76 422.38 275.83 425.37 277.24 428.46 279.96 431.66 279.07 433.53 280.39 437.82 279.54 440.15 283.61 441.43 286.23 441.72 290.55 444.7 299.78 448.55 301.49 448.84 302.16 450.22 301.91 452.02 301.92 459 303.13 461.03 305.58 460.75 309.06 458.81 313.3 458.42 317.08 459.72 315.94 460.9 307.87 464.25 307.55 465.13 308.8 466.4 309.31 468.59 311.98 468.65 310.64 470.25 305.52 472.98 303.93 474.96 304.31 476.78 307.55 479.72 308.5 481.85 310 481.3 311 482.57 310.4 484.14 313.91 484.12 314.9 484.64 315.14 487.24 313.92 490.28 315.61 493.2 315.78 497.46 316.56 499.77 314.83 501.93 314.08 503.96 314.33 505.66 316.17 508.73 316.37 513.62 315.78 514.79 316.49 516.64 320.21 520.11 320.73 521.23 322.68 522.01 323.05 523.12 324.56 523.24 326.91 525.39 329.54 524.15 335.21 523.28 339.02 523.86 344.46 522.26 347.47 523.22 349.88 521.92 351.31 521.85 353.26 522.93 353.84 520.94 355.95 520.27 362.05 522.08 364.63 521.09 366.46 519.62 374.22 521.87 376.22 521.14 377.53 521.4 377.81 520.04 379.7 519.4 381.17 521.02 386.74 519.86 388.62 519.88 392.26 521.85 393.65 521.08 395.99 527.21 397.51 528.09 397.4 529.12 395.15 530.18 386.31 529.78 383.29 530.15 380.4 531.38 379.27 533.26 375.35 537.52 371.22 543.85 367.95 549.61 367.82 551.91 369.04 554.38 367.76 556.14 367.14 558.44 367.27 561.89 366.11 563.84 363.09 564.92 363 567.26 360.82 569.34 358.14 567.62 356.54 567.48 355.11 569.36 352.3 571.36 349.26 576.38 347.72 580.63 346.53 581.71 346.02 585.22 342.48 585.5 341.91 586.97 337.83 589.97 334.65 590.96 332.35 590.55 329.82 591.44 328.99 593.32 329.18 594.82 326.85 595.36 324.55 598.01 322.93 598.54 320.03 601.37 318.18 600.58 315.45 600.86 314.01 602.11 311.34 601.61 309.02 602.33 306.8 605.07 303.28 604.15 302.43 602.97 299.41 602.41 297.47 603.56 296.32 602.44 292.21 599.9 290.79 599.93 290.37 601.04 287.53 603.24 287.05 604.33 283.6 603.63 282.37 604.68 281.8 606.51 279 608.91 276.82 608.79 276.88 606.39 277.52 604.91 277.31 602.82 278.18 600.23 279.96 596.69 282.19 593.7 281.05 591.66 281.46 587.59 280.54 584.53 281.17 583.48 280.54 582.21 278.97 581.84 278.14 583.09 274.97 585.49 273.08 588.45 272.01 588.62 271.14 587.4 268.65 589.37 266.68 589.59 265.05 591.22 261.26 590.8 260.29 588.17 257.51 585.15 254.21 585.17 251.43 584.61 248.18 583.17 245.73 584.91 245.36 586.78 243.35 587.92 239.84 588.79 238.8 591.68 237.04 593.09 232.93 595.55 231.74 598.51 228.73 599.65 225.22 601.96 222.01 602.61 218.74 601.44 218.33 598.35 215.81 595.96 214.38 595.68 207.88 597.76 205.48 596.49 203.61 597.22 203.49 598.46 199.08 600.57 196.51 604.01 196.61 605.24 195.7 609.88 190.49 610.31 189.66 609.4 189.08 606.5 186.98 606.51 185.24 605.29 181.45 604.45 178.96 605.2 177.69 604.38 178.3 602.15 177.89 600.31 175.54 599.44 172.83 597.12 171.69 597.37 169.12 594.01 168.95 590.98 167.89 588.54 166.08 587.58 164.05 588.31 161.4 590.71 159.36 591.13 156.7 590.39 154.13 590.89 151.39 593.29 149.47 593.37 148.47 592.51 147.09 588.44 144.53 586.7 142.45 583.05 137.88 578.63 134.08 577.54 130.25 576.98 128.69 577.21 127.08 578.82 125.86 581.39 121.62 583.22 120.45 587.17 118.6 588.16 114.23 585.46 111.07 580.27 110.68 575.41 110.9 573.48 109.29 570.56 106.93 568.18 105.52 567.45 104.42 568.37 103.25 567.78 99.75 567.89 98.63 566.03 97.19 565.16 97.72 559.05 95.82 559.42 94.55 554.35 90.94 553.71 88.27 555.74 87.36 554.88 82.83 553.82 84.57 552.6 83.44 550.17 84.69 549.41 86.3 547.02 83.09 544.36 84.72 542.2 85.1 538.08 85.8 536.91 83.76 533.52 82.68 529.5 83.68 528.08 85.77 527.31 86.97 526.04 90.16 524.24 92.29 520.68 92.79 518.7 92.23 517.97 94.01 515.2 94.21 513.73 102.28 509.79 102.52 507.52 100.4 504.65 101.62 503.62 101.81 501.83 103.48 499.63 106.77 497.96 109.58 495.34 113.21 495.89 115.12 493.59 118.09 492.77 118.81 491.46 121.24 489.79 124.2 488.67 127.12 485.87 130.98 485.02 134.02 481.89 136.03 482.28 137.26 483.6 139.55 483.22 142.74 484.49 143.48 482.37 144.77 481.35 148.3 481.31 149.11 480.39 152.53 481.73 157.05 484.65 159.68 482.1 160.59 482.73 162.9 480.57 164.25 482.75 165.99 482.28 168.76 482.36 171.36 479.69 172.95 479.64 173.74 476.36 173.43 474.98 171.91 473.43 170.05 472.78 170.51 467.05 170.95 464.91 171.86 464.37 174.12 459.94 174.61 458.18 173.93 455.58 172.74 454.36 173.13 451.9 175.11 447.29 175.34 445.6 176.89 444.59 175.85 443.6 175.89 440.92 174.5 440.19 175.87 438.78 174.95 436.55 175.88 435.02 177.86 433.83 178.36 431.85 176.67 430.75 175.67 427.24 176.48 426.56 177.98 420.29 178.25 417.21 176.86 414.65 175.46 413.41 175.06 410.76 173.36 406.75 173.7 402.19 174.59 399.12 173.08 397.27 172.61 394.75 171.28 394.39 172.39 392.69 172 387.76 171.1 387.1 170.88 382.52 171.08 379.54 169.43 375.63 169.46 373.82 167.75 372.43 168.43 371.42 168.33 368.49 165.24 368.02 166.6 366.2 168.09 365.75 168.48 362.94 166.95 361.51 166.74 360.35 163.37 360.39 162.15 360.84 162.41 359.54 164.02 358.13 166.71 356.82 167.49 353.79 171.13 351.73 172.94 349.92 175.98 349.83 Z" id="_x516D__x5B89__x5E02_" class="area" title="六安市"></path>
<path d="M 253.9 146.3 256.32 148.42 256.03 149.73 260.94 149.79 260.51 153.56 265 154.49 265.6 156.9 268.25 158.75 268.11 160.54 269.05 160.56 270.43 163.34 270.38 165.5 269.33 165.89 268.54 167.87 272.33 171.72 272.61 173.78 277.35 174.51 279.03 177.32 280.25 177.51 280.32 178.86 278.5 179.03 279.73 181.96 277.04 182.71 275.97 185.08 276.46 186.33 275.84 188.58 277.5 189.5 278.24 191.49 277.39 194.03 277.65 196.83 279.64 199.07 283.12 199.34 285.45 198.52 287.37 197.03 290.58 196.73 292.37 196.12 294.54 196.21 295.54 197.44 299.45 197.94 303.04 197.38 305.18 198.04 308.97 201.95 312.87 202.22 314.68 204 316.99 205.11 322.7 206.61 321.35 209.94 322.07 212.76 320.41 217.14 320.95 218.01 319.82 219.27 320.32 221.4 320.1 223.87 322.25 226.53 322.01 231.21 322.85 231.27 324.13 235.5 326.28 238.77 326.37 242.12 325.51 243.47 324.49 251.4 322.81 251.28 320.56 249.12 318.09 252 317.12 251.42 314.71 253.77 314.35 255.47 316 258.19 316.01 262.23 313.4 264.77 313.33 267.23 313.97 268.53 318.84 270.7 322.3 271.95 324.43 273.81 324.63 275.23 323.7 278.19 322.34 277.41 321.74 278.4 318.15 277.99 318.27 276.86 316.7 277.35 316.61 276.4 314.42 276.97 314.33 279.25 313.14 280.94 311.95 284.16 312.34 286.23 311.15 289.36 306.13 287.98 302.56 287.58 293.11 287.22 262.72 279.95 252.01 276.62 251.04 278.47 251.01 282.61 250.22 283.29 249.12 286.31 249.24 287.35 252.56 290.54 253.92 292.36 254.05 295.62 252.77 294.54 250.07 294.13 246.26 297.82 239.59 299.92 236.96 301.04 234.91 301.02 229.59 298.71 229.05 296.68 226.99 295.86 223.58 296.05 221.2 295.27 220.07 291.84 217.93 290.33 216.13 287.36 215.65 284.2 216.09 282.92 214.02 281.81 209.03 281.43 201.88 279.69 197.17 279 196.77 278.23 198.03 276.79 197.85 274.58 196.64 273.83 197.22 271.69 196.52 270.01 195.03 269.24 190.66 270.4 189.67 270.06 191.02 268.02 188.39 267.36 184.76 265.56 179.28 263.89 173.72 262.68 170.97 261.73 165.66 261.62 166.54 260.15 167.4 256.96 165.52 256.39 161.91 256.43 161.13 254.74 162.89 254.63 162.89 251.71 159.68 251.1 158.56 252.14 158.75 250.18 161.41 247.24 162.06 245.01 160.39 241.61 159.46 238.63 159.86 234.43 161.09 233.41 167.37 235.84 173.99 241.34 175.53 239.04 174.16 236.78 172.77 236.12 172.35 234.56 173.9 230.62 173.71 227.94 175.89 227.4 175.59 225.55 174.55 224.91 174.81 223.28 173.64 222.35 173.09 220.39 170.97 217.64 170.45 213 170.79 210.35 163.69 203.35 162.67 201.92 159.78 201.86 155.73 199.25 153.82 198.96 152.16 196.87 150 196.25 149.36 195.28 146.34 194.38 146.02 193.72 141.23 191.88 137.46 192.1 134.6 192.72 133.84 192.23 129.58 186.22 127.65 179.44 125.19 172.66 123.97 171.49 121.27 167.3 121.42 164.79 120.93 162.17 122.19 162.04 120.37 160.15 121.26 157.1 120.37 154.98 118.24 152.3 116.78 151.46 115.98 149.28 114.83 148.2 115.17 146.78 118.02 145.35 119.41 146.19 123.38 147.54 124.54 144 124.9 141.46 123.77 140.11 125.28 139.5 125.39 137.4 127.05 136.57 126.61 132.19 124.49 130.72 121.95 132.17 119.71 132.04 117.56 130.57 115 131.52 113.74 130.59 111.99 130.82 112.05 128.65 113.51 128.63 113.77 126.1 115.69 125.56 114.26 124.28 114.73 122.17 115.97 121.22 115.83 119.1 117.24 118.33 117.48 114.34 119.05 113.83 119.5 112.28 118.33 111.88 119.77 108.32 122.1 107.76 121.17 106.13 123.52 104.39 124.57 104.93 128.07 104.57 129.3 104.01 129.03 102.22 129.97 99.91 132.58 100.48 134.7 99.01 137.71 98.92 138.74 99.96 143.74 97.11 146.69 98.64 149.31 98.69 150.73 97.63 153.38 99.32 156.01 99.51 157.09 101.11 159.88 103.52 162.06 104.81 162.1 107.96 163.31 109.33 167.39 109.44 167.47 104.97 169.1 104.48 170.45 105.16 171.12 107.5 171.96 108.31 174.53 108.17 175.7 108.65 180.87 108.68 185.3 112.01 187.13 114.15 188.03 116.14 187.22 118.76 185.08 123.84 185.8 126.52 187.83 126.4 190.06 127.15 190.22 129.11 193.76 130.06 193.79 131.11 195.25 130.92 197.17 133.27 197.47 134.94 198.87 135.51 198.6 139.08 195.67 138.6 195.58 139.61 197.69 139.88 198.41 141.04 197.26 142.66 200.25 144.46 200.44 146.55 204.57 146.29 204.53 147.67 206.27 150.46 210.02 151.46 211.88 153.77 211.77 154.44 213.99 158.55 217.11 158.7 221.01 155.96 226.55 155.09 229.17 155.4 232.11 155.17 235.64 151.82 239.57 150.57 241.02 148.27 243.02 149.09 243.35 147.84 246.36 147.02 248.43 147.44 250.35 146.77 253.9 146.3 Z" id="_x6BEB__x5DDE__x5E02_" class="area" title="毫州市"></path>
<path d="M 517.86 693.98 516.77 694.62 514.74 697.85 513.8 701.6 513.8 703.55 512.57 708.57 513.02 710.49 514.98 712.17 515.02 714.02 512.53 716.44 508.89 718.37 510.83 719.92 512.84 723.71 510.36 724.36 511.48 725.11 510.89 726.21 509.52 726.17 507.4 727.88 508.28 729.64 506.48 730.48 503.84 730.65 504.19 734.61 499.96 735.14 496.57 736.15 493.55 739.29 494.28 742.04 499.14 743.36 499.64 744.74 498.22 747.64 497.23 747.55 494.62 749.24 492.79 749.18 489.01 752.34 485.71 753.51 479.86 753.96 472.45 755.73 469.72 757.52 470.39 758.63 468.15 759.3 468.65 761.68 466.35 761.52 465.24 760.42 463.61 760.58 463.07 762.06 461.1 763.12 458.45 761.05 457.64 757.73 455.84 758.02 453.35 759.99 451.32 760.37 450.65 761.77 449.24 762.38 451.04 762.71 450.6 764.98 449.18 765.79 448.23 762.74 446.78 762.74 446.01 761.23 443.99 763.08 445.06 765.72 446.52 765.22 445.17 766.93 446.19 770.9 441.06 773.54 437.93 773.91 432.74 773.39 430.18 775.89 427.97 776.28 424.33 774.65 421.41 774.77 420.11 777.9 413.99 778.37 409.71 780.09 407.18 779.91 405.26 780.96 400.19 782.56 398.98 782.22 389.94 784.06 389.43 785.59 389.95 791.89 387.05 792.83 385.16 792.82 380.33 794.6 377.97 795.85 376.85 797.25 377.69 800.81 376.8 802.92 373.9 803.96 370.96 807.07 367.69 807.84 368.08 809.45 370.94 811.64 376.85 813.95 378.12 816.43 378.1 817.92 373.61 821.28 373.54 822.43 375.92 825.2 374.34 827.95 369.79 830.5 367.29 831.03 364 832.85 362.46 833.18 357.98 832.37 354.76 832.77 352.83 834.22 350.59 837.41 345.31 838.64 341.78 840.96 334.23 845.17 330.13 850.68 328.31 851.78 325.01 852.63 321.22 852.33 318.69 851.66 318.52 850.4 319.74 848.18 317.73 847.52 316.93 848.03 315.3 846.88 311.91 849.09 310.2 852 308.8 852.59 307.95 848.27 303.33 846.04 302.78 844.78 300.26 842.53 297.13 840.5 297.19 839.12 299.09 836.82 301.35 835.17 301.92 833.08 306.03 831.88 308.06 831.53 307.84 830.44 306.28 830.55 306.16 830.46 305.75 828.3 305.01 828.68 300.8 828.33 303.02 824.16 305.7 823.07 308.62 819.38 311.77 817.56 312.86 814.86 315.65 812.82 318.73 814.5 320.22 814.05 324 811.28 327.08 806.29 332.19 801.96 335.78 797.58 337.33 793.26 337.31 791.91 338.7 788.21 336.65 784.97 333.43 783.02 329.53 784.84 327.95 784.66 327.83 786.83 326.74 785.93 326.88 778.66 322.4 780.33 319.81 776.34 319.17 774.61 316.96 773.78 315.99 771.56 314.16 771.55 313.11 770.16 317.2 767.41 324.76 760.48 328.94 755.18 331.98 750.06 333.23 743.99 337.45 739.48 342.11 736.56 343.22 733.96 343.49 731.03 342.11 727.13 340.4 724.01 339.23 719.92 337.64 715.85 336.71 711.6 337.32 710.31 337.4 707.57 338.86 706.66 341.09 708.51 344.63 706.02 347.12 705.6 351.32 703.05 353.13 700.92 357.17 697.82 359.68 696.99 374.1 696.81 378.04 697.36 382.88 700.25 387.6 701.74 391.15 699.89 398.21 703.72 400.16 705.78 398.82 707.66 397.7 707.95 397.61 709.33 400.38 709.39 402.49 710.35 405.53 708.52 404.54 705.91 406.56 705.1 408.12 702.41 409.31 702.35 410.11 700.95 409.76 698.1 408.96 697.24 406.91 696.99 405.17 698.17 395.82 692.16 396.24 689.64 397.65 685.32 396.93 681.08 391.89 675.83 391.76 674.16 401.07 669.8 407.24 666.42 412.92 664.39 416.84 663.5 421.45 663.38 422.29 664.1 426.14 665.41 430.95 666.05 434.18 666.06 436.7 664.8 438.07 663.09 440.35 658.07 452.02 653.05 463.51 649.71 467.7 648.89 472.93 644.69 472.38 647.48 476.12 647.28 479.76 644.59 481.26 645.3 482 647.1 480.74 649.39 482.66 650.85 482.37 652.21 486.35 651.8 486.65 654.21 488.74 654.43 489.89 652.92 492.01 652.51 496.45 650.21 497.13 647.73 501.56 644.47 503.44 643.73 506.65 643.45 508.77 642.52 511.91 639.81 513.37 640.25 515.1 642.85 519.58 638.46 521.12 640.97 517.3 645.95 517.63 646.64 520.13 646.79 522.44 649.32 527.96 650.13 531.51 652.72 534.81 654.69 538.93 656.03 541.23 657.88 544.08 661.78 543.97 664.08 540.56 668.74 539.53 670.69 539.77 672.38 535.91 675.32 535.1 677.69 533.9 679.28 530.59 679.76 526.71 683.39 522.37 684.17 520.37 685.76 520.72 689.72 519.69 691.78 517.86 693.98 Z M 305.01 828.68 306.16 830.46 306.28 830.55 306.03 831.88 301.92 833.08 300.67 832.07 297.93 832.27 297.51 830.86 299.83 829.93 300.8 828.33 305.01 828.68 Z M 405.17 698.17 404 700 401.37 701.85 398.4 702.97 398.21 703.72 391.15 699.89 393.31 697.87 395 695.23 395.82 692.16 405.17 698.17 Z" id="_x6C60__x5DDE__x5E02_" class="area" title="池州市"></path>
<path d="M 668.35 762.76 665.2 761.25 660.34 762.55 655.13 766.64 651.45 766.89 649.22 766.25 647.29 764.22 645.16 767.98 639.7 770.24 639.2 773.61 638.19 774.9 634.88 775.79 631.87 775.64 628.02 776.98 625.75 779.45 626.44 780.19 625.67 783.02 624.3 784.5 620.56 785.05 619.13 785.82 617.4 788.53 614.73 788.93 610.73 785.21 610.06 783.9 610.69 781 610 779.94 608.14 780.03 607.55 781.19 606.37 778.75 606.26 776.71 608.84 774.62 608.93 773.23 605.66 767.67 602.85 766.94 601.38 765.95 598.2 762.57 592.81 763.46 590.59 763.07 588.97 761.96 587.26 763.48 584.92 763.05 582.32 761.01 582.63 759.33 581.04 757.26 579.68 751.98 577.56 750.4 575.02 747.4 571.54 746.34 571.41 743.07 570.84 740.76 568.39 739.87 567.7 739.01 567.51 736.24 568.31 734.56 571.83 732.25 573.92 732.13 576.53 730.56 575.12 730.7 572.24 729.16 574.37 727.96 574.8 726.08 573.44 724.54 573.05 722.69 574.02 720.91 572.28 719.75 573.14 717.77 569.81 717.4 569.44 716.07 567.35 716.72 565.71 716.38 564.78 713.64 562.68 712.69 559.94 710.37 560.2 708.77 558.93 706.36 561.05 706.12 561.64 705.13 560.57 703.56 558.67 702.51 558.65 701.58 555.78 701.28 553.98 701.98 554.35 700.3 551.1 703.89 553.19 704.76 550.2 704.94 549.29 707.03 546.79 707.11 544.66 707.82 543.8 708.81 540.87 707.87 541.24 703.95 540.18 701.85 542.65 698.83 543.14 697.18 544.75 696.33 542.55 694.48 537.87 693.13 535.46 693.51 531.86 695.41 528.71 696.29 525.69 695.93 520.47 696.24 517.86 693.98 519.69 691.78 520.72 689.72 520.37 685.76 522.37 684.17 526.71 683.39 530.59 679.76 533.9 679.28 535.1 677.69 535.91 675.32 539.77 672.38 545.77 670.54 548.58 668.14 551.53 663.94 557.26 662.18 559.42 660.96 561.24 660.99 563.53 661.96 567.67 660.16 569.53 660.42 571.97 662.55 573.92 662.85 575.51 661.69 572.62 659.87 572.21 658.78 569.02 656.44 569.18 655.31 572.18 652.98 572.74 650.42 574.36 649.75 573.53 646.83 573.93 645.63 575.25 646.62 574.22 644.63 576.22 642.15 579.5 641.31 581.07 641.71 582.96 638.13 585.89 638.17 591.44 637.64 593.94 638.91 596 641.65 594.84 643.46 593.1 643.51 595.15 646.39 597.62 645.64 599.08 647.45 598.49 649.28 603.28 651.42 603.35 649.04 604.03 647.43 607.06 645.54 607.1 644.04 605.83 642.47 603.61 642.02 602.9 640.17 605.06 638.62 604.92 637.65 606.29 635.77 604.16 635.07 602.8 636.16 603.9 633.95 601.91 633.22 602.52 632.09 604.21 632.86 605.4 631.81 604.86 629.04 608.51 626.7 608.12 624.25 605.86 622.18 609.14 622.76 608.3 620.49 615.12 617.22 618.47 616.95 620.39 615.34 620.18 613.19 618.68 609.58 620.69 607.93 622.68 604.29 623.96 604.9 623.49 607.61 624.47 608.92 627.9 608.86 631.7 606.14 633.94 603.19 637.17 599.76 636.07 598.68 636.19 597.3 637.65 596.19 637.24 593.57 638.45 591.38 640.41 589.57 642.97 588.16 645.69 587.28 643.15 583.17 641.57 582.67 639.24 580.64 637.22 576.46 634.75 574.65 633.97 572.64 631.24 571.2 632.01 568.6 633.38 567.14 633.62 563.62 632.85 561.29 637.02 561.35 638.76 560.57 640.76 560.77 642.54 558.44 643.6 558.28 643.35 562.94 640.81 561.6 641.4 562.61 644.53 565.05 650.35 565.81 653.46 568.85 653.7 572.15 656.03 573.89 657.26 574.09 660.02 572.79 660.85 573.72 665.36 572.18 668.48 571.75 672.09 572.46 676.11 571.42 677.74 572.17 682.44 572.49 687.62 572.49 688.04 573.6 690.86 573.17 692.82 571.84 694.14 572.43 696.92 572.39 698.49 573.2 700.74 572.38 702.66 573.31 704.62 572.07 707.94 572.91 708.22 570.34 710.4 568.49 712.37 568.34 713.86 566.09 715.44 565.9 716.79 562.94 719.81 563.09 720.63 561.99 723.71 563.14 723.32 566.51 724.5 567.81 726.35 566.41 726.9 568.01 729.87 568.89 730.25 569.67 732.2 569.23 732.13 568.43 734.07 568.55 735.01 570.37 739.61 568.25 743.03 567.81 746.1 568.08 746.83 568.96 748.23 567.27 748.96 565.15 748.93 561.9 750.02 561.52 751.9 563.88 752.53 566.83 753.88 567.2 751.46 573.35 750.59 576.78 751.55 579.49 752.49 579.2 753.8 580.62 756.43 578.88 758.23 579.75 755.49 580.77 755.85 583.13 757.39 582.37 759.86 583.34 761.16 581.86 763.78 582.66 766.45 584.69 767.43 586.12 769.98 585.7 771.1 586.77 771.61 585.28 773.1 584.85 776.36 586.18 777.96 585.56 779.81 585.83 781.7 587.55 784.12 588.74 785.97 590.71 786.44 593.22 787.75 594.11 790.73 594.02 793.07 590.68 794.75 590.49 794.82 592.89 799 594.71 796.58 596.6 795.72 597.98 796.63 601.56 796.02 604.55 796.47 609.05 794.79 611.42 793.49 611.91 792.02 613.67 788.82 615.8 787.49 617.81 787.79 621.11 787.48 624.17 784.71 625.83 783.46 629.6 783.92 630.43 783.9 633.87 786.37 636.86 786.71 640.81 784.27 640.86 783.16 641.5 778.13 649.81 775.22 650.88 772.61 649.61 770.7 650.27 770.48 653.65 771.45 655.07 770.63 656.37 771.14 661.8 768.34 665.24 766.14 667.29 765.37 669.94 762.92 671.84 759.41 672.09 757.28 669.43 756.56 666.1 755.86 665.01 753.83 665.99 752.65 665.82 749.67 668.08 747.76 668.53 746.17 670.54 744.41 674.21 742.54 675.73 739.07 676.6 736.48 676.34 733.63 676.87 732.17 675.89 730.35 677.72 732.78 679.88 732.86 681.18 734.64 682.29 734.64 683.73 731.42 685.75 729.98 688.21 730.92 691 734.16 691.75 734.11 693.06 735.87 694.27 738.52 693.92 742.82 690.8 744.98 690.5 745.34 692.4 746.62 694.83 745.61 698 746.31 699.69 746.59 705.15 748.86 706.28 749.41 708.61 748.83 711.33 751.12 711.18 752.08 712.82 751.69 714.72 752.5 715.46 756.25 715.61 757.79 717.06 757.27 718.17 754.96 718.81 753.2 720.34 748.81 721.29 747.68 718.94 745.41 717.54 740.65 718.86 738.77 721.21 736.87 722.55 734.69 723.14 731.69 722.69 730.49 724.99 731.48 725.9 729.86 729.97 728.68 731.24 727.58 729.58 724.74 729.25 723.97 731.02 721.81 730.91 716.55 729.59 715.64 728.75 711.82 728.73 708.89 727.63 705.41 725.49 702.6 726.86 700.86 728.69 698.82 728.39 698.4 727.39 695.13 727.41 691.05 724.67 688.3 723.91 688.31 721.37 686.24 721.62 685.12 720.92 683.6 721.6 682.83 719.6 679.66 721.01 679.64 721.97 676.55 724.08 674.97 724.34 673.52 725.73 670.19 727.03 670.51 729.76 669.89 732.41 671.84 737.17 670.62 738.31 672.4 739.11 674.1 743.26 677.74 743.94 678.56 745.69 677.02 746.42 675.37 748.35 667.6 751.45 665.67 751.86 664.47 753.61 666.26 754.94 667.82 754.38 670.38 755.17 673.03 754.95 672.88 756.51 671.57 758.44 671.42 760.09 668.81 760.82 668.35 762.76 Z" id="_x5BA3__x57CE__x5E02_" class="area active" title="宣城市"></path>

</svg>