<!--?xml version="1.0"?-->
<svg xmlns="http://www.w3.org/2000/svg" version="1.2" baseProfile="tiny" width="100%" height="100%" viewBox="0 0 800 623" stroke-linecap="round" stroke-linejoin="round">

<path d="M 409.19 498.15 407.45 502.74 406.65 504.07 406.58 506.21 404.01 508.85 402.79 508.86 401.65 510.8 401.59 512.39 404.14 511.95 404.26 512.73 402 516.19 399.56 517.15 397.65 517.19 397.1 518.5 398.08 519.05 397.58 521.29 396.02 523.09 395.94 524.05 398.02 524.95 399.24 524.6 399.96 527.35 399.96 531.29 400.65 533.16 402.93 533.42 404.38 534.88 404.98 536.44 406.35 536.72 406.9 537.71 404.1 540.3 403.37 541.97 403.68 543.33 401.65 544.59 400.96 545.52 398.39 545.4 397.2 547.94 395.91 548.07 394.7 549.96 392.97 550.11 391.12 551.69 390.87 553.86 387.8 553.23 386.39 554.21 384.76 553.41 382.84 554.11 377.96 552.98 376.37 554.09 373.97 554.45 373.65 553.55 365.22 553.24 363.84 552.6 360.43 553.48 357.36 552.88 353.21 553.71 351.9 554.69 350.23 553.76 348.36 554.69 346.85 554.71 344.81 553.22 344.41 550.11 341.97 547.83 337.02 547.19 334.36 545.12 333.86 544.27 336.02 545.4 336.24 541.44 338.22 538.3 339.74 534.33 341 532.56 342.53 532.16 343.31 533.72 342.84 535.56 345.25 534.91 347.49 534.85 351.65 533.64 354.19 531.3 354.73 531.5 357.35 527.38 356.85 524.06 357.48 521.48 359.29 516.72 359.72 512.29 357.91 511.66 358.14 508.83 359.11 506.95 357.88 505.07 358.45 503.44 356.31 502.71 357.52 502.09 357.23 500.42 355.78 498.59 352.13 497.68 350.23 497.94 349.52 499.26 347.85 499.23 346.89 497.98 345.97 495.38 345.03 494 347.31 492.56 343.78 490.25 342.95 490.98 341.84 490.58 340.07 491.23 339.65 493.96 338.84 494.74 338.35 497.24 337.31 497.13 336 498.1 335.64 496.39 332.52 496.35 331.12 496.86 329.51 496.24 327.24 496.15 325.21 494.94 325.83 493.56 325.16 491.85 325.69 490.64 326.82 491.25 329.17 489.46 329.59 488.28 330.5 488.26 332.91 486.44 331.44 485.48 331.09 484.24 330 483.71 326.69 483.49 326.43 482.12 324.94 481.52 325.89 480.84 324.94 479.49 322.86 479.32 321.72 480.66 320.34 479.65 319.15 480.08 318.03 481.46 315.5 481.96 314.99 481.2 312.35 483.65 309.03 481.75 308.97 480.87 310.29 480.76 310.43 479.02 309.61 478.22 308.15 478.96 306.32 478.44 305.16 476.64 302.26 476.64 302.82 474.21 305.47 467.62 303.45 467.42 301.3 466.4 300.06 465.31 300.11 463.76 300.85 462.23 298 461.52 296.28 460.37 292.84 459.13 291 457.34 288.58 457.23 287.06 455.74 285.5 455.04 286.19 453.22 286.16 451.34 287.72 449.62 287.26 447.71 288.74 447.49 289.29 446.6 289.1 443.4 290.79 442.46 288.58 440.4 289.77 438.23 288.44 436.47 289.61 436.2 291.35 433.63 295.34 432.79 296.41 432.03 299.51 430.8 301.04 429.38 300.95 428.78 303.29 427.94 304.91 427.82 304.04 426.49 304.88 424.96 305.85 425.5 304.17 421.63 304.17 419.93 305.71 419.22 306.19 417.48 307.9 418.35 309.39 417.27 310.42 417.75 312.15 416.73 313.57 417.11 315.55 416.31 316.3 416.86 318.78 416.74 321.8 415.9 322.79 416.31 325.28 415.25 328.61 411.56 329.7 408.73 328.6 408.49 327.44 407.27 329.08 404.5 328.59 402.97 327.54 402.97 327.58 401.68 330.17 400.1 332.72 399.93 330.95 399.03 331.48 398.18 333.69 398.33 334.36 396.99 332.88 396.39 333.21 395.38 332.23 395.1 333.52 394.21 332.68 392.79 333.07 390.64 331.84 391.32 330.2 389.09 331.21 387.52 331.65 385.64 331.4 383.78 332.19 378.97 331.71 377.78 329.38 378.3 325.8 377.35 325.19 378.21 323.01 378.61 320.23 378.2 320.16 377.45 318.55 377.33 317.89 376.57 317.94 373.98 320.15 373.76 321.5 372.24 321.07 371.11 319.7 370.74 320.27 368.74 318.87 367.66 316.83 367.04 314.47 365.65 313.85 364.86 314.68 361.72 318.74 359.6 319.27 360.16 322.4 360.86 323.71 362.78 324.88 361.62 327.32 360.53 328.8 360.51 331.75 361.42 333.35 361.42 332.95 358.88 336.83 358.62 336.93 360.28 339.02 361.3 339.39 360.11 341.42 359.22 344.01 360.11 343.87 361.54 345.29 362.29 347.71 362.02 348.21 360.72 350.37 359.19 350.95 359.43 350.96 361.26 350.37 362.27 351.38 362.47 351.3 363.68 353.5 363.63 354.35 364.31 355.41 363.43 357.79 363.19 358.12 362.21 359.43 362.57 359.56 361.73 361.96 361.35 363.01 361.66 361.16 363.02 361.48 365.41 359.96 366.21 363.67 367.06 364.49 365.87 366.88 365.83 367.45 367.21 370.89 370.21 371.34 371.94 373.03 373.46 375.54 373.46 376.97 372.01 378.63 371.45 381.79 371.91 382.06 373.61 383.08 375.02 384.83 376.2 385.49 379.36 382.58 379.29 381 380.77 379.27 380.26 379.1 382.5 380.09 384.13 378.23 386.35 378.39 388.34 379.81 389.89 381.22 389.82 381.36 390.85 379.1 391.01 378.98 391.72 382.13 393.18 379.78 395.15 379.94 396.04 381.87 397.72 381 398.83 380.96 401.21 381.59 401.97 381.74 406.48 381.17 408.16 383.94 409.32 386.53 409.71 388.13 410.82 394.72 410.25 397.77 410.46 401.1 411.14 408.47 413.52 410.26 414.36 407.38 416.51 406.65 418 403.07 418.75 402.14 418.15 397.86 418.64 395.34 417.62 393.15 418.44 388.25 419.73 387.09 419.7 386.71 422.12 382.72 422.18 384.21 422.87 381.49 422.78 380.41 423.98 379.08 426.5 377.21 427.39 377.16 428.63 379.69 428.63 382.98 429.5 384.1 430.58 385.75 429.77 387.25 429.85 388.66 432.36 389.96 432.17 389.9 434.93 388.21 437.55 389.07 439.77 389.82 443.51 389.03 444.53 390.52 444.42 391.89 445.05 392.14 446.79 393.19 447.27 393.12 448.3 392.1 447.98 391.69 449.45 390.54 450.01 388.71 448.79 386.38 449.44 385.12 448.89 382.56 449.59 380.05 451.22 380.09 452.22 381.24 453.79 383.22 454.23 385.51 453.62 390.71 454.55 391.32 456.07 391.71 459.1 392.46 460.69 391.23 461.45 390.17 464.2 389.04 464.96 386.62 464.43 385.82 463.77 382.07 465.82 380.56 465.91 379.58 466.96 376.37 467.05 373.01 467.53 371.55 468.63 371.69 469.85 373.96 471.02 375.63 473.32 376.81 473.76 376.31 475.91 373.41 475.98 373.12 478.58 375.74 478.22 376.61 476.72 378.96 476.6 380.12 475.73 383.81 475.13 385.25 476.12 386.86 475.84 386.97 477.27 388.68 477.88 389.26 479.81 390.89 480.48 392.17 482.06 393.67 482.69 394.28 484.42 395.62 484.63 398.32 487.87 402.41 488.61 402.98 489.62 402.43 490.96 403.24 493.49 402.54 495.01 405.01 495.37 406.11 498.06 408.96 497.41 409.19 498.15 Z M 357.15 513.3 355.37 515.55 354.1 515.79 354.03 514.92 355.68 512.83 357.47 512.52 357.15 513.3 Z" id="_x5357__x4EAC__x5E02_" class="area" title="南京市"></path>
<path d="M 570.82 446.42 570.57 450.65 571.48 453.4 573.62 454.76 573.64 455.66 572.05 457.33 573.86 458.58 575.33 458.29 578.55 459.56 582.04 460.48 584.45 460.76 584.78 462.23 587.92 463.42 589.51 466.14 589.68 467.62 591.26 467.65 593.67 469.6 593.47 471.47 592.42 472.66 593.7 475.29 595.53 475.38 597.11 474.4 597.51 475.59 599.27 474.44 601.19 476.1 601.81 478.88 602.7 479.19 603.43 481.43 600.83 483.85 601.31 485.73 603.55 486.52 601.29 488.8 599.17 489.36 598.15 490.55 598.99 492.25 597.9 494.08 599.41 494.07 602.32 494.85 602.84 495.78 601.95 496.8 602.8 497.53 602.31 498.44 603.52 499.56 602.22 500.36 600.18 499.99 598.66 501.73 597.33 501.95 596.76 501.2 595.34 501.75 596.04 505.33 598.26 504.9 598.8 504.27 601.19 504.11 602.66 505.41 603.33 509.33 604.26 512.63 602.81 513.78 602.41 512.3 598.97 514.46 597.07 515.14 596.11 516.59 597.07 519.02 594.35 520.9 592.6 520.72 591.49 521.28 591.69 522.21 589.41 522.26 588.61 523.62 586.45 523.45 583.55 523.97 580.42 523.5 577.67 523.56 568.71 528.1 565.83 529.4 554.1 535.26 547.92 538.17 542.81 543.41 533.78 549.78 506.73 563.02 503.92 563.27 500.81 564.46 499.14 563.39 495.66 563.32 495 562.63 493.43 562.7 493 563.74 493.9 564.38 492.98 565.41 491.07 566.21 489.81 565.09 488.43 565.05 488.72 563.43 486.73 561.9 483.32 563.04 481.2 562.67 477.31 563.49 475.99 565.73 472.99 564.5 472.32 563.41 470.29 563.72 470.11 564.59 467.17 566.22 466.65 568.05 465.6 568.66 463.17 568.96 461.19 571.8 458.66 571.87 457.54 571.12 457.15 568.98 455.57 567.32 453.52 566.3 451.64 564.7 453.12 562.37 454.62 561.85 454.47 557.12 454.66 555.89 451.9 553.66 450.21 552.88 451.59 550.49 451.4 547.84 452.01 545.91 450.37 544.5 449.85 542.07 451.35 540.27 450.92 536.08 451.33 534.59 452.79 531.84 452.19 529.27 454.59 528.78 454.76 525.62 457.91 526.07 459.5 523.93 460.05 521.48 459.57 520.96 456.27 521.29 456.27 520.29 457.38 520.24 457.69 518.95 456.67 517.58 456.53 515.55 458.9 515.57 460.32 511.64 461.35 510.71 463.12 507.99 465.19 507.7 467.05 506.37 467.88 505.18 467.29 504.51 466.82 501.96 469.46 500.67 471.61 500.67 473.3 501.42 475.42 505.33 476.86 505.41 477.28 507.93 478.46 508.13 480.18 507.24 485.2 508.57 488.56 508.63 490.72 509.32 494.26 512.07 496.47 511.98 498.47 509.64 503.55 509.57 508.96 508.72 510.76 510.05 514.09 511.11 514.35 513.96 517.55 516.58 517.7 515.07 518.89 515.75 520.35 515.45 523.26 516.52 524.58 517.61 524.68 519.1 523.46 526.76 522.07 529.16 521.1 532.86 521.48 535.43 524.05 538.14 526.73 539.1 530.85 540.05 532.35 539.64 531.78 537.2 526.25 536.68 524.49 536.3 523.82 535.49 523.75 533.55 524.45 529.55 525.9 525.56 526.78 524.69 530.91 522.66 533.76 521.69 533.14 520.42 533.57 518.93 536.56 515.55 534.24 513.64 533.39 514.51 532.81 513.58 532.57 510.25 531.5 510.26 531.95 509.29 527.95 508.76 526.09 507.21 526.22 504.78 528.76 502.66 528.85 500.99 531.47 499.43 532.97 497.91 535.1 497.6 535.81 495.14 536.39 489.97 538.48 491.18 539.59 490.28 538.44 489.44 538.77 488.2 540.41 487.23 540.25 485.9 541.06 485.21 540.12 481.89 540.24 479.7 542.14 479.11 543.52 479.48 544.27 480.68 546.72 480.2 545.49 478.2 544.5 475.47 542.89 473.41 543.6 471.73 542.35 471.1 541.44 468.91 542.73 468.04 544.44 464.96 543.12 463.57 540.6 463.91 538.62 465.18 535.58 465.12 534.8 465.74 532.14 465.65 530.26 466.01 529.53 466.8 526.13 468.82 524.51 470.46 521.7 469.05 520.85 470.31 518.58 469.54 518.18 467.07 516.71 465.75 518.57 465.14 519.99 463.37 520.21 461.93 517.8 460.14 518.89 457.65 521.3 456.53 519.16 454.23 519.2 452.51 521.3 449.7 527.34 451.44 537.28 453.74 543.03 454.52 547.39 454.86 551.75 454.65 555.51 453.39 568.32 447.87 570.82 446.42 Z" id="_x65E0__x9521__x5E02_" class="area" title="无锡市"></path>
<path d="M 291.74 98.76 292.74 100.93 293.72 100.5 295.5 101.92 298.08 102.12 299.45 102.83 303.33 101.51 303.34 100.91 305.32 99.44 308.24 98.09 309.39 98.76 311.63 99.13 315.05 100.55 315.4 101.44 316.97 101.04 317.65 98.69 318.7 97.35 320.14 97.14 323.92 98.12 325.62 98.19 325.95 100 327.09 100.87 328.84 101.07 329.53 103.71 326.76 106.19 325.38 106.14 325.31 109.64 324.02 110.2 323.73 111.67 322.14 112.18 323.53 112.74 323.98 115.12 323.66 116.86 322.43 117.21 318.07 116.89 314.96 118.18 315.4 121.1 314.3 121.7 313.48 125.43 314.1 127.02 315.24 127.48 313.28 133.99 313.35 137.16 307.53 136.72 305.55 138.14 306.17 139.54 305.31 141.18 305.25 143.18 307.31 143.98 303.36 145.52 302.32 146.47 300.49 146.87 297.83 145.53 295.46 145.75 294.62 145.25 288.15 144.01 285.39 143.8 277.2 144.54 275.26 145.09 274.82 146.1 266.77 146.43 265.37 145.48 264.07 142.6 264.1 140.5 260.39 137.7 258.9 138.46 255.95 137.78 255.12 138.16 255.62 139.54 255.09 141.17 253.5 141.29 250.86 140.21 248.33 140.85 247.49 139.32 246.24 138.65 245.5 137.17 243.98 136.39 242.31 138.36 242.81 139 241.59 139.53 233.54 140.78 232.89 143.09 233.2 145.67 234.78 146.42 234.47 147.66 235.55 148.76 240.6 147.53 242.76 153.05 242.2 153.84 242.74 157.74 241.39 159.32 240.74 158.79 238.65 158.89 237.73 160.92 238.5 162.98 240.26 163.32 241.23 164.69 243.98 165.61 245.87 165.64 245.88 168.94 247.91 169.06 248.78 169.92 249.87 169.67 250.41 167.15 251.59 167.1 253.76 169.97 254.93 174.77 255.93 176.38 257.65 177.62 258.52 179.87 258.72 182.86 259.96 182.85 260.42 185.87 259.76 186.84 257.73 186.27 257.7 188.06 256.37 189.75 257.93 191.1 259.08 194.38 257.98 194.95 257.62 196.31 254.9 196.75 252.67 196.04 250.46 193.9 248.76 194.17 243.01 194 242.56 195.05 240.19 196.24 237.72 196.73 238.08 197.6 236.52 197.85 236.36 196.84 234.25 196.97 232.9 196.24 229.78 196.26 228.78 194.33 227.19 196.1 226.97 197.93 224.69 199.18 222.05 198.47 221.72 197.9 219.54 198.28 219.12 199.19 219.7 200.49 217.72 200.14 216.61 199.41 212.12 198.23 210.34 198.51 209.25 198.1 206.04 198.21 204 198.64 202.1 200.16 200.56 200.25 198.51 201.72 196.04 200.12 195.57 198.41 194.36 197.81 194.54 196.31 195.87 195.99 196.97 194.43 197.99 190.33 198.49 187.31 197.59 185.76 198.15 185.27 198.56 182.42 198.48 180.14 199.45 178.54 199.37 176.95 198.66 176.14 196.83 176.06 193.21 177.87 191.54 176.65 189.61 172.73 187.13 169.94 187.11 167.46 185.76 165.14 186.95 162.58 186.23 160.88 183.32 158.76 181.03 156.61 179.13 156.11 178.26 156.53 179.38 158.27 179.17 159.99 178.26 160.8 176.5 161.12 175.12 162.42 173.35 163.13 172.38 162.8 170.61 159.65 168.93 158.76 168.63 157.62 169.03 155.69 166.94 153.49 164.69 152.04 163.27 151.93 162.64 153.26 159.28 153.92 156.93 155.38 153.4 156.66 150.58 157.01 149.18 156.42 148.4 154.78 146.69 152.79 144.25 152.06 145.2 150.53 142.27 148.15 140.31 149.24 136.91 148.69 135.77 151.02 133.26 150.59 132.4 149.51 130.87 149.47 128.11 151.32 123.43 151.57 121.64 150.07 120.92 150.94 118.88 150.92 117.37 149.87 114.41 148.7 113.01 148.79 113.94 146.66 112.32 146.78 110 146.22 109.96 143.99 109.09 142.46 106.61 142.15 104.27 139.98 101.76 139.83 99.29 138.64 98.17 139.16 96.93 136.88 95.08 136.85 95.86 134.19 97.21 132.04 98.19 131.43 98.73 129.19 97.86 128.73 98.53 126.22 97.91 125.45 95.39 126.54 94.43 126.09 94.16 124.36 92.99 124.3 89.25 122.32 87.07 120.35 87.17 119.01 88.1 117.33 87.11 114.74 89.05 111.52 88.74 109.77 85.96 109.03 85.92 107.79 87.11 105.4 83.75 104.45 80.18 102.81 78.57 102.63 74.91 103.38 72.56 104.92 69.94 105.37 67.02 105.34 63.7 102 60.49 99.39 60.57 98.36 59.3 96.21 57.44 94.91 55.23 94.1 52.07 93.47 43.49 93.42 37.92 91.2 31.05 91.16 30.13 90.65 30.84 89.92 33.52 90.46 34.44 89.57 33.91 87.95 32.84 87.8 30.4 86.26 27.2 83.49 24.52 83.8 23.31 83.45 24.09 82 21.73 81.41 19.01 79.16 19.15 76.94 17.29 74.82 17.13 73.22 12.92 72.44 10.82 71.08 10.48 68.14 5.21 69.24 3.67 69.87 1.97 69.36 1.09 68 3.05 65.69 3.04 63.4 4.05 63.04 4.09 61.9 5.11 60.59 4.98 59.67 2.89 58.57 1 58.98 1.66 57.54 1.27 55.06 2.1 54.01 6.6 53.14 6.98 44.45 7.33 43.21 7.28 39.71 11.28 35.12 12.59 34.32 12.56 33.35 14.08 32.61 17.63 33.08 20.45 32.54 20.76 31.84 23.65 32.14 26.93 31.37 28.91 31.38 36.57 29.46 37.8 27.01 39.11 26.91 40.28 28.07 42.82 28.58 42.9 27.95 45.36 27.99 45.68 27.13 48.38 28.05 49.7 27.87 51.85 29.02 55.26 29.72 55.35 30.46 56.86 30.22 60.36 30.35 61.18 26.95 62.7 27.19 62.59 26.43 60.97 25.98 60.42 23.9 61.48 24.2 61.48 22.02 63.56 22.7 63.58 28.68 64.77 28.73 64.28 22.92 65.29 23.42 66.19 28.53 71.29 28.67 73.86 30.92 77.12 32.04 80.42 33.49 80.4 36.77 83.7 36.43 83.69 36 86.78 36.17 88.18 37.18 82.05 38.12 81.53 38.44 81.36 40.82 86.66 40.6 88.51 44.8 87.45 45.24 84.53 45.42 84.6 47.7 86.62 49.05 86.91 50.77 88.18 51.01 88.41 52.1 90.01 51.88 90.86 52.86 94.59 52.73 97.62 55.95 100.17 57.73 101.5 59.2 101.3 59.97 102.48 61.65 101.72 61.97 100.25 64.6 100.34 67.16 101.86 69.81 103.07 69.93 105.11 68.61 106.25 68.4 107.87 71.36 109.07 74.7 110.46 77.35 112.47 79.6 112.99 81.16 111.47 84.08 111.3 85.8 112.23 89.02 113.75 92.3 114.21 96.26 115.09 98.88 119.85 98.91 119.95 97.89 123.21 97.2 123.09 96.61 124.84 96.06 126.73 96.55 127.86 94.99 127.76 93.49 125.99 92.64 127.36 91.51 127.88 92.95 128.96 93.48 129.51 92.43 128.35 90.01 130.49 89.09 129.99 87.29 130.61 86.66 129.6 84.92 132.35 84.81 134.52 83.71 134.62 82.71 133.36 81.89 137.17 80.29 138.83 80.8 138.54 79.92 136.71 80.17 136.85 79.12 138.94 79.26 140.4 77.92 143.13 77.34 144.72 77.62 148.72 79.72 148.9 82.92 151.84 84.32 152.16 86 153.97 86.74 153.8 87.25 155.68 88.7 157.81 91.77 160.03 91.59 160.69 92.14 160.78 94.38 161.62 93.48 164.42 93.49 168.02 94.25 169.38 93.12 171.3 93.58 172.51 94.84 175.7 94.92 177.26 92.88 178.18 90.94 180.96 91.22 182.24 89.98 183.49 90.59 185.21 89.44 187.24 87.34 188.46 85.38 188.82 82.86 190.93 83.1 197.94 84.84 201.55 85.46 203.89 86.9 205.48 86.92 205.15 84.61 204.51 83.91 204.47 81.09 204.03 77.49 205.03 72.26 204.34 71.72 204.68 70 204.34 68 205.19 68.64 208.11 68.8 209.76 67.77 210.15 68.64 212 67.92 212.26 68.65 214.27 68.94 216.33 68.23 216.77 68.95 219.91 69.03 220.85 65.38 225.11 66.15 226.82 64.21 228.47 64.2 232.51 65.4 232.38 66.59 234.74 67.39 234.8 68.61 236.27 68.68 236.62 66.77 241.36 68.12 241.85 67.55 244.75 67.73 245.63 67.42 248.29 68.58 247.14 70.16 247.98 71.59 249.76 72.31 250 73.32 248.31 76.3 245.4 78.23 244.92 79.66 247.97 80.38 251.78 81.71 253.19 80.6 253.7 81.91 255.55 82.6 256.95 82.27 259.95 83.3 257.52 86.79 257.15 88.89 253.83 90.03 252.58 91.95 253.59 93.09 258.97 96.24 259.12 100.22 258.88 102.57 257.92 106.46 259.18 106.74 259.76 105.18 260.65 106.56 262.75 107.03 264.65 106.78 265.02 102.97 266.53 103.99 268.16 103 273.13 103.14 273.49 102.08 274.81 102.06 275.02 100.32 279.33 100.77 283.78 100.56 283.92 101.33 287.72 101.6 289.89 99.96 291.27 99.86 291.74 98.76 Z" id="_x5F90__x5DDE__x5E02_" class="area" title="徐州市"></path>
<path d="M 514.62 444.14 515.28 445.39 520.42 449.32 521.3 449.7 519.2 452.51 519.16 454.23 521.3 456.53 518.89 457.65 517.8 460.14 520.21 461.93 519.99 463.37 518.57 465.14 516.71 465.75 518.18 467.07 518.58 469.54 520.85 470.31 521.7 469.05 524.51 470.46 526.13 468.82 529.53 466.8 530.26 466.01 532.14 465.65 534.8 465.74 535.58 465.12 538.62 465.18 540.6 463.91 543.12 463.57 544.44 464.96 542.73 468.04 541.44 468.91 542.35 471.1 543.6 471.73 542.89 473.41 544.5 475.47 545.49 478.2 546.72 480.2 544.27 480.68 543.52 479.48 542.14 479.11 540.24 479.7 540.12 481.89 541.06 485.21 540.25 485.9 540.41 487.23 538.77 488.2 538.44 489.44 539.59 490.28 538.48 491.18 536.39 489.97 535.81 495.14 535.1 497.6 532.97 497.91 531.47 499.43 528.85 500.99 528.76 502.66 526.22 504.78 526.09 507.21 527.95 508.76 531.95 509.29 531.5 510.26 532.57 510.25 532.81 513.58 533.39 514.51 534.24 513.64 536.56 515.55 533.57 518.93 533.14 520.42 533.76 521.69 530.91 522.66 526.78 524.69 525.9 525.56 524.45 529.55 523.75 533.55 523.82 535.49 524.49 536.3 526.25 536.68 531.78 537.2 532.35 539.64 530.85 540.05 526.73 539.1 524.05 538.14 521.48 535.43 521.1 532.86 522.07 529.16 523.46 526.76 524.68 519.1 524.58 517.61 523.26 516.52 520.35 515.45 518.89 515.75 517.7 515.07 517.55 516.58 514.35 513.96 514.09 511.11 510.76 510.05 508.96 508.72 503.55 509.57 498.47 509.64 496.47 511.98 494.26 512.07 490.72 509.32 488.56 508.63 485.2 508.57 480.18 507.24 478.46 508.13 477.28 507.93 476.86 505.41 475.42 505.33 473.3 501.42 471.61 500.67 469.46 500.67 466.82 501.96 467.29 504.51 467.88 505.18 467.05 506.37 465.19 507.7 463.12 507.99 461.35 510.71 460.32 511.64 458.9 515.57 456.53 515.55 456.67 517.58 457.69 518.95 457.38 520.24 456.27 520.29 456.27 521.29 459.57 520.96 460.05 521.48 459.5 523.93 457.91 526.07 454.76 525.62 454.59 528.78 452.19 529.27 452.79 531.84 451.33 534.59 450.92 536.08 451.35 540.27 449.85 542.07 450.37 544.5 452.01 545.91 451.4 547.84 451.59 550.49 450.21 552.88 451.9 553.66 454.66 555.89 454.47 557.12 454.62 561.85 453.12 562.37 451.64 564.7 449.05 565.13 446.22 564 444.95 564.34 444.51 565.64 443.56 564.72 441.4 565.09 440.57 563.88 438.3 562.15 436.12 561.46 434.98 562.73 432.87 561.91 431.53 562.51 431.26 560.54 432.12 559.83 433.59 559.91 432.05 558.94 429.82 560.42 428.71 559.21 427.91 559.46 427.11 557.16 427.83 554.24 428.59 552.83 429.89 549.02 428.74 548.7 428.22 546.23 426.61 544.2 425.69 544.52 425.7 547.38 425.09 549.07 423.9 550.51 423.29 549.76 420.67 549.54 417.82 549.89 413.86 551.71 413.07 550.16 411.41 550.07 411.45 550.78 409.83 551.11 409.5 550.45 406.92 549.67 406.51 548.35 404.94 549.54 403.94 548.43 404.26 545.57 401.65 544.59 403.68 543.33 403.37 541.97 404.1 540.3 406.9 537.71 406.35 536.72 404.98 536.44 404.38 534.88 402.93 533.42 400.65 533.16 399.96 531.29 399.96 527.35 399.24 524.6 398.02 524.95 395.94 524.05 396.02 523.09 397.58 521.29 398.08 519.05 397.1 518.5 397.65 517.19 399.56 517.15 402 516.19 404.26 512.73 404.14 511.95 401.59 512.39 401.65 510.8 402.79 508.86 404.01 508.85 406.58 506.21 406.65 504.07 407.45 502.74 409.19 498.15 409.59 498.42 412.64 497.42 416.11 495.91 418.55 494.21 420.91 491.9 422.64 487.21 421.56 486.69 421.63 485.57 422.98 483.9 421.64 483.2 419.36 483.08 419.22 478.2 419.61 476.9 420.65 476.78 421.41 473.98 420.63 474.04 420.52 471.59 421.41 469.94 423.2 468.39 422.76 467.05 424.54 465.09 427.68 465.31 428.86 467.04 430.94 466.92 433.36 468.99 435.96 469.38 436.95 468.96 437.47 469.89 438.95 469.45 437.34 467.82 436.41 466.05 435.56 466.15 436.08 463.37 438.12 462.69 439.72 461.41 441.87 462.01 442.57 463.37 448.17 466.18 454.12 465.53 454.98 464.67 455.52 465.58 456.96 465.8 457.91 466.68 459.37 466.81 460.1 468.53 459.72 469.72 460.84 469.6 461.95 470.42 462.03 472.69 463.36 474.1 465.43 473.39 467.57 474.19 468.45 476.73 469.26 477.31 473.77 477.91 474.49 479.68 476.4 481.07 476.62 482.38 478.84 483.1 481.13 483.35 480.38 481.56 480.61 478.95 482.38 476.35 483.6 475.52 484.54 472.4 488.31 472.57 487.6 471.18 488.29 469.78 489.74 468.82 491.34 466.13 487.14 466.15 485.39 466.79 484.45 465.47 484.56 463.23 483.3 462.13 485.66 459.22 486.89 459.1 487.07 457.36 483.93 456.33 484.05 455.55 487.37 456.58 488.16 455.51 486.42 452.99 485.06 452.32 486.56 447.38 486.2 447.04 487.5 443.36 486.46 443.09 489.14 438.14 490.34 437.14 492.83 437.18 493.79 437.73 495.9 436.6 498.19 437.78 499.56 436.85 500.85 439.11 501.57 439.53 502.59 438.55 503.31 439.4 504.73 442.93 506.69 444.59 511.24 444.78 514.62 444.14 Z" id="_x5E38__x5DDE__x5E02_" class="area" title="常州市"></path>
<path d="M 506.73 563.02 533.78 549.78 542.81 543.41 547.92 538.17 554.1 535.26 565.83 529.4 568.71 528.1 577.67 523.56 580.42 523.5 583.55 523.97 586.45 523.45 588.61 523.62 589.41 522.26 591.69 522.21 591.49 521.28 592.6 520.72 594.35 520.9 597.07 519.02 596.11 516.59 597.07 515.14 598.97 514.46 602.41 512.3 602.81 513.78 604.26 512.63 603.33 509.33 602.66 505.41 601.19 504.11 598.8 504.27 598.26 504.9 596.04 505.33 595.34 501.75 596.76 501.2 597.33 501.95 598.66 501.73 600.18 499.99 602.22 500.36 603.52 499.56 602.31 498.44 602.8 497.53 601.95 496.8 602.84 495.78 602.32 494.85 599.41 494.07 597.9 494.08 598.99 492.25 598.15 490.55 599.17 489.36 601.29 488.8 603.55 486.52 601.31 485.73 600.83 483.85 603.43 481.43 602.7 479.19 601.81 478.88 601.19 476.1 599.27 474.44 597.51 475.59 597.11 474.4 595.53 475.38 593.7 475.29 592.42 472.66 593.47 471.47 593.67 469.6 591.26 467.65 589.68 467.62 589.51 466.14 587.92 463.42 584.78 462.23 584.45 460.76 582.04 460.48 578.55 459.56 575.33 458.29 573.86 458.58 572.05 457.33 573.64 455.66 573.62 454.76 571.48 453.4 570.57 450.65 570.82 446.42 573.26 444.17 575.52 442.81 584.33 438.6 589.75 439.28 592.72 440.78 596.77 442.11 601.77 443.73 607.47 444.95 610.92 444.78 618.01 443.21 626.41 442.21 629.32 442.84 630.47 445.38 632.32 446.76 639.48 460.95 640.45 463.17 643.8 468.62 648.47 474.46 650.77 475.45 654.56 475.97 668.94 475.96 671.25 476.83 674.71 478.88 677.17 479.37 680.98 480.11 701.43 499.68 709.46 506.03 713.25 508.65 709.17 514.51 705.81 516.26 704.45 515.38 702.97 516.25 702.78 517.43 698.55 518 697.5 519.23 695.45 519.48 694.58 517.12 693.7 517.26 693.08 519.43 691.47 519.75 690.8 519.19 686.78 521.79 686.78 522.71 685.2 523.43 683.2 523.38 681.27 524.19 681.21 525.15 683.46 525.86 683.68 526.57 681.12 527.44 682.91 529 680.77 531.53 681.43 532.52 676.5 534.07 677.42 534.89 675.86 535.46 675.72 537.46 676.99 537.31 677.1 538.49 678.87 538.38 679.28 541.03 678.41 541.92 678.8 544.29 680.18 544.24 680.77 543.29 681.83 545.81 683.26 546.94 682.25 547.97 680.64 547.84 677.43 546.63 676.67 546.76 675.32 548.41 674.37 548.04 673.14 545.82 672.36 546.42 671.76 548.91 669.32 549.23 668.99 552.27 669.47 552.32 669.23 555.38 671.05 562.66 671.27 564.79 669.67 566.19 669.21 565.55 666.22 566.02 666.27 567.58 663.97 567.31 662.95 568.25 658.03 568.6 650.41 567.21 646.86 568.24 643.44 568.16 642.16 569.24 641.91 570.3 640.11 571.89 639.95 572.7 641.77 573.5 644.99 573.93 646.4 575.14 645.32 579.66 646.38 581.97 646.29 584.84 645.41 584.86 644.87 586.79 641.56 587.99 641.21 588.77 639.51 588.29 638.61 588.81 637.57 587.64 634.85 586.42 632.29 586.56 627.6 587.8 627.64 590.44 626.29 590.82 624.19 592.66 622.79 592.49 621.3 591.38 619.09 591.32 618.44 592.09 617.4 591.48 615.45 593.7 617.31 594.39 619 596.83 619.46 598.75 619.05 600.48 619.54 603.67 618.02 603.82 618.26 605.39 617.64 606.12 615.21 604.03 613.91 605 612.41 607.04 611.78 606.49 611.31 609.01 609.72 607.9 607.16 607.79 605.64 608.72 603.86 608.81 601.86 608.03 600.71 609.27 598.29 610.72 591.81 619.58 589.84 621.74 587.71 620.97 585.94 617.82 585.97 615.77 582.85 613.37 583.66 611.75 583.58 610.1 582.74 608.71 580.86 607.76 582.44 606.11 580.62 603.65 580.16 601.98 581.01 601.46 579.97 598.59 578.32 597.64 577.55 597.91 578.33 601.11 574.24 602.86 572.07 602.86 571.07 604.08 569.97 604.32 569.02 603.38 569.32 602.57 568.87 600.28 569.69 598.47 569.23 597.01 570.89 594.61 566.96 595.86 561.92 596.96 553.77 597.81 549.65 597.72 539.39 596.22 537.32 595.59 533.9 593.6 532.89 592.27 525.57 586.51 520.53 584.8 518.35 583.47 516.48 578.9 513.81 576.76 510.47 572.22 509.12 566.49 506.88 564.4 506.73 563.02 Z" id="_x82CF__x5DDE__x5E02_" class="area" title="苏州市"></path>
<path d="M 656.91 351.48 657.42 354.62 654.88 358.06 658.68 358.83 663.23 359 667.67 361.62 671.25 363.15 682.09 369.85 698.65 376.37 701.23 376.83 710.36 377.67 715.86 379.59 719.68 382.1 720.83 383.82 722.97 393.06 723.89 402.56 724.34 404.97 725.42 406.16 730.56 407.65 731.36 415.08 728.47 416.96 725.95 417.57 725.54 419.85 727.6 420.97 731.86 420.93 737.44 423.48 735.05 425.7 737.73 427.62 744.59 429.05 764.08 435.27 768.26 436.67 770.16 440.39 782.06 451.48 784.08 455.31 784.73 459.03 786.76 464.08 787.95 465.94 794.14 476.89 796.86 482.54 798.31 485.09 797.94 487.22 799 499.58 776.62 494.6 762.04 491.5 751.71 488.14 750.38 488.32 745.77 486.79 745.6 487.33 740.67 485.4 737.03 482.73 733.28 481.57 731.22 480.21 729.68 480.18 725.11 479.34 721.68 477.93 720.17 476.46 718.75 474.18 719.52 473.89 715.07 468.79 712.84 467.4 706.26 463.81 703.25 463.21 698.09 464.44 692.36 466.87 688.81 468.56 686.13 470.65 681.54 475.37 677.17 479.37 674.71 478.88 671.25 476.83 668.94 475.96 654.56 475.97 650.77 475.45 648.47 474.46 643.8 468.62 640.45 463.17 639.48 460.95 632.32 446.76 630.47 445.38 629.32 442.84 626.41 442.21 618.01 443.21 610.92 444.78 607.47 444.95 601.77 443.73 596.77 442.11 597.54 440.32 596.03 439.28 596.4 437.87 593.39 437.09 591.84 435.75 591.04 432.07 587.33 431.02 586.69 430.48 580.79 428.07 579.99 427.49 577.42 427.36 573.27 426.67 571.35 426.9 568.76 426.52 568.03 423.86 567.52 423.71 566.92 420.93 567.38 419.63 568.53 419.23 568.68 417.85 570.96 414.18 569.96 411.3 568.88 411.16 567.3 409.57 568 408.71 567.49 407.21 568.22 405.49 568.21 401.82 570.05 401.2 568.48 398.9 568.32 397.34 567.34 396.2 569.27 394.21 568.22 392.65 568.12 391.37 564.05 392.72 562.21 393.7 561.13 392.14 559.72 392.56 558.57 391.09 559.23 390.37 557.92 385.18 558.02 383.82 557.24 382.7 556.7 377.95 554.84 374.16 556.52 373.76 555.61 371.94 556.52 367.08 555.41 365.19 555.49 363.36 554.48 360.13 550.9 361.66 550.05 362.37 547.64 360.99 546.88 359.66 548.48 359.4 547.88 358.62 548.47 356.14 549.7 354.91 549.64 352.91 550.66 352.69 550.08 351.49 550.2 348.99 553.93 348.43 557.4 348.51 559.73 347.34 562.98 344.94 563.54 345.67 565.47 345.6 566.6 344.81 570.26 344.87 571.6 344.02 573.93 344.54 573.51 346.89 574.17 347.35 576.48 347.07 577.23 348.49 579.52 348.91 580.25 353.09 581.13 354.23 581.12 355.63 584.33 355.31 585.74 355.71 587.03 355.34 588.72 356.32 588.54 354.17 590.19 353.99 590.94 354.65 595.55 355.2 596.31 354.7 600.43 354.81 602.09 354.15 603.5 352.68 605.53 354.13 605.25 354.72 606.54 356.09 605.6 358.92 606.32 359.52 607.67 357.3 609.68 357.91 611.53 359.29 611.41 360.55 610.44 361.92 611.03 363.79 612.4 363.76 613.61 361.51 614.94 360.53 617.8 359.29 620.54 359.83 620.64 360.98 623.39 361.86 623.86 360.03 630.95 359.7 630.83 362.85 632.59 362.26 634.48 360.93 636.51 360.21 637.17 358.83 639.64 359.07 641.61 358.4 639.97 358.06 639.15 358.73 639.19 357.19 640.8 357.12 640.87 355.49 645.43 355.29 647.25 354.2 656.91 351.48 Z M 717.74 369.66 721.36 369.53 722.39 369.85 722.21 371.16 718.43 371.23 717.58 370.95 717.74 369.66 Z" id="_x5357__x901A__x5E02_" class="area" title="南通市"></path>
<path d="M 492.94 92.15 492.39 94.87 491.35 94.95 490.89 96.69 489.03 96.63 489.51 99.5 488.03 102.66 488.41 103.77 490.21 105.85 490.01 107.2 487.18 108.11 485.65 110.31 483.8 110.84 483.06 111.88 483.12 114.32 481.57 115.32 481.2 116.78 479.41 117.59 475.74 120.71 470.14 124.3 465.47 126.14 462.97 127.99 460.86 128.76 457.45 131.14 455.17 131.49 454.47 131.12 451.63 133.88 447.55 136.15 448.46 137.87 451.17 136.97 451.75 140.01 451.13 141.11 450.04 141.25 452.34 145.2 454.25 144.25 455.37 146.22 456.92 145.59 459.57 147.7 459.19 149.49 457.95 150.78 456.05 150.88 454.67 152.09 456.92 156.03 457.23 157.7 456.71 158.82 456.01 159.24 454.86 158.05 452.85 158.33 452.09 156.3 449.56 156.24 449.79 157.03 448.32 158.25 446.69 158.62 443.32 160.81 438.35 163.59 437.05 162.74 436.4 160.19 434.11 160.42 433.25 157.52 432.49 157.22 431.76 155.46 428.62 156 423.95 156.47 421.41 156.98 421.3 156.02 419.05 155.78 418.97 154.95 414.06 154.66 414.04 155.82 411.25 155.89 409.48 155.53 409.42 154.44 408.23 153.2 405.69 152.7 402.99 149.78 402.08 147.93 400.77 147.4 399.62 145.41 400.95 143.83 399.85 142.26 398.14 141.69 397.28 140.71 396.21 141.63 394.25 139.96 396.58 138.13 396.07 137.72 396.42 135.63 395.38 135.4 394.8 131.48 390.07 131.11 389.7 127.57 388.85 127.01 388.96 123.38 386.43 122.99 387.67 116.49 386.28 113.51 386.63 111.96 384.75 112.53 384.01 110.04 383.89 106.33 385.18 102.5 388.25 102.42 388.63 100.84 384.6 100.94 381.79 100.69 381.39 103.28 380.62 103.97 378.07 103.05 375.19 103.22 375.21 105.19 373.17 106.71 372.33 108.2 370.87 109.38 370.75 110.84 369.3 110.9 369.25 108.29 367.36 106.32 366.21 107.4 365.21 106.75 363.58 106.9 362.73 108.36 358.11 108.4 356.6 108.66 352.83 108.25 351.06 109.67 349.18 109.88 349.01 111.89 345.37 116.35 342.7 116.77 341.52 116.19 341.74 115.04 340.1 113.65 338.91 114.47 334.4 112.86 332.28 111.5 329.87 111.58 329.91 112.43 328.41 112 325.31 109.64 325.38 106.14 326.76 106.19 329.53 103.71 328.84 101.07 327.09 100.87 325.95 100 325.62 98.19 323.92 98.12 320.14 97.14 318.7 97.35 317.65 98.69 316.97 101.04 315.4 101.44 315.05 100.55 311.63 99.13 309.39 98.76 308.24 98.09 305.32 99.44 303.34 100.91 303.33 101.51 299.45 102.83 298.08 102.12 295.5 101.92 293.72 100.5 292.74 100.93 291.74 98.76 292.88 93.3 293.61 91.97 294.96 91.14 296.19 88.45 296.32 85.68 294.56 80.89 293.96 76.37 296.14 71.63 298.3 72.84 299.62 71.77 301.07 72.03 301.22 70.08 300.02 69.23 299.22 67.18 300.31 64.8 302.55 65.29 304.91 64.68 305.95 62.99 308.02 62.24 308.38 59.36 310.38 59.51 311.35 60.27 313.17 60.17 314.81 59.36 319.2 59.13 319.71 61.65 323.81 62.99 326.2 61.85 328.16 62.08 330.58 64.23 331.85 64.19 333.81 62.74 336.09 61.97 339.6 61.82 342.65 60.4 342.81 59.65 345.09 58.01 342.98 55.73 341.65 55.34 338.94 55.9 337.55 54.69 335.58 54.36 335.57 52.07 337.11 51.37 338.71 51.64 338.95 49.6 337.27 48.79 338.57 48.05 341.77 48.31 343.7 47.59 344.47 45.56 344.13 44.26 344.9 43.02 342.94 41.41 343.05 40.36 345.85 40.43 347.07 40.83 348.11 39.46 348.09 36.93 348.48 35.87 351.69 31.12 356.1 26.45 355.88 23.8 356.72 19.45 356.34 14.83 356.75 14.24 359.65 13.61 362.22 12.61 363.26 11.69 365.45 11.26 368.1 12.68 371.01 11.87 374.78 11.63 375.88 10.94 379.77 10.61 381.21 11.18 384.63 11.15 386.37 10.43 392.19 10.67 393.02 10.23 393.03 8.52 394.31 7.65 395.53 4.79 398.52 4.12 400.27 3.24 404.8 2.71 407.29 3.24 410.13 1 411.83 1.04 414.83 2.06 416.67 2.11 418.82 5.23 419.4 7.58 417.64 8.1 417.52 8.74 419.58 13.78 417.4 14.43 415.87 10.85 416.49 8.74 415.64 8.37 409.75 11.59 408.97 12.53 408.25 15.5 407.04 17.8 405.95 21.08 406.02 24.47 406.42 27.34 406.15 30.17 404.69 34.06 406.3 36.01 405.83 38.06 406.9 39.45 407.24 41.07 406.27 42.1 409.83 46.99 411.56 47.77 414.61 47.24 420.39 50.52 422.03 51.13 424.63 51.3 426.39 50.37 428.64 50.77 429.72 51.97 438.57 51.3 438.22 49.16 440.77 49.8 441.24 51.04 443.76 51.33 444.22 52.03 446.59 52.69 445.35 54.34 442.49 54.3 441.42 53.46 439.09 52.84 432.78 53.21 429.69 52.42 430.19 53.69 440.91 54.3 444.66 55.97 448.2 56.99 450.66 56.41 450.24 57.97 448.14 59.58 445.93 59.5 445.84 61.78 444.85 62.18 443.39 61.71 442.02 64.75 452.27 70.57 455.64 70.88 456.81 73.18 459.08 75.18 462.82 76.37 464.82 77.37 467.11 79.78 475.15 82.96 481.28 84.91 487.08 87.35 491.32 91.64 492.94 92.15 Z" id="_x8FDE__x4E91__x6E2F__x5E02_" class="area" title="连云港市"></path>
<path d="M 402.2 327.7 391.98 328.09 390.73 327.54 386.04 322.14 383.73 320.72 382.4 318.2 382.3 315.5 378.96 316.28 378.11 316.05 378.71 313.47 380.17 313.16 379.21 312.14 379.64 310.41 378.86 309.19 377.16 308.68 374.99 308.85 370.38 310.61 367.59 310.57 366.49 311.63 364.72 311.5 362.57 310.74 360.71 311.31 360.42 309.8 361.14 308.91 359.49 308.5 356.73 309.3 354.47 309.07 354.48 310.6 353.5 310.92 354.42 313.26 353.07 313.92 352.71 315.5 350.15 314.19 349.19 314.72 348.78 316 349.53 316.74 349.05 320.61 348.34 321.36 349.24 322.07 349.12 323.53 346.18 324.47 340.04 323 339.18 323.76 339.89 331.3 338.48 332.29 338.63 335.15 339.83 337.14 340.73 337.63 341.24 340.3 338.45 340.97 336.71 342.45 334.26 342.68 332.4 341.78 327.2 340.43 326.7 339.78 324.61 339.2 323.61 339.88 321.44 340.03 320.09 341.78 317.7 342.03 315.68 342.85 313.29 341.31 311.15 341.39 307.7 342.27 303.33 342.08 302.44 342.52 299 341.85 297.75 339.4 293.82 342.99 292.14 343.29 290.38 342.52 287.06 342.86 286.05 342.05 285.78 340.59 286.63 339.63 286.47 337.36 285.77 335.85 283.29 335.19 281.19 336.81 280.11 336.54 279.53 334.55 277.36 334.37 276.17 333.4 275.56 331.33 277.29 329.84 276.05 326.79 276.6 324.77 274.86 324.88 274.16 323.2 271.11 323.36 269.33 324.47 268.45 320.75 267.79 319.49 266.83 314.82 267.16 313.35 269.43 311.98 275.41 310.42 277.72 308.73 276.89 307.36 271.99 307.29 269.58 305.44 268.5 303.15 268.31 298.96 267.76 296.3 266.87 294.37 263.9 294.1 264.24 292.83 266.06 293.02 265.49 291.04 262.54 290.37 263.05 289.93 265.16 290.44 265.1 287.85 263.51 288.07 263.62 287 264.92 286.68 265.5 280.8 265.17 277.21 270.91 274.47 279.22 275 294.03 276.29 296.75 273.78 306.37 265.38 328.65 258.57 333.72 256.87 344.63 253.72 339.91 247.91 345.01 239.76 344.59 233.57 345.41 232.78 346.03 230.56 346 226.58 347.09 223.18 347.9 223.01 348.36 221.45 345.37 219.42 343.27 216.58 341.48 212.49 347.39 210.94 346.4 208.11 347.26 204.56 349.32 203.22 348.77 201.09 349.48 198.97 347.78 197.5 348.18 194.36 346.85 193 348.26 189.94 347.43 187.21 348.49 186.38 350.15 182.74 351.54 180.8 355.58 177.73 356.51 176.14 358.05 175.98 359.6 176.92 362.73 176.37 364.83 174.56 366.38 174.81 367.55 173.81 368.62 173.95 368.9 172.88 371.95 172.16 374.13 174.27 375.86 174.22 375.51 175.3 377.04 175.4 379.43 173.33 381 170.93 382.23 170.73 383.47 169.6 383.14 166.74 381.69 166.44 381.97 165.12 383.78 164.51 384.27 163.77 386.3 163.32 387.55 162.43 387.82 160.49 392.19 157.22 394.35 156.59 397.06 154.17 397.96 152.59 398.39 149.83 399.57 148.16 400.77 147.4 402.08 147.93 402.99 149.78 405.69 152.7 408.23 153.2 409.42 154.44 409.48 155.53 411.25 155.89 414.04 155.82 414.06 154.66 418.97 154.95 419.05 155.78 421.3 156.02 421.41 156.98 423.95 156.47 428.62 156 431.76 155.46 432.49 157.22 433.25 157.52 434.11 160.42 436.4 160.19 437.05 162.74 438.35 163.59 443.32 160.81 446.69 158.62 448.32 158.25 449.79 157.03 449.56 156.24 452.09 156.3 452.85 158.33 454.86 158.05 456.01 159.24 456.71 158.82 458.23 160.71 460.84 161.27 461.43 163.52 460.56 163.99 463.37 167.14 464.12 168.36 466.1 167.62 467.48 168.23 466.57 169.37 467.76 171.39 466.77 174.26 466.8 175.8 463.77 177.86 461.04 178.54 459.06 180.75 455.45 183.44 454.87 185.21 453.14 187.37 453.48 188.63 452.14 189.53 451.59 192.47 450.46 193.36 448.28 197.74 448.27 200.22 444.53 203.63 444.39 205.35 445.9 207.18 444.86 208.03 444.69 209.27 446.45 209.87 442.4 212.13 441.85 211.13 440.81 211.66 441.94 213.72 442.89 217.96 443.84 219.23 445.1 223.17 446.05 225.27 445.97 226.68 446.74 228.91 449.96 231.67 451.62 231.59 455.38 235.86 457.85 235.46 458.52 236.85 460.01 236.91 461.81 238.14 461.98 238.97 464.07 240.7 463.78 242.15 461.82 242.85 456.51 246.11 455.42 245.89 454.55 244.52 453.25 243.9 451.45 243.9 447.64 244.98 445.35 244.9 443.7 245.49 439.67 248.18 435.17 249.41 432.96 249.55 427.86 250.35 420.12 250.66 417.4 251.23 412.09 252.72 410.47 252.78 409.32 253.82 411.29 257.66 413.25 259.81 410.02 260.03 405.86 261.31 402.16 261.7 398.67 262.59 397.72 262.33 399.1 264.29 398.01 266.72 396.75 267.55 396.27 270.19 397.33 272.64 399.39 273.38 404.33 273.62 405.96 274.02 407.06 273.61 407.47 276.16 408.54 279.31 407.72 279.97 408.4 281.42 411.49 280.49 414.5 282.02 419.33 283.76 420.54 284.61 421.56 288.36 423.51 290.9 424.71 293.64 427.62 295.29 427.69 297.42 426.99 298.68 424.69 301.28 422.13 303.13 422.11 307.37 422.58 310.6 425.05 318.52 425.64 321.62 425.01 325.9 423.21 329.21 420.51 330.66 415.52 331.5 403.05 327.73 402.2 327.7 Z" id="_x6DEE__x5B89__x5E02_" class="area" title="淮安市"></path>
<path d="M 492.94 92.15 496.71 92.8 506.59 93.98 512.78 95.43 524.23 100.65 532.85 105 551.28 112.74 559.75 115.46 562.43 117.03 561.98 118.39 562.8 124.31 565.27 130.92 567.53 135.2 568.73 139.42 569.28 143.36 570.38 147.69 578.5 164.23 587.14 180.71 589.27 186.59 594.12 191.61 599.25 203.04 601.13 207.84 605.02 213.7 606.68 215.43 610.71 221.03 614.83 228.91 620.14 240.8 620.48 243.11 621.67 248.21 622.03 250.97 623.48 254.89 626.29 257.42 627.52 259.27 629.44 259.64 631.36 259.37 633.83 259.75 634.98 260.45 636.51 262.78 636.42 264.67 634.76 266.49 634.64 269.03 638 270.25 638.54 271.64 638.1 273.06 640.39 282.6 642.41 289.59 642.09 296.19 645.31 297.41 648.63 299.24 650.73 302.07 651.8 306.39 653.26 314.79 654.29 318.05 656.43 319.16 657.29 320.58 657.67 322.86 656.33 336.87 655.08 338.42 653.62 343.57 650.78 343.34 648.24 343.9 648.36 345.39 650.91 346.68 653.22 347.05 655.14 348.07 656.91 351.48 647.25 354.2 645.43 355.29 640.87 355.49 640.8 357.12 639.19 357.19 639.15 358.73 639.97 358.06 641.61 358.4 639.64 359.07 637.17 358.83 636.51 360.21 634.48 360.93 632.59 362.26 630.83 362.85 630.95 359.7 623.86 360.03 623.39 361.86 620.64 360.98 620.54 359.83 617.8 359.29 614.94 360.53 613.61 361.51 612.4 363.76 611.03 363.79 610.44 361.92 611.41 360.55 611.53 359.29 609.68 357.91 607.67 357.3 606.32 359.52 605.6 358.92 606.54 356.09 605.25 354.72 605.53 354.13 603.5 352.68 602.09 354.15 600.43 354.81 596.31 354.7 595.55 355.2 590.94 354.65 590.19 353.99 588.54 354.17 588.72 356.32 587.03 355.34 585.74 355.71 584.33 355.31 581.12 355.63 581.13 354.23 580.25 353.09 579.52 348.91 577.23 348.49 576.48 347.07 574.17 347.35 573.51 346.89 573.93 344.54 571.6 344.02 570.26 344.87 566.6 344.81 565.47 345.6 563.54 345.67 562.98 344.94 559.73 347.34 557.4 348.51 553.93 348.43 550.2 348.99 550.08 351.49 550.66 352.69 549.64 352.91 549.7 354.91 548.47 356.14 547.88 358.62 548.48 359.4 546.88 359.66 545.98 359.36 546.16 357.05 543.13 355.65 543.18 356.77 540.06 357.51 538.14 357.47 535.55 358.32 534.2 357.83 533.62 355.45 535.31 355.06 535.41 348.53 536.53 347.12 537.75 347.39 538.74 344.73 540.52 345.11 540.2 343.55 541.55 342.68 542.74 343.34 543.95 342.27 543.83 339.62 546 339.97 546.92 339.46 547.49 337.52 548.63 335.98 550.56 334.4 549.73 332.44 546.45 333.2 546.13 333.98 544.12 335.2 542.88 334.24 541.21 334.05 540.76 333.07 542.02 332.34 541.02 329.93 541.89 329.21 544.71 329.62 545.61 327.64 543.85 327.75 544.4 326.49 545.82 325.26 545.87 324.04 547.39 323.92 547.75 322.2 546.37 321.83 546.58 320.75 543.29 320.29 543.97 316.57 543.35 315.84 543.19 312.5 546.7 312.79 547.26 314.2 549.46 314.71 552.02 314.12 552.07 313.15 558.04 313.58 559.63 312.34 560.07 310.66 558.83 310.1 558.98 309.27 560.82 309.42 560.64 307.65 562.53 303.96 562.03 299.43 562.63 296.07 562.11 294.05 559.63 291.37 559.87 289.15 559.3 288.08 560.31 284.48 548.56 283.36 542.12 281.13 539.93 280.55 531.49 277.5 529.61 277.05 524.96 279.57 521.52 280.43 518.6 280.72 516.41 281.35 513.61 281.59 509.07 280.81 506.24 281.65 503.09 281.42 502.5 282.38 500.66 282.02 499.28 282.51 499.4 280.94 495.85 281.08 487.86 283.12 485.72 284.29 482.45 284.27 481.1 281.94 482.99 280.06 482.74 278.61 479.76 278.32 479.54 276.07 480.21 273.7 479.92 272.8 477.24 271.75 474.48 271.01 473.41 268.97 474.13 268.39 476.05 264.54 477.59 264.24 475.49 261.06 473.51 261.82 469.69 262.25 468.91 262.98 466.99 261.15 467.11 258.67 465.83 257.82 466.34 256.46 465.77 255.21 463.55 255.53 463.09 251.94 461.99 248.91 459.78 248.73 457.91 249.09 456.51 246.11 461.82 242.85 463.78 242.15 464.07 240.7 461.98 238.97 461.81 238.14 460.01 236.91 458.52 236.85 457.85 235.46 455.38 235.86 451.62 231.59 449.96 231.67 446.74 228.91 445.97 226.68 446.05 225.27 445.1 223.17 443.84 219.23 442.89 217.96 441.94 213.72 440.81 211.66 441.85 211.13 442.4 212.13 446.45 209.87 444.69 209.27 444.86 208.03 445.9 207.18 444.39 205.35 444.53 203.63 448.27 200.22 448.28 197.74 450.46 193.36 451.59 192.47 452.14 189.53 453.48 188.63 453.14 187.37 454.87 185.21 455.45 183.44 459.06 180.75 461.04 178.54 463.77 177.86 466.8 175.8 466.77 174.26 467.76 171.39 466.57 169.37 467.48 168.23 466.1 167.62 464.12 168.36 463.37 167.14 460.56 163.99 461.43 163.52 460.84 161.27 458.23 160.71 456.71 158.82 457.23 157.7 456.92 156.03 454.67 152.09 456.05 150.88 457.95 150.78 459.19 149.49 459.57 147.7 456.92 145.59 455.37 146.22 454.25 144.25 452.34 145.2 450.04 141.25 451.13 141.11 451.75 140.01 451.17 136.97 448.46 137.87 447.55 136.15 451.63 133.88 454.47 131.12 455.17 131.49 457.45 131.14 460.86 128.76 462.97 127.99 465.47 126.14 470.14 124.3 475.74 120.71 479.41 117.59 481.2 116.78 481.57 115.32 483.12 114.32 483.06 111.88 483.8 110.84 485.65 110.31 487.18 108.11 490.01 107.2 490.21 105.85 488.41 103.77 488.03 102.66 489.51 99.5 489.03 96.63 490.89 96.69 491.35 94.95 492.39 94.87 492.94 92.15 Z" id="_x76D0__x57CE__x5E02_" class="area" title="盐城市"></path>
<path d="M 477.24 271.75 476.61 274.7 475.71 274.2 474.32 276.32 469.37 279.82 468.86 280.64 467.79 284.4 468.23 285.8 466.96 285.95 468.01 288.1 471.14 290.13 473.16 292.59 474.96 300.5 476.58 302.1 476.39 304.38 474.98 308.41 475.88 310.74 477.54 311.95 477.21 314 478.22 316.25 479.01 316.88 482.01 317.31 484.25 316.54 486.15 314.85 487.19 315.02 488.15 319.8 490.05 322.43 489.29 323.23 490.49 323.96 489.09 325.45 489.88 325.99 489.79 327.33 488.36 328.5 488.05 329.9 488.91 330.8 490.59 331.27 493.02 330.21 493.97 330.37 493.21 332.07 494.43 333.91 498.64 334.8 499.18 335.83 496.11 338.04 495.88 340.35 497.92 342.56 497.98 344.06 500.66 345.79 499.71 348.54 501.54 349.28 503.15 349.22 503.77 351.69 503.48 353.21 505.57 356.21 503.98 356.38 503.7 357.44 502.54 356.9 499.55 357.03 499.14 355.86 497.5 355.25 496.01 354.05 494.36 353.97 493.75 355.61 491.71 355.94 491.96 357.67 492.76 358.76 491.91 358.99 492.51 360.82 491.89 362.81 493.53 365.6 494.72 366.93 492.99 368.98 493.15 374.54 492.25 375.2 491.73 378.44 493.89 379.65 495.43 379.06 497.26 379.31 498.09 381.91 499.41 382.72 498.74 385.8 497.02 386.64 497.33 387.97 496 388.8 497.65 391.11 497.3 393.71 495.74 393.82 496.39 398.41 495.91 399.34 492.39 402.09 489.99 400.63 487.68 399.9 485.2 399.76 481.87 400.48 479.81 401.88 476.64 405.81 473.82 404.94 472.33 406.7 469.95 407.61 466.05 408.46 465.15 409.74 465.45 412.73 464.32 414.2 464.36 411.35 463.47 409.47 462.25 409.15 460.93 410.09 461.14 411.76 457.08 412.4 457.08 406.49 458.07 406.29 457.87 404.65 453.38 404.9 453.6 405.46 452.22 407.01 449.1 409.72 447.63 408.86 443.95 407.96 441.66 407.78 437.6 408.49 434.58 410.04 432.32 411.68 431.13 413.11 428.18 413.04 423.74 412.27 416.59 412 412.16 412.09 408.47 413.52 401.1 411.14 397.77 410.46 394.72 410.25 388.13 410.82 386.53 409.71 383.94 409.32 381.17 408.16 381.74 406.48 381.59 401.97 380.96 401.21 381 398.83 381.87 397.72 379.94 396.04 379.78 395.15 382.13 393.18 378.98 391.72 379.1 391.01 381.36 390.85 381.22 389.82 379.81 389.89 378.39 388.34 378.23 386.35 380.09 384.13 379.1 382.5 379.27 380.26 381 380.77 382.58 379.29 385.49 379.36 386.38 380.36 388 380.73 389.55 378.83 392.32 377.28 395.03 375.21 396.91 375.05 396.13 374.09 397.25 372.61 398.02 370.02 399.76 368.84 399.6 367.47 397.87 366.2 397.77 365.21 400.81 363.9 401.06 360.66 402.51 359.8 403.45 362.75 405.66 363.55 407.21 363.11 407.19 360.86 408.75 358.77 407.26 358.39 406.74 357.33 407.22 355.58 405.58 353.89 405.99 344.4 405.61 343.4 405.51 339.81 404.46 338.32 403.1 332.93 402.76 329.8 402.2 327.7 403.05 327.73 415.52 331.5 420.51 330.66 423.21 329.21 425.01 325.9 425.64 321.62 425.05 318.52 422.58 310.6 422.11 307.37 422.13 303.13 424.69 301.28 426.99 298.68 427.69 297.42 427.62 295.29 424.71 293.64 423.51 290.9 421.56 288.36 420.54 284.61 419.33 283.76 414.5 282.02 411.49 280.49 408.4 281.42 407.72 279.97 408.54 279.31 407.47 276.16 407.06 273.61 405.96 274.02 404.33 273.62 399.39 273.38 397.33 272.64 396.27 270.19 396.75 267.55 398.01 266.72 399.1 264.29 397.72 262.33 398.67 262.59 402.16 261.7 405.86 261.31 410.02 260.03 413.25 259.81 411.29 257.66 409.32 253.82 410.47 252.78 412.09 252.72 417.4 251.23 420.12 250.66 427.86 250.35 432.96 249.55 435.17 249.41 439.67 248.18 443.7 245.49 445.35 244.9 447.64 244.98 451.45 243.9 453.25 243.9 454.55 244.52 455.42 245.89 456.51 246.11 457.91 249.09 459.78 248.73 461.99 248.91 463.09 251.94 463.55 255.53 465.77 255.21 466.34 256.46 465.83 257.82 467.11 258.67 466.99 261.15 468.91 262.98 469.69 262.25 473.51 261.82 475.49 261.06 477.59 264.24 476.05 264.54 474.13 268.39 473.41 268.97 474.48 271.01 477.24 271.75 Z" id="_x626C__x5DDE__x5E02_" class="area" title="扬州市"></path>
<path d="M 409.19 498.15 408.96 497.41 406.11 498.06 405.01 495.37 402.54 495.01 403.24 493.49 402.43 490.96 402.98 489.62 402.41 488.61 398.32 487.87 395.62 484.63 394.28 484.42 393.67 482.69 392.17 482.06 390.89 480.48 389.26 479.81 388.68 477.88 386.97 477.27 386.86 475.84 385.25 476.12 383.81 475.13 380.12 475.73 378.96 476.6 376.61 476.72 375.74 478.22 373.12 478.58 373.41 475.98 376.31 475.91 376.81 473.76 375.63 473.32 373.96 471.02 371.69 469.85 371.55 468.63 373.01 467.53 376.37 467.05 379.58 466.96 380.56 465.91 382.07 465.82 385.82 463.77 386.62 464.43 389.04 464.96 390.17 464.2 391.23 461.45 392.46 460.69 391.71 459.1 391.32 456.07 390.71 454.55 385.51 453.62 383.22 454.23 381.24 453.79 380.09 452.22 380.05 451.22 382.56 449.59 385.12 448.89 386.38 449.44 388.71 448.79 390.54 450.01 391.69 449.45 392.1 447.98 393.12 448.3 393.19 447.27 392.14 446.79 391.89 445.05 390.52 444.42 389.03 444.53 389.82 443.51 389.07 439.77 388.21 437.55 389.9 434.93 389.96 432.17 388.66 432.36 387.25 429.85 385.75 429.77 384.1 430.58 382.98 429.5 379.69 428.63 377.16 428.63 377.21 427.39 379.08 426.5 380.41 423.98 381.49 422.78 384.21 422.87 382.72 422.18 386.71 422.12 387.09 419.7 388.25 419.73 393.15 418.44 395.34 417.62 397.86 418.64 402.14 418.15 403.07 418.75 406.65 418 407.38 416.51 410.26 414.36 408.47 413.52 412.16 412.09 416.59 412 423.74 412.27 428.18 413.04 431.13 413.11 432.32 411.68 434.58 410.04 437.6 408.49 441.66 407.78 443.95 407.96 447.63 408.86 449.1 409.72 452.22 407.01 453.6 405.46 453.38 404.9 457.87 404.65 458.07 406.29 457.08 406.49 457.08 412.4 461.14 411.76 460.93 410.09 462.25 409.15 463.47 409.47 464.36 411.35 464.32 414.2 465.45 412.73 465.15 409.74 466.05 408.46 469.95 407.61 472.33 406.7 473.82 404.94 476.64 405.81 479.81 401.88 481.87 400.48 485.2 399.76 487.68 399.9 489.99 400.63 492.39 402.09 494.58 403.06 497.16 405.02 499.55 407.76 500.82 409.91 502.75 416.52 503.04 419.11 508.24 433.89 510.82 438.36 514.62 444.14 511.24 444.78 506.69 444.59 504.73 442.93 503.31 439.4 502.59 438.55 501.57 439.53 500.85 439.11 499.56 436.85 498.19 437.78 495.9 436.6 493.79 437.73 492.83 437.18 490.34 437.14 489.14 438.14 486.46 443.09 487.5 443.36 486.2 447.04 486.56 447.38 485.06 452.32 486.42 452.99 488.16 455.51 487.37 456.58 484.05 455.55 483.93 456.33 487.07 457.36 486.89 459.1 485.66 459.22 483.3 462.13 484.56 463.23 484.45 465.47 485.39 466.79 487.14 466.15 491.34 466.13 489.74 468.82 488.29 469.78 487.6 471.18 488.31 472.57 484.54 472.4 483.6 475.52 482.38 476.35 480.61 478.95 480.38 481.56 481.13 483.35 478.84 483.1 476.62 482.38 476.4 481.07 474.49 479.68 473.77 477.91 469.26 477.31 468.45 476.73 467.57 474.19 465.43 473.39 463.36 474.1 462.03 472.69 461.95 470.42 460.84 469.6 459.72 469.72 460.1 468.53 459.37 466.81 457.91 466.68 456.96 465.8 455.52 465.58 454.98 464.67 454.12 465.53 448.17 466.18 442.57 463.37 441.87 462.01 439.72 461.41 438.12 462.69 436.08 463.37 435.56 466.15 436.41 466.05 437.34 467.82 438.95 469.45 437.47 469.89 436.95 468.96 435.96 469.38 433.36 468.99 430.94 466.92 428.86 467.04 427.68 465.31 424.54 465.09 422.76 467.05 423.2 468.39 421.41 469.94 420.52 471.59 420.63 474.04 421.41 473.98 420.65 476.78 419.61 476.9 419.22 478.2 419.36 483.08 421.64 483.2 422.98 483.9 421.63 485.57 421.56 486.69 422.64 487.21 420.91 491.9 418.55 494.21 416.11 495.91 412.64 497.42 409.59 498.42 409.19 498.15 Z" id="_x9547__x6C5F__x5E02_" class="area" title="镇江市"></path>
<path d="M 492.39 402.09 495.91 399.34 496.39 398.41 495.74 393.82 497.3 393.71 497.65 391.11 496 388.8 497.33 387.97 497.02 386.64 498.74 385.8 499.41 382.72 498.09 381.91 497.26 379.31 495.43 379.06 493.89 379.65 491.73 378.44 492.25 375.2 493.15 374.54 492.99 368.98 494.72 366.93 493.53 365.6 491.89 362.81 492.51 360.82 491.91 358.99 492.76 358.76 491.96 357.67 491.71 355.94 493.75 355.61 494.36 353.97 496.01 354.05 497.5 355.25 499.14 355.86 499.55 357.03 502.54 356.9 503.7 357.44 503.98 356.38 505.57 356.21 503.48 353.21 503.77 351.69 503.15 349.22 501.54 349.28 499.71 348.54 500.66 345.79 497.98 344.06 497.92 342.56 495.88 340.35 496.11 338.04 499.18 335.83 498.64 334.8 494.43 333.91 493.21 332.07 493.97 330.37 493.02 330.21 490.59 331.27 488.91 330.8 488.05 329.9 488.36 328.5 489.79 327.33 489.88 325.99 489.09 325.45 490.49 323.96 489.29 323.23 490.05 322.43 488.15 319.8 487.19 315.02 486.15 314.85 484.25 316.54 482.01 317.31 479.01 316.88 478.22 316.25 477.21 314 477.54 311.95 475.88 310.74 474.98 308.41 476.39 304.38 476.58 302.1 474.96 300.5 473.16 292.59 471.14 290.13 468.01 288.1 466.96 285.95 468.23 285.8 467.79 284.4 468.86 280.64 469.37 279.82 474.32 276.32 475.71 274.2 476.61 274.7 477.24 271.75 479.92 272.8 480.21 273.7 479.54 276.07 479.76 278.32 482.74 278.61 482.99 280.06 481.1 281.94 482.45 284.27 485.72 284.29 487.86 283.12 495.85 281.08 499.4 280.94 499.28 282.51 500.66 282.02 502.5 282.38 503.09 281.42 506.24 281.65 509.07 280.81 513.61 281.59 516.41 281.35 518.6 280.72 521.52 280.43 524.96 279.57 529.61 277.05 531.49 277.5 539.93 280.55 542.12 281.13 548.56 283.36 560.31 284.48 559.3 288.08 559.87 289.15 559.63 291.37 562.11 294.05 562.63 296.07 562.03 299.43 562.53 303.96 560.64 307.65 560.82 309.42 558.98 309.27 558.83 310.1 560.07 310.66 559.63 312.34 558.04 313.58 552.07 313.15 552.02 314.12 549.46 314.71 547.26 314.2 546.7 312.79 543.19 312.5 543.35 315.84 543.97 316.57 543.29 320.29 546.58 320.75 546.37 321.83 547.75 322.2 547.39 323.92 545.87 324.04 545.82 325.26 544.4 326.49 543.85 327.75 545.61 327.64 544.71 329.62 541.89 329.21 541.02 329.93 542.02 332.34 540.76 333.07 541.21 334.05 542.88 334.24 544.12 335.2 546.13 333.98 546.45 333.2 549.73 332.44 550.56 334.4 548.63 335.98 547.49 337.52 546.92 339.46 546 339.97 543.83 339.62 543.95 342.27 542.74 343.34 541.55 342.68 540.2 343.55 540.52 345.11 538.74 344.73 537.75 347.39 536.53 347.12 535.41 348.53 535.31 355.06 533.62 355.45 534.2 357.83 535.55 358.32 538.14 357.47 540.06 357.51 543.18 356.77 543.13 355.65 546.16 357.05 545.98 359.36 546.88 359.66 547.64 360.99 550.05 362.37 550.9 361.66 554.48 360.13 555.49 363.36 555.41 365.19 556.52 367.08 555.61 371.94 556.52 373.76 554.84 374.16 556.7 377.95 557.24 382.7 558.02 383.82 557.92 385.18 559.23 390.37 558.57 391.09 559.72 392.56 561.13 392.14 562.21 393.7 564.05 392.72 568.12 391.37 568.22 392.65 569.27 394.21 567.34 396.2 568.32 397.34 568.48 398.9 570.05 401.2 568.21 401.82 568.22 405.49 567.49 407.21 568 408.71 567.3 409.57 568.88 411.16 569.96 411.3 570.96 414.18 568.68 417.85 568.53 419.23 567.38 419.63 566.92 420.93 567.52 423.71 568.03 423.86 568.76 426.52 571.35 426.9 573.27 426.67 577.42 427.36 579.99 427.49 580.79 428.07 586.69 430.48 587.33 431.02 591.04 432.07 591.84 435.75 593.39 437.09 596.4 437.87 596.03 439.28 597.54 440.32 596.77 442.11 592.72 440.78 589.75 439.28 584.33 438.6 575.52 442.81 573.26 444.17 570.82 446.42 568.32 447.87 555.51 453.39 551.75 454.65 547.39 454.86 543.03 454.52 537.28 453.74 527.34 451.44 521.3 449.7 520.42 449.32 515.28 445.39 514.62 444.14 510.82 438.36 508.24 433.89 503.04 419.11 502.75 416.52 500.82 409.91 499.55 407.76 497.16 405.02 494.58 403.06 492.39 402.09 Z" id="_x6CF0__x5DDE__x5E02_" class="area" title="泰州市"></path>
<path d="M 400.77 147.4 399.57 148.16 398.39 149.83 397.96 152.59 397.06 154.17 394.35 156.59 392.19 157.22 387.82 160.49 387.55 162.43 386.3 163.32 384.27 163.77 383.78 164.51 381.97 165.12 381.69 166.44 383.14 166.74 383.47 169.6 382.23 170.73 381 170.93 379.43 173.33 377.04 175.4 375.51 175.3 375.86 174.22 374.13 174.27 371.95 172.16 368.9 172.88 368.62 173.95 367.55 173.81 366.38 174.81 364.83 174.56 362.73 176.37 359.6 176.92 358.05 175.98 356.51 176.14 355.58 177.73 351.54 180.8 350.15 182.74 348.49 186.38 347.43 187.21 348.26 189.94 346.85 193 348.18 194.36 347.78 197.5 349.48 198.97 348.77 201.09 349.32 203.22 347.26 204.56 346.4 208.11 347.39 210.94 341.48 212.49 343.27 216.58 345.37 219.42 348.36 221.45 347.9 223.01 347.09 223.18 346 226.58 346.03 230.56 345.41 232.78 344.59 233.57 345.01 239.76 339.91 247.91 344.63 253.72 333.72 256.87 328.65 258.57 306.37 265.38 296.75 273.78 294.03 276.29 279.22 275 270.91 274.47 265.17 277.21 263.78 274.59 261.33 272.8 259.03 271.91 257.63 272.55 255.92 275.11 256.44 277.16 254.88 278.8 250.59 280.07 246.24 281.62 243.52 283 240.35 283.22 239.12 283.68 238.91 281.22 237.34 280.73 236.16 279.49 234.89 279.04 234.24 277.73 232.15 277.36 231.76 275.4 230.97 274.44 232.78 273.66 232.76 272.86 230.48 270.73 227.12 271.06 225.49 270.9 225.01 269.58 226.3 267.05 225.08 265.56 230.02 263.13 231.31 260.7 231.68 257.36 232.61 255.53 230.18 255.16 229.65 253.23 233.05 253.54 234.53 252.83 237.85 249.96 237.7 247.36 236.08 245.07 236.81 242.95 237.04 240.2 237.76 237.71 239.88 235.54 240.89 232.93 241.9 232.98 249.06 235.34 248.88 231.24 249.04 228.93 247.78 227.62 249.1 227.53 250.36 218.76 249.65 215.15 250.77 214.5 257.59 208.51 257.01 204.4 257.54 201.23 255.49 200.49 256.56 198.33 258.97 198.22 260.04 196.97 257.62 196.31 257.98 194.95 259.08 194.38 257.93 191.1 256.37 189.75 257.7 188.06 257.73 186.27 259.76 186.84 260.42 185.87 259.96 182.85 258.72 182.86 258.52 179.87 257.65 177.62 255.93 176.38 254.93 174.77 253.76 169.97 251.59 167.1 250.41 167.15 249.87 169.67 248.78 169.92 247.91 169.06 245.88 168.94 245.87 165.64 243.98 165.61 241.23 164.69 240.26 163.32 238.5 162.98 237.73 160.92 238.65 158.89 240.74 158.79 241.39 159.32 242.74 157.74 242.2 153.84 242.76 153.05 240.6 147.53 235.55 148.76 234.47 147.66 234.78 146.42 233.2 145.67 232.89 143.09 233.54 140.78 241.59 139.53 242.81 139 242.31 138.36 243.98 136.39 245.5 137.17 246.24 138.65 247.49 139.32 248.33 140.85 250.86 140.21 253.5 141.29 255.09 141.17 255.62 139.54 255.12 138.16 255.95 137.78 258.9 138.46 260.39 137.7 264.1 140.5 264.07 142.6 265.37 145.48 266.77 146.43 274.82 146.1 275.26 145.09 277.2 144.54 285.39 143.8 288.15 144.01 294.62 145.25 295.46 145.75 297.83 145.53 300.49 146.87 302.32 146.47 303.36 145.52 307.31 143.98 305.25 143.18 305.31 141.18 306.17 139.54 305.55 138.14 307.53 136.72 313.35 137.16 313.28 133.99 315.24 127.48 314.1 127.02 313.48 125.43 314.3 121.7 315.4 121.1 314.96 118.18 318.07 116.89 322.43 117.21 323.66 116.86 323.98 115.12 323.53 112.74 322.14 112.18 323.73 111.67 324.02 110.2 325.31 109.64 328.41 112 329.91 112.43 329.87 111.58 332.28 111.5 334.4 112.86 338.91 114.47 340.1 113.65 341.74 115.04 341.52 116.19 342.7 116.77 345.37 116.35 349.01 111.89 349.18 109.88 351.06 109.67 352.83 108.25 356.6 108.66 358.11 108.4 362.73 108.36 363.58 106.9 365.21 106.75 366.21 107.4 367.36 106.32 369.25 108.29 369.3 110.9 370.75 110.84 370.87 109.38 372.33 108.2 373.17 106.71 375.21 105.19 375.19 103.22 378.07 103.05 380.62 103.97 381.39 103.28 381.79 100.69 384.6 100.94 388.63 100.84 388.25 102.42 385.18 102.5 383.89 106.33 384.01 110.04 384.75 112.53 386.63 111.96 386.28 113.51 387.67 116.49 386.43 122.99 388.96 123.38 388.85 127.01 389.7 127.57 390.07 131.11 394.8 131.48 395.38 135.4 396.42 135.63 396.07 137.72 396.58 138.13 394.25 139.96 396.21 141.63 397.28 140.71 398.14 141.69 399.85 142.26 400.95 143.83 399.62 145.41 400.77 147.4 Z" id="_x5BBF__x8FC1__x5E02_" class="area active" title="宿迁市"></path>

</svg>