<!--?xml version="1.0"?-->
<svg xmlns="http://www.w3.org/2000/svg" version="1.2" baseProfile="tiny" width="100%" height="100%" viewBox="0 0 800 1411" stroke-linecap="round" stroke-linejoin="round">

<path d="M 131.81 12.8 135.08 8.69 143.61 8.42 147.93 9.97 150.11 5.7 156.05 5.32 165.35 8.45 168.07 8.62 174.24 16.58 177.4 18.1 180.91 23.07 180.98 27.19 183 27.07 183.44 31.86 180.48 31.28 176.39 37.95 176.43 44.11 180.69 45.57 177.53 50.16 177.98 54.04 175.4 55.96 169.25 55.21 167.44 52.81 164.63 50.22 161.95 51.84 157.24 49.07 154.78 44.98 156.57 41.18 151.97 39.23 149.74 41.23 145.27 42.11 141.81 42.76 140.61 39.57 142.32 36.37 138.69 26.84 135.04 24.69 136.59 17.04 131.81 12.8 Z" id="_x6D77__x53E3__x5E02_" class="area" title="海口市"></path>
<path d="M 30.46 158.81 37.61 151.27 42.56 148.72 53.14 147.23 52.27 143.98 53.87 139.97 57.58 139.51 63.34 143.09 65.03 138.08 71.27 133.94 72.84 138.15 79.99 140.17 82.5 141.88 82.65 145.4 80.8 150.72 82.9 153.51 93.78 153.96 97.66 150.94 98.9 145.19 103.73 143.64 106.21 148.1 104.06 150.93 105.82 157.75 103.92 158.62 101.02 171.07 98.98 172.41 91.36 172.94 84.78 175.36 81.82 173.16 76.28 172.46 74.39 170.56 67.02 169.2 61.17 164.89 51.38 165.3 48.27 164.64 45.65 159.8 36.87 159.87 32.54 161.22 30.46 158.81 Z" id="_x4E09__x4E9A__x5E02_" class="area" title="三亚市"></path>
<path d="M 404.54 1040.05 406.97 1035.73 411.73 1030.99 412.14 1024.7 414.92 1025.97 414.92 1030.37 411.77 1036.06 406.61 1040.43 411.17 1034.22 404.54 1040.05 Z M 248.91 267.37 247.96 266.03 255.72 263.71 257.2 266.5 251.55 269.01 255.4 265.95 254.12 265.1 248.91 267.37 Z M 787.99 430.95 788.59 427.49 791.46 426.87 789.07 429.85 789.45 435.38 798.28 437.07 789.59 437.6 787.99 430.95 Z M 272.33 343.35 277.45 340.91 276.69 338.54 268.06 338.21 276.48 336.76 279.89 339.81 278.03 342.43 272.33 343.35 Z M 265 338.32 267.73 337.76 260.62 343.27 261.3 345.05 268.56 342.18 261.68 346.9 257.99 346.34 258.81 342.41 265 338.32 Z M 459 1084.86 461.11 1082.1 470.4 1079.43 476.1 1075.03 486.17 1069.32 491.05 1062.1 503.68 1055.02 508.68 1053.61 514.57 1055.65 515.81 1060.33 514.54 1062.86 507.96 1066.91 504.15 1071.16 502.75 1078.92 499.69 1082.13 492.94 1083.98 481.49 1088.8 472.98 1090.84 466.79 1090.97 460.94 1088.33 459 1084.86 Z M 465.91 975.61 467.45 975.25 473.08 980.47 470.94 983.28 469.06 978.7 465.91 975.61 Z M 464.08 978.4 465.96 978.31 468.91 982 465.75 982.5 464.08 978.4 Z M 272.73 320.78 275.04 317.63 273.2 312.76 276.84 315.49 273.85 321.06 272.73 320.78 Z M 293.04 332.44 295.5 330.11 301.72 330.21 300.14 333.37 294.88 333.89 293.04 332.44 Z M 484.66 984.95 487.06 983.21 489.41 987.88 486.04 989.46 484.66 984.95 Z M 315.34 274.39 320.57 276.85 314.46 277.48 315.34 274.39 Z M 521.18 881.29 527.09 880.11 525.92 884.54 523.31 885.44 521.18 881.29 Z M 626.5 903.37 629.38 897.4 634.11 897.16 631.98 906.71 629.07 908.5 628.55 904.69 626.5 903.37 Z M 527.43 848.47 528.62 846.02 532.22 845.99 530.55 850.76 527.43 848.47 Z M 447.99 1082.29 453.35 1081.62 453.56 1084.07 448.36 1085.32 447.99 1082.29 Z M 76.35 1107.52 82.55 1098.53 92.66 1088.96 98.65 1087.55 106.77 1087.83 114.4 1089.65 118.19 1092.12 117.36 1093.71 104.65 1091.99 97.53 1093.16 92.76 1095.88 85.63 1105.02 80.6 1109.61 76.64 1110.52 76.35 1107.52 Z M 664.14 975.01 666.94 971.76 669.2 973.17 665.92 976.87 664.14 975.01 Z M 569.75 1018.43 577.29 1019.28 576.89 1021.3 570.99 1020.27 569.75 1018.43 Z M 341.65 977.89 346.89 976.8 350.48 980.29 344.52 980.56 341.65 977.89 Z M 336.39 360.27 333.97 359.94 335.15 356.59 346.02 354.28 348.1 356.99 344.45 359.43 336.39 360.27 Z M 508.4 806.14 515.77 800.53 518.59 799.83 519.11 804.37 516.68 806.1 512.19 805.05 508.91 808.01 508.4 806.14 Z M 330.59 334.9 340.92 332.92 341.76 335.44 336.33 335.46 328.36 337.45 330.59 334.9 Z M 252.09 321.38 256.47 321.25 256.07 322.88 252.09 321.38 Z M 597.38 887.09 598.91 884.03 604.39 885.45 601.56 889.62 597.38 887.09 Z M 682.71 844.13 687.35 842.05 684.98 848.15 695.59 846.8 696.19 849.39 689.43 852.03 680.84 851.64 680.4 848.17 682.71 844.13 Z M 325.37 281.68 321.48 277.5 324.08 277.31 325.37 281.68 Z M 458.8 1050.51 462.71 1049.37 465.36 1055.72 459.7 1054.08 458.8 1050.51 Z M 591.5 933.13 593.59 928.63 594.79 933.63 591.5 933.13 Z M 511.73 1040.57 519.34 1037.29 521.8 1038.05 519.31 1040.53 512.85 1042.03 511.73 1040.57 Z M 525.72 1032.79 530.62 1032.76 531.9 1034.6 527.55 1034.97 525.72 1032.79 Z M 680 949.55 682.87 948.75 682.13 952.81 680 949.55 Z M 436.66 966.63 443.66 962.9 444.65 964.29 438.07 967.9 436.66 966.63 Z M 345.63 1312.47 346.75 1310.71 350.62 1311.06 349.71 1314.44 347.33 1315.09 345.63 1312.47 Z M 521.39 754.69 521.39 747.46 525.02 746.88 524.22 754.25 521.39 754.69 Z M 296.2 1409.18 298.44 1406.67 300.03 1410.02 296.2 1409.18 Z M 546.5 803.81 548.52 800.37 550.77 800.44 548.25 805.65 546.5 803.81 Z M 462.65 975.41 462.03 978.3 458.71 976.48 460.3 974.2 462.65 975.41 Z M 258.39 319.82 260.07 318.03 261.95 322.38 258.39 319.82 Z M 117.12 1064.03 118.54 1060.56 125.47 1055.73 129.34 1055.3 129.77 1059.86 126.95 1064.19 121.61 1067.12 118.13 1066.86 117.12 1064.03 Z M 528.07 791.61 529.22 788.55 534.06 782.47 536.91 782.93 536.37 785.4 529.2 791.8 528.07 791.61 Z M 339.06 320.17 338.38 317.78 344.91 314.02 345.9 315.02 339.06 320.17 Z M 268.54 309.67 270.82 309.1 271.75 312.09 268.54 309.67 Z M 348.22 1306.6 352.46 1307.71 351.95 1310.09 348.22 1306.6 Z M 703.28 748.68 704.25 747.55 707.18 753.53 706.57 754.85 703.28 748.68 Z M 274.68 355.06 280.54 354.27 280.45 356.13 275.98 357.83 274.68 355.06 Z M 454.6 876.69 455.51 867.77 456.89 867.7 456.27 878.03 454.6 876.69 Z M 536.23 1037.05 537.98 1041.42 534.97 1041.1 536.23 1037.05 Z M 638.57 936.81 640.47 939.27 635.6 941.34 634.17 937.75 638.57 936.81 Z M 525.36 1086.33 526.41 1084.57 530.41 1084.87 527.27 1088.53 525.36 1086.33 Z M 578.61 861.76 582.99 861.01 579.31 863.52 578.61 861.76 Z M 528.59 345.69 528.71 343.18 537.2 341.85 538.34 343.25 528.59 345.69 Z M 438.57 944.68 441.76 945.14 440.01 947.12 438.57 944.68 Z M 162.3 1040.9 162.46 1039.87 171.66 1036.04 174.39 1037.4 170.46 1042.86 163.29 1044.71 162.3 1040.9 Z M 488.82 857.43 490.77 854.53 494.87 852.34 496.06 853.74 490.6 857.61 488.82 857.43 Z M 400.74 1044.55 404.1 1040.88 406.05 1041.37 400.74 1044.55 Z M 335.2 1307.32 338.33 1306.93 338.97 1309.46 335.2 1307.32 Z M 510.45 816.39 514.44 809.81 516.47 811.13 510.45 816.39 Z M 527.35 751.49 530.09 749.53 530.96 754.96 527.35 751.49 Z M 695.63 834.79 700.89 833.64 701.68 835.77 695.63 834.79 Z M 793.39 811.53 796.04 805.85 798.74 806.1 799 808.93 795.8 813.28 793.39 811.53 Z M 576.47 1006.94 579.77 1006.83 577.39 1009.69 576.47 1006.94 Z M 473.64 799.08 476.63 796.58 477.38 799.04 473.64 799.08 Z M 175.19 1050 178.02 1048.26 178.09 1051.89 175.19 1050 Z M 325.12 971.01 328.49 969.19 329.15 971.56 325.12 971.01 Z M 162.37 1068.22 164.48 1065.81 166.78 1067.7 164.72 1069.64 162.37 1068.22 Z M 598.19 1008.59 598.59 1006.11 602.45 1005.8 602.06 1011.14 599.26 1011.21 598.19 1008.59 Z M 288.82 1044.83 291.33 1041.77 296.39 1042.89 296.87 1045.28 292.25 1046.85 288.82 1044.83 Z M 265.75 992.88 269.14 992.33 270.9 994.85 266.4 997.18 265.75 992.88 Z M 749.11 850.63 750.56 847.39 752.68 851.2 749.11 850.63 Z M 255.47 1090.28 257.57 1085.24 261.79 1086.13 259.31 1090.37 255.47 1090.28 Z M 647.5 808.83 648.94 806.67 650.17 810.02 647.5 808.83 Z M 486.28 356.88 494.35 355.42 494.46 357.45 486.28 356.88 Z M 314.41 1406.52 316.25 1404.27 318.27 1407.22 314.41 1406.52 Z M 316.73 1400.95 317.63 1398.49 319.85 1400.73 316.73 1400.95 Z M 644.46 870.06 646.61 867.17 648.82 870.23 646.59 872.78 644.46 870.06 Z M 266.81 1081.04 268.6 1075.82 271.65 1074.23 273.64 1076.49 270 1081.26 266.81 1081.04 Z M 749.88 818.6 752.14 814.83 758.73 814.22 762.98 817.66 761.79 820.41 749.88 818.6 Z M 519.58 977.91 521.17 974.88 525.32 973.27 526.78 974.88 523.61 978.03 519.58 977.91 Z M 340.79 1241.33 343.75 1239.05 343.85 1244.37 340.79 1241.33 Z M 541.62 1116.17 542.96 1120.11 538.66 1120.61 541.62 1116.17 Z M 433.34 1140.53 434.07 1144.15 431.33 1143.94 433.34 1140.53 Z M 542.84 1052.35 546.81 1050.29 547.31 1053.3 544.17 1054.84 542.84 1052.35 Z M 453.4 87.76 450.59 84.25 451.21 82.17 457.18 80.98 461.02 82.15 460.53 86.57 457.01 88.37 453.4 87.76 Z M 700.51 330.57 702.52 328.15 705.07 329.28 705.07 332.62 702.12 334.78 700.51 330.57 Z M 316.34 975.45 320.15 974.5 319.55 977.16 316.34 975.45 Z M 756.9 870.5 759.12 869.11 760.1 872.81 756.9 870.5 Z M 264.08 1058.96 265.2 1056.76 270.54 1057.21 270 1060.76 264.08 1058.96 Z M 351.45 1300.68 353.82 1299.44 357.31 1303.36 354.18 1305.69 351.62 1304.7 351.45 1300.68 Z M 340.41 1253.27 340.88 1250.59 343.73 1251.45 344.1 1255.47 342.3 1256.7 340.41 1253.27 Z M 345.59 1261.42 348.45 1260.8 350.44 1268.47 348.29 1269.72 345.59 1261.42 Z M 372.25 1064.39 375.7 1062.38 375.5 1065.81 372.25 1064.39 Z M 506.6 357.45 508.07 354.57 512.92 355.52 506.6 357.45 Z M 380.98 60.67 381.02 56.03 384.08 55.78 384.92 59.96 380.98 60.67 Z M 343.35 1300.44 347.19 1299.57 347.98 1301.99 344.39 1303.7 343.35 1300.44 Z M 585.44 537.44 590.76 534.98 592.07 537.9 588.54 539.5 585.44 537.44 Z M 373.57 1310.52 373.89 1306.6 377.48 1305.75 376.71 1310.62 373.57 1310.52 Z M 256.73 1067.53 261.06 1062.9 262.42 1064.71 259.45 1070.67 256.73 1067.53 Z M 314.81 294.85 313.45 291.69 317.88 293.22 314.81 294.85 Z M 549.82 1093.32 555.41 1091.86 555.26 1095.42 552.6 1096.13 549.82 1093.32 Z M 348.07 1278.15 350.96 1274.55 354.9 1274.79 354.39 1277.8 350.52 1279.86 348.07 1278.15 Z M 315.42 386.63 312.83 385.06 316.99 382.58 315.42 386.63 Z M 705.23 959.74 704.46 962.16 700.89 960.4 705.23 959.74 Z M 547.84 357.23 546.53 360.22 545.19 357.27 547.84 357.23 Z M 462.59 374.61 465.36 374.26 465.58 377.17 462.59 374.61 Z M 351.04 327.1 352.22 323.56 354.1 325.79 351.04 327.1 Z M 619.66 838.5 623.44 838.29 621.22 840.78 619.66 838.5 Z M 339.45 917.59 344.22 916.81 344.35 920.01 339.13 919.25 339.45 917.59 Z M 752.69 785.28 753.13 789.63 749.66 786.56 752.69 785.28 Z M 786.48 787.77 786.44 790.55 783.25 788 786.48 787.77 Z M 520.56 390.66 520.63 393.6 518.07 392.72 520.56 390.66 Z M 482.29 931.43 484.65 930.83 483.02 935.08 482.29 931.43 Z" id="_x4E09__x6C99__x5E02_" class="area" title="三沙市"></path>
<path d="M 30.14 56.18 35.73 50.79 40.49 47.91 44.38 41.89 49.04 40.58 50.93 37.84 50.03 33.18 55.16 27.56 58.36 26.58 59.14 23.31 62.89 22.21 66.47 23.86 71.76 24.16 79.34 26.05 85.03 27.64 85.43 32.56 88.04 38.36 84.41 41.23 86.61 46.4 93.63 47.08 93.22 48.69 97.52 51.58 102.71 51.5 101.9 55.78 99.15 58.62 101.21 65.44 99.98 66.26 92.1 66.7 92.17 70.58 96.74 71.27 97.88 74.69 96.49 78.02 97.31 82.31 95.6 85.99 94.4 83.51 91.03 83.95 89.12 79.63 87 80.44 83.05 74.51 76.73 75.44 80 70.4 78.06 66.38 75.77 66.96 72.93 70.81 69.45 70.75 63.83 67.07 59.41 68.91 51.7 66.97 47.56 60.04 46.44 61.07 40.74 59.33 40.16 64.28 36.07 64.19 34.81 60.24 31.08 58.51 30.14 56.18 Z" id="_x510B__x5DDE__x5E02_" class="area" title="儋州市"></path>
<path d="M 98.05 115.79 95.79 116.11 95.13 119.9 96.98 125.45 91.7 125.34 89.8 129.21 86.08 126.05 82.36 127.82 82.9 130.83 78.47 131.94 74.99 131.18 71.52 133.57 70.66 129.82 67.08 126.41 66.8 117.59 68.63 114.04 65.91 112.04 64.47 107.79 66.38 106.07 68.04 106.94 72.96 102.26 75.69 101.81 76.73 98.65 81.53 98.76 84.08 106.07 88.22 109.18 94.69 107.83 99.35 108.89 96.64 110.98 98.05 115.79 Z" id="_x4E94__x6307__x5C71__x5E02_" class="area" title="五指山市"></path>
<path d="M 175.32 94.15 167.66 92.55 163.84 93.07 162.76 95.01 144.19 103.48 142.43 101.22 136.3 101.48 133.33 97.34 132.56 89.94 135.64 83.44 137.34 84.92 142.03 82.3 148.53 82.8 152.34 81.72 153.63 75.66 150.87 74.22 154.45 67.61 159.21 65.74 161.49 62.81 164.46 63.18 166.19 61.01 169.77 61.01 172.8 65.22 173.04 69.69 174.8 71.19 177.3 67.65 185.63 68.73 183.6 73.8 181.03 76.72 176.07 88.31 175.32 94.15 Z" id="_x743C__x6D77__x5E02_" class="area" title="琼海市"></path>
<path d="M 185.63 68.73 177.3 67.65 174.8 71.19 173.04 69.69 172.8 65.22 169.77 61.01 167.55 57.42 164.55 58.07 163.17 55.56 167.44 52.81 169.25 55.21 175.4 55.96 177.98 54.04 177.53 50.16 180.69 45.57 176.43 44.11 176.39 37.95 180.48 31.28 183.44 31.86 183 27.07 180.98 27.19 180.91 23.07 177.4 18.1 174.24 16.58 168.07 8.62 171.15 5.65 179.21 3.51 181.92 1 184.53 2.28 186.9 8.73 189.8 9.22 192.43 12.04 197.84 14.12 203.84 12.65 206.31 14.24 210.11 28.02 212.73 35.53 215.09 47.15 209.71 49.3 202.1 53.74 195.47 62.58 190.04 67.27 185.63 68.73 Z" id="_x6587__x660C__x5E02_" class="area" title="文昌市"></path>
<path d="M 136.3 101.48 142.43 101.22 144.19 103.48 162.76 95.01 163.84 93.07 167.66 92.55 175.32 94.15 173.19 110.26 173.6 115.32 172.5 120.02 165.84 122.78 165.37 131.65 154.34 133.18 151.05 132.29 143.87 135.13 141.08 137.79 134.49 135.43 132.62 136.59 124.41 130.88 123.91 124.49 127.56 122.29 130.88 117.71 126.53 111.38 131.05 109.05 131.96 106.22 136.3 101.48 Z" id="_x4E07__x5B81__x5E02_" class="area" title="万宁市"></path>
<path d="M 47.11 111.93 44.49 113.78 42.43 118.05 37.61 117.93 35.18 119.86 30.13 119.54 22.87 122.94 20.02 125.6 15.71 124.56 6.93 125.88 1.18 117.89 1.39 112.48 5.04 107.94 4.4 101.17 1.62 96.61 1 89.21 2.26 78.59 5.64 71.29 10.76 78.76 17.63 80.31 21.9 79 29.06 82.57 32.4 82.54 35.6 90.18 38.28 92.19 37.05 97.12 44.83 98.99 46.11 104.03 44.05 109.22 47.11 111.93 Z" id="_x4E1C__x65B9__x5E02_" class="area" title="东方市"></path>
<path d="M 142.03 82.3 142.31 75.37 138.87 75 136.92 70.23 136.81 64.65 139.36 62.08 142.27 62.53 143.59 56.75 139.56 55.22 139.2 50.57 134.47 53.07 133.95 45.5 136.5 43.47 138.72 46.47 141.75 47.07 145.27 42.11 149.74 41.23 151.97 39.23 156.57 41.18 154.78 44.98 157.24 49.07 161.95 51.84 164.63 50.22 167.44 52.81 163.17 55.56 164.55 58.07 167.55 57.42 169.77 61.01 166.19 61.01 164.46 63.18 161.49 62.81 159.21 65.74 154.45 67.61 150.87 74.22 153.63 75.66 152.34 81.72 148.53 82.8 142.03 82.3 Z" id="_x5B89__x5B9A__x53BF_" class="area" title="安定县"></path>
<path d="M 132.56 89.94 127.56 89.81 124.91 86.27 118.96 85.15 116.02 80.75 107.31 76.43 107.63 71.82 111.95 68.04 115.1 67.63 115.24 64.83 118.04 61.03 117.29 59.51 124.39 59.53 126.57 62.07 128.84 58.96 132.93 57.99 131.4 54.02 134.47 53.07 139.2 50.57 139.56 55.22 143.59 56.75 142.27 62.53 139.36 62.08 136.81 64.65 136.92 70.23 138.87 75 142.31 75.37 142.03 82.3 137.34 84.92 135.64 83.44 132.56 89.94 Z" id="_x5C6F__x660C__x53BF_" class="area" title="屯昌县"></path>
<path d="M 134.47 53.07 131.4 54.02 132.93 57.99 128.84 58.96 126.57 62.07 124.39 59.53 117.29 59.51 118.04 61.03 115.24 64.83 115.1 67.63 111.95 68.04 110.3 65.84 104.79 68.64 99.98 66.26 101.21 65.44 99.15 58.62 101.9 55.78 102.71 51.5 104.18 48.95 109.9 45.1 113.73 34.16 111.77 32.42 112.61 27.78 109 26.21 112.21 25.01 110.1 16.48 119.62 15.67 122.41 16.85 131.81 12.8 136.59 17.04 135.04 24.69 138.69 26.84 142.32 36.37 140.61 39.57 141.81 42.76 145.27 42.11 141.75 47.07 138.72 46.47 136.5 43.47 133.95 45.5 134.47 53.07 Z" id="_x6F84__x8FC8__x53BF_" class="area" title="澄迈县"></path>
<path d="M 110.1 16.48 112.21 25.01 109 26.21 112.61 27.78 111.77 32.42 113.73 34.16 109.9 45.1 104.18 48.95 102.71 51.5 97.52 51.58 93.22 48.69 93.63 47.08 86.61 46.4 84.41 41.23 88.04 38.36 85.43 32.56 85.03 27.64 79.34 26.05 81.76 19.99 86.82 16.13 97.78 13.61 102.05 16.73 106.59 15.72 110.1 16.48 Z" id="_x4E34__x9AD8__x53BF_" class="area" title="临高县"></path>
<path d="M 62.04 104.81 59.7 95.61 51.58 94.23 50.42 89.16 46.68 83.83 48.63 78.5 43.43 73.05 40.07 71.85 40.16 64.28 40.74 59.33 46.44 61.07 47.56 60.04 51.7 66.97 59.41 68.91 63.83 67.07 69.45 70.75 72.93 70.81 75.77 66.96 78.06 66.38 80 70.4 76.73 75.44 83.05 74.51 87 80.44 89.12 79.63 91.03 83.95 94.4 83.51 95.6 85.99 95.66 91.18 89.26 93.97 88.21 96.82 84.75 95.16 81.53 98.76 76.73 98.65 75.69 101.81 72.96 102.26 68.04 106.94 66.38 106.07 62.04 104.81 Z" id="_x767D__x6C99__x9ECE__x65CF__x81EA__x6CBB__x53BF_" class="area" title="白沙黎族自治县"></path>
<path d="M 40.16 64.28 40.07 71.85 43.43 73.05 48.63 78.5 46.68 83.83 50.42 89.16 51.58 94.23 59.7 95.61 62.04 104.81 59.22 109.56 54.14 110.52 48.54 109.68 47.11 111.93 44.05 109.22 46.11 104.03 44.83 98.99 37.05 97.12 38.28 92.19 35.6 90.18 32.4 82.54 29.06 82.57 21.9 79 17.63 80.31 10.76 78.76 5.64 71.29 9.9 68.02 14.52 67.63 19.58 62.53 26.54 59.16 30.14 56.18 31.08 58.51 34.81 60.24 36.07 64.19 40.16 64.28 Z" id="_x660C__x6C5F__x9ECE__x65CF__x81EA__x6CBB__x53BF_" class="area" title="昌江黎族自治县"></path>
<path d="M 71.27 133.94 65.03 138.08 63.34 143.09 57.58 139.51 53.87 139.97 52.27 143.98 53.14 147.23 42.56 148.72 37.61 151.27 30.46 158.81 26.05 151.79 17.02 149.6 11.26 149.42 6.8 147.81 5.65 145.74 5.32 138.96 7.31 129.63 6.93 125.88 15.71 124.56 20.02 125.6 22.87 122.94 30.13 119.54 35.18 119.86 37.61 117.93 42.43 118.05 44.49 113.78 47.11 111.93 48.54 109.68 54.14 110.52 59.22 109.56 62.04 104.81 66.38 106.07 64.47 107.79 65.91 112.04 68.63 114.04 66.8 117.59 67.08 126.41 70.66 129.82 71.52 133.57 71.27 133.94 Z" id="_x4E50__x4E1C__x9ECE__x65CF__x81EA__x6CBB__x53BF_" class="area" title="乐东黎族自治县"></path>
<path d="M 123.91 124.49 124.41 130.88 132.62 136.59 134.49 135.43 141.08 137.79 132.68 144.02 130.43 153.29 128.73 155.28 122.6 156.7 115.68 155.34 105.82 157.75 104.06 150.93 106.21 148.1 103.73 143.64 107.83 143.62 109.38 138.45 105.76 136.45 108.78 129.18 105.54 125.15 102.94 125.29 101.57 119.65 103.06 117.89 108 124.86 113.21 122.63 114.19 123.93 117.79 121.12 120.93 121.53 123.91 124.49 Z" id="_x9675__x6C34__x9ECE__x65CF__x81EA__x6CBB__x53BF_" class="area" title="陵水黎族自治县"></path>
<path d="M 98.05 115.79 103.06 117.89 101.57 119.65 102.94 125.29 105.54 125.15 108.78 129.18 105.76 136.45 109.38 138.45 107.83 143.62 103.73 143.64 98.9 145.19 97.66 150.94 93.78 153.96 82.9 153.51 80.8 150.72 82.65 145.4 82.5 141.88 79.99 140.17 72.84 138.15 71.27 133.94 71.52 133.57 74.99 131.18 78.47 131.94 82.9 130.83 82.36 127.82 86.08 126.05 89.8 129.21 91.7 125.34 96.98 125.45 95.13 119.9 95.79 116.11 98.05 115.79 Z" id="_x4FDD__x4EAD__x9ECE__x65CF__x82D7__x65CF__x81EA__x6CBB__x53BF_" class="area" title="保亭黎族苗族自治县"></path>
<path d="M 111.95 68.04 107.63 71.82 107.31 76.43 116.02 80.75 118.96 85.15 124.91 86.27 127.56 89.81 132.56 89.94 133.33 97.34 136.3 101.48 131.96 106.22 131.05 109.05 126.53 111.38 130.88 117.71 127.56 122.29 123.91 124.49 120.93 121.53 117.79 121.12 114.19 123.93 113.21 122.63 108 124.86 103.06 117.89 98.05 115.79 96.64 110.98 99.35 108.89 94.69 107.83 88.22 109.18 84.08 106.07 81.53 98.76 84.75 95.16 88.21 96.82 89.26 93.97 95.66 91.18 95.6 85.99 97.31 82.31 96.49 78.02 97.88 74.69 96.74 71.27 92.17 70.58 92.1 66.7 99.98 66.26 104.79 68.64 110.3 65.84 111.95 68.04 Z" id="_x743C__x4E2D__x9ECE__x65CF__x82D7__x65CF__x81EA__x6CBB__x53BF_" class="area active" title="琼中黎族苗族自治县"></path>

</svg>