<!--?xml version="1.0"?-->
<svg xmlns="http://www.w3.org/2000/svg" version="1.2" baseProfile="tiny" width="100%" height="100%" viewBox="0 0 800 1222" stroke-linecap="round" stroke-linejoin="round">

<path d="M 234 1005.97 242.17 811.28 193.6 749.97 179.3 734.32 129.07 679.48 87.76 594.79 45.78 508.74 43.9 494.92 28.25 470.68 15.09 453.05 1 394.61 3.19 368.24 12.28 345.02 23.86 329.67 12.9 322.73 62.39 255.33 71.41 220.52 85.26 167.15 83.67 139.01 82.44 117.52 74.15 109.9 66.44 84.13 56.45 54.02 77.44 40.28 83.02 40.87 86.03 39.93 93.11 39.07 113.5 39.06 144.6 46.01 147.77 46.14 149.45 45.42 151.76 42.73 153.81 43.75 156.5 38.81 157.16 38.56 161.61 31.89 162.23 30.2 172.7 8.98 183.57 1.78 192.96 2.14 196.23 3.41 213.83 3.79 220.5 6.32 221.47 5.2 228.47 4.37 233.18 5.69 238.22 5.73 243.32 4.4 247.27 2.13 256.8 1 255.39 16.51 256.03 18.11 257.66 19.22 270.13 12.74 385.78 55.66 389.09 57.23 457.72 96.99 477.79 162.65 480.35 225.03 551.84 356.44 604 452.36 677.06 586.72 777.21 860.09 799 919.46 796.83 925.04 727.65 1007.1 531.2 1181.5 517.16 1190.16 487.47 1199 314.63 1220.86 298.77 1220.84 240.01 1208.44 228.04 1147.92 234 1005.97 Z M 602.53 148.2 602.51 209.79 599.04 219.07 573.91 236.07 495.09 234.45 487.72 229.81 484.27 222.43 484.27 159.38 485.47 148.43 602.53 148.2 Z" id="_x6FB3__x95E8__x7279__x522B__x884C__x653F__x533A_" class="area active" title="澳门特别行政区"></path>

</svg>