<!--?xml version="1.0"?-->
<svg xmlns="http://www.w3.org/2000/svg" version="1.2" baseProfile="tiny" width="100%" height="100%" viewBox="0 0 800 659" stroke-linecap="round" stroke-linejoin="round">

<path d="M 48.69 338.66 48.62 338.08 48.22 337.73 47.23 337.61 46.55 336.98 50.33 335.29 50.92 333.27 48.53 332.32 46.78 332.55 44.64 334.11 44.29 335.28 43.24 334.15 41.05 333.96 41.1 332.02 42.8 329.44 46.07 329.04 48.16 330.62 50.64 328.96 52.71 329.83 54.37 328.63 56.77 328.94 58.32 328.51 58.84 325.19 61.57 324.67 60.44 322.92 57.33 323.1 54.48 320.55 54.74 318.35 53.15 317.22 54.71 316.26 55.12 314.3 58.87 314.38 61.29 315.85 62.36 315.62 63.35 317.72 67.93 316.9 71.57 317.4 71.1 316.03 73.4 316.3 72.58 315.6 73.37 313.78 71.42 314.02 69.6 312.93 69.47 310.99 70.71 308.79 69.59 307.47 70.1 306.34 72.55 307.3 74.43 306.93 73.38 304.08 75.79 303.59 76.83 302.39 76.12 300.76 79.07 297.66 77.49 296.3 79.18 293.13 81.14 293.29 83.2 290.79 82.69 289.36 84.3 289.25 87.22 287.69 89 289.07 89.95 291.22 91.44 291.98 90.3 293.84 91.46 295.02 94.07 292.76 95.93 292.38 95.18 293.55 96.56 295.96 98.05 294.99 96.38 293.87 101.06 292.75 101.17 294.27 100.04 294.44 100.44 296.01 102.97 294.44 104.35 296.17 106.63 296.96 106.85 298.3 111.62 297.22 112.92 298.1 115.15 298.8 116.81 297.55 118.7 298.29 121.48 297.98 121.94 300 126.38 303.22 127.96 303.35 128.4 304.5 129.35 302.84 130.85 302.58 131.25 304.06 130.81 306.28 132.39 306.22 133.7 308.3 135.12 307.23 136.43 307.82 136.34 308.94 137.88 309.75 138.3 308.65 136.74 307.14 136.62 306.02 138.02 306.2 138.75 307.5 140.74 308.51 141.89 307.83 143.94 309.38 145.68 313.52 145.46 317.05 144.18 318.08 145.43 318.4 145.77 320.96 149.14 321.68 147.75 323.8 149.26 324.17 149.69 325.38 151 325.8 154.2 324.27 155.52 326.28 154.28 328.56 155.52 328.69 155.76 329.92 157.05 327.97 156.43 326.87 157.8 326.56 159.44 327.35 160.63 325.65 159.03 324.06 161.93 325.01 161.72 327 162.67 325.98 164.68 325.47 164.03 323.02 166.16 322.12 165.31 320.04 166.81 320.24 168.26 321.57 170.91 322.01 171.2 320.14 172.37 320.25 173.24 318.95 174.91 319.6 177.01 318.47 179.89 319.2 178.73 317.41 181.05 318.23 181.69 319.37 183.23 319.25 184.2 317.62 186 317.56 186.25 316.36 185.07 316.15 182.77 313.93 184.44 313.5 187.12 313.78 186.13 311.42 187.28 310.83 188.28 311.76 188.75 310.75 187.4 309.47 188.15 308.59 189.85 308.72 189.32 310.11 191.06 309.68 193.2 310.04 193.85 308.91 194.78 310.31 197.41 310.69 197.71 311.85 199.26 311.78 201.2 310 205.02 310.57 205.38 308.36 207.53 307.58 209.37 309.03 211.77 309.56 212.44 310.98 215.88 311.28 217.73 313.04 218.47 315.59 219.65 315.62 220.92 318.2 219.35 318.75 217.51 320.37 215.58 320.56 215.85 321.74 217.1 321.48 219.31 323.67 217.96 324.46 218.37 326.66 219.45 326.35 219.16 328.49 221.62 328.01 220.37 329.53 222.04 330.05 222.76 331.22 224.1 331.15 224.68 332.97 226.6 333.23 226.18 334.89 226 338.96 228.43 338.65 228.56 339.66 230.76 339.61 230.03 342.77 230.05 346.37 234.44 349.54 234.48 353.23 235.51 354.45 237.09 354.6 239.9 355.74 240.68 354.81 241.39 356.01 244.15 356.01 246.13 355.05 246.49 353.85 248.53 354.1 251.4 353.29 252.51 350.73 253.33 350.83 256.49 354.23 260.21 353.22 264.96 354.66 265.17 353.29 269.56 351.87 270.65 352.29 271.98 348.96 271.67 348.07 273.56 345.83 276.62 345.15 278.73 349.15 279.87 350.28 281.34 350.42 282.36 352.83 285.95 353.12 285.16 351.13 285.91 349.86 287.23 350.13 287.75 351.7 287.82 352.18 288.01 352.22 288.5 351.81 291.25 350.5 292.75 348.43 291.02 345.65 292.04 343.5 294.25 343.31 295.76 344.16 297.06 341.87 296.33 340.31 300.35 339.06 301.19 336.96 306.39 332.75 309.46 329.35 314.94 324.07 316.12 322.43 317.93 320.19 320.62 315.93 322.06 311.71 324.12 308.22 325.95 303.94 328.46 301.17 330.83 299.6 334.12 295.89 334.74 293.52 334.5 291.82 335.18 289.65 337.53 284.64 340.98 279.92 342.22 279.02 344.82 274.92 345.45 274.03 347.27 274.86 349.53 273.71 351 271.8 348.51 269.8 353.82 265.94 354.99 263.51 357.9 261.55 359.27 258.19 362.79 254.45 363.02 253.5 360.15 251.5 356.62 250.75 355.36 248.67 353.22 247.84 353.93 247.06 353.56 244.25 350.05 241.61 348.2 237.42 350.37 237.37 351.35 236.49 350.46 235.31 351.64 233.63 351.44 232.32 352.78 233.37 354.82 232.99 353.84 231.34 355.97 231.08 356.67 228.8 359.27 228.17 358.69 227.02 360.12 227.02 358.66 225.34 359 223.38 357.51 222.54 362.69 219.84 364.07 220.93 364.61 222.36 366.05 221.02 369.47 221.24 370.14 220.66 372.9 220.94 373.95 222.19 376.26 221.5 378.92 222.41 379.16 224.12 382.03 225.88 384.26 224.99 387.99 220.32 391.49 216.62 393.47 217.03 395.37 214.49 398.93 214.95 400.85 216.83 400.93 218.24 402.61 218.65 401.38 220.52 402.14 222.23 401.79 223.97 403.17 225.99 405.05 226.36 406.41 225.63 408.92 226.34 411.94 229.09 414.16 229.03 417.16 229.97 421.43 226.61 424.74 223.09 430.1 219.12 434.12 217 434.41 215.28 439.44 212.2 440.7 211.11 438.71 210.36 436.94 210.6 434.63 209.29 433.15 209.42 431.6 206.01 431.21 203.94 431.39 201.35 432.39 197.98 436.94 199.12 438.82 198.82 440.89 195.56 442.18 192.13 443.36 192.41 447.02 190.39 448.6 190.5 450.22 189.64 451.29 187.61 449.73 186.51 446.27 186.22 445.58 181.75 443.82 180.21 443.07 178.58 443.96 177.52 445.75 177.35 447.3 175.3 447.46 173.51 448.98 172.54 450.77 172.58 450.54 170.79 452.85 168.72 452.99 167.36 455.49 165.68 456.18 163.44 454.69 160.67 453.12 160.77 453.96 158.57 448.08 160.72 446.1 160.17 446.7 157.76 445.04 156.31 448.21 155.03 451.31 154.81 452.36 153.71 454.66 153.76 456.58 153.06 456.92 151.55 459.75 149.67 465.38 147.04 467.8 145.26 468.03 144.29 470.9 143.3 471.72 141.31 470.92 139.49 469.39 138.23 467.39 137.69 466.62 135.99 467.22 135.03 470.05 134.06 471.29 132.37 474.62 131.99 476.72 129.42 476.76 126.84 475.79 125.42 478.23 122.62 477.83 120.64 475.83 120.2 475.18 120.79 472.99 120.15 472.53 116.36 477.07 115.6 478.42 114.03 480.04 113.95 482.98 115.17 483.76 114.58 486.59 114.79 487.36 113.8 489.68 114.41 492.18 113.89 494.12 114.59 497.7 112.55 497.9 110.89 496.68 108.82 498.07 107.64 503.52 108.06 504.74 107.44 505.25 105.15 503 103.54 505.55 102.57 504.69 100.85 507.01 98.1 509.5 97.09 510.33 95.27 513.52 93.25 515.76 94.03 517.19 95.74 517.77 92.85 520.59 92.24 521.96 90.67 523.93 89.41 525 89.59 525.94 88.04 528.17 87.49 530.39 87.88 529.8 86.76 528.08 86.18 525.24 83.43 526.86 82.51 525.88 78.21 523.83 76.81 528.57 73.09 525.4 72.54 521.09 70.32 520.98 69.42 519.3 69.8 515.74 68.82 515.43 67.67 517 65.62 516.74 64.13 515.55 63.95 513.32 64.98 505.73 61.9 504.01 58.31 504.34 57.45 501.83 57.64 499.06 57.05 496.99 55.89 496.06 53.79 494.59 52.95 491.7 48.99 490.24 48.13 488.62 48.18 487.52 47.08 488.06 43.64 486.4 40.59 483.72 39.09 484.99 38.08 484.78 36.35 487.43 37.08 487.71 35.97 489.87 35.57 491.48 34.15 494.54 36.15 496.42 36.68 498.54 38.26 501.24 36.22 501.63 35.35 500.31 34.02 496.58 32.16 495.07 30.57 496.85 29.95 500.55 27.72 500.78 26.02 500.05 24.97 497.61 23.87 497.58 22.61 500.54 22.32 502.32 21.16 505.8 22.92 508.65 22.31 511.46 23.73 514.62 21.84 515.05 18.91 512.97 18.31 511.72 17.17 510.4 14.63 509 13.16 507.66 10.73 505.1 9.11 504.67 8.1 501.61 5.53 503.2 4.85 506.45 2.16 507.62 1.81 510.69 3.24 512.11 2.48 515.9 4.2 519.48 4.11 521.69 2.02 524.42 1 531.14 5.08 536.49 5.71 537.82 7.66 540.07 8.48 546.73 12.79 547.88 14.62 549.97 15.51 551.24 16.9 557.76 16.84 559.65 16.34 563.11 17.48 563.89 19.47 563.76 21.65 566.4 23.05 567.75 24.75 569.77 25.85 573.33 26.04 577.76 27.4 583.56 33.67 588.25 36.16 590.84 35.61 593.9 35.5 596.43 37.01 598.96 36.54 600.58 37.26 602.24 37.05 607.51 39.68 609.83 40.52 610.51 40.09 613.84 43.24 615.49 43.63 622.68 49.06 624.37 51.24 625.56 51.37 631.27 53.97 635.15 57.16 636.56 59.31 635.3 61.67 636.01 63.36 638.84 63.37 641.89 64.68 643.11 64.38 645.62 65.72 648.79 66.14 648.78 67.67 649.84 69.8 646.98 70.52 645.51 71.59 645.76 72.94 648.22 73.27 648.13 74.46 650.13 76.03 649.55 78.65 649.89 79.73 653.21 80.74 656.65 81.03 662.84 81.07 667.43 81.64 671.03 81.13 672.43 79.11 673.34 79.42 676.65 78.75 678.33 78.89 678.84 80 680.96 80.09 681.68 79.18 683.94 79.06 685.57 79.68 693.48 77.59 697.11 78.19 698.46 77.81 702.65 80.08 704.42 80.59 708.95 79.08 711.24 79.71 715.14 79.26 716.83 79.78 717.26 81.32 719.45 82.29 722.96 82.4 722.47 84.29 723.09 86.84 724.51 88.38 724.48 93.01 723.99 94.06 728.35 98.24 725.27 99.31 725.45 102.3 722.38 103.48 720.98 105.72 723.65 107.49 727.69 107.31 728.55 106.91 732.31 106.78 734.32 108.24 737.75 106.24 740.33 106 743.94 107.9 745.41 110.08 746.87 110.29 749.54 111.87 754.29 111.49 756.09 112.1 757.77 113.89 761.08 113.7 763.79 112.95 760.38 115.1 759.72 116.48 757.27 117.71 757.39 118.99 759.32 120.12 761.45 119.16 764.69 119.1 766.08 119.96 767.26 122.52 770.03 124.4 772.12 124.79 772.28 126.23 774.7 128.19 775.45 129.46 781.26 129.83 782.94 129.41 784.36 129.89 785.39 129.24 786 131.13 787.38 132.31 789.43 132.79 790.29 134.27 789.44 136.39 790.97 138.67 790.62 139.72 792.35 142.05 791.34 144.59 792.62 145 793.33 146.97 792.06 151.18 793.08 155.31 794.54 155.53 795.1 156.68 794.24 159.21 795.61 162.96 795.37 164.06 795.97 167.07 796.97 168.69 798.68 169.67 799 170.81 797.05 172.63 797.46 175.21 795.97 176.48 792.89 177.38 790.56 177.25 790.38 178.68 788.69 178.99 787.59 180.79 786.2 181.82 786.52 184.41 788.3 186.54 787.26 187.37 786.32 191.06 789.45 191.28 789.59 195.44 788.79 198.41 793.26 197.62 794.66 198.44 794.83 199.53 792.95 201.41 793.29 202.54 791.69 203.76 790.34 208.91 791.35 210.51 790.13 212.96 786.84 217.69 785.42 221.37 782.25 223.91 782.25 225.26 781.22 226.16 780.05 228.84 775.29 228.84 773.58 227.69 773.04 225.43 771.87 225.44 769.86 223.96 769.59 219.78 767.49 217.33 768.01 215.18 765.87 214.49 762.76 214.35 759.91 216.18 757.52 215.93 757.06 214.19 755.67 214.52 751.33 212.55 749.53 212.55 746.88 214.28 743.28 215.72 737.32 218.98 733.77 219.73 731.04 220.87 727.51 223.44 722.72 226.27 720.6 228.5 720.85 232.24 718.34 233.6 718.25 231.43 716.63 232.2 715.53 233.86 711.27 234.95 710.87 235.2 711.53 238.97 709.62 241.95 705.78 244.59 702.01 245.21 700.13 246.1 698.66 249.76 699.7 250.76 697.93 252.29 697.44 253.66 695.61 253.68 691.69 255.03 690.87 254.52 692.13 252.88 691.56 250.88 690.07 250.89 687.78 252.27 684.31 255.24 682.6 257.51 679.85 258.11 678.33 259.04 677.16 260.67 675.29 261.6 673.7 265.16 672.08 267.78 668.13 272.47 666.03 274.56 664.05 277.49 661.35 279.62 659.85 278.39 659.64 275.47 658.92 274.15 659.75 272.73 662.81 269.25 662.82 268.64 660.08 265 655.24 261.31 656.67 260.61 657.46 258.66 655.09 259.63 652.81 256.31 649.44 259.63 644.95 262.43 641.11 263.61 641.15 264.39 644.39 264.01 640.33 266.22 635.46 270.01 631.97 269.89 630.91 271.33 628.6 273.08 627.07 273.46 626.79 271.92 624.34 272.38 624.41 271.21 622.57 269.63 620.97 266.84 621.37 266.03 620.55 264.61 620.81 264.51 621.27 263.61 621.34 259.53 622.41 259.21 623.91 256.61 623.78 255.47 622.31 253.79 619.83 254.98 618.43 253.7 615.53 254.73 612.11 253.88 611.55 252.63 607.66 254.39 605.7 256.85 603.99 256.07 602.08 257.49 600.54 256.43 598.84 257.25 594.99 260.98 591.03 263.01 589.41 264.32 586.99 266.64 586.74 268.14 583.26 272.21 580.45 273.97 580.22 275.1 577.95 277.02 572.74 278.93 571.48 276.57 569.74 275.43 567.2 276.97 565.35 276.67 562.53 278.38 559.25 276.31 559.61 275.01 557.28 273.76 557.92 272.6 557.24 271.38 555.26 270.32 555.35 267.49 553.8 263.44 549.86 263.13 547.95 263.72 545.58 265.38 546.16 267.45 547.18 268.72 547.11 271.39 543.75 273.44 542.37 273.82 542.63 275.02 539.84 275.78 540.94 277.18 538.86 278.53 537.57 278.39 537.67 279.52 536.12 279.83 534.21 282.34 533.39 282.65 532.12 279.81 529.82 278.84 527.44 279.57 524.97 277.31 521.5 277.29 519.45 279.33 515.54 279.27 515.15 278.19 513.25 279 510.49 279.33 508.91 281.47 510.03 283.33 510.13 285.85 508.5 287.79 510.03 289 511.54 291.25 510.11 292.08 510.7 293.95 509.98 294.75 506.5 295.51 507.12 297.9 510.15 299.24 511.9 301.25 514.88 301.01 516.32 300.33 517.81 302.92 520.03 304.19 522.58 307.39 525.28 307.58 527.13 309.19 526.88 310.9 528.25 311.33 529 313.53 530.34 313.9 530.19 314.93 532.92 316.08 533.78 317.38 536.12 317.22 534.79 320.26 533.8 320.72 534.04 322.14 531.59 330.44 531.33 332.26 533.81 333.5 532.84 335.38 530.33 341.85 528.24 345.13 528.09 346.83 526.94 346.81 525.48 348.37 525.51 350.2 526.78 349.28 528.01 349.86 527.1 350.76 527.83 351.81 527.54 357.93 529.77 359.24 528.41 363.39 526 368 525.42 370.13 526.75 373.17 526.78 375.59 525.47 377.4 525.61 380.68 524.31 378.54 522.14 378.82 521.08 380.36 517.65 380.89 515.91 380.69 515.22 379.67 512.07 378.31 507.04 382.24 505.41 381 504.46 381.57 505.22 382.67 501.95 384.56 502.17 385.78 501.41 388.25 505.64 388.65 505.47 385.5 507.33 385.72 508.03 387.97 510.57 388.84 510.73 390.64 509.35 393.38 510.05 395.53 513.77 395.08 513.97 397.12 512.86 398.45 512.62 400.95 516.42 400.93 517.58 402.75 521.13 403.81 523.89 406.25 525.32 404.55 523.52 402.8 525.55 401.78 526.13 402.65 530.48 400.66 530.73 399.53 529.36 398.35 526.5 397.22 528.44 393.36 532.18 388.23 533.54 387.93 535.83 386.25 535.41 384.06 537.17 383.51 537.14 382.57 539.32 380.66 540.47 381.09 542.82 380.38 544.41 380.78 544.5 382.24 549.25 382.78 548.48 383.51 549.84 384.38 550.53 388.22 548.35 388.61 550.63 389.4 552.21 391.3 551.85 394.92 552.39 396.13 551.66 397.59 551.7 399.69 553.18 401.07 552.27 404.1 554.23 406.85 552.88 408.63 553.91 409.26 557.04 407.71 558.31 408.89 557.12 410.97 560.81 412.21 561.95 413.15 562.34 414.74 563.91 415.87 565.59 415.16 566.06 413.91 567.47 415.42 568.89 415.09 567.22 413.83 567.7 411.58 565.94 410.46 564.8 411.04 563.9 409.31 565.21 408.63 569.38 408.96 569.11 411.29 570.65 412.26 571.2 414.07 570.35 416.14 568.37 416.44 569.27 418.33 572.32 417.24 573.82 418.71 574.83 418.56 574.28 416.68 576.17 412.25 577.36 412.71 576.05 415 576.97 415.5 578.84 414.35 580.67 417.92 582.94 416.85 584.55 417.46 585.9 419.19 585.56 420.4 582.71 424.16 585.57 425.71 587.47 424.4 588.07 423.06 589.35 424.93 587.86 426.3 589.98 427.99 588.2 429.85 585.74 431.46 584.36 433.69 585.75 435.12 586.02 438.95 585.58 440.41 582.96 442.38 582.43 444.8 583.59 446.15 583.63 448.32 585.67 449.75 587.55 449.53 589.42 450.36 591.32 450.35 593.06 451.2 594.96 454.6 593.41 456.43 592.91 461.28 590.56 466.97 591.07 468.33 596.98 467.57 599.63 467.85 601.87 466.63 601.69 464.4 603.27 463.65 604.02 462.21 605.71 462.81 609.76 462.81 609.55 459.88 610.61 458 612.76 455.9 614.55 456.06 617.25 457.86 618.81 459.81 620.65 460.65 622.41 462.69 622 465.66 622.74 467.27 621.79 469.46 622.63 470.29 621.13 473.71 621.42 474.46 625.25 475.45 627.19 477.4 623.39 483.59 622.06 486.4 624.11 488.98 624.11 490.28 626.68 493.81 629.23 493.35 630.54 492 633.39 493.42 637.13 496.69 639.15 497.75 641.27 500.24 641.92 501.85 640.84 502.92 642.69 507.27 646.02 507.27 647.39 508.44 650.91 509.83 653.07 509.88 654.87 510.58 656.07 514.45 653.67 517.99 652.15 518.7 651.64 520.6 651.66 523.38 650.31 525.87 648.39 526.09 646.55 529.41 645.64 533.37 645.87 536.37 643.12 538.92 642.4 540.81 642.16 543.5 643.56 545.58 643.08 549.46 644.08 551.77 644.17 553.61 643.44 554.81 643.34 557.7 646.6 557.95 645.76 559.47 648.5 560.23 649.38 561.76 652.5 562.31 652.99 563.69 650.97 565.69 652.02 567.03 650.44 567.88 648.25 570.31 647.2 570.22 645.23 571.51 647.39 573.35 648.15 574.72 645.04 576.5 640.05 578.4 637.1 580.22 635.51 580.5 633.6 582.86 634.41 584.66 636.87 586.64 642.5 583.23 644.66 584.98 646.2 585.48 649.38 584.37 650.77 582.03 652.91 582.09 653.96 583.03 654.4 586.58 656.22 589.67 653.65 589.8 652.04 591.87 651.08 595.12 648.75 596.27 648.77 598.61 649.69 599.33 648.33 600.37 648.71 603.51 641.44 606.72 639.15 605.55 635.29 607.38 635.39 608.43 632.82 611.4 633.49 612.49 632.85 613.78 631.49 613.69 630.93 616.46 629.2 616.04 629.66 618.35 629.09 619.34 629.01 621.98 627.65 624.78 626.64 625.62 628.77 626.94 628.63 627.89 626.51 629.59 627.07 631.81 624.74 635.66 623 637.01 623.23 638.63 619.72 641.37 618.42 641.43 617.37 643.52 617.99 646.08 619.74 647.99 620.6 651.18 618.66 652.02 618.16 653.9 615.5 652.8 614.1 651.39 610.88 650.54 610.33 648.58 608.37 648.14 606.36 651.48 606.5 654.79 605.71 656.63 604.37 657.69 601.8 657.7 600.79 656.08 597.06 654.29 592.64 652.95 592.39 651.37 593.26 650.13 591.03 648.52 589.86 648.88 587.41 648.24 582.08 650.41 580.57 651.43 577.49 650.21 575.92 647.26 575.15 644.08 572.81 644.45 571.06 647.55 567.27 649.22 565.97 652.69 564.87 652.05 564.89 648.12 563.4 646.93 561.8 647.14 561.46 643.05 559.84 641.69 559.54 638.36 562.02 635.98 565.71 634.24 566.74 632.72 565.34 631.16 568.02 627.48 567.99 624.19 568.86 622.09 565.56 621.21 565.64 619.13 568.24 614.44 567.3 612.67 562.95 610.73 563.33 608.98 560.13 607.37 559.15 603.95 556.93 602.47 555.58 605.5 553.5 605.5 550.66 606.66 548.63 606.22 546.45 607.75 545.84 609.85 549.48 611.7 550.45 613.78 553.45 615.27 553.87 617.18 554.83 618.15 554.3 619.69 549.61 621.69 548.37 625.04 548.7 626.98 550.49 626.31 551.68 627.71 550.04 629.56 546.81 630.1 545.57 629.76 544.1 630.6 540.98 631.16 540.15 629.21 538.77 628.32 535.86 628.12 535.25 624.7 535.45 620.5 537.05 618.09 540.53 617.71 540.71 613.1 539.56 612.59 538.65 609.66 536.95 608.65 537.34 606.9 535.02 603.02 535.52 601.18 534.74 598.07 535.33 597.15 537.36 596.37 540.87 596.24 539.82 588.09 542.17 585.33 544.95 582.85 544.35 580.06 542.88 579.66 540.56 580.92 538.47 579.83 536.71 579.94 536.9 578.74 535 576.58 533.38 576.45 532.78 578.4 530.76 578.62 529.1 577.82 526.84 578.73 525.76 579.89 523.28 580.28 523 582.06 521.42 581.42 518.15 581.87 516.56 580.84 512.93 580.86 510.11 579.34 505.11 577.98 498.81 574.02 497.48 574.45 495.62 573.45 496.87 571.81 498.11 568.47 498.01 564.23 502.11 560.35 502.53 559.23 504.19 558.4 504.8 556.18 504.39 553.61 503.73 552.94 499.14 551.56 499.3 548.74 497.88 544.72 499.32 542.37 499.66 538.7 498.51 536.47 498.55 532.7 497.96 530.88 496.82 529.84 494.06 528.85 492.3 521.77 491.75 520.82 491.92 518.37 489.98 513.7 491.5 508.77 490.64 507.87 488.15 506.87 485.55 506.59 485.23 508.72 483.86 511.01 483.33 514.54 480.95 516.76 478.08 516.24 479.01 513.73 476.52 512.24 474.84 512.14 473.71 509.88 469.43 510.74 465.96 512.7 463.13 512.58 462.8 511.07 459.42 509 453.02 507.32 447.41 512.58 447.18 513.77 445.51 515.08 440.57 515.87 433.32 515.89 430.37 515.64 426.73 520.17 422.9 520 423.29 521.35 422.55 523.56 420.76 524.12 420.03 527.79 415.88 527.11 413.62 525.25 410.75 523.92 412.5 520.43 412.88 515.81 406.65 513.69 407.4 507.98 409.05 504.11 410.78 498.88 410.44 498.15 408.27 497.56 406.11 495.04 405.02 494.9 403.84 492.9 402.59 492.48 402.69 490.64 401.19 488.92 399.2 490.64 396.82 491.75 397.22 492.81 395.81 495.98 394.03 496.31 392.57 498.41 386.88 497.39 386.2 494.89 383.3 495.21 381.41 494.45 379.29 494.87 377.63 494.47 376.64 495.53 376.71 497.34 374.79 496.98 374.11 495.63 374.94 494.5 373.85 494.01 373.31 491.52 372.52 490.64 372.5 487.58 370.97 485.45 368.96 485.82 368.34 487.22 365.52 489.59 362.71 489.8 358.12 493.04 355.91 493.58 354.17 492.62 354.43 489.6 350.77 488.21 348.66 490.3 344.91 490.71 344.28 491.35 344.28 492.77 346.03 495.14 345.35 496.94 345.4 498.88 347.52 499.29 348.51 500.67 346.14 505.81 342.78 506.53 339.87 505.51 339.11 506.48 340.76 512.03 342.52 511.77 343.25 514.92 340.95 516.5 340.54 517.81 338.27 519.65 339.22 522.36 343.53 522.45 344.75 524.31 344.93 525.88 346.14 527.85 347.53 528.76 350.33 528.64 350.7 530.51 349.49 532.14 347.75 533.03 346.38 535.47 346.57 539.28 345.03 539 342.72 542.74 343.28 543.98 341.34 545.99 338.7 546.57 337.51 545.75 332.97 547.19 335.11 549.07 331.9 552.32 328.53 552.78 324.06 554.01 321.5 555.06 320.04 557.04 320.23 559.27 319.1 560.08 314.64 558.32 314.57 555.71 313.7 554.69 313.24 551.47 314.18 549.3 315.81 547.9 310.73 547.69 311.02 546.17 312.58 542.82 310.55 541.43 311.26 541.13 310.47 539.45 308.93 540.89 308.05 540.33 306.08 540.77 304.34 540.39 302.88 541.49 302.08 539.62 294.73 539.24 293.16 542.13 290.82 543.05 288.73 542.75 289.31 541.35 290.77 540.99 289.83 538.38 288.35 538.47 287.55 539.07 286.42 541.7 288.55 542.67 285.61 543.5 284.96 540.69 281.63 540.47 282.11 544.02 279.85 544.26 278.66 545.18 276.3 545.56 277.26 549.07 275.89 551.77 275.98 553.17 277.17 555.45 277.04 558 273.77 558.09 271.16 559.25 270.92 557.52 269.62 556.78 268.99 555.12 266.5 552.25 263.62 554.51 262.41 553.69 260.54 554.74 258.56 557.18 257 558.03 256.63 557.04 253.88 556.96 252.75 559.41 251.92 558.96 250.4 561.01 251.11 564.01 255.1 566.16 256.66 568.91 255.26 569.11 255.39 570.61 256.6 571.6 260.02 571.36 258.12 576.83 257.28 582.41 255.62 582.73 251.26 582.69 251.9 584.24 250.9 586.62 247.75 588.11 246.58 586.04 245.43 585.34 245.29 583.75 243.3 582.33 242.25 584.45 239.84 584.59 239.76 588.32 241.07 589.61 243.4 590.48 243.23 592.28 240.83 593.19 239.08 593.17 236.31 593.98 234.82 595.82 234.14 597.79 234.47 599.63 237.53 604.29 237.82 608.07 235.59 608.57 234.34 610.05 232.88 609.74 231.63 610.69 229.15 609.71 229.71 606.16 228.33 605.14 226.72 605.68 223.91 603.97 222.08 605.97 219.04 604.23 219.31 602.07 215.64 602.98 212.91 600.99 211.54 601.53 212.6 602.8 212.23 604.53 208.79 605.24 207.94 603.07 208.77 601.79 207.53 600.47 208.89 598.8 211.48 598.86 214.09 595.92 216.47 594.57 216.72 592.44 215.13 587.32 216.37 584.86 218.8 585.62 219.91 584.24 219.97 582.61 218.64 580.79 217.06 580.33 217.27 578.96 220.68 579.21 222.34 578.36 221.09 575.93 219.71 576.89 218.36 576.76 216.86 575.45 216.31 573.34 217.1 571.89 214.97 572.57 213.67 571.45 211.92 571.51 211.12 569.77 210.22 569.75 207.53 566.77 207.36 565.01 208.12 562.63 207.78 561.02 205.53 558.78 203.26 558.61 203.22 557.34 201.48 556.95 201.16 554.81 199.15 554.55 196.2 552.82 193.86 549.53 193.58 548.51 191.53 548.84 192.6 549.58 190.17 551.12 189.83 552.56 191.28 553.07 191.68 554.33 189.87 555.05 190.29 557.77 191.56 560.18 196.73 563.72 197.62 567.31 199.41 567.67 200.29 572.05 202.56 574.5 201 576.3 198.18 576.42 198.81 580.64 197.95 581.72 197.91 583.48 196.91 583.93 196.83 586.39 199.9 590.12 201.75 589.99 199.16 592.1 197.53 588.69 193.48 586.56 192.36 588.6 194.3 590.46 195.92 593.3 198.5 595.38 197.92 597.03 196.65 596.42 195.11 597.67 193.12 597.35 192.35 595.84 190.1 595.38 190.26 594.55 187.89 592.99 187.01 593.43 185.25 592.46 183.58 592.38 181.33 591.08 179.15 592.76 179.82 593.99 177.18 596.52 177.98 597.15 177.3 598.48 175.61 598.27 173.32 596.12 172.09 597.35 171.46 595.03 170.43 593.99 172.5 592.56 171.61 591.86 172.57 590.78 172.8 589.03 171.75 586.57 170.45 585.84 169.21 583.67 170.06 580.86 166.97 579.89 165.88 578.28 167.03 576.63 168.65 575.75 166.22 574.07 166.39 572.1 165.79 568.65 163.22 564.87 160.87 563.67 159.96 557.24 157.48 556.18 156.18 551.5 157.8 550.76 156.55 549.58 158.75 548.41 159.54 546.29 158 544.55 157.62 543.19 155.82 542.79 153.53 540.59 153.12 539.16 151.46 538.97 150.09 536.89 147.6 536.22 144.69 534.24 142.87 536.18 140.7 537.31 138.29 536.8 132.91 537.79 130.71 536.94 130.38 535.95 127.92 534.41 126.66 534.66 124.89 536.51 123.37 535.9 122.87 534.59 123.34 532.82 122.96 531.05 124.15 530.54 123.57 528.82 122.32 528.56 120.38 529.54 119.29 529.02 116.7 525.66 113.87 524.78 112.33 525.66 114.17 526.22 114.57 527.19 112.57 528.01 111.88 526.9 110.21 527.85 109.64 529.09 105.81 532.12 103.5 532.64 101.78 534.3 102.73 536.41 101.75 537.59 98.46 536.08 98.26 533.26 96.14 532.1 92.51 533.17 91.14 532.6 88.9 530.43 85.66 530.98 83.55 531.78 82.76 530.56 83.35 529.56 84.57 529.89 85.38 528.43 84.16 528.17 82.12 525.01 80.55 524.63 77.74 522.51 78.45 519.2 76.47 517.45 75.43 515.21 74.48 514.95 77.08 510.15 75.01 509.1 74.33 506.96 72.55 505.31 72.44 503.85 73.41 501.47 76.16 500.27 74.66 499.01 73.08 500.07 72.37 499.52 72.48 496.57 70.87 493.38 68.63 492.96 68.42 488.47 69.63 485.78 68.64 485 69.13 482.68 66.71 477.87 66.9 474.66 70.27 474.09 68.51 472.73 66.03 473.91 64.12 476.91 62.02 476.41 61.95 477.63 63.07 478.96 62.24 480.25 59.17 480.2 57.85 478.85 58.6 477.32 56.6 475.79 54.65 477.2 53.74 479.37 52.73 479.79 52.98 477.03 50.78 476.75 48.71 477.42 44.65 476.1 44.25 476.9 41.33 477.01 38.17 478.38 36.7 476.72 36.66 474.97 33.37 476.15 28.56 474.21 29.55 473.84 29.72 471.69 31 470.98 29.66 470.42 29.73 469.09 27.81 467.88 26.93 469.76 24.87 469.43 22.18 469.84 22.65 468.29 21.94 464.1 24.58 462.34 25.19 461.09 24.15 459.65 26.02 458.56 25.93 456.49 24.04 455.02 23.36 453.28 21.69 452.55 21.12 453.33 18.32 452.63 14.58 452.97 14.33 452.47 17.1 451.16 16.88 450.11 18.79 450.01 17.22 447.76 14.66 446.87 12.75 447.46 12.49 449.16 10.08 448.46 8.22 449.61 6.67 448.22 8.53 447.32 8.85 446.29 7.75 444.68 6.12 443.99 6.44 440.88 5.73 438.07 3.43 435.01 1.74 434.57 1 431.54 2.44 428.3 5.53 427.39 4.5 424.91 6.02 423.55 6.08 422.26 7.51 423.12 6.83 424.5 8.44 424.62 9.43 423.36 10.27 420.55 11.5 419.49 13.39 419.36 13.99 420.41 15.8 419.24 15.27 416.8 17.81 415.59 16.3 412.49 17.24 411.4 19.01 412.2 22.27 409.48 24.83 411.32 31.22 411.69 32.38 410.97 32.14 408.76 30.99 408.05 30.86 406.36 32.28 404.64 33.6 404.28 35.02 406.03 38.44 407 39.72 408.81 41.49 408.41 39.99 406.34 43.36 404 42.14 403.27 43.18 401.47 44.6 403.25 45.86 403.68 45.63 401.43 47.36 400.35 47.57 398.25 46.93 396.41 49.4 393.78 48.23 392.83 49.55 387.56 52.1 388.59 52.39 386.79 54.3 383.89 58.17 385.34 60.57 384.11 61.48 384.69 64.07 382.5 66.13 382.82 66.94 384.25 69.14 384.73 71.04 383.25 70.84 382.13 73.07 381.46 73.42 379.63 73.22 376.11 70.52 376.11 69.58 375.15 70.13 373.25 68.09 371.18 70.12 370.07 71.12 366.85 72.73 365.86 71.48 362.71 72.97 359.01 75.61 357.86 76.41 355.79 74.73 354.41 74.52 353.35 72.24 354.39 71.15 351.98 68.56 353 67.59 351.8 65.57 352.48 65 350.22 63.9 349.7 63.56 347.23 61.26 348.04 59.43 346.69 57.81 346.39 57.53 343.58 58.07 342.34 54.64 341.89 52.53 340.98 51.12 341.06 48.69 338.66 Z M 620.55 264.61 620.15 264.68 619.21 264.74 617.7 261.56 619.26 259.82 621.34 259.53 621.27 263.61 620.81 264.51 620.55 264.61 Z M 48.69 338.66 47.23 337.61 48.22 337.73 48.62 338.08 48.69 338.66 Z M 620.15 264.68 621.37 266.03 620.97 266.84 619.21 264.74 620.15 264.68 Z M 288.5 351.81 288.01 352.22 287.82 352.18 287.75 351.7 288.5 351.81 Z" id="_x91CD__x5E86__x5E02_" class="area active" title="重庆市"></path>

</svg>