<!--?xml version="1.0"?-->
<svg xmlns="http://www.w3.org/2000/svg" version="1.2" baseProfile="tiny" width="100%" height="100%" viewBox="0 0 800 538" stroke-linecap="round" stroke-linejoin="round">

<path d="M 328.83 55.02 330.03 53.11 330.08 51.06 328.81 49.57 327.23 48.51 324.31 47.27 322.13 45.72 321.07 44.33 321.18 43.3 321.78 42.44 323.96 41.3 327.34 40.92 330.1 40.12 331.27 39.13 333.44 35.88 335.03 34.53 337.34 33.6 339.16 33.43 340.68 34.21 342.97 36.34 344.47 37.33 345.33 37.59 347.92 37.47 353.16 36.17 355.36 36.25 357.12 36.96 358.81 37.01 359.92 35.85 360.33 34.52 360.86 34.17 361.99 34.64 362.27 35.54 361.94 41.05 362.52 42.22 363.31 42.74 365.47 43.24 367.4 42.53 369.34 41.54 369.96 41.01 370.64 39.64 371.02 37.82 371.77 37.26 375.7 36.32 378.98 32.17 380.52 31.18 382.82 30.02 383.57 29.88 385.68 30.16 386.62 29.89 387.73 29.04 388.89 27.6 389.93 27.19 391.07 27.19 393.16 27.71 394.54 27.65 395.64 27.08 398.02 25.3 399.29 25.06 400.43 25.26 401.78 25.86 403.73 26.04 404.43 26.82 407.36 27 408.11 28.04 409.11 28.03 412.58 27.25 413.11 26.68 412.69 25.17 413.03 24.37 415.42 21.71 417.01 21.23 417.29 19.53 416.89 19.12 416.12 19.56 416.12 20.55 414.81 20.21 414.51 18.29 415.13 15.56 416.37 15.38 417.1 14.79 417.37 13.18 417.5 10.81 418.54 10.22 421.5 10.28 423.01 9.5 424.53 7.62 426.09 4.83 427.42 3 428.94 1.26 430.37 1 431.33 2.08 432.36 4.31 434.11 4.61 435.5 4.12 436.81 2.6 437.78 1.83 439.94 1.94 441.02 3.17 441.97 3.88 445.55 3.96 447.53 3.43 449.11 3.4 450.92 4.04 451.25 5.94 451.44 9.27 453.77 10.13 455.65 11.21 456.02 10.3 456.81 9.43 459.88 9.77 462.52 10.34 463.26 10.35 464.25 9.5 465.1 9.51 466.45 10.79 468.25 10.56 469.97 9.15 470.51 8.99 473.34 9.24 474.83 8.82 475.93 7.35 477.46 7.71 478.82 7.68 481 6.84 482.24 6.92 483.09 8.24 483.73 8.32 488.38 7.91 490.73 8.19 493.21 7.72 494.28 7.76 495.05 8.14 497.14 10.39 498.58 10.68 501.36 10.4 502.58 9.96 502.95 9.16 503.98 8.93 504.74 9.31 506.57 11.6 507.99 12.58 508.71 14.31 510.7 15.12 511.13 15.55 512.24 15.59 512.95 16.76 514.57 18.28 514.83 21.16 514.23 22.08 515.23 24.99 516.93 26.03 515.62 26.63 507.41 27.1 505.45 28.06 503.47 30.59 501.82 32.24 500.44 34.82 498.4 37.44 497.61 38.15 494.75 39.6 493.27 43.96 492.96 45.3 493.04 46.73 494.07 47.31 496.69 47.44 498.33 47.32 499.12 47 500.9 45.4 502.84 44.87 504.52 45.02 506.62 43.47 506.98 41.76 508.36 40.73 509.32 40.73 510.79 41.62 511.88 43.39 512.61 43.57 514.77 41.99 516.39 41.89 517.1 40.45 517.22 37.71 517.78 36.57 518.81 36.13 522.45 36.62 523.4 36.14 529.19 26.18 530.17 24.86 531.4 22.35 533.9 18.34 535.27 16.9 536.66 16.12 537.97 15.82 539.39 15.81 542.05 16.24 542.77 16.77 543.06 18.28 543.52 18.77 545.03 19.23 545.73 18.95 546.41 17.86 547.19 17.64 548.54 18.2 549.96 18.15 551.4 18.62 551.89 18.45 551.86 17.13 552.27 16.68 553.42 16.45 555.54 16.44 557.71 17.61 559.03 17.17 559.88 17.17 560.46 17.97 559.91 19.63 556.49 22.21 556.33 23.43 557.88 24.09 558.1 26.07 558.91 28.02 559.85 28.18 561.61 27.91 562.77 28.33 563.68 29.3 564.3 30.5 564.64 32.43 565.21 32.99 567.89 32.74 568.97 33.15 570.43 35.43 570.47 37.4 569.21 38.61 566.36 40.11 564.96 41.6 563.86 45.77 564.33 46.94 566.09 46.89 567.11 46.32 569.53 46.04 574.74 47.73 575.96 47.57 577.73 46.16 577.82 45.26 576.84 44.05 576.63 42.63 577.98 42.22 578.59 42.52 579.86 43.76 581.35 43.83 585.32 43 586.81 43.06 587.99 44.17 588.03 44.83 586.44 46.37 584.25 49.86 584.03 50.98 585.6 51.78 586.15 50.74 588.47 49.02 589.24 48.95 589.63 49.67 590.25 49.6 591.27 48.77 593.67 48.65 594.62 49.69 593.76 50.14 593.46 50.96 590.38 54.16 588.75 55.32 588.41 56.13 588.31 58.6 586.77 58.58 586.29 59.1 585.35 62.75 583.4 65.46 583.47 67.14 584.61 67.52 585.39 67.28 588.64 67.17 590.34 67.39 591.43 66.84 593.43 67.74 593.33 68.69 592.41 69.38 592.44 69.82 594.02 69.8 595.68 69.47 596.5 71.02 597.17 71.3 600.65 70.22 601.84 70.39 603.08 70.91 603.78 71.62 604.01 73.8 605.2 74.65 607.44 75.37 608.41 76.08 609.74 77.56 612.35 78.47 614.2 79.81 616.81 82.11 617.74 81.98 620.58 80.12 623.18 78.64 624.55 78.1 631.33 75.8 634.46 75.2 637.83 74.39 641.57 72.91 647.93 69.09 652.28 66.65 653.97 66.06 657.07 66.26 658.65 66.68 660.55 67.94 660.68 68.33 661.14 69.69 661.36 71.45 661.07 72.25 659.38 74.29 651.02 80.4 648.91 81.85 646.03 83.43 641.21 89.54 638.96 92.08 637.3 93.48 635.93 94.29 633.72 96.61 629.57 99.22 627.88 99.96 626.27 99.61 625.53 100.21 625.46 102.44 623.63 104.86 621.06 106.66 617.02 108.92 610.52 111.1 607.99 111.79 605.67 113.2 600.72 115.87 600.02 116.75 598.99 117.31 596.54 117.63 590.35 120.71 586.56 122.33 584.94 122.75 581.89 123.04 580.94 123.74 580.17 125.46 578.81 126.58 575 128.52 569.04 131 566.2 132.65 564.26 134.51 561.81 138.55 560.47 140.94 556.41 144.64 553.32 145.8 551.68 146.23 546.73 148.72 544 150.24 541.27 150.72 538.72 150.36 536.85 149.08 535.75 147.26 535.33 145.14 535.15 140.23 534.6 139.01 522.75 126.51 520.38 125.42 519.45 124.47 519.31 123 518.94 122.55 516.45 122.54 515.27 123 513.6 124.24 512.56 124.65 507.55 125.27 503.25 125.46 502.16 125.19 500.01 123.67 498.55 123.88 496.28 125.18 495.06 126.05 494.62 126.94 494.49 129.93 493.29 132.55 493.21 133.75 493.62 135.16 494.22 135.61 497.62 136.65 499.55 136.81 500.36 137.32 500.95 138.48 501.55 138.83 501.75 137.99 502.7 137.81 504.51 138.7 505.95 138.83 507.1 139.37 507.44 140.23 506.74 140.7 503.84 140.42 503.39 140.73 502.88 142.89 502.91 144.01 505.82 145.37 508.11 146.12 510.58 146.44 511.61 146.3 512.48 145.81 514.3 144.15 515.11 142.8 516.56 139.58 518 137.61 518.84 136.92 521.09 135.92 523.34 135.85 524.93 136.64 526.1 137.57 526.46 138.79 525.2 142.11 524.06 143.77 521.41 146.45 519.7 147.65 516.56 149.22 514.41 150.11 512.6 150.42 509.88 150.12 508.59 150.18 504.11 151.12 502.21 152.2 500.42 152.38 498.77 152.1 498.66 151.31 495.56 151.29 492.11 151.01 490.56 150.61 489.92 149.79 490.32 146.99 491.05 145.05 491.05 143.89 490.25 142.86 488.26 142.13 485.84 142.01 483.48 142.85 481.3 144.98 480.15 147.64 478.33 154.74 478.39 156.92 479.54 159.83 481.11 161.17 490.86 166.92 493.09 168.49 497.7 171.72 500.43 173.73 502.97 174.7 506.12 175.01 510.06 174.89 512.54 174.28 516.42 173.87 519.14 173.99 521.14 173.93 524.28 172.93 526.23 171.78 527.57 169.9 527.93 168.63 527.63 165.59 528.96 164.14 530.47 163.47 533.74 162.92 536.66 162.99 541.99 163.53 544.24 164.32 546.23 164.62 547.34 164.45 550.87 163.87 560.62 162.64 566.62 161.69 568.69 161.94 570.3 162.32 572.3 163.06 574.06 163.51 576.13 163.69 578.02 162.91 579.56 160.84 579.85 158.42 579.68 156.66 579.95 154.85 580.73 153.27 582.13 150.99 584.49 148.82 589.37 144.76 591.29 143.52 592.99 141.77 594.07 141.27 596.96 141.62 598.5 140.92 599.17 138.67 600.12 136.29 600.89 135.76 604.79 135.31 609.01 135.79 610.24 135.51 611.08 134.53 611.4 133.02 612.63 130.03 615.83 124.88 617.44 121.79 618.71 119.97 620.61 118.49 624.68 116.2 625.59 115.35 628.94 111.28 634.07 108.25 637.45 106.84 639.34 106.45 641.98 106.95 643.49 108.4 644.18 109.78 644.43 110.94 644.12 114.29 644.57 116.36 645.53 117.39 646.78 117.58 647.66 117.26 649.33 115.98 651.02 115.36 651.93 115.55 652.96 116.31 653.85 117.75 654.5 119.54 654.88 121.17 654.8 122.08 653.58 125.27 653.72 127.33 654.94 127.9 656.28 127.82 657.31 127.36 658.08 126.52 658.46 124.97 660.23 123.81 660.75 123.11 660.93 121.46 660.82 118.72 659.88 115.09 660.47 113.83 661.81 113.19 662.33 112.63 663.28 109.64 663.81 109.01 666.13 108.09 667.22 108.2 668.45 108.9 671.86 115.12 672.63 121.54 673.76 124.17 675.84 129.46 676.23 131.28 675.8 132.61 674.17 134.75 671.93 135.64 669.08 136.1 667.42 136.52 666.09 137.79 665.74 139.05 665.01 144.74 665.18 147.01 666.09 149.25 667.57 151.11 667.85 151.77 668.13 154.61 668.06 156.37 667.32 159.08 667.6 160.48 669.01 160.69 672.18 160.09 673.62 160.08 674.99 160.57 677.54 163.44 678.64 163.76 679.49 163.62 680.79 162.07 681.63 160.49 682.47 155.96 681.91 155.29 680.61 155.16 680.34 154.45 680.43 151.72 679.34 148.85 679.45 146.96 680.15 146.01 682.33 145.06 684.68 145.37 685.85 144.77 686.51 143.47 687.81 142.88 689.54 142.7 689.75 141.05 688.87 138.7 688.91 137.47 689.71 134.36 689.33 132.53 689.51 131.8 690.62 131.42 691.92 131.69 696.03 133.3 699.24 134.8 703.1 137.24 704.65 139.38 705.45 141.45 705.81 144.5 705.6 147.17 705.03 148.79 702.78 151.49 701.9 152.96 701.87 154.08 702.62 156.03 704.44 160.84 705.03 161.75 705.87 162.24 707.31 162.35 712.77 161.92 714.23 162.3 716.52 163.56 717.43 163.77 719.88 163.62 725.71 161.3 727.46 160.89 729.79 160.89 730.93 160.23 731.66 159.12 733.44 159.02 733.96 159.95 733.87 162.16 734.2 162.43 735.8 161.86 737.02 161.94 738.02 162.84 739.15 164.97 740 165.41 743.38 165.06 744.5 165.38 744.97 166.48 744.61 168.03 743.19 169.42 742.42 171.56 742.42 172.65 742.99 175.85 744.13 177.98 744.44 178.97 744.05 181.18 744.02 182.76 744.81 184.31 747.9 186.8 750.11 190.39 752.12 194.25 752.57 196.05 752.36 197.31 751.77 198.22 750.46 199.2 749.03 199.59 746.5 199.94 743.24 200.05 740.86 199.69 738.85 198.64 737.55 197.59 734.85 193.82 732.78 190.76 731.55 189.64 730.04 188.98 728.39 188.73 726.11 188.87 724.07 189.54 721.37 191.23 719.28 193.17 718 195.04 716.96 197.09 716.84 198.2 717.1 201.29 715.98 202.37 714.36 202.7 713.48 203.48 711.91 209.7 711.29 211.23 711.11 212.57 711.87 214.01 712.68 214.59 716.37 216.42 718.51 217.92 721.09 221.79 723.44 224.06 724.3 224.23 726.05 223.99 726.69 224.14 728.46 225.24 730.43 226.91 732.29 229.28 732.44 230.05 732.17 234.83 732.29 235.94 733.47 241.03 733.6 242.47 732.43 244.75 730.58 246.09 729.93 246.79 729.85 247.74 731.8 251.19 732.46 252.61 732.89 254.54 732.84 255.97 732.38 257.52 730.57 259.59 729.57 260.02 728.29 260 726.76 259.59 725.41 258.85 723.99 257.75 722.1 255.63 721.07 255.05 719.89 255.21 719.27 256.83 719.34 259.16 719.03 261.07 718.52 261.94 717.37 262.63 715.07 262.89 713.71 263.35 712.34 265.95 712.62 266.74 714.04 266.95 715.49 267.47 716.64 268.8 716.48 269.21 715.08 269.11 713.96 270.01 711.91 270.68 711.25 271.94 710.24 272.49 710.28 274.55 709.18 275.55 706.05 277.24 705.19 277.41 701.39 275.92 700.69 275.92 700.29 276.53 701.04 278.91 700.24 279.97 699.08 279.67 698.5 279.95 698.2 280.81 696.59 280.73 694.41 279.57 693.29 278.65 691.99 278.46 691.57 278.74 691.28 279.97 691.6 281.99 691.58 284.65 691.81 286.21 692.26 287.07 693.62 288.66 693.86 289.81 693.2 291.5 692.07 292.21 691.26 293.33 690.2 296.66 689.29 298.07 687.94 298.75 686.03 298.89 684.25 298.06 683.55 297.1 682.83 294.36 682.11 289.76 680.79 288.51 680.29 286.23 679.16 283.08 678.32 281.96 678.18 280.45 678.86 279.34 678.96 278.57 677.86 278.24 677.31 278.49 674.98 281.15 672.7 283.38 671.36 284.05 669.88 284.47 668.16 284.65 666.4 284.52 665.31 284.2 659.89 277.54 658.74 274.64 658.85 273.26 659.83 271.25 659.72 270.68 658.91 269.91 656.36 268.37 653.95 266.28 652.2 263.96 651.57 262.7 651.25 260.72 651.35 259.35 652.97 255.56 655.01 253.08 655.85 250.65 656.01 247.18 655.85 246.06 654.96 244.7 653.45 244.36 648.09 242.48 645.4 241.38 642.82 239.74 640.67 238.06 639.25 237.54 637.07 238.14 635.81 237.87 634.85 236.91 634.93 235.13 635.94 233.17 636.96 230.3 636.84 229.31 634.91 228.63 634.7 227.38 633.8 224.98 632.49 224.23 629.97 224.27 626.23 225.06 625.13 225.79 625.52 226.74 624.92 227.57 624.17 229.9 624.28 230.48 625.7 231.79 626.19 233.08 625.74 234.08 623.88 234.49 621.11 234.15 619.52 234.85 616.81 234.87 614.88 233.99 613.2 233.83 612.4 234.03 610.77 234.9 610 234.98 608.49 234.63 608.01 233.62 607.9 231.68 607.12 230.73 606.1 230.56 601.68 230.7 600.31 230.28 598.72 229.23 595.24 224.89 593.8 223.92 592.43 223.46 590.63 223.2 588.43 223.57 586.01 224.6 584.71 225.58 583.44 227.48 583.1 229.3 583.31 231.59 584.46 234.95 584.35 235.74 582.56 237.5 581.93 238.8 580.95 241.75 580.74 244.14 580.78 245.57 579.06 250.82 578.57 252.61 578.84 257.28 579.58 259.84 581.24 262.69 584.81 265.3 585.41 267.4 584.89 270.42 585.02 272.52 584.6 274.17 582.92 276.03 581.61 279.19 580.7 280.35 579.65 280.71 576.63 280.43 575.19 279.9 572.91 280.05 572.03 281.1 572.31 284.01 573.16 287.38 574.38 293.61 577.15 303.7 578.31 306.08 579.75 308.12 581.23 309.59 583.59 311.02 585.34 311.69 588.25 312.25 590.86 312.42 593.56 312.83 597.23 314.57 598.93 316.41 599.4 317.37 599.47 320.33 600.34 321.59 601.71 324.99 603.47 327.86 605.27 329.63 607.58 330.19 611.03 329.78 613.54 330.26 616.77 329.69 617.8 331.25 619.29 332.15 619.66 333.39 619.84 335.17 620.43 336.52 623.53 340.01 625.93 341.37 627.08 344.38 628.67 346.78 628.86 348.5 628.38 352.62 627.11 354.93 625.92 355.88 624.93 356.34 621.28 357.57 619.73 358.39 618.39 359.89 617.48 361.37 616.28 362.48 611.58 364.7 610.49 365.72 609.96 366.87 610.1 368.17 610.73 368.73 611.85 368.9 614.03 368.88 615.19 369.11 617.13 370.35 617.78 372.09 617.22 375.1 617.04 376.87 617.18 379.67 617.45 380.28 621.24 383.37 622.66 385.98 622.66 388.36 621.69 390.57 620.2 391.99 618.29 392.71 614.98 392.67 614.16 393.57 614.02 395.4 613.18 396.89 612.07 397.73 610.59 398.16 609.23 397.79 607.05 395.94 606.2 394.31 604.57 393.45 602.3 391.7 599.33 389.63 597.37 386.72 595.89 384.81 595.09 384.49 591.05 383.79 589.58 383.9 589.16 384.51 589.16 386.32 588.72 387.12 586.35 388.07 584.97 389.79 583.89 391.81 583.43 393.53 582.69 394.54 581.14 395.35 579.52 395.71 577.18 395.57 575 394.9 574.37 394.34 569.13 385.45 568.46 382.82 567.38 381.84 565.38 381.3 564.02 380.56 563.31 379.79 562.19 375.73 561.9 373.28 562.08 370.29 562.69 367.63 563.73 365.22 565.52 362.14 566.82 360.17 567.03 359.25 565.45 357.29 564.82 354.06 563.8 352.05 562.69 350.64 561.49 349.73 559.56 348.75 557.98 348.44 555.98 348.51 554.92 348.92 548.15 354.88 542.47 361.05 540.32 363.76 539.57 366.48 539.18 367.92 538.12 371.14 537.83 373.14 538.01 374.72 539.21 377.26 542.29 380.78 545.17 384.46 547.52 386.64 554.78 392.9 556.61 394.62 557.03 395.7 556.33 397.04 554.95 397.88 554.99 399.7 555.52 401.11 555.73 402.79 555.37 405.56 555.49 407.07 555.1 409.44 554.04 411.86 552.54 413.2 549.86 414.36 548.85 415.09 547.16 417.3 547.31 419.13 548.68 421.2 549.76 424.13 552.04 426.83 553.48 429.42 553.4 430.83 552.67 433.85 552.71 434.62 553.29 435.27 554.27 435.56 556.05 435.5 558.28 434.99 559.78 435.32 560.1 436.9 559.13 438.35 557.92 438.67 556.05 438.35 555.08 438.88 555.06 440.07 554.49 440.41 552.25 440.12 550.63 440.27 550.16 440.74 550.32 441.97 551.45 443.2 552.95 445.94 553.72 448.12 554.15 450.5 553.96 453.46 554.22 455.5 554.78 456.51 555.1 459.47 556.28 460.76 558.35 461.01 559.03 461.32 559.68 463.36 561.16 464.09 561.66 465.15 561.38 466.57 560.24 468.1 560.02 468.83 560.89 469.92 560.87 471.31 560.35 471.73 559.12 471.57 558.58 470.64 556.76 470.22 556.44 468.94 555.97 468.45 554.44 468.52 553.37 469.69 552.42 469.69 542.91 469.13 539.16 468.65 535.81 467.61 533.85 466.17 532.93 463.68 527.05 455.5 524.46 454.55 520.35 455.61 513.3 459.25 509.2 461.96 508 463.28 507.34 465.25 507.52 467.28 508.2 469.87 510.45 473.07 513.07 477.68 513.3 479.87 512.78 481.15 511.63 482.24 510.18 482.94 507.94 483.68 504.24 484.49 499.46 485 497.32 484.65 495.25 483.09 494.27 481.42 490.75 460.06 489.82 459.71 488.61 459.83 487.17 460.69 483.71 463.17 479.67 463.8 477.71 463.68 476.62 463.28 475.93 462.58 475.46 460.96 475.35 458.94 476.16 457.27 478.46 453.98 478.53 452.86 478.08 451.53 476.53 450.15 472.79 448.29 469.53 446.43 468.51 445.24 468.22 444.28 469.41 443.12 471.5 442.91 473.28 443.32 474.63 443.01 475.16 441.52 474.56 438.8 474.56 437.74 475.65 436.06 475.91 433.67 474.71 430.59 473.76 429.62 470.05 429.37 468.03 429.39 467.15 429.18 465.78 428.04 460.32 422.23 459.42 421.38 457.66 420.84 455.73 420.81 454.29 421.19 453.57 422.38 450.87 428.52 449.71 432.87 449.22 435.55 448.7 437.02 447.92 438.18 446.98 438.88 445.65 439.09 444.04 438.84 442.4 438.31 440.06 437.29 437.11 436.34 435.81 436.27 435 436.58 431.18 438.62 429.6 438.65 428.21 437.66 425.46 433.54 424.69 432.58 423.66 431.98 418.31 429.63 415.64 427.88 413.1 426.61 410.35 424.65 408.41 422.74 405.02 418.44 403.66 417.13 401.69 416.11 398.06 414.64 395.02 413.07 393.4 411.65 391.66 409.16 379.6 390.78 374.08 385.01 372.31 382.98 371.32 381.83 369.64 377.84 369.58 375.71 369.86 374.38 370.21 370.69 371.63 368.1 374.09 365.93 378.01 364.03 381.16 362.77 383.4 361.58 388.21 357.42 390.16 355.52 393.88 353.98 398.02 352.16 400.34 350.74 400.75 350.49 402.71 347.53 403.55 343.96 403.2 340.52 400.39 337.01 394.38 333.14 386.32 329.93 381.13 327.47 378.27 324.46 376.55 321.34 374.7 318.44 372.75 316.04 370.35 313.91 367.47 313.29 358.73 312.84 351.02 312.83 336.89 313.81 335.09 313.34 333.86 312.33 329.38 307.79 323.18 303.47 319.92 302.8 318.19 302.43 314.31 302.49 309.66 303.04 303.44 305.82 300.89 308.71 294.79 318.41 291.64 322.22 291.08 323.81 291.2 324.92 291.54 327.57 291.43 329.37 290.92 330.82 289.38 332.37 286.21 334.49 283.65 335.79 280.94 336.78 274.01 337.79 271.76 338.26 269.05 338.48 263.5 338 260.86 338.14 259.19 338.74 257.45 340.19 256.15 341.91 255.48 343.77 255.15 347.02 256.07 350.97 256.28 352.68 255.08 355.19 253.68 356.33 252.21 357.03 247.63 358.02 246.85 359.36 246.89 361.19 247.38 361.85 249.32 362.31 249.75 362.81 249.85 364.1 249.06 367.79 249.25 370.34 249.96 372.77 249.35 373.71 248.03 374.24 247.59 374.85 247.71 377.04 248.37 378.4 250.23 384.82 250.45 386.01 250.55 389 249.75 390.58 248.84 390.69 244.41 390.57 240.08 391.35 238.39 391.36 232.82 389.68 231.78 389.22 230.08 387.36 228.15 386.35 225.84 385.6 222.14 382.26 220.97 382.09 219.78 382.5 218.74 383.22 217.47 385.45 217.2 387.53 217.64 388.26 219.91 389.38 220.8 390.04 221.84 391.86 223.01 393.12 226.39 395.49 227.14 396.24 229.59 399.48 233.13 402.58 234.13 404.02 234.74 405.43 234.96 406.98 234.24 408.66 231.17 409.93 228 411.36 226.07 412.5 222.27 413.53 220.53 414.46 218.6 416.32 217.87 417.45 217.23 419.3 217.52 420.97 218.17 422.1 219.03 422.76 221.46 423.41 222.27 423.94 224.36 426.3 225.21 426.96 226.4 427.31 228.02 427.34 231.34 426.48 232.53 426.52 233.24 427.04 234.01 428.27 234.29 429.55 235.2 430.52 237.84 431.22 239.32 432.23 241.89 432.33 245.11 433.5 246.16 435.03 245.7 436.96 244.23 438.26 243.79 439.03 243.39 441.78 242.49 442.88 241.41 443.52 239.8 445.53 239.35 445.75 236.58 444.96 235.62 445.19 234.54 445.93 233.98 446.91 233.37 449.27 232.8 450.32 232.06 450.82 228.56 452.09 225.95 453.68 224.22 456.53 223.55 457.08 217.23 458.09 215.7 458.59 208.94 463.36 206.82 464.49 205.37 464.9 202.99 464.74 200.5 464.11 192.79 458.06 187.18 451.41 183.82 445.41 183.41 442.41 183.71 440.44 185.09 437.26 186.71 434.37 186.54 433.15 185.56 432.58 183.19 432.24 179.42 432.3 176.82 433.23 171.72 435.73 166.97 437.59 161.47 438.36 156.08 438.37 153.02 438.67 151.28 439.53 148.38 443.21 145.43 446.57 142.77 448.59 139.36 450.28 129.39 452.54 128.7 453.64 129.62 455.15 130.15 457.62 129.62 462.2 128.28 465.03 126.73 466.24 123.08 467.23 118.98 467.29 111.7 467.79 106.5 468.89 103.03 469.12 98.17 469.07 93.37 468.61 92.16 468.03 86.16 463.35 80.04 457.37 79.4 452.8 78.93 452 77.9 451.42 76.05 451.3 73.4 451.53 70.58 452.11 69.07 452.8 67.23 454.19 65.31 460.48 63.41 463.72 62.03 464.9 57.3 467.44 49.4 472.92 43.8 475.17 41.79 475.22 39.76 474.75 38.5 474.17 36.24 473.88 33.42 474.45 30.94 475.55 28.83 477 27.71 478.76 26.46 480.34 24.02 482.27 22.07 482.9 19.35 483.13 17.67 483.99 14.96 484.5 13.53 484.33 12.83 483.4 12.78 482.19 15.39 473.33 15.36 472.41 14.02 471.01 11.17 469.04 10.01 467.54 9.12 465.05 8.91 462.25 9.15 460.52 10.69 457.23 10.65 456.5 7.5 452.88 6.66 451.04 5.76 446.83 5.09 440.9 5.06 437.78 5.72 434.36 8.14 431.21 11.46 428.51 12.97 427.88 14.48 427.78 16.54 427.92 17.63 427.12 17.8 424.4 17.57 421.17 17.94 419.59 18.36 419.03 20.57 417.81 24.52 416.83 29.29 415.5 30.96 414.81 32.12 413.37 32.94 410.25 33.28 407.96 32.75 406.87 30.4 406.67 27.32 407.96 25.31 408.5 23.65 408.42 23.29 408.15 22.32 405.86 21.69 403.47 21.72 402.24 22.12 401.33 22.81 400.74 25.63 399.41 28.07 397.68 30.25 396.36 32.35 395.63 33.75 395.44 36.73 395.76 38.39 397.89 39.09 397.87 39.92 397.24 41.23 394.91 42.63 392.84 43.92 389.27 45.25 386.32 46.08 385.24 46.92 384.68 48.64 384.15 51.34 384.19 54.11 383.88 56.04 382.83 57.61 382.3 59.23 382.2 60.2 381.84 62.49 380.27 65.47 379.75 66.06 379.01 66.78 375.46 67.53 374.16 76.15 365.1 77.12 362.91 77.01 358.06 74.58 354.25 73.55 351.59 74 349.04 78.05 341.13 78.81 339.79 79.58 337.35 76.59 335.09 76 334.28 75.78 332.95 76.4 330.87 77.51 329.78 130.27 312.66 131.47 312.77 132.42 313.32 134.67 316.54 145.42 313.4 165.96 311.26 171.35 313.49 172.23 317.71 170 327.33 163.2 333.83 148.96 333.6 145.52 335.52 145.41 338.51 148.74 342.98 152.65 343.43 193.01 321 232.09 299.27 236.09 295.69 241.22 291.65 245.09 284.84 245.96 282.08 245.76 279.13 245.49 278.57 244.16 275.87 241.9 273.45 238.87 270.94 236.04 269.36 232.73 268.27 214.37 265.81 211.18 265.07 195.75 258.4 191.92 256.65 185.02 254.57 177.53 254.18 172.24 254.42 169.01 255.36 159.4 259.08 157.14 260.76 154.11 263.37 153.13 266.59 150.64 268.12 148.21 269.04 142.58 269.4 137.2 269.16 134.39 268.78 120.44 261.23 111.3 255.69 106.34 252.23 104.02 247.52 103.91 245.09 105.64 242.09 107.08 239.31 107.38 235.09 106.22 227.84 104.84 225.53 103.62 222.81 101.94 216.17 100.56 213.34 98.72 211.38 95.93 209.99 87.1 207.36 86.87 206.43 87.91 204.24 93.16 198.52 104.09 186.06 108.08 184.21 119.46 181.25 120.8 180.85 131.09 177.74 133.4 176.75 135.48 175.6 138.81 171.94 143.95 164.17 150.08 153.23 155.87 146.98 160.63 143.96 163.63 142.45 170.82 139.66 179.04 137.33 182.05 135.35 187.26 125.69 192.94 116.54 199.42 110.51 206.85 105.18 209.62 101.99 210.33 95.4 211.13 91.46 212.65 90.53 217.04 90.75 230.2 93.67 232.68 95.33 236.49 99.76 238.42 103.43 239.26 104.18 241.46 104.49 244.22 104.22 245.68 103.12 246.94 100.51 247.1 99.31 246.91 98.37 245.82 96.21 245.82 94.75 246.16 94.3 249.56 93.1 250.97 92.31 254.2 88.96 254.7 87.28 254.38 86.06 253.46 84.43 250.97 81.47 249.56 79.46 248.83 77.64 248.73 76.73 249.17 75.19 249.71 74.62 251.6 73.67 253.27 73.2 259.96 74.21 266.71 74.96 271.84 75.77 275.02 76.65 277.85 77.06 279.16 77.47 282.07 78.78 283.27 79.15 284.9 79.29 286.38 79.13 287.99 78.63 290.19 77.68 292 76.51 293.27 74.92 293.68 70.27 294.13 68.36 295.59 65.56 296.26 64.78 299.14 62.52 302.21 60.53 304.6 59.83 307.86 59.38 310.16 58.93 312.56 58.29 314.3 58.88 315.45 59.72 316.88 61.56 318.57 62.31 320.48 61.95 322.13 61.04 324.9 59.11 326.53 57.75 328.83 55.02 Z M 258.87 463.45 263.54 466.51 264.95 466.32 266.19 465.2 268.2 464.84 269.95 465.44 270.29 467.11 272.01 468.26 271.91 469.2 270.18 469.59 269.8 470.18 269.74 471.38 269.26 472.28 267.02 472.84 266.41 473.68 266.19 475.25 265.48 475.86 264.53 475.53 264 474.62 262.28 472.43 261.01 472.2 260.42 472.53 260.46 473.55 259.79 473.56 258.33 472.99 257.14 473.35 255.82 475.03 255.12 475.41 255.16 476.93 253.57 476.93 252.84 477.19 251.59 479.29 249.92 480.52 248.23 480.89 247.34 481.63 245.94 481.74 245.67 480.9 246.56 479.81 245.92 479.43 243.54 479.83 241.89 479.33 241.58 478.72 241.45 476.95 240.63 476.15 240.38 474.96 241.73 474.24 243.03 473.97 244.48 474.28 245.64 473.98 247.28 470.37 248.05 469.43 249.08 469.03 251.18 468.97 253.23 468.71 254 468.33 255.16 466.06 255.26 464.38 254.76 462.97 253.17 461.43 252.49 461.19 249.16 461.68 248.79 461.54 247.78 460.11 246.71 459.3 246.59 458.57 247.05 457.8 247.82 457.59 249.46 457.89 250.64 456.71 250.9 455.12 252.29 454.25 252.39 452.82 251.26 452.16 251.06 451.39 251.67 448.99 252.8 447.86 254.9 447.13 257.36 446.88 259.36 447.17 260.34 446.91 261.67 445.58 263.01 445.11 264.18 445.42 265.16 446.6 265.26 448.28 264.08 450.03 260.64 451.72 260.74 452.34 261.72 452.59 263.73 452.33 265.05 452.68 265.67 453.25 265.47 454.12 261.93 455.61 258.64 456.28 257.26 457.93 256.8 459.56 257.06 461.25 258.87 463.45 Z M 398.59 454.66 397.91 456.48 395.54 459.19 388.29 464.06 386.6 465.08 385.91 466.1 387.38 470.3 388.4 470.07 389.19 468.49 392.6 465.88 396.56 464.07 401.54 463.17 405.49 463.86 407.53 463.86 410.82 461.37 414.89 460.02 418.05 459.91 419.2 460.93 419.99 462.63 422.47 462.19 426.99 461.97 429.6 464.01 430.06 466.06 427.11 470.59 425.53 472.29 423.38 472.62 419.42 471.71 416.7 471.7 408.21 479.06 407.07 480.53 407.53 483.03 409.68 488.03 415.46 497.45 416.13 500.29 414.66 501.98 411.61 501.86 406.85 499.14 400.17 493.11 396.89 490.73 396.09 490.61 396.09 492.65 398.59 496.63 400.28 500.72 400.28 504 399.72 505.82 397.46 506.27 395.42 505.24 391.57 500.48 390.55 500.25 389.19 501.38 386.25 505.34 383.76 505.68 381.03 504.66 379.34 503.41 375.82 503.52 369.59 501.93 366.99 498.75 366.99 493.98 368.59 491.37 372.89 488.88 374.92 485.94 376.17 473.46 376.28 470.62 374.59 468.92 374.01 466.77 374.93 462.46 375.26 457.58 373.12 453.15 370.4 451.34 368.8 451.68 368.91 455.31 368.01 457.69 364.72 459.62 361.44 460.97 360.08 461.99 354.16 462.17 352.41 461.55 351.87 460.59 349.89 453.06 349.89 451.78 350.23 450.52 351.19 449.33 358.53 444.4 361.07 442.98 363.11 442.59 363.11 441.68 360.22 440.71 359.71 439.98 360 438.84 362.03 437.03 362.27 435.66 361.36 435.04 358.13 434.08 356.59 433 356.42 431.64 357.1 430.45 359.15 428.91 364.99 426.93 366.57 425.92 369.24 425.52 370.93 424.78 371.79 422.63 373.31 421.78 374.05 422.06 375.24 424.05 376.82 424.17 378.75 424.62 380 426.04 380.22 428.14 379.37 430.74 377.33 432.84 376.76 434.48 376.82 436.47 377.68 437.66 383.5 441.18 384.19 442.15 384.12 443.73 384.91 444.74 384.75 445.55 384.03 445.89 383.84 446.81 385.38 448.9 386.5 449.98 389.68 451.51 390.63 451.01 391.2 449.36 392.28 447.78 393.92 447.27 395.68 447.55 396.97 448.69 398.46 451.58 398.59 454.66 Z M 610.56 76.81 608.84 76.08 606.53 73.71 606.58 72.75 607.57 72.5 607.44 70.85 608.57 70.83 608.63 69.62 607.19 68.45 605.39 68.18 604.69 66.43 604.48 64.92 605.36 64.63 605.97 65.95 607.4 66.05 608.17 64.87 609.01 64.93 609.44 65.87 610.97 66.41 611.8 64.67 614.19 64.47 614.38 65.49 615.03 65.41 615.54 66.05 615.43 67.5 615.73 68.22 617.39 68.3 617.95 67.32 616.67 66.36 617.08 65.35 617.76 65.13 618.98 65.33 619.28 65.07 619.32 63.35 620.47 62.86 621.31 63.12 621.79 62.67 621.99 61.08 623.59 59.79 624.25 58.08 624.32 56.89 623.57 54.64 623.53 53.83 624.12 51.58 623.96 50.9 623.06 50.21 622.61 49.35 623.51 47.81 624.54 47.63 629.2 49.72 632.23 51.23 634.74 55.03 634.59 56.05 633.81 56.47 633.72 57.03 634.66 57.84 635.66 57.27 637.08 57.09 640.28 59.61 640.28 61.03 637.63 62.08 637.04 62.61 636.65 63.96 634.91 65.24 633.95 66.5 633 67.15 629.67 68.23 627.88 68.24 627.44 68.68 626.38 71.21 625.88 71.8 623.86 71.92 620.58 69.9 619.65 69.81 618.16 70.74 618.16 72.48 617.79 73.11 615.97 74.53 614.95 74.9 611.48 76.7 610.56 76.81 Z M 617.6 40.74 616.7 40.66 615.16 39.86 613.81 39.65 611.77 40.02 610.94 39.76 610.76 38.9 611.92 34.69 610.92 34.36 610.4 35.33 609.68 35.94 607.53 36.64 604.37 38.48 603.03 37.7 600.55 37.79 599.66 38.32 598.63 38.38 597.09 37.75 596.45 37.86 594.3 39.36 593.58 39.43 592.6 38.26 592.7 37.17 594.37 35.34 595.23 33.66 595.14 31.88 596.52 30.9 599.2 30.95 600.23 29.45 601.6 29.15 601.94 29.74 602.02 31.14 603.57 30.98 603.81 30.38 602.62 28.89 597 23.79 593.72 20.96 593.7 19.72 594.27 19.23 595.52 18.96 599.91 18.74 599.86 17.4 599.07 16.46 596.94 15.06 596.03 13.23 596.04 12.3 597.25 10.98 598.08 10.62 599.28 9.49 600.88 9.37 602.3 9.8 603.62 10.7 603.71 11.83 602.81 12.94 603.05 14.09 603.54 14.21 610.65 15 616.93 15.4 618.16 13.72 621.62 15.42 622.42 15.43 625.68 14.69 627.3 14.51 628.93 15.64 630.96 14.91 633.2 15.29 634.29 15.74 634.85 16.4 634.51 17.22 632.97 17.26 631.93 17.61 630.77 18.87 628.98 19.61 627.49 20.55 625.95 20.46 623.21 18.46 622.79 18.87 623.21 19.89 622.77 20.87 620.8 20.85 620.25 21.09 619.03 23.07 617.05 24.15 615.82 24.3 614.64 23.45 612.3 21.3 610.29 19.82 608.32 19.41 606.22 19.58 605.31 20.55 604.57 21.92 604.54 24.18 605.32 24.58 606.75 24.59 607.97 24.97 608.78 25.54 609.17 29.05 609.89 29.87 612.59 32 615.06 34.28 616.1 34.51 617.79 33.74 618.79 33.97 619.66 35.51 618.9 38.72 618.22 40.26 617.6 40.74 Z M 204.82 491.52 203.8 491.13 201.86 489.06 201.2 487.92 199.46 487.7 198.37 487.31 197.73 486.27 196.73 486.23 195.75 485.77 194.68 484.42 194.73 482.52 195.31 481.08 195.59 479.65 196.57 478.17 197.69 477.52 198.48 475.8 200.04 475.01 201.3 473.62 202.05 474.19 203.29 473.86 205.79 474.9 205.82 476.7 207.48 477.61 207.3 478.59 207.89 480.32 206.76 480.85 206.46 482.85 207.76 483.84 208.74 482.64 210.19 482.87 211.18 484.21 211.18 485.11 210.5 486.22 210.71 486.85 210.42 488.22 209.15 489.47 204.82 491.52 Z M 108.12 506.21 106.86 505.7 106.66 504.52 105.87 503.79 105.39 504.54 103.96 505.43 103.26 504.26 103.2 503.35 103.63 502.49 103.22 501.03 101.44 500.47 100.01 500.64 98.39 501.59 98.15 502.77 96.11 504.02 93.51 503.64 93.31 502.16 94.1 500.92 94.35 498.61 93.77 496.83 94.41 495.51 94.54 492.76 95.17 492.35 97.35 493.08 98.66 494.34 99.78 494.85 101.14 496.56 101.93 498.1 103.12 498.84 103.98 498.85 104.91 497.63 106.88 497.83 108.18 498.6 109.35 500.11 111.34 500.14 112.72 501.26 112.81 501.81 112.22 502.75 113.66 502.89 113.85 503.6 111.32 504.73 111.26 503.66 109.82 502.47 108.99 502.55 108.28 503.53 108.31 504.43 108.84 505.38 108.12 506.21 Z M 599.88 400.9 601.51 400.17 603.75 399.72 605.4 398.74 607.21 399.21 607.23 400.5 606.42 401.43 607.3 401.94 607.57 402.55 608.61 403.09 609.08 404.21 608.61 405.28 607.34 405.11 607.21 406.25 606.44 406.4 606.46 407.11 607.57 408.18 607.25 409.07 607.64 409.76 609.21 409.93 609.94 410.39 609.8 411.88 610.01 413.75 609.76 414.22 607.57 414.03 606.85 415.04 607.45 416.28 607.62 418.08 607.09 419.63 607.04 421.09 606.33 422.26 605.78 422.42 603.65 422 603.18 421.55 601.95 421.55 599.4 422.32 598.91 422.97 599.03 425.46 598.09 426.84 597.25 427.29 595.4 427.16 594.1 426.1 593.94 424.51 594.41 423.69 595.32 422.91 595.13 421.97 593.33 421.42 591.67 421.27 589.55 420.55 585.52 417.96 584.98 416.43 585.86 415.12 585.97 413.63 585.32 411.35 585.87 409.6 588.6 406.22 591.94 403.89 593.14 403.63 593.81 403.87 594.59 404.75 595.4 404.94 596.75 404.01 599.88 400.9 Z M 641.79 289.79 638.09 289.26 634.86 288.52 632.63 287.69 631.15 286.68 629.98 286.77 628.64 288.47 626.85 288.79 623.84 287.64 620.35 284.91 615.91 278.5 615.36 276.37 615.33 274.23 616.42 272.44 619.29 270.28 619.52 269.7 618.33 267.31 618.39 265.75 618.86 263.79 618.88 262.49 618.39 260.33 617.06 259.27 617.24 258.64 618.37 258.15 618.88 257.58 618.63 255.93 617.65 255.96 617.5 257.52 616.31 257.52 615.14 257 614.18 255.91 614.12 255.25 615.36 254.41 614.67 253.55 614.56 252.76 615.63 251.98 617.05 252.1 617.13 250.89 617.56 249.56 617.33 248.9 616.31 248.09 615.27 246.74 612.99 246.08 612.19 244.75 612.04 241.61 612.1 239.77 612.54 239.04 613.74 238.66 615.75 238.66 617.59 239.25 619.24 239.27 620.36 238.38 621.55 238.14 625.07 239.24 627.83 238.63 631.65 240.32 633.56 240.47 634.91 241.24 635.5 242.91 634.46 245.33 635.38 247.21 635.09 250.18 635.31 250.98 636.22 251.44 638.03 253.52 639.33 256.76 639.77 259.55 639.13 260.07 637.77 260.25 637.47 260.68 638.2 262.41 637.9 264.12 638.07 264.78 639.17 264.89 641.58 265.58 643.81 266.61 647.63 269.26 648.67 270.38 648.98 271.33 647.46 273.76 647.36 274.78 648.46 277.32 648.08 278.61 646.85 279.14 646.44 279.86 646.96 281.07 646.49 282.28 643.96 283.04 643.81 283.53 644.53 284.51 644.94 285.89 644.59 287.74 643.23 289.5 641.79 289.79 Z M 550.51 512.9 552.13 511.19 553.05 509.39 553.53 508.91 555.69 508 556.56 507.12 557.86 506.56 561 506.01 562.95 505.31 563.78 504.2 564.01 503.18 565.26 501.66 566.51 501.24 568.45 501.61 569.79 503.74 570.58 504.29 573.44 505.77 574.42 506.46 575.2 507.75 576.08 510.71 577.42 511.77 577.7 512.38 577.15 513.49 575.84 514.18 575.29 515.1 575.25 516.03 575.66 516.96 577.19 518.94 577.56 521.35 578.87 524.99 578.32 525.87 574.6 526.38 568.4 526.71 567.47 526.67 566.83 525.46 567.11 524.05 565.68 523.87 564.19 525.84 561.88 527.5 562.29 529.86 561.93 531.02 559.94 533.32 557.81 534.58 555.77 535.32 553 535.45 552.42 534.7 554.15 531.92 555.94 529.42 555.42 528.39 552.78 528.09 549.8 527.54 548.98 527.23 548.54 526.2 549.22 525.05 550.17 525.3 551.1 523.19 550.56 523.11 549.81 523.71 547.64 524.41 546.95 524.04 546.35 522.56 546.22 520.77 547.64 516.78 549.49 513.96 550.51 512.9 Z M 90.42 533.9 89.46 532.7 85.76 530.51 85.33 529.65 85.17 528.32 85.6 527.3 87.11 525.94 89.37 524.62 92.28 524.45 93.87 525.98 95.28 525.58 95.85 524.05 98.2 523.97 98.85 522.7 100.02 521.92 99.99 521.45 98.05 519.67 98.5 518.14 98.58 517.02 98.99 516.52 100.29 515.96 101.45 515.88 104.41 517.19 105.74 516.61 108.59 518.21 109.22 519.12 107.57 520.57 105.91 520.92 104.2 520.86 103.87 521.22 103.68 524.88 104.72 524.87 105.84 525.48 106.43 527.14 106.71 528.85 106.37 529.49 103.68 528.97 101.16 530.91 99.28 530.58 96.21 530.64 94.75 530.35 94.01 530.72 93.23 532.78 92.32 533.55 90.42 533.9 Z M 266.62 399.24 269.81 399.77 270.55 399.42 272.47 399.07 274.23 399.35 277.09 401 278 402.69 277.93 405.46 276.21 409.36 276.27 410.22 277.68 411.37 280.49 415.45 280.21 416.72 278.99 417.55 279.12 419.15 278 420.52 277.4 422.21 276.14 422.5 274.84 422.35 273.46 421.17 271.12 419.9 270.54 418.87 270.26 417 269.67 415.69 267.99 413.82 268.03 413.05 268.6 412.31 268.56 411.67 267.89 411 265.71 410.4 264.76 411.56 263.8 411.3 263.46 409.9 262.59 408.47 261.11 406.72 259.49 405.66 255.78 405.9 254.53 405.81 253.86 405.07 252.52 402.72 252.42 401.98 252.9 401.28 254.25 401.15 254.49 399.14 254.89 398.66 256.33 398.59 259.17 399.51 261.02 398.67 266.62 399.24 Z M 691.56 322.41 691.19 320.47 691.21 319.09 691.82 318.02 692.99 317.43 695.63 317.15 696.72 317.23 698.68 316.85 699.46 317.41 698.55 318.32 701.28 319.98 701.79 321.02 702.54 323.38 703.53 324.27 703.31 325.77 702.4 325.79 702.04 327.13 703.81 328.74 704.16 329.68 705.19 330.17 705.06 331.1 703.56 331.12 701.59 331.55 700.92 333.37 701.17 335.97 700.24 336.43 698.32 335.78 696.99 334.57 696.85 333.75 697.2 332.16 696.97 330.79 696.17 329.78 694.98 329.32 693.53 327.78 692.97 326.89 692.55 325.12 691.82 324.16 691.56 322.41 Z M 602.31 306.52 602.88 305.4 603.42 302.52 604.45 301.85 605.26 302.25 608.27 305.49 610.17 305.93 611.15 307.42 612.56 309.16 613.63 309.97 614.75 311.24 614.97 312.45 613.83 313.74 613.97 314.8 614.77 316.14 614.17 316.71 613.1 316.14 610.6 316.3 606.1 315.07 604.05 312.12 601.86 309.2 601.61 307.89 602.31 306.52 Z M 273.13 371.79 271.64 371.8 269.46 370.67 268.14 370.55 267.1 369.79 266.7 368.62 266.94 367.61 267.71 366.11 266.38 365.69 265.75 365.11 264.5 361.22 263.83 360.6 262.72 360.38 260.94 360.46 259.75 359.79 259.91 358.51 261.31 357.43 266.43 356.63 270.44 355.44 276.5 354.42 277.58 356.11 278.78 356.45 278.56 357.36 277.53 358.57 274.45 360 273.27 361.33 271.4 361.82 271.15 362.46 272.13 363.88 272.87 363.76 273.47 362.58 274.56 361.79 276.25 361.61 278.19 361.73 279.12 362.27 279.33 363.57 279.89 364.43 280.7 364.9 282.74 365.38 283.41 366.15 283.13 367.69 278.95 369.96 276.77 371.29 273.13 371.79 Z M 607.02 275.39 605.33 275.09 604.8 274.6 604.8 273.25 605.44 271.23 605.21 270.43 604.12 270.13 602.39 270.1 601.64 269.38 600.85 263.3 600.02 261.83 599.19 260.97 597.57 260.11 595.89 257.97 594.76 257.33 594.38 256.62 594.71 255.87 597.17 254.43 598.52 252.59 599.2 250.6 599.15 249.09 599.76 247.4 603.26 245.29 604.69 245.21 607.28 247.2 607.82 248.37 607.54 249.42 606.58 249.72 604.54 248.9 603.71 248.97 603.59 250.4 604.45 251.57 604.65 253.63 605.48 254.94 606.69 255.62 607.06 256.86 608.04 257.31 609.39 258.4 609.36 260.5 607.77 262.2 607.36 263.1 608 264.42 608.26 268.51 609.58 271.55 609.62 273.89 608.67 275.01 607.02 275.39 Z M 647.39 311.66 646.27 311.55 644.5 309.98 642.99 310.04 640.72 310.61 638.92 310.59 638.18 310.14 637.49 308.65 636.24 307.09 635.84 305.77 636.53 303.61 636.41 303.23 634.66 302.13 634.26 301.13 634.66 299.39 633.52 297.91 632.49 296.16 632.07 294.8 632.29 294.02 633.17 293.14 633.86 291.88 634.83 291.31 636.95 291.22 638.98 290.42 640.98 289.96 642.89 290.21 645.35 290.92 646.38 291.49 647.04 292.6 647.52 294.88 648.39 295.68 648.93 297.96 650.62 299.1 652.96 300.98 653.44 301.63 652.98 304.46 652.68 307.71 651.89 308.4 650.59 308.68 649.5 309.71 649.25 310.77 648.42 311.43 647.39 311.66 Z M 692.42 128.4 690.18 128.36 688.34 127.38 687.65 126.18 687.73 124.52 688.26 121.22 687.91 120.02 687.05 118.78 686.58 114.84 685.26 113.43 685.55 111.93 685.12 110.48 684.23 109.32 682.04 108.04 681.74 107.22 682.38 105.9 684.95 104.52 685.68 103.84 687.49 101.05 688.86 100.02 690.22 99.72 691.56 99.98 693.35 101.05 694.69 100.96 695.97 101.34 697.17 102.79 697.33 104.93 696.31 106.69 695.92 108.87 696.35 109.56 697.94 110.2 699.44 111.14 700.56 112.89 700.64 115.46 699.95 118.03 696.74 120.48 696.35 121.38 696.57 124.33 694.99 127.11 692.42 128.4 Z M 85.65 514.62 84.06 514.05 83.78 513.52 85.33 513.01 87.38 512.96 88.21 511.56 89.05 511.59 89.46 512.51 88.92 514.19 88.39 514.37 87.96 513.55 87.3 513.49 85.65 514.62 Z M 637.04 52.59 635.88 52.07 635.46 51.04 634.71 50.57 632.3 50.13 628.7 47.59 626.56 46.33 622.72 45.23 621.98 44.28 621.44 39.98 621.65 38.31 622.95 36.45 624.2 35.5 625.64 35.66 627.93 37.28 629.21 39.62 631.35 42.29 633.41 42.38 634.55 41.79 635.25 40.4 635.06 38.45 634.93 34.45 635.56 32.83 636.86 32.09 638.46 32.24 639.72 33.96 640.7 35.88 641.07 37.91 640.64 39.86 638.9 41.76 639.06 45.24 639.42 47.02 639.89 48.2 639.85 49.87 638.69 51.97 637.04 52.59 Z M 539.22 505.13 538.31 504.32 538.79 502.46 538.66 501.9 537.43 500.79 537.4 498.95 537.92 496.42 537.98 494.53 537.21 492.36 537.57 491.69 538.98 491.02 543.41 490.55 550.42 489.05 552.98 489.1 554.01 489.71 555.13 491.64 555.82 494.78 555.69 497.37 554.87 499.37 553.62 500.98 552.31 501.9 547.39 503.9 546.55 503.85 546.38 502.65 541.94 501.06 540.85 501.4 540.9 503.74 539.85 504.83 539.22 505.13 Z M 460.22 434.48 458.88 434.17 457.94 432.47 456.64 431.29 456.73 429.95 457.92 428.4 459.72 428.44 461.26 429.13 463.05 429.31 465.52 428.59 467.18 429.56 467.09 431.21 465.24 432.75 464.11 432.96 462.68 432.62 461.69 434.07 460.22 434.48 Z M 676.49 406.55 675.43 405.88 675.18 405.09 675.32 402.69 674.87 401.73 675.02 399.73 676.06 399.6 678.05 400.15 678.92 398.8 678.77 396.75 678.97 395.92 679.79 395.48 680.76 395.79 681.13 396.52 680.91 397.9 681.17 399.3 681.92 400.22 682.07 402.01 681.73 402.66 680.68 403.49 681.3 404.91 681.06 405.62 679.56 405.77 677.45 404.94 677.41 406.2 676.49 406.55 Z M 699.03 307.98 697.73 307.93 694.76 306.11 693.88 305.84 691.69 306.18 690.62 305.26 690.41 304.02 691.36 300.52 690.76 298.63 691.4 296.83 691.34 294.57 692.03 293.66 693.52 293.22 695.47 293.38 696.45 293.9 697.21 292.42 698.63 291.94 700.42 292.41 701.47 293.68 701.94 296.35 701.3 298.58 699.72 300.54 699.91 302.33 700.48 303.35 702.02 304.17 702.21 305.08 701.51 306.05 700.05 306.1 699.89 307.37 699.03 307.98 Z M 62.49 253.51 60.83 253.13 60.45 252.35 61.98 246.75 61.91 244.71 61.26 243.05 59.36 241.87 56.47 240.81 55.91 239.93 55.93 238.75 56.39 237.61 57.19 237.16 58.37 237.03 59.83 237.34 61.08 238.82 62.98 238.82 65.08 239.21 66.65 239.81 67.32 240.55 67.25 241.83 66.51 243.1 65.58 244.02 66.28 245.05 64.68 246.51 64.82 247.96 66.18 248.08 66.47 248.7 64.98 250.52 65.19 251.93 64 253.34 62.49 253.51 Z M 508.72 161.74 508.97 159.74 509.71 159.47 510.22 161.88 509.59 162.75 509.09 164.18 508.45 164.07 508.4 163.11 508.72 161.74 Z M 676 328.79 674.42 328.68 673.07 327.65 671.66 323.64 671.8 321.6 673.85 317.49 675.14 313.67 677.24 311.46 678.8 311.29 681.21 312.51 682.13 312.14 682.98 310.39 683.99 309.24 685.86 308.95 687.58 309.55 688.1 310.9 687.55 312.99 686.32 314.43 684.27 315.12 683.5 315.7 683.27 316.47 683.93 319.11 683.33 321.46 682.15 323.1 680.69 323.85 679.57 324.12 677.67 323.77 677.14 324.54 677.01 327.9 676 328.79 Z M 648.69 259.23 647.25 258.63 646.67 256.13 645.2 253.75 645.07 252.78 645.41 249.67 645.36 248.99 644.62 248.08 644.26 248.17 644.2 250.08 643.04 252.02 642.22 252.37 641.02 252.03 639.02 250.17 638.5 249.25 638.65 244.63 639.72 243.46 641.74 243.23 646.28 245.14 650.38 247.63 650.9 248.28 651.35 251.64 650.32 253.87 650.19 258.18 649.85 258.72 648.69 259.23 Z M 673.76 393.84 672.52 393.53 672 392.91 672.06 390.95 672.55 389.41 672.32 387.7 672.81 386.81 675.43 385.35 675.87 384.56 675.66 383.32 676.19 382.82 677.22 382.65 678.68 383.24 679.35 383.89 679.46 384.61 678.4 385.95 678.47 387.13 677.35 388.59 676.62 390.13 676.72 391.53 676.24 392.51 674.78 393.72 673.76 393.84 Z M 688.16 87.85 687.37 87.6 686.33 85.41 684.05 82.53 683.66 81.7 683.97 81.07 685.68 80.46 685.79 78.93 686.17 77.44 687.49 76.28 689.66 75.42 691.36 75.4 694.88 76.29 695.97 76.19 697.38 75.39 698.04 76.11 697.32 77.52 694.68 80.17 693.69 81.51 693.1 82.8 692.53 85.63 692.02 86.89 691.41 87.36 689.58 87.26 688.16 87.85 Z M 714.39 308.6 711.95 308.16 710.96 308.48 710.06 308.2 708.69 308.31 707.08 307.91 705.78 306.92 705.12 305.35 705.5 303.61 707.14 302.55 708.23 303.19 708.62 304.43 710.81 304.51 711.66 305.81 713.72 306.36 714.63 307.09 714.96 307.84 714.39 308.6 Z M 283.57 401.5 281.72 401.09 281.48 400.41 279.91 400.02 279.18 398.17 279.78 397.28 279.94 396.2 279.67 395.11 280.37 394.22 282.57 393.03 283.23 391.89 284.08 391.54 285.72 391.62 286.53 391.12 288.39 390.52 289.73 390.49 290.96 390.84 291.3 391.79 292.3 392.82 292.37 393.92 291.38 395.28 290.01 398.1 288.74 399.03 287.42 399.38 284.99 401.45 283.57 401.5 Z M 595.18 502.12 592.89 501.85 590.89 500.96 590.09 499.72 589.79 497 588.77 495.54 589.05 494.45 590.04 493.26 590.95 492.77 592.49 493.31 593.17 493.06 593.07 491.82 593.38 490.53 594.16 489.42 595.16 488.99 596.27 489.53 598.13 491.91 598.52 493.57 598.14 495.33 597.7 495.78 597.63 496.74 597.95 497.85 598 499.86 597.65 501.15 596.32 501.87 595.18 502.12 Z M 116.12 537.05 115.49 536.87 115.43 535.91 116.13 534.97 117.19 534.48 117.9 535.42 117.43 535.4 117.03 536.22 116.12 537.05 Z M 506.28 133.83 505.88 132.31 506 131.62 508.47 131.5 510.02 130.26 510.56 131.16 510.3 132.65 510.33 134.58 509.65 135.03 507.96 135.19 506.61 134.49 506.28 133.83 Z M 632.36 234.82 631.78 234.35 631.39 233.03 631.59 231.47 631.99 230.44 633.16 229.22 635.99 229.3 636.41 230.71 635.62 232.25 634 234.24 632.36 234.82 Z M 119.63 506.23 119.14 506.23 118.38 504.91 117.16 503.63 117.55 502.64 118.22 502.67 118.85 503.38 120.41 503.86 120.84 504.48 120.67 505.63 119.63 506.23 Z M 588.3 242.04 587.34 241.94 586.77 241.43 586.27 239.8 585.01 240.16 584.96 239.08 584.38 238.2 584.73 237.22 585.44 237.06 586.95 237.46 589.55 239.75 589.42 241.21 588.3 242.04 Z M 73.6 290.03 72.71 289.15 71.76 288.9 72.05 287.16 71.84 286.01 71.03 284.42 71.24 283.99 74.38 283.83 75.27 284.39 75.67 285.18 74.32 287.32 74.56 288.49 74.36 289.45 73.6 290.03 Z M 638.37 310.78 638.92 311.44 637.95 311.16 638.37 310.78 Z M 792.78 33.62 788 33.47 781.22 30.8 777.72 29.08 775.91 26.32 774.54 20.96 773.88 18.96 774.49 15.11 776.2 12.79 781.6 10.42 783.54 10.47 784.55 11.66 784.68 13.23 784.31 16.36 784.87 19.97 787.29 22.73 789.61 25.11 792.22 25.54 795.82 25.54 798.1 26.5 799 28.02 798.15 30.35 796.2 32.57 792.78 33.62 Z M 592.95 248.68 591.3 248.01 591.41 246.42 592.73 246.01 594.01 244.83 595 244.67 595.66 244.16 596.62 244.19 596.64 244.99 594.84 245.8 594.41 246.31 594.14 248.24 592.95 248.68 Z M 401.02 420.06 398.93 419.54 398.81 419.06 402.55 418.5 403.77 418.6 403.29 419.39 401.02 420.06 Z M 585.18 390.09 585.53 389.3 585.92 390.06 585.18 390.09 Z M 573.05 17.3 572.52 17.01 572.45 15.59 570.62 15.03 568.97 11.73 569.8 11.25 571.14 12.69 573.72 14.83 574.1 15.31 573.91 16.8 573.05 17.3 Z M 579.91 40.65 578.79 40.11 578.69 37.92 578 37.07 578.24 36.24 578.85 36.19 579.85 36.82 580.52 37.93 581.53 37.7 582.37 38.23 582.31 38.83 580.81 40.38 579.91 40.65 Z M 679.2 383.18 678.16 382.73 677.99 381.6 679.56 382.59 679.2 383.18 Z M 635.91 345.51 635.27 345.31 635.64 344.62 636.66 344.64 635.91 345.51 Z M 594.45 57.63 593.53 57.58 592.63 57.11 591.73 55.14 592.09 54.47 593.67 54.21 594.02 55.24 594.64 55.42 596.03 54.99 597.53 55.7 597.64 56.89 596.96 57.19 594.45 57.63 Z M 558.41 23.86 557.31 23.48 557.31 22.68 557.87 21.92 559.34 21.78 560.75 20.82 561.79 20.74 562.5 21.66 562.32 22.41 560.57 23.61 558.41 23.86 Z M 53.69 272.77 52.82 272.23 51.96 270.44 52.42 269.99 54.2 270.85 54.26 272.57 53.69 272.77 Z M 294.79 361.36 293.57 361.11 293.43 360.05 292.58 359.43 293.13 358.61 294.43 358.73 294.94 358.16 296.57 358.53 297.87 359.5 298.03 360.15 296.29 361.15 294.79 361.36 Z M 698.88 315.54 699.37 316.53 698.62 316.26 697.69 315.41 697.98 314.93 698.88 315.54 Z M 93.31 512.07 91.58 511.37 91.88 510.03 92.71 509.69 93.44 510.19 94 511.28 93.31 512.07 Z M 652.78 113.04 651.12 112.17 651.1 111.74 651.97 111.28 651.96 108.53 652.52 107.34 653.18 107.37 654.16 108.66 653.81 112.03 653.32 112.94 652.78 113.04 Z M 736.83 150.91 735.72 150.37 735.73 149.31 736.39 148.53 736.81 148.61 737.32 149.74 738.41 149.61 738.34 150.47 736.83 150.91 Z M 174.15 307.56 172.81 307.41 171.88 306.76 171.43 305.36 171.98 301.14 173.07 300.33 173.91 300.58 173.43 301.33 174.23 302.72 177.46 303.79 177.35 304.57 174.98 307.27 174.15 307.56 Z M 704.62 303.57 703.61 303.03 703.68 301.4 702.85 300.12 703.47 299.11 704.41 299.01 705.23 299.45 706.53 300.91 706.57 302.57 705.26 303.54 704.62 303.57 Z M 617.98 498.04 617.12 497.68 617.08 497.23 618.23 495.17 618.04 494.35 618.62 492.11 619.58 490.99 620.49 491.21 620.45 493.74 618.74 497.6 617.98 498.04 Z M 560.39 15.28 559.8 14.96 559.93 14.27 561.47 13.89 562.49 13.92 562.8 15 561.12 15.01 560.39 15.28 Z M 613.37 249.82 612.39 249.56 611.85 248.78 611.72 247.55 611.09 246.36 611.16 245.81 612.12 245.65 612.92 246.27 614.58 246.74 615.28 248.08 615.09 249.04 614.46 249.6 613.37 249.82 Z M 556.41 153.26 556.07 151.95 556.78 152.65 556.41 153.26 Z M 364.25 367.58 363.75 367.28 363.45 366.34 363.51 364.85 363.99 363.84 365 363 366.17 362.75 367.45 362.91 369.33 364.17 369.81 365.03 369.74 365.79 368.23 366.76 366.5 366.77 364.25 367.58 Z M 460.89 458.77 460.18 458.36 459.22 456.83 458.41 454.54 458.52 453.63 460.06 452.94 461.07 453.04 462.42 453.62 464.39 454.12 465.04 454.64 465.49 456.46 465.01 457 463.52 457.62 461.77 458.71 460.89 458.77 Z M 511.68 468.45 510.46 468.26 508.8 467.17 509.07 466.21 510.45 466.38 512 467.59 511.68 468.45 Z M 119.23 507.77 118.17 506.84 118.83 506.63 119.23 507.77 Z M 596.47 39.54 596.29 38.91 597.29 38.99 596.47 39.54 Z M 516.18 41.15 515.8 40.95 516.23 39.94 516.79 39.86 516.18 41.15 Z M 317.86 368.74 316.29 368.58 315.3 367.56 315.02 365.86 315.38 364.77 317.86 362.91 322.26 361.62 323.03 361.82 323.41 362.63 323.08 364.46 322.26 364.8 322.23 365.65 323.29 366.45 323.41 367.33 323.07 368.05 321.85 368.64 317.86 368.74 Z M 3.57 457.18 2.87 456.91 1.3 455.32 1 453.68 1.41 453.09 3.22 452.99 4.1 453.51 5.95 453.58 6.02 455.19 5.31 456.57 4.63 457.12 3.57 457.18 Z M 547.04 526.99 547.55 526.67 548.65 527.55 548.58 528.56 545.9 529.75 544.74 529.39 545.07 527.98 547.04 526.99 Z M 627.39 343.2 626.57 342.72 626.31 341.87 627.03 341.44 627.95 342.66 627.39 343.2 Z M 656.63 300.17 655.55 299.92 654.94 298.68 655.52 296.51 656.02 296.11 657.51 295.99 658.11 296.97 658.17 297.98 658.8 298.64 658.43 299.98 656.63 300.17 Z M 702.34 310.72 700.78 310.22 700.83 309.64 702.02 309.52 703.06 309.75 703.09 310.61 702.34 310.72 Z M 638.62 344.51 637.01 343.86 637.84 342.77 638.97 342.91 639.92 344.48 638.62 344.51 Z M 495.32 46.84 494.06 46.49 493.84 45.66 495.09 45.07 495.88 46.16 495.32 46.84 Z M 557.44 443.82 555.73 443.58 553.91 443.04 553.26 442.58 553.1 441.6 553.48 441.25 555.48 441.05 558.02 441.48 558.71 442.88 558.27 443.66 557.44 443.82 Z M 393.77 446.2 393.01 446.01 392.55 444.42 392.87 443.05 395.01 441.57 395.78 441.52 396.66 441.95 397.16 443.33 396.3 445.04 394.83 445.93 393.77 446.2 Z M 617.19 81.24 616.76 80.9 617.35 80.23 618.18 79.94 618.35 80.76 617.19 81.24 Z M 619.48 33.86 618.5 33.36 618.16 32.27 618.06 30.09 618.58 28.39 620.13 27.25 621.23 26.78 622.56 26.68 624.08 27.16 625.09 28.25 625.17 29.25 624.55 30.51 621.57 32.97 619.48 33.86 Z M 108.19 526.55 107.67 526.11 108.05 524.98 108.55 525.11 108.74 526.3 108.19 526.55 Z M 698.59 282.42 697.88 281.76 698.9 281.9 698.59 282.42 Z M 630 228.36 628.92 227.78 628.73 226.83 629.55 226.49 630.27 227.69 630 228.36 Z M 631.27 235.2 630.7 235.03 630.42 234.06 631.17 233.5 631.61 234.79 631.27 235.2 Z M 605.9 253.13 605.37 252.81 604.41 250.97 605.26 250.31 606.16 251 607.43 251.48 607.28 252.49 605.9 253.13 Z M 732.86 262.97 732.07 262.67 730.87 260.6 731.01 259.61 732.07 259.27 733.08 259.96 733.52 261.35 733.44 262.87 732.86 262.97 Z M 594.49 263.22 593.73 262.79 593.51 261.87 594.28 260.64 595.13 260.49 595.44 261.17 595.02 262.89 594.49 263.22 Z M 146.2 457.89 145.93 457.24 146.76 456.47 147.75 456.88 147.17 457.69 146.2 457.89 Z M 647.73 315.48 646.95 315.14 647.02 314.6 648.01 314.61 647.73 315.48 Z M 599.96 130.88 599.33 130.17 599.77 129.31 600.36 130.49 599.96 130.88 Z M 597.54 242.6 597.11 242.5 595.2 240.28 595.28 239.71 596.29 239.46 597.82 240.28 598.54 241.39 598.12 242.29 597.54 242.6 Z M 615.52 501.42 614.52 500.91 614.54 499.38 616.25 498 617.11 497.82 617.85 498.32 617.98 498.92 617.14 500.59 615.52 501.42 Z M 701.87 311.81 701 311.72 700.57 310.97 700.93 310.41 702.63 310.96 702.76 311.61 701.87 311.81 Z M 553.28 16.2 553.66 14.63 554.29 15.07 553.28 16.2 Z M 652.88 30.41 652.33 30.28 650.95 29.01 650 27.74 650 27.02 650.76 26.26 651.71 26.08 652.78 26.32 653.65 27.87 653.24 30.17 652.88 30.41 Z M 567.16 27.73 565.83 27.1 565.83 26.59 567.27 26.66 567.16 27.73 Z M 630.95 379.3 629.52 378.97 627.91 377.64 627.59 376.77 627.93 375.66 629.34 374.48 630.59 373.93 632.26 374.43 633.01 376.31 633.04 378.3 632.35 379.05 630.95 379.3 Z M 586.42 40.15 585.28 39.95 585.28 39.1 586.39 38.92 586.94 39.36 586.42 40.15 Z M 647.31 261.69 647.83 262.19 647.09 262.29 647.31 261.69 Z M 706.72 105.25 704.38 104.37 703.81 103.95 703.85 102.95 704.48 102.7 707.6 104.49 707.52 105.23 706.72 105.25 Z M 653.39 115.86 652.93 115.68 652.72 114.74 653.24 114.04 654.14 114.25 654.5 115.03 653.98 115.79 653.39 115.86 Z M 598.67 492.37 598 490.6 598.89 489.21 599.47 489.24 599.89 490.52 599.57 491.7 598.67 492.37 Z M 644.77 257.89 643.12 257.49 642.68 256.86 643.16 256.3 645 256.39 645.35 257.15 644.77 257.89 Z M 673.74 406.12 672.04 405.75 671.41 405.23 671.42 403.79 672.62 403.41 673.94 404.27 674.42 405.03 674.34 406.07 673.74 406.12 Z M 710.64 294.39 709.72 294.08 709.73 293.38 711.24 293.49 711.47 294.1 710.64 294.39 Z M 636.61 330.68 635.72 329.85 635.61 328.65 636.05 328.19 637.03 329.03 637.35 330.18 636.61 330.68 Z M 595.74 48.27 595.41 47.44 596.5 47.69 595.74 48.27 Z M 565.65 13.84 565.29 13.2 566.12 13.35 565.65 13.84 Z M 699.88 311.77 699.35 310.83 700.01 310.37 700.49 310.61 699.88 311.77 Z M 190.13 310.66 189.39 309.77 189.52 309.07 190.33 309.07 190.84 309.97 190.13 310.66 Z M 192.74 301.02 191.89 300.94 191.52 299.96 191.61 297.91 192.69 294.49 194.91 291.88 196.02 291.65 196.76 292.43 196.97 294.03 195.43 297.4 193.54 300.57 192.74 301.02 Z M 703.47 286.97 702.13 286.26 702.58 285.06 703.78 284.73 704.24 285.04 704.46 286.29 703.47 286.97 Z M 591.57 227.69 590.46 227.32 590.59 226.41 592.04 226.76 591.57 227.69 Z M 725.5 212.19 724.51 211.64 724.47 210.7 726.22 210.64 726.38 211.86 725.5 212.19 Z M 371.82 365.1 370.46 363.94 370.46 363.21 371.71 362.64 372.27 362.91 372.69 364.51 371.82 365.1 Z M 575.56 35.84 575.05 35.06 575.79 35.07 575.56 35.84 Z M 745.68 167.38 745.34 167.24 745.49 166.1 746.08 165.86 746.54 166.76 745.68 167.38 Z M 781.04 128.61 779.66 127.64 779.05 126.55 778.97 125.43 779.76 125.44 780.84 126.86 781.31 127.91 781.04 128.61 Z M 576.03 39.95 575.53 39.67 575.69 38.59 576.49 38.6 576.51 39.49 576.03 39.95 Z M 656.6 109.63 655.46 108.9 655.31 108.43 655.93 107.71 656.87 107.86 657.28 108.61 656.6 109.63 Z M 599.71 69.82 599.69 68.85 600.3 69.05 599.71 69.82 Z M 704.39 391.6 703.71 391.34 702.7 389.84 703.01 389.11 704.02 389.34 704.83 390.44 704.87 391.47 704.39 391.6 Z M 700.21 389.24 699.32 388.96 699.22 388.21 699.82 387.85 700.58 388.26 700.21 389.24 Z M 626.86 341.01 626.02 340.39 626.02 339.07 626.69 339.16 627.11 339.8 626.86 341.01 Z M 96.08 511.95 95.29 511.49 95.87 511.19 96.08 511.95 Z M 745.56 169.87 745.29 169.18 745.98 168.85 746.25 169.55 745.56 169.87 Z M 599.39 246.42 598.04 246.09 597.81 245.32 598.63 244.92 599.44 245.2 599.84 246.07 599.39 246.42 Z M 611.11 240.94 610.45 239.9 611.36 239.97 611.11 240.94 Z M 588.7 232.56 588.04 232.26 588.17 231.59 589.13 231.76 588.7 232.56 Z M 69.11 278.6 67.92 278.47 67.27 277.64 67.32 276.29 68.5 274.98 69.68 274.45 70.83 274.53 71.46 274.95 71.67 276.21 70.23 278.06 69.11 278.6 Z M 671.59 394.31 670.82 394.05 670.91 393.39 671.98 393.66 671.59 394.31 Z M 529.27 509.73 528.06 509.11 528.49 508.19 529.55 508.33 530.14 509.19 529.27 509.73 Z M 613.95 252.03 612.83 251.81 613 250.54 614.06 250.66 614.46 251.24 613.95 252.03 Z M 724.97 210.4 723.74 210.15 723.54 209.61 724.09 208.11 725.52 208.22 726.01 208.85 726.08 209.86 724.97 210.4 Z M 569.26 32.44 568.55 31.94 568.86 31.4 569.57 32.06 569.26 32.44 Z M 679.86 289.98 679.52 289.76 679.81 288.73 680.63 288.73 680.73 289.64 679.86 289.98 Z M 591.29 48.59 590.77 48.2 591.56 47.92 591.29 48.59 Z" id="_x9999__x6E2F__x7279__x522B__x884C__x653F__x533A_" class="area active" title=""></path>

</svg>